<svg xmlns="http://www.w3.org/2000/svg" xmlns:xlink="http://www.w3.org/1999/xlink" width="724.321" height="141.795" viewBox="0 0 724.321 141.795">
  <defs>
    <filter id="Trazado_27" x="0" y="0.505" width="131.974" height="139.62" filterUnits="userSpaceOnUse">
      <feOffset input="SourceAlpha"/>
      <feGaussianBlur stdDeviation="7.5" result="blur"/>
      <feFlood flood-color="#061819"/>
      <feComposite operator="in" in2="blur"/>
      <feComposite in="SourceGraphic"/>
    </filter>
    <filter id="Trazado_28" x="104.369" y="0.505" width="108.453" height="141.29" filterUnits="userSpaceOnUse">
      <feOffset input="SourceAlpha"/>
      <feGaussianBlur stdDeviation="7.5" result="blur-2"/>
      <feFlood flood-color="#061819"/>
      <feComposite operator="in" in2="blur-2"/>
      <feComposite in="SourceGraphic"/>
    </filter>
    <filter id="Trazado_29" x="185.217" y="0.505" width="111.762" height="139.62" filterUnits="userSpaceOnUse">
      <feOffset input="SourceAlpha"/>
      <feGaussianBlur stdDeviation="7.5" result="blur-3"/>
      <feFlood flood-color="#061819"/>
      <feComposite operator="in" in2="blur-3"/>
      <feComposite in="SourceGraphic"/>
    </filter>
    <filter id="Rectángulo_33" x="270.106" y="0.505" width="61.906" height="139.62" filterUnits="userSpaceOnUse">
      <feOffset input="SourceAlpha"/>
      <feGaussianBlur stdDeviation="7.5" result="blur-4"/>
      <feFlood flood-color="#061819"/>
      <feComposite operator="in" in2="blur-4"/>
      <feComposite in="SourceGraphic"/>
    </filter>
    <filter id="Trazado_30" x="306.489" y="1.316" width="103.441" height="136.327" filterUnits="userSpaceOnUse">
      <feOffset input="SourceAlpha"/>
      <feGaussianBlur stdDeviation="7.5" result="blur-5"/>
      <feFlood flood-color="#061819"/>
      <feComposite operator="in" in2="blur-5"/>
      <feComposite in="SourceGraphic"/>
    </filter>
    <filter id="Rectángulo_34" x="381.43" y="1.317" width="53.946" height="136.327" filterUnits="userSpaceOnUse">
      <feOffset input="SourceAlpha"/>
      <feGaussianBlur stdDeviation="7.5" result="blur-6"/>
      <feFlood flood-color="#061819"/>
      <feComposite operator="in" in2="blur-6"/>
      <feComposite in="SourceGraphic"/>
    </filter>
    <filter id="Trazado_31" x="406.754" y="0" width="102.28" height="138.964" filterUnits="userSpaceOnUse">
      <feOffset input="SourceAlpha"/>
      <feGaussianBlur stdDeviation="7.5" result="blur-7"/>
      <feFlood flood-color="#061819"/>
      <feComposite operator="in" in2="blur-7"/>
      <feComposite in="SourceGraphic"/>
    </filter>
    <filter id="Rectángulo_35" x="481.578" y="1.317" width="53.946" height="136.327" filterUnits="userSpaceOnUse">
      <feOffset input="SourceAlpha"/>
      <feGaussianBlur stdDeviation="7.5" result="blur-8"/>
      <feFlood flood-color="#061819"/>
      <feComposite operator="in" in2="blur-8"/>
      <feComposite in="SourceGraphic"/>
    </filter>
    <filter id="Trazado_32" x="501.79" y="1.316" width="103.095" height="136.327" filterUnits="userSpaceOnUse">
      <feOffset input="SourceAlpha"/>
      <feGaussianBlur stdDeviation="7.5" result="blur-9"/>
      <feFlood flood-color="#061819"/>
      <feComposite operator="in" in2="blur-9"/>
      <feComposite in="SourceGraphic"/>
    </filter>
    <filter id="Trazado_33" x="558.72" y="1.316" width="108.67" height="136.327" filterUnits="userSpaceOnUse">
      <feOffset input="SourceAlpha"/>
      <feGaussianBlur stdDeviation="7.5" result="blur-10"/>
      <feFlood flood-color="#061819"/>
      <feComposite operator="in" in2="blur-10"/>
      <feComposite in="SourceGraphic"/>
    </filter>
    <filter id="Trazado_34" x="635.053" y="1.316" width="89.268" height="136.327" filterUnits="userSpaceOnUse">
      <feOffset input="SourceAlpha"/>
      <feGaussianBlur stdDeviation="7.5" result="blur-11"/>
      <feFlood flood-color="#061819"/>
      <feComposite operator="in" in2="blur-11"/>
      <feComposite in="SourceGraphic"/>
    </filter>
  </defs>
  <g id="Grupo_2480" data-name="Grupo 2480" transform="translate(22.5 22.5)" style="isolation: isolate">
    <g transform="matrix(1, 0, 0, 1, -22.5, -22.5)" filter="url(#Trazado_27)">
      <path id="Trazado_27-2" data-name="Trazado 27" d="M2453.342,709.511v-94.62h28.788l14.7,69.019,14.7-69.019h28.785v94.62h-16.9v-73.19h-1.838l-16.293,69.015h-16.906l-16.29-69.015h-1.838v73.19Z" transform="translate(-2430.84 -591.89)" fill="#fff"/>
    </g>
    <g transform="matrix(1, 0, 0, 1, -22.5, -22.5)" filter="url(#Trazado_28)">
      <path id="Trazado_28-2" data-name="Trazado 28" d="M2533.633,677.928q0,16.559,14.825,16.557t14.822-16.557V614.891h16.9v62.617q0,17.4-7.9,25.534t-23.827,8.14q-15.927,0-23.826-8.14t-7.9-25.534V614.891h16.9Z" transform="translate(-2389.86 -591.89)" fill="#fff"/>
    </g>
    <g transform="matrix(1, 0, 0, 1, -22.5, -22.5)" filter="url(#Trazado_29)">
      <path id="Trazado_29-2" data-name="Trazado 29" d="M2565.833,709.511v-94.62h28.542l20.089,77.925h1.225V614.891h16.906v94.62h-27.81l-20.821-77.921h-1.225v77.921Z" transform="translate(-2358.12 -591.89)" fill="#fff"/>
    </g>
    <g transform="matrix(1, 0, 0, 1, -22.5, -22.5)" filter="url(#Rectángulo_33)">
      <rect id="Rectángulo_33-2" data-name="Rectángulo 33" width="16.906" height="94.62" transform="translate(292.61 23.01)" fill="#fff"/>
    </g>
    <g transform="matrix(1, 0, 0, 1, -22.5, -22.5)" filter="url(#Trazado_30)">
      <path id="Trazado_30-2" data-name="Trazado 30" d="M2668.182,706.66h-28.7V615.333h28.7q19.635,0,26.03,17.686,3.717,10.166,3.716,26.657,0,34.45-15.106,43.421A28.328,28.328,0,0,1,2668.182,706.66Zm20.567-46.984q0-26.256-10.342-32.728a18.79,18.79,0,0,0-10.225-2.64h-19.75v73.377h19.75Q2688.751,697.685,2688.749,659.676Z" transform="translate(-2310.5 -591.52)" fill="#fff"/>
    </g>
    <g transform="matrix(1, 0, 0, 1, -22.5, -22.5)" filter="url(#Rectángulo_34)">
      <rect id="Rectángulo_34-2" data-name="Rectángulo 34" width="8.946" height="91.327" transform="translate(403.93 23.82)" fill="#fff"/>
    </g>
    <g transform="matrix(1, 0, 0, 1, -22.5, -22.5)" filter="url(#Trazado_31)">
      <path id="Trazado_31-2" data-name="Trazado 31" d="M2735.471,669.649V660.54h22.191v44.872a125.088,125.088,0,0,1-26.141,3.167q-17.545,0-24.342-11.481t-6.8-35.434q0-23.951,6.8-35.5t24.108-11.546a101.191,101.191,0,0,1,22.425,2.637l3.95.791-.35,8.448a134.685,134.685,0,0,0-24.978-2.771q-13.362,0-18.008,8.777t-4.648,29.166q0,20.39,4.648,29.164t17.893,8.777a78.06,78.06,0,0,0,16.615-1.844V669.649Z" transform="translate(-2271.13 -592.12)" fill="#fff"/>
    </g>
    <g transform="matrix(1, 0, 0, 1, -22.5, -22.5)" filter="url(#Rectángulo_35)">
      <rect id="Rectángulo_35-2" data-name="Rectángulo 35" width="8.946" height="91.327" transform="translate(504.08 23.82)" fill="#fff"/>
    </g>
    <g transform="matrix(1, 0, 0, 1, -22.5, -22.5)" filter="url(#Trazado_32)">
      <path id="Trazado_32-2" data-name="Trazado 32" d="M2758.1,624.442v-9.109H2816.2v9.109h-24.516v82.219h-8.829V624.442Z" transform="translate(-2233.81 -591.52)" fill="#fff"/>
    </g>
    <g transform="matrix(1, 0, 0, 1, -22.5, -22.5)" filter="url(#Trazado_33)">
      <path id="Trazado_33-2" data-name="Trazado 33" d="M2792.678,706.66l22.078-91.327h19.518l22.075,91.327h-8.829l-5.809-23.49h-34.39l-5.81,23.49Zm28.814-82.616-12.2,50.019h30.441l-12.2-50.019Z" transform="translate(-2211.46 -591.52)" fill="#fff"/>
    </g>
    <g transform="matrix(1, 0, 0, 1, -22.5, -22.5)" filter="url(#Trazado_34)">
      <path id="Trazado_34-2" data-name="Trazado 34" d="M2883.306,706.661h-44.268V615.333h8.946v82.222h35.322Z" transform="translate(-2181.49 -591.52)" fill="#fff"/>
    </g>
  </g>
</svg>
