<?xml version="1.0" encoding="utf-8"?>
<!-- Generator: Adobe Illustrator 24.1.0, SVG Export Plug-In . SVG Version: 6.00 Build 0)  -->
<svg version="1.1" id="Capa_1" xmlns="http://www.w3.org/2000/svg" xmlns:xlink="http://www.w3.org/1999/xlink" x="0px" y="0px"
	 viewBox="0 0 737 269" style="enable-background:new 0 0 737 269;" xml:space="preserve">
<style type="text/css">
	.st0{enable-background:new    ;}
	.st1{fill:#FFFFFF;}
</style>
<g id="Grupo_5960" transform="translate(-254 -461.79)">
	<g transform="matrix(1, 0, 0, 1, 254, 461.79)">
		<g class="st0">
			<path class="st1" d="M35.1,72.7h7.7V123h-7.7V72.7z"/>
			<path class="st1" d="M50.4,112.5c0-7.5,4.1-10.1,11.7-10.7l9.1-0.8v-2.6c0-3.8-1.6-5-5.1-5c-3.5,0-9.7,0.4-13.3,0.7l-0.3-5.5
				c3.3-0.8,9.5-1.8,14.3-1.8c8.7,0,12.2,3.6,12.2,11.7v16.2c0.2,2.1,1.1,2.9,3.1,3.3l-0.2,5.9c-2.4,0-4.2-0.1-5.8-0.7
				c-1.3-0.4-2.6-1-3.7-1.9c-2.5,1.1-7.2,2.6-11.4,2.6C54,123.8,50.4,119.9,50.4,112.5z M71.3,115.8v-9.3l-8.2,0.7
				c-3.2,0.4-4.8,1.8-4.8,5c0,3.1,1.3,5.2,4.3,5.2C65.4,117.5,69.2,116.5,71.3,115.8z"/>
			<path class="st1" d="M102.6,129.2c0-3.6,1.8-5.8,5.4-8.6c-1.5-1-2.4-3-2.4-5.2c0-1.2,1.5-3.9,2.6-5.7c-2.7-1.6-5.1-4.3-5.1-10.6
				c0-8.9,6-12.4,14.2-12.4c2.3,0,5.5,0.5,7.2,0.9l11.1-0.3v6.2l-6-0.3c0.9,1.1,1.9,3,1.9,5.8c0,9.7-5,12.3-14.5,12.3
				c-0.7,0-2.4-0.1-3.1-0.3c-0.4,1.1-0.9,2.7-0.9,3.3c0,2.3,0.7,2.7,7.6,2.8c11.2,0.1,14.7,2.4,14.7,10.6c0,8.4-6.9,11.6-16.4,11.6
				C108.2,139.5,102.6,137.3,102.6,129.2z M127.6,128.3c0-3.8-1.8-4.3-7.5-4.3c-1.6,0-4.9-0.2-7-0.4c-1.9,1.6-2.8,2.8-2.8,5
				c0,3.2,2.3,4.5,8.7,4.5C124.7,133.1,127.6,131.7,127.6,128.3z M123.9,99.1c0-4.3-1.8-6.2-6.6-6.2c-4.5,0-6.5,2-6.5,6.2
				c0,4.3,1.9,6.3,6.5,6.3C122.1,105.5,123.9,103.5,123.9,99.1z"/>
			<path class="st1" d="M140,105.6c0-13,5.6-18.9,15.4-18.9c9.9,0,14.9,5.2,14.9,16.3l-0.5,5.5h-21.9c0,5.7,2.1,8.4,8,8.4
				c4.1,0,9.9-0.4,13.1-0.6l0.1,5.8c-3.5,0.7-9.8,1.6-14.4,1.6C144.1,123.8,140,118.1,140,105.6z M162.6,102.6c0-7-2.1-9.4-7.2-9.4
				c-5.3,0-7.5,2.7-7.6,9.4H162.6z"/>
			<path class="st1" d="M176.4,122.2l0.3-6.5c3.7,0.5,9.5,1.1,12.1,1.1c5.1,0,7.1-1.1,7.1-4.1c0-2.5-1.2-3.3-8.2-4.4
				c-7.8-1.3-11.8-3-11.8-10.5c0-8,6.2-11,13.3-11c3.8,0,9.9,0.9,13.4,1.6l-0.1,6.5c-3.6-0.5-9.6-1.1-12.7-1.1
				c-4.3,0-6.1,1.1-6.1,3.9c0,2.3,1.5,3,8.4,4.2c8.5,1.5,11.6,3.6,11.6,10.7c0,8.3-5.3,11.3-14.1,11.3
				C185.9,123.8,179.9,122.9,176.4,122.2z"/>
			<path class="st1" d="M212.7,110.6V94.1h-4.5v-6.6h4.5V77.2h7.7v10.3h9.7v6.6h-9.7v15.6c0,5.3,0.1,7.2,3.8,7.2
				c1.4,0,4.1-0.1,5.8-0.3l0.4,6.2c-2.1,0.4-5.4,0.9-7.2,0.9C215.2,123.8,212.7,120.8,212.7,110.6z"/>
			<path class="st1" d="M236.5,73.3h7.7v8.2h-7.7V73.3z M236.5,87.5h7.7V123h-7.7V87.5z"/>
			<path class="st1" d="M251.9,105c0-11.5,4-18.3,15.8-18.3c11.9,0,15.8,6.8,15.8,18.3c0,11.8-3.6,18.7-15.8,18.7
				C255.6,123.8,251.9,116.8,251.9,105z M258.3,77.1l16.8-7.2l2.4,6.7l-17.4,5.6L258.3,77.1z M275.7,105c0-8.2-1.7-11.7-8-11.7
				c-6.2,0-8,3.5-8,11.7c0,8.2,1.4,12.1,8,12.1C274.4,117.2,275.7,113.3,275.7,105z"/>
			<path class="st1" d="M291.3,87.5h7.7v2.2c2.2-1.3,6.4-3,9.7-3c9.9,0,12.3,5.6,12.3,17.3v19h-7.7v-18.8c0-7-0.9-10.5-6.2-10.5
				c-3,0-6.3,1-8,1.8V123h-7.7V87.5z"/>
			<path class="st1" d="M344,105.3c0-12.9,4.6-18.6,14.8-18.6c2.3,0,6,0.6,8.1,0.9V72.7h7.7V123H367v-1.8c-2.2,1.1-6.4,2.6-9.5,2.6
				C348.3,123.8,344,119,344,105.3z M366.9,115.1V94.2c-1.7-0.3-5.2-0.7-7.5-0.7c-5.3,0-7.5,3.8-7.5,11.9c0,9,2.4,11.5,6.7,11.5
				C361.6,116.8,365.1,115.8,366.9,115.1z"/>
			<path class="st1" d="M382.3,105.6c0-13,5.6-18.9,15.4-18.9c9.9,0,14.9,5.2,14.9,16.3l-0.5,5.5h-21.9c0,5.7,2.1,8.4,8,8.4
				c4.1,0,9.9-0.4,13.1-0.6l0.1,5.8c-3.5,0.7-9.8,1.6-14.4,1.6C386.4,123.8,382.3,118.1,382.3,105.6z M404.9,102.6
				c0-7-2.1-9.4-7.2-9.4c-5.3,0-7.5,2.7-7.6,9.4H404.9z"/>
			<path class="st1" d="M436.1,72.7h7.7V123h-7.7V72.7z"/>
			<path class="st1" d="M451.4,112.5c0-7.5,4.1-10.1,11.7-10.7l9.1-0.8v-2.6c0-3.8-1.6-5-5.1-5c-3.5,0-9.7,0.4-13.3,0.7l-0.3-5.5
				c3.3-0.8,9.5-1.8,14.3-1.8c8.7,0,12.2,3.6,12.2,11.7v16.2c0.2,2.1,1.1,2.9,3.1,3.3l-0.2,5.9c-2.4,0-4.2-0.1-5.8-0.7
				c-1.3-0.4-2.6-1-3.7-1.9c-2.5,1.1-7.2,2.6-11.4,2.6C455,123.8,451.4,119.9,451.4,112.5z M472.2,115.8v-9.3l-8.2,0.7
				c-3.2,0.4-4.8,1.8-4.8,5c0,3.1,1.3,5.2,4.3,5.2C466.4,117.5,470.2,116.5,472.2,115.8z"/>
			<path class="st1" d="M503.8,104.8c0-12.7,4.3-18,14.8-18c2.8,0,7.7,0.8,10.6,1.3l-0.3,6.2c-2.4-0.2-6.3-0.6-8.3-0.6
				c-7.4,0-9,3-9,11.1c0,9.1,1.4,12.1,9.1,12.1c2,0,5.9-0.4,8.3-0.6l0.2,6.2c-3.1,0.6-8.1,1.3-10.8,1.3
				C507.5,123.8,503.8,118.4,503.8,104.8z"/>
			<path class="st1" d="M536.7,73.3h7.7v8.2h-7.7V73.3z M536.7,87.5h7.7V123h-7.7V87.5z"/>
			<path class="st1" d="M553.5,106V87.5h7.7v18.6c0,7.7,0.6,10.7,6,10.7c3.3,0,6.5-1,8.1-1.8V87.5h7.7V123h-7.7v-2.2
				c-3.5,1.8-6.3,3-10.4,3C555.7,123.8,553.5,117.8,553.5,106z"/>
			<path class="st1" d="M590.9,105.3c0-12.9,4.6-18.6,14.8-18.6c2.3,0,6,0.6,8.1,0.9V72.7h7.7V123h-7.7v-1.8
				c-2.2,1.1-6.4,2.6-9.5,2.6C595.1,123.8,590.9,119,590.9,105.3z M613.7,115.1V94.2c-1.7-0.3-5.2-0.7-7.5-0.7
				c-5.3,0-7.5,3.8-7.5,11.9c0,9,2.4,11.5,6.7,11.5C608.4,116.8,612,115.8,613.7,115.1z"/>
			<path class="st1" d="M628.6,112.5c0-7.5,4.1-10.1,11.7-10.7l9.1-0.8v-2.6c0-3.8-1.6-5-5.1-5c-3.5,0-9.7,0.4-13.3,0.7l-0.3-5.5
				c3.3-0.8,9.5-1.8,14.3-1.8c8.7,0,12.2,3.6,12.2,11.7v16.2c0.2,2.1,1.1,2.9,3.1,3.3l-0.2,5.9c-2.4,0-4.2-0.1-5.8-0.7
				c-1.3-0.4-2.6-1-3.7-1.9c-2.5,1.1-7.2,2.6-11.4,2.6C632.1,123.8,628.6,119.9,628.6,112.5z M649.4,115.8v-9.3l-8.2,0.7
				c-3.2,0.4-4.8,1.8-4.8,5c0,3.1,1.3,5.2,4.3,5.2C643.6,117.5,647.3,116.5,649.4,115.8z"/>
			<path class="st1" d="M665.2,105.3c0-12.9,4.6-18.6,14.8-18.6c2.3,0,6,0.6,8.1,0.9V72.7h7.7V123h-7.7v-1.8
				c-2.2,1.1-6.4,2.6-9.5,2.6C669.5,123.8,665.2,119,665.2,105.3z M688.1,115.1V94.2c-1.7-0.3-5.2-0.7-7.5-0.7
				c-5.3,0-7.5,3.8-7.5,11.9c0,9,2.4,11.5,6.7,11.5C682.8,116.8,686.3,115.8,688.1,115.1z"/>
		</g>
		<g class="st0">
			<path class="st1" d="M33,179.6c0-13,5.6-18.9,15.4-18.9c9.9,0,14.9,5.2,14.9,16.3l-0.5,5.5H40.9c0,5.7,2.1,8.4,8,8.4
				c4.1,0,9.9-0.4,13.1-0.6l0.1,5.8c-3.5,0.7-9.8,1.6-14.4,1.6C37.1,197.8,33,192.1,33,179.6z M55.6,176.6c0-7-2.1-9.4-7.2-9.4
				c-5.3,0-7.5,2.7-7.6,9.4H55.6z"/>
			<path class="st1" d="M70.8,161.5h7.7v2.2c2.2-1.3,6.4-3,9.7-3c9.9,0,12.3,5.6,12.3,17.3v19h-7.7v-18.8c0-7-0.9-10.5-6.2-10.5
				c-3,0-6.3,1-8,1.8V197h-7.7V161.5z"/>
			<path class="st1" d="M126.8,184.6v-16.5h-4.5v-6.6h4.5v-10.3h7.7v10.3h9.7v6.6h-9.7v15.6c0,5.3,0.1,7.2,3.8,7.2
				c1.4,0,4.1-0.1,5.8-0.3l0.4,6.2c-2.1,0.4-5.4,0.9-7.2,0.9C129.3,197.8,126.8,194.8,126.8,184.6z"/>
			<path class="st1" d="M150.2,180v-18.5h7.7v18.6c0,7.7,0.6,10.7,6,10.7c3.3,0,6.5-1,8.1-1.8v-27.5h7.7V197h-7.7v-2.2
				c-3.5,1.8-6.3,3-10.4,3C152.3,197.8,150.2,191.8,150.2,180z"/>
			<path class="st1" d="M187.8,196.2l0.3-6.5c3.7,0.5,9.5,1.1,12.1,1.1c5.1,0,7.1-1.1,7.1-4.1c0-2.5-1.2-3.3-8.2-4.4
				c-7.8-1.3-11.8-3-11.8-10.5c0-8,6.2-11,13.3-11c3.8,0,9.9,0.9,13.4,1.6l-0.1,6.5c-3.6-0.5-9.6-1.1-12.7-1.1
				c-4.3,0-6.1,1.1-6.1,3.9c0,2.3,1.5,3,8.4,4.2c8.5,1.5,11.6,3.6,11.6,10.7c0,8.3-5.3,11.3-14.1,11.3
				C197.3,197.8,191.4,196.9,187.8,196.2z"/>
			<path class="st1" d="M238.1,161.5h7.7v2.2c2.2-1.3,6.1-3,9.2-3c4.3,0,7,1.1,9,3.5c2.8-1.5,8-3.5,12.2-3.5
				c9.7,0,12.3,5.2,12.3,17.3v19h-7.7v-18.8c0-7-0.9-10.5-6-10.5c-2.8,0-6.2,1.1-8,1.8c0.4,2.4,0.5,6.2,0.5,9.1V197h-7.7v-18.2
				c0-7.8-0.7-11.1-6-11.1c-2.8,0-6,1-7.7,1.8V197h-7.7V161.5z"/>
			<path class="st1" d="M295.3,186.5c0-7.5,4.1-10.1,11.7-10.7l9.1-0.8v-2.6c0-3.8-1.6-5-5.1-5c-3.5,0-9.7,0.4-13.3,0.7l-0.3-5.5
				c3.3-0.8,9.5-1.8,14.3-1.8c8.7,0,12.2,3.6,12.2,11.7v16.2c0.2,2.1,1.1,2.9,3.1,3.3l-0.2,5.9c-2.4,0-4.2-0.1-5.8-0.7
				c-1.3-0.4-2.6-1-3.7-1.9c-2.5,1.1-7.2,2.6-11.4,2.6C298.9,197.8,295.3,193.9,295.3,186.5z M316.1,189.8v-9.3l-8.2,0.7
				c-3.2,0.4-4.8,1.8-4.8,5c0,3.1,1.3,5.2,4.3,5.2C310.3,191.5,314.1,190.5,316.1,189.8z"/>
			<path class="st1" d="M333.6,161.5h7.7v2.2c2.2-1.3,6.4-3,9.7-3c9.9,0,12.3,5.6,12.3,17.3v19h-7.7v-18.8c0-7-0.9-10.5-6.2-10.5
				c-3,0-6.3,1-8,1.8V197h-7.7V161.5z"/>
			<path class="st1" d="M370.7,179c0-11.5,4-18.3,15.8-18.3c11.9,0,15.8,6.8,15.8,18.3c0,11.8-3.6,18.7-15.8,18.7
				C374.3,197.8,370.7,190.8,370.7,179z M394.4,179c0-8.2-1.7-11.7-8-11.7c-6.2,0-8,3.5-8,11.7c0,8.2,1.4,12.1,8,12.1
				C393.1,191.2,394.4,187.3,394.4,179z"/>
			<path class="st1" d="M408.6,196.2l0.3-6.5c3.7,0.5,9.5,1.1,12.1,1.1c5.1,0,7.1-1.1,7.1-4.1c0-2.5-1.2-3.3-8.2-4.4
				c-7.8-1.3-11.8-3-11.8-10.5c0-8,6.2-11,13.3-11c3.8,0,9.9,0.9,13.4,1.6l-0.1,6.5c-3.6-0.5-9.6-1.1-12.7-1.1
				c-4.3,0-6.1,1.1-6.1,3.9c0,2.3,1.5,3,8.4,4.2c8.5,1.5,11.6,3.6,11.6,10.7c0,8.3-5.3,11.3-14.1,11.3
				C418.1,197.8,412.2,196.9,408.6,196.2z"/>
		</g>
	</g>
</g>
</svg>
