<svg xmlns="http://www.w3.org/2000/svg" xmlns:xlink="http://www.w3.org/1999/xlink" width="964.022" height="544.022" viewBox="0 0 964.022 544.022"><defs><style>.a{fill:#1e2e2f;opacity:0.083;mix-blend-mode:multiply;}.a,.b{isolation:isolate;}.c,.d,.e{fill:#fff;}.d,.e{font-size:74px;font-family:Cairo-SemiBold, Cairo;font-weight:600;}.e{opacity:0.647;}.f{filter:url(#y);}.g{filter:url(#w);}.h{filter:url(#u);}.i{filter:url(#s);}.j{filter:url(#q);}.k{filter:url(#o);}.l{filter:url(#m);}.m{filter:url(#k);}.n{filter:url(#i);}.o{filter:url(#g);}.p{filter:url(#e);}.q{filter:url(#c);}.r{filter:url(#a);}</style><filter id="a" x="117.19" y="211.714" width="742" height="272" filterUnits="userSpaceOnUse"><feOffset input="SourceAlpha"/><feGaussianBlur stdDeviation="10" result="b"/><feFlood flood-color="#182e26" flood-opacity="0.973"/><feComposite operator="in" in2="b"/><feComposite in="SourceGraphic"/></filter><filter id="c" x="117.19" y="211.714" width="742" height="272" filterUnits="userSpaceOnUse"><feOffset input="SourceAlpha"/><feGaussianBlur stdDeviation="10" result="d"/><feFlood flood-color="#182e26" flood-opacity="0.973"/><feComposite operator="in" in2="d"/><feComposite in="SourceGraphic"/></filter><filter id="e" x="126.69" y="120.924" width="131.974" height="139.62" filterUnits="userSpaceOnUse"><feOffset input="SourceAlpha"/><feGaussianBlur stdDeviation="7.5" result="f"/><feFlood flood-color="#061819"/><feComposite operator="in" in2="f"/><feComposite in="SourceGraphic"/></filter><filter id="g" x="231.059" y="120.924" width="108.453" height="141.29" filterUnits="userSpaceOnUse"><feOffset input="SourceAlpha"/><feGaussianBlur stdDeviation="7.5" result="h"/><feFlood flood-color="#061819"/><feComposite operator="in" in2="h"/><feComposite in="SourceGraphic"/></filter><filter id="i" x="311.907" y="120.924" width="111.762" height="139.62" filterUnits="userSpaceOnUse"><feOffset input="SourceAlpha"/><feGaussianBlur stdDeviation="7.5" result="j"/><feFlood flood-color="#061819"/><feComposite operator="in" in2="j"/><feComposite in="SourceGraphic"/></filter><filter id="k" x="396.796" y="120.924" width="61.906" height="139.62" filterUnits="userSpaceOnUse"><feOffset input="SourceAlpha"/><feGaussianBlur stdDeviation="7.5" result="l"/><feFlood flood-color="#061819"/><feComposite operator="in" in2="l"/><feComposite in="SourceGraphic"/></filter><filter id="m" x="433.18" y="121.736" width="103.441" height="136.327" filterUnits="userSpaceOnUse"><feOffset input="SourceAlpha"/><feGaussianBlur stdDeviation="7.5" result="n"/><feFlood flood-color="#061819"/><feComposite operator="in" in2="n"/><feComposite in="SourceGraphic"/></filter><filter id="o" x="508.12" y="121.736" width="53.946" height="136.327" filterUnits="userSpaceOnUse"><feOffset input="SourceAlpha"/><feGaussianBlur stdDeviation="7.5" result="p"/><feFlood flood-color="#061819"/><feComposite operator="in" in2="p"/><feComposite in="SourceGraphic"/></filter><filter id="q" x="533.444" y="120.419" width="102.28" height="138.964" filterUnits="userSpaceOnUse"><feOffset input="SourceAlpha"/><feGaussianBlur stdDeviation="7.5" result="r"/><feFlood flood-color="#061819"/><feComposite operator="in" in2="r"/><feComposite in="SourceGraphic"/></filter><filter id="s" x="608.268" y="121.736" width="53.946" height="136.327" filterUnits="userSpaceOnUse"><feOffset input="SourceAlpha"/><feGaussianBlur stdDeviation="7.5" result="t"/><feFlood flood-color="#061819"/><feComposite operator="in" in2="t"/><feComposite in="SourceGraphic"/></filter><filter id="u" x="628.481" y="121.736" width="103.095" height="136.327" filterUnits="userSpaceOnUse"><feOffset input="SourceAlpha"/><feGaussianBlur stdDeviation="7.5" result="v"/><feFlood flood-color="#061819"/><feComposite operator="in" in2="v"/><feComposite in="SourceGraphic"/></filter><filter id="w" x="685.41" y="121.736" width="108.67" height="136.327" filterUnits="userSpaceOnUse"><feOffset input="SourceAlpha"/><feGaussianBlur stdDeviation="7.5" result="x"/><feFlood flood-color="#061819"/><feComposite operator="in" in2="x"/><feComposite in="SourceGraphic"/></filter><filter id="y" x="761.744" y="121.736" width="89.268" height="136.327" filterUnits="userSpaceOnUse"><feOffset input="SourceAlpha"/><feGaussianBlur stdDeviation="7.5" result="z"/><feFlood flood-color="#061819"/><feComposite operator="in" in2="z"/><feComposite in="SourceGraphic"/></filter></defs><g transform="translate(-135.489 -310.489)"><rect class="a" width="747" height="327" rx="53" transform="translate(244 419)"/><g transform="translate(0.679 50)"><g class="b" transform="translate(284 403.408)"><path class="c" d="M2453.342,709.511v-94.62h28.788l14.7,69.019,14.7-69.019h28.785v94.62h-16.9v-73.19h-1.838l-16.293,69.015h-16.906l-16.29-69.015h-1.838v73.19Z" transform="translate(-2453.342 -614.386)"/><path class="c" d="M2533.633,677.928q0,16.559,14.825,16.557t14.822-16.557V614.891h16.9v62.617q0,17.4-7.9,25.534t-23.827,8.14q-15.927,0-23.826-8.14t-7.9-25.534V614.891h16.9Z" transform="translate(-2412.362 -614.386)"/><path class="c" d="M2565.833,709.511v-94.62h28.542l20.089,77.925h1.225V614.891h16.906v94.62h-27.81l-20.821-77.921h-1.225v77.921Z" transform="translate(-2380.616 -614.386)"/><rect class="c" width="16.906" height="94.62" transform="translate(270.106 0.505)"/><path class="c" d="M2668.182,706.66h-28.7V615.333h28.7q19.635,0,26.03,17.686,3.717,10.166,3.716,26.657,0,34.45-15.106,43.421A28.328,28.328,0,0,1,2668.182,706.66Zm20.567-46.984q0-26.256-10.342-32.728a18.79,18.79,0,0,0-10.225-2.64h-19.75v73.377h19.75Q2688.751,697.685,2688.749,659.676Z" transform="translate(-2332.998 -614.017)"/><rect class="c" width="8.946" height="91.327" transform="translate(381.43 1.317)"/><path class="c" d="M2735.471,669.649V660.54h22.191v44.872a125.088,125.088,0,0,1-26.141,3.167q-17.545,0-24.342-11.481t-6.8-35.434q0-23.951,6.8-35.5t24.108-11.546a101.191,101.191,0,0,1,22.425,2.637l3.95.791-.35,8.448a134.685,134.685,0,0,0-24.978-2.771q-13.362,0-18.008,8.777t-4.648,29.166q0,20.39,4.648,29.164t17.893,8.777a78.06,78.06,0,0,0,16.615-1.844V669.649Z" transform="translate(-2293.628 -614.616)"/><rect class="c" width="8.946" height="91.327" transform="translate(481.578 1.317)"/><path class="c" d="M2758.1,624.442v-9.109H2816.2v9.109h-24.516v82.219h-8.829V624.442Z" transform="translate(-2256.312 -614.017)"/><path class="c" d="M2792.678,706.66l22.078-91.327h19.518l22.075,91.327h-8.829l-5.809-23.49h-34.39l-5.81,23.49Zm28.814-82.616-12.2,50.019h30.441l-12.2-50.019Z" transform="translate(-2233.958 -614.017)"/><path class="c" d="M2883.306,706.661h-44.268V615.333h8.946v82.222h35.322Z" transform="translate(-2203.985 -614.017)"/></g><g transform="translate(-2 10.413)"><g class="r" transform="matrix(1, 0, 0, 1, 136.81, 250.08)"><text class="d" transform="translate(147.19 337.71)"><tspan x="0" y="0">transforma la manera</tspan><tspan x="0" y="74">de gobernar tu ciudad</tspan></text></g><g class="q" transform="matrix(1, 0, 0, 1, 136.81, 250.08)"><text class="e" transform="translate(147.19 337.71)"><tspan x="0" y="0">transforma la manera</tspan><tspan x="0" y="74">de gobernar tu ciudad</tspan></text></g></g><g class="b" transform="translate(284 403.408)"><g class="p" transform="matrix(1, 0, 0, 1, -149.19, -142.92)"><path class="c" d="M2453.342,709.511v-94.62h28.788l14.7,69.019,14.7-69.019h28.785v94.62h-16.9v-73.19h-1.838l-16.293,69.015h-16.906l-16.29-69.015h-1.838v73.19Z" transform="translate(-2304.15 -471.47)"/></g><g class="o" transform="matrix(1, 0, 0, 1, -149.19, -142.92)"><path class="c" d="M2533.633,677.928q0,16.559,14.825,16.557t14.822-16.557V614.891h16.9v62.617q0,17.4-7.9,25.534t-23.827,8.14q-15.927,0-23.826-8.14t-7.9-25.534V614.891h16.9Z" transform="translate(-2263.17 -471.47)"/></g><g class="n" transform="matrix(1, 0, 0, 1, -149.19, -142.92)"><path class="c" d="M2565.833,709.511v-94.62h28.542l20.089,77.925h1.225V614.891h16.906v94.62h-27.81l-20.821-77.921h-1.225v77.921Z" transform="translate(-2231.43 -471.47)"/></g><g class="m" transform="matrix(1, 0, 0, 1, -149.19, -142.92)"><rect class="c" width="16.906" height="94.62" transform="translate(419.3 143.42)"/></g><g class="l" transform="matrix(1, 0, 0, 1, -149.19, -142.92)"><path class="c" d="M2668.182,706.66h-28.7V615.333h28.7q19.635,0,26.03,17.686,3.717,10.166,3.716,26.657,0,34.45-15.106,43.421A28.328,28.328,0,0,1,2668.182,706.66Zm20.567-46.984q0-26.256-10.342-32.728a18.79,18.79,0,0,0-10.225-2.64h-19.75v73.377h19.75Q2688.751,697.685,2688.749,659.676Z" transform="translate(-2183.81 -471.1)"/></g><g class="k" transform="matrix(1, 0, 0, 1, -149.19, -142.92)"><rect class="c" width="8.946" height="91.327" transform="translate(530.62 144.24)"/></g><g class="j" transform="matrix(1, 0, 0, 1, -149.19, -142.92)"><path class="c" d="M2735.471,669.649V660.54h22.191v44.872a125.088,125.088,0,0,1-26.141,3.167q-17.545,0-24.342-11.481t-6.8-35.434q0-23.951,6.8-35.5t24.108-11.546a101.191,101.191,0,0,1,22.425,2.637l3.95.791-.35,8.448a134.685,134.685,0,0,0-24.978-2.771q-13.362,0-18.008,8.777t-4.648,29.166q0,20.39,4.648,29.164t17.893,8.777a78.06,78.06,0,0,0,16.615-1.844V669.649Z" transform="translate(-2144.44 -471.7)"/></g><g class="i" transform="matrix(1, 0, 0, 1, -149.19, -142.92)"><rect class="c" width="8.946" height="91.327" transform="translate(630.77 144.24)"/></g><g class="h" transform="matrix(1, 0, 0, 1, -149.19, -142.92)"><path class="c" d="M2758.1,624.442v-9.109H2816.2v9.109h-24.516v82.219h-8.829V624.442Z" transform="translate(-2107.12 -471.1)"/></g><g class="g" transform="matrix(1, 0, 0, 1, -149.19, -142.92)"><path class="c" d="M2792.678,706.66l22.078-91.327h19.518l22.075,91.327h-8.829l-5.809-23.49h-34.39l-5.81,23.49Zm28.814-82.616-12.2,50.019h30.441l-12.2-50.019Z" transform="translate(-2084.77 -471.1)"/></g><g class="f" transform="matrix(1, 0, 0, 1, -149.19, -142.92)"><path class="c" d="M2883.306,706.661h-44.268V615.333h8.946v82.222h35.322Z" transform="translate(-2054.79 -471.1)"/></g></g></g></g></svg>