<svg xmlns="http://www.w3.org/2000/svg" width="139.16" height="107.393" viewBox="0 0 139.16 107.393"><g transform="translate(5604.506 1902.827)"><path d="M-3662.668,360.455c.57.133,1.134.306,1.711.39.62.089,1.253.1,2.6.187-2.644,3.039-4.893,5.679-7.2,8.267q-12.441,13.943-24.921,27.851c-1.69,1.882-3.234,4.013-5.255,5.455-4.351,3.105-9.387,3.851-14.224,1.59a37.469,37.469,0,0,1-10.382-6.82c-14.6-14.355-28.991-28.925-43.322-43.551-8.588-8.765-11.038-19.377-7.379-30.941,3.7-11.7,12.265-18.5,24.262-20.5,10.333-1.716,19.061,2.131,26.438,9.245,4.558,4.395,8.968,8.942,13.463,13.4.631.625,1.371,1.141,2.06,1.707,4.095,4.345,8.1,8.773,12.305,13.013,4.611,4.655,9.491,9.044,14.081,13.719A23.01,23.01,0,0,0-3662.668,360.455Z" transform="translate(-1831.819 -2200.94)" fill="#0e7473"/><path d="M-3546.8,353.851a23.01,23.01,0,0,1-15.767-6.983c-4.59-4.675-9.469-9.064-14.081-13.719-4.2-4.24-8.21-8.668-12.305-13.013,7.3-7.193,14.146-14.942,22-21.469,18.165-15.091,44.795-5.053,48.815,18.25a28.494,28.494,0,0,1-5.111,22.3C-3529.174,347.4-3536.685,352.621-3546.8,353.851Z" transform="translate(-1947.685 -2194.336)" fill="#0b605e"/></g></svg>