<svg xmlns="http://www.w3.org/2000/svg" width="299.355" height="91.481" viewBox="0 0 299.355 91.481"><g transform="translate(7188.202 1861.497)"><path d="M-7575.3,500.31l10.37,13.894V479.545h7.918v36.072l-5.646.4,1.937,3.99c-11.969,1.035-15-9.829-22.031-16.676-.2,4.367-.364,8.05-.545,12.052h-7.133v-36.2c4.949.253,10.263-.356,14.935,1.1,2.74.853,5.6,4.688,6.4,7.711C-7567.521,493.973-7569.532,496.984-7575.3,500.31Zm-5.569-14.342-1.644.951v8.146l5.417-4.033Z" transform="translate(575.749 -2312.692)" fill="#0e7473"/><path d="M-7474.053,515.94a19.552,19.552,0,0,1-19.437-20.106c.235-9.853,9.293-17.938,19.967-17.821,11.057.12,18.934,8.126,18.866,19.173C-7454.725,508.053-7462.947,516-7474.053,515.94Zm.112-30.068a11.079,11.079,0,0,0-11.022,11.432,10.946,10.946,0,0,0,10.915,11.042,10.977,10.977,0,0,0,11.274-11.217A10.923,10.923,0,0,0-7473.94,485.871Z" transform="translate(514.621 -2311.95)" fill="#0e7473"/><path d="M-7731.294,513.57c.975-.912,2.329-1.643,2.863-2.764,4.438-9.329,8.668-18.755,13.119-28.076.6-1.264,2.081-2.112,3.153-3.152.914,1.021,2.133,1.9,2.693,3.084,5.865,12.442,11.626,24.933,17.46,37.509-8.156,1.419-8.168,1.424-11.271-5.562-2.867-6.455-5.707-12.922-8.833-20l-6.026,12.668,11.749,8.2h-25.049Q-7731.365,514.523-7731.294,513.57Z" transform="translate(664.673 -2312.937)" fill="#0e7473"/><path d="M-7315.641,520.29h-8.582c-3.724-8.431-7.5-16.984-11.572-26.2l-5.923,12.822,10.645,7.608-.61,1.059h-22.542c5.449-11.768,10.582-23.317,16.175-34.638,1.623-3.285,3.575-1.632,4.8.995,4.852,10.439,9.771,20.847,14.628,31.283C-7317.6,515.42-7316.732,517.693-7315.641,520.29Z" transform="translate(426.794 -2312.646)" fill="#0e7473"/><path d="M-7405.2,533.418c1.677-2.343,2.872-5.489,5.139-6.846,3.676-2.2,3.885-5.009,3.844-8.61-.144-12.531-.056-25.066-.056-37.816h7.825v49.678l-15.97,4.637Z" transform="translate(458.942 -2313.296)" fill="#0e7473"/><path d="M-7764.756,514.142l-.142,1.907h-19.6V480.484h7.5v28.693h12.242Z" transform="translate(698.135 -2313.509)" fill="#0e7473"/><path d="M-7846.642,403.853c3.576-1.4,3.663.687,3.651,3.1-.043,8.774-.017,17.549-.017,26.323q0,28.807.006,57.614c0,2.352.388,4.993-3.641,3.605Z" transform="translate(737.325 -2264.899)" fill="#0e7473"/><g transform="translate(-7186.94 -1859.234)"><path d="M-8012.351,482.148l1.346-1.026c-9.32-7.782-18.541-15.476-27.755-23.178q-3.516-2.939-7-5.92c-.374-.319-.928-.671-.983-1.063a8.219,8.219,0,0,1,.227-2.109,8.069,8.069,0,0,1,1.987.88q16.758,13.857,33.459,27.777c2.949,2.456,4.154,2.358,6.1-1.044a9.448,9.448,0,0,0,1.148-4.377c.139-8.188.153-16.378.115-24.568a21.567,21.567,0,0,0-.754-3.975l-3.17.73c-.783-.849-1.282-1.839-1.815-1.858-.707-.024-1.442.711-2.347,1.222l-1.684-2.125-3.63,1.59.191.285-7.161.788,3.1-2.3c.243,1.779.814,1.787,1.861,1.042a6.567,6.567,0,0,1,2.4-.984c1.937-.409,4.146-2.779,4.253-4.661l-5.421,3-.27-.386,8.6-6-3.031,5.858,4.1-2.245.17.43,1.777-3.8c.229.8.334,1.172.489,1.712l.578-.771.952.945c1.313-2.9.966-3.54-1.4-3.215-1.863.257-3.65,1-5.506,1.343-3.588.669-7.014,2.019-10.862.187-4.344-2.068-9.183-1.015-13.823-.753-2.868.161-5.615.491-8.177-1.45-2.536-1.921-5.361-2.265-8.1-.095a6.449,6.449,0,0,1-1.535.754c-2.838,1.186-2.908,1.32-2.046,4.773,1.971-2.174,5.556-1.853,6.657-5.49l1.017,2.421c-1.19.765-2.289,1.429-3.34,2.158-.937.649-1.821,1.368-2.729,2.057l.371.408,6.1-3.676.267.4-6.948,4.654.469.762,5.324-2.4c-.541,1.228-.988,2.245-1.664,3.777,2.391-.952,2.255-2.9,3.127-4.471l1.476,3.765.656-.177c-.293-1.827-.585-3.655-.883-5.509,2.613-.134,3.824,1.018,4.333,3.248.205-1.633.58-2.827,2.348-2.338-.048.665-.094,1.3-.136,1.884l2.976-2.255c.671,1.944,1.159,3.361,1.648,4.779l.5-.067c.142-1.318.284-2.637.407-3.782a16.846,16.846,0,0,0,1.547,1.346c2.06,1.433,4.129,2.855,6.244,4.207a12.056,12.056,0,0,0,2.175.867l-5,.627.216-.574c-.724-.663-1.415-1.839-2.177-1.885-1.7-.1-3.757-1-5.037,1.162-.269.453-1.125.577-1.441.726l-1.6-3.724-1.168,1.488-1.078-2.259-1.035,2.143a43.046,43.046,0,0,1-4.065,2.008,8.353,8.353,0,0,1-2.687.33c-2.294.042-4.589.014-7.194.014.261,2.971-.937,6,1.9,8.286l-1.691-.559c0,5.892-.114,11.605.053,17.311a62.874,62.874,0,0,0,1.106,7.556c-.586-1.277-1.67-2.548-1.683-3.83-.151-15.2-.121-30.393-.207-45.589-.01-1.68.563-2.12,2.241-2.108,6.115.042,12.231-.066,18.346-.126.565-.006,1.13-.071,1.66-.106-1.314-1.045-2.583-2.055-3.851-3.068.483-1.282-.558-3.3,1.86-3.641-2.053,4.113-.981,4.651,2.976,5.817.606.178,1.242.26,1.864.386.6,1.2,2.549,1.747,4.091,1.039,1.666-.765,3.274-1.647,4.92-2.454,1.6-.785,2.341-2.3,1.61-3.635-1.369-2.491-2.662-5.244-5.817-6.235,4.189.376,5.807,2.043,6.751,6.822a8.949,8.949,0,0,0,.091-3.16c-.681-2.747-2.912-4.123-5.443-4.865-4.119-1.208-8.084-.87-11.562,1.909-2.867,2.291-2.327,5.124-1.339,8.025-1.96-2.288-2.183-5.292-.031-7.4,1.459-1.428,3.531-2.263,5.333-3.359a16.218,16.218,0,0,1,2.772-1.6,3.2,3.2,0,0,1,2.042.227,21.875,21.875,0,0,1,2.031,1.283c1.615.875,3.5,1.434,4.849,2.59,3.633,3.112,2.8,8.111-1.523,10.255a3.816,3.816,0,0,0-1.69,1.265q2.969,0,5.938,0c4.463,0,8.926.061,13.387-.015,1.707-.029,2.258.605,2.247,2.218-.1,15.195-.1,30.391-.277,45.584a8.16,8.16,0,0,1-1.631,4.41A12.8,12.8,0,0,1-8012.351,482.148Zm-3.524-53.017c-.892-.559-1.527-1.239-2.252-1.344a1.563,1.563,0,0,0-1.934,1.625c.061,1.008.3,2.038,1.909,1.988C-8016.653,431.354-8016.648,430.385-8015.875,429.131Z" transform="translate(8056.789 -409.529)" fill="#0e7473"/><path d="M-8021.086,560.285l7.774-3.583c-2.026-1.721-4.1-3.485-6.177-5.244q-14.062-11.9-28.112-23.807a13.508,13.508,0,0,1-1.591-1.95l2.907-.383c9.652,7.97,19.817,16.361,29.979,24.755,1.918,1.584,3.779,3.238,5.763,4.739a7.415,7.415,0,0,0,2.3.735q-4.17,1.608-8.34,3.215c-1.812.7-2.282,2.237-1.359,3.959A8,8,0,0,1-8017.5,565l1.481,1.692-.4.587h-7.038c0,.664.167,1.194-.034,1.463a12.3,12.3,0,0,1-1.607,1.535c-.476-.555-1.3-1.077-1.362-1.672a24.788,24.788,0,0,1,.014-5.208,2.3,2.3,0,0,0-1.693-2.723c-3.886-1.431-7.813-2.761-11.668-4.266-2.175-.849-4.24-1.963-6.355-2.957,2.186.816,4.361,1.661,6.561,2.44,3.221,1.141,6.51,2.115,9.671,3.393a50.442,50.442,0,0,1,5.478,3l3.119-1.844c-1.674,1.746-1.39,3.79-1.083,5.925h5.207a1.863,1.863,0,0,0-1.1-.692c-.768-.26-1.529-.537-2.294-.807.768-.31,1.538-.613,2.3-.937.1-.042.156-.184.36-.441-.517-.234-1.007-.446-1.488-.676-.395-.19-.779-.4-1.168-.6.331-.251.669-.493.989-.757.228-.188.431-.406.645-.611-.28-.226-.532-.577-.849-.648A4.26,4.26,0,0,0-8021.086,560.285Zm-4.9,2.527c0,2.17-.043,4.134.045,6.092a1.265,1.265,0,0,0,.973.785,1.375,1.375,0,0,0,.9-.911c.146-.63-.081-1.339.054-1.974C-8023.666,565.147-8023.631,563.674-8025.986,562.811Z" transform="translate(8051.999 -482.549)" fill="#0e7473"/><path d="M-7947.306,527.074c-.455-1.343-1.148-3.1.638-3.611a10.284,10.284,0,0,1,5.224.314c.6.162,1.167,1.723,1.126,2.618-.193,4.161-2.641,7.061-6.053,9.435.135-2.532.342-4.982.331-7.431,0-.464-.866-.924-1.332-1.386Z" transform="translate(7988.076 -481.239)" fill="#0e7473"/><path d="M-7959.3,532.642c.055.539.11,1.078.146,1.425l-7.255,4.561-.332-.226c.551-.738,1.1-1.479,1.654-2.212.794-1.044,1.561-2.111,2.4-3.116,1-1.187,2.2-1.1,3.447-.373Z" transform="translate(8000.004 -486.868)" fill="#0e7473"/><path d="M-7961.477,530.286l1.636-3.31.883.427-1.742,3.257Z" transform="translate(7996.683 -483.594)" fill="#0e7473"/><path d="M-7987.042,418.48c3.156.991,4.449,3.744,5.817,6.235.73,1.33-.01,2.849-1.61,3.635-1.646.807-3.254,1.689-4.92,2.454-1.542.708-3.49.165-4.091-1.039l-.062.047,1.465-.256c-.225-2.634-.57-5.208.964-7.854.614,1.124,1.075,1.968,1.438,2.631a7.74,7.74,0,0,0-.786,1.107c.559.532,1.434,1.5,1.78,1.357,1.1-.463,2.522-1.18,2.852-2.12.354-1.01.014-3.034-.729-3.468a19.791,19.791,0,0,0-5.722-1.758,13.241,13.241,0,0,0-2.957.01,5.541,5.541,0,0,0,1.946-.722,2.607,2.607,0,0,1,3.6-.331C-7987.8,418.564-7987.383,418.463-7987.042,418.48Z" transform="translate(8016.942 -414.769)" fill="#0e7473"/><path d="M-7996.833,416.391c-.341-.017-.762.085-1.01-.072a2.609,2.609,0,0,0-3.605.331,5.531,5.531,0,0,1-1.945.722l-1.949,1.91-1.134,2.191c-2.417.342-1.377,2.359-1.86,3.641,0,0,0,.007,0,.008-.989-2.9-1.528-5.733,1.338-8.024,3.479-2.779,7.443-3.118,11.562-1.909,2.532.742,4.763,2.118,5.443,4.865a8.915,8.915,0,0,1-.091,3.16C-7991.026,418.434-7992.644,416.767-7996.833,416.391Z" transform="translate(8026.733 -412.68)" fill="#0e7473"/><path d="M-8003.692,429.592l1.134-2.191c-.082,2.741.366,4.976,3.745,5.813,1.333.33,1.023,1.766-.1,2.628l.062-.047c-.622-.126-1.258-.207-1.864-.386C-8004.674,434.243-8005.744,433.705-8003.692,429.592Z" transform="translate(8023.948 -420.8)" fill="#0e7473"/><path d="M-8038.294,557.338l2.325.712c-4.375,1.38-1.419,4.784-2.9,7.225-.416-.4-.944-.695-1.106-1.121a5.021,5.021,0,0,1-.062-1.663c-.02-1.814.886-4.083-2.694-4.148l.366-.505,2.463-.472c.216-.984.445-2.026.675-3.069l.439-.055Z" transform="translate(8047.926 -500.789)" fill="#0e7473"/><path d="M-7988.321,479.161l-6.7-1.1.056-.26c1.979,0,3.961-.056,5.933.048.39.021.746.658,1.118,1.01Z" transform="translate(8017.835 -452.575)" fill="#0e7473"/><path d="M-7973,490.962h5.735C-7968.847,493.134-7971,491.15-7973,490.962Z" transform="translate(8003.953 -460.883)" fill="#0e7473"/><path d="M-7995.25,432.407c1.125-.862,1.435-2.3.1-2.628-3.378-.837-3.827-3.071-3.746-5.813l1.95-1.91a13.239,13.239,0,0,1,2.957-.01,19.791,19.791,0,0,1,5.722,1.758c.743.434,1.084,2.457.729,3.468-.33.94-1.753,1.657-2.852,2.12-.346.146-1.221-.825-1.78-1.357a7.744,7.744,0,0,1,.786-1.107c-.363-.663-.824-1.507-1.438-2.631-1.534,2.646-1.188,5.22-.964,7.854Zm.014-3.538a31.947,31.947,0,0,1,1.479-4.21c.581-1.119,1.489-1.08,1.992.151.514,1.259.881,2.576,1.346,3.971a2.6,2.6,0,0,0,2.542-2.367,2.564,2.564,0,0,0-2.025-3.047,16.131,16.131,0,0,0-5.619-.233,2.824,2.824,0,0,0-2.639,3.072C-7997.972,428.045-7996.556,428.653-7995.236,428.87Z" transform="translate(8020.285 -417.365)" fill="#0e7473"/><path d="M-8002.585,457.828v43.561s.367,4.92-2.806,8.378-22.049,8.907-22.049,8.907a3.517,3.517,0,0,1-2.412,0s-18.875-5.449-22.049-8.907-2.806-8.378-2.806-8.378V457.828" transform="translate(8055.485 -439.988)" fill="none" stroke="#0e7473" stroke-miterlimit="10" stroke-width="4"/></g></g></svg>