<svg xmlns="http://www.w3.org/2000/svg" width="289.17" height="154.489" viewBox="0 0 289.17 154.489"><g transform="translate(4548.546 1915.558)"><path d="M-790.124,257.043c-6.608,20.176-4.807,39.852,2.245,59.689,7.474,21.021-2.689,39.966-24.2,46.355a126.9,126.9,0,0,1-19.609,3.653c-4.28.562-5.686-1.5-3.1-4.927,5.228-6.937,11.124-13.372,16.785-19.98,2.471-2.885,5.349-5.472,7.5-8.571,4.188-6.034,2.565-9.659-4.758-10.993-4.994-.91-10.113-1.2-15.052-2.319-2.424-.55-4.562-2.355-6.83-3.593,1.241-2.262,1.971-5.135,3.815-6.673,5.958-4.97,12.42-9.331,18.5-14.164,3.427-2.724,7.992-5.716,6.094-10.773-1.719-4.581-6.932-3.53-10.932-3.871-3.951-.337-7.925-.4-11.881-.686a50.682,50.682,0,0,1-5.388-1.137c3.733-3.1,6.048-5.9,9.023-7.317,9.569-4.553,19.379-8.6,29.107-12.822,1.593-.691,3.242-1.253,4.865-1.874Z" transform="translate(-3683.05 -2172.601)" fill="#0c514e"/><path d="M-913.9,427.149c1.172-8.776,2.654-17.525,3.452-26.335,1.545-17.062,2.516-34.177,4.161-51.228a32.761,32.761,0,0,1,3.96-12.145c1.828-3.354,4.8-6.195,7.681-8.812,1.219-1.109,3.484-1.067,5.273-1.548.424,1.732,1.176,3.457,1.22,5.2.44,17.469,1.34,34.955.9,52.406a121.948,121.948,0,0,1-4.5,29.477c-2.935,10.487-10.475,16.849-22.141,16.8Z" transform="translate(-3634.643 -2216.768)" fill="#0e7473"/><g transform="translate(-4441.583 -1852.619)"><path d="M-622.343,427.437h3.5v20.844h-3.5Zm1.684,9.476h6.808a2.845,2.845,0,0,0,1.486-.38,2.606,2.606,0,0,0,1-1.082,3.51,3.51,0,0,0,.359-1.62,3.615,3.615,0,0,0-.351-1.634,2.6,2.6,0,0,0-1-1.089,2.842,2.842,0,0,0-1.493-.387h-6.808v-3.283h6.705a7.119,7.119,0,0,1,3.426.8,5.683,5.683,0,0,1,2.3,2.244,6.69,6.69,0,0,1,.82,3.355,6.65,6.65,0,0,1-.82,3.347,5.648,5.648,0,0,1-2.3,2.229,7.172,7.172,0,0,1-3.426.788h-6.705Z" transform="translate(623.075 -427.437)" fill="#0e7473"/><path d="M-569.1,443.908a1.172,1.172,0,0,0,.278.838,1.035,1.035,0,0,0,.79.294h1.04v3.283h-1.9a3.573,3.573,0,0,1-2.731-1.032,4.076,4.076,0,0,1-.974-2.91V427.437h3.5Z" transform="translate(591.704 -427.437)" fill="#0e7473"/><path d="M-550.168,457.171a4.357,4.357,0,0,1-1.3-3.462,4.075,4.075,0,0,1,1.318-3.311,6.04,6.04,0,0,1,3.953-1.1h4.07l.205,2.666h-4.261a2.4,2.4,0,0,0-1.559.43,1.613,1.613,0,0,0-.52,1.319,1.55,1.55,0,0,0,.673,1.383,3.69,3.69,0,0,0,2.035.452,6.482,6.482,0,0,0,2.481-.358,1.179,1.179,0,0,0,.813-1.118l.308,2.122a2.506,2.506,0,0,1-.872,1.175,4.291,4.291,0,0,1-1.5.71,7.358,7.358,0,0,1-1.918.236A5.82,5.82,0,0,1-550.168,457.171Zm7.906-8.508a2.489,2.489,0,0,0-.754-1.935,3.05,3.05,0,0,0-2.131-.688,5.628,5.628,0,0,0-1.727.272,5.389,5.389,0,0,0-1.523.76l-2.327-1.921a5.9,5.9,0,0,1,2.342-1.584,8.786,8.786,0,0,1,3.221-.566,7.673,7.673,0,0,1,3.309.652,4.688,4.688,0,0,1,2.1,1.892,5.825,5.825,0,0,1,.725,2.989V458.1h-3.236Z" transform="translate(578.381 -437.251)" fill="#0e7473"/><path d="M-491.618,427.437h3.5v20.844h-3.5Zm1.449,0h12.518v3.283h-12.518Zm0,8.859h10.908v3.269h-10.908Zm0,8.7h12.518v3.283h-12.518Z" transform="translate(540.636 -427.437)" fill="#0e7473"/><path d="M-443.019,458.059a10.79,10.79,0,0,1-2.306-.738,8.834,8.834,0,0,1-1.94-1.19l2.123-2.58a9.64,9.64,0,0,0,2.365,1.219,7.19,7.19,0,0,0,2.35.416,5.482,5.482,0,0,0,2.423-.423,1.327,1.327,0,0,0,.827-1.226,1.083,1.083,0,0,0-.41-.925,2.42,2.42,0,0,0-1.032-.423q-.623-.115-1.75-.215l-.4-.028q-.206-.014-.4-.043a.962.962,0,0,1-.117-.007.953.953,0,0,0-.117-.007,14.854,14.854,0,0,1-2.621-.481,3.414,3.414,0,0,1-1.72-1.183,3.947,3.947,0,0,1-.7-2.508,4.594,4.594,0,0,1,.7-2.588,4.244,4.244,0,0,1,2.042-1.591,8.957,8.957,0,0,1,3.309-.537,11.643,11.643,0,0,1,2.284.222,11.313,11.313,0,0,1,2.13.645,10.252,10.252,0,0,1,1.926,1.054l-2.094,2.494a9.885,9.885,0,0,0-2.159-.961,7.3,7.3,0,0,0-2.116-.33,4.513,4.513,0,0,0-2.094.387,1.235,1.235,0,0,0-.717,1.147.836.836,0,0,0,.4.745,2.5,2.5,0,0,0,.988.351q.593.094,1.721.194.117.014.227.022c.074,0,.149.012.227.021h.1a.511.511,0,0,1,.117.014,15.958,15.958,0,0,1,2.8.473,3.737,3.737,0,0,1,1.889,1.254,4.194,4.194,0,0,1,.776,2.731,4.637,4.637,0,0,1-.732,2.659,4.446,4.446,0,0,1-2.174,1.634,9.936,9.936,0,0,1-3.536.552A12.939,12.939,0,0,1-443.019,458.059Z" transform="translate(512.666 -437.251)" fill="#0e7473"/><path d="M-404.972,436.19h7.145v3h-7.145Zm2.46,13.956a4.286,4.286,0,0,1-.893-2.946V431.861h3.5v14.866a1.379,1.379,0,0,0,.22.839.753.753,0,0,0,.644.294h1.215v3.283H-399.7A3.6,3.6,0,0,1-402.512,450.146Z" transform="translate(485.995 -430.227)" fill="#0e7473"/><path d="M-375.322,443.215h3.646V458.1h-3.646Zm7.6,3.262a3.343,3.343,0,0,0-1.186-.194,2.674,2.674,0,0,0-2.042.767,2.976,2.976,0,0,0-.725,2.129l-.307-3.369a5.329,5.329,0,0,1,1.72-2.071,4,4,0,0,1,2.335-.738,5.235,5.235,0,0,1,1.8.294,4,4,0,0,1,1.406.868l-2.138,2.881A2.272,2.272,0,0,0-367.723,446.477Z" transform="translate(467.297 -437.251)" fill="#0e7473"/><path d="M-341.358,457.171a4.358,4.358,0,0,1-1.3-3.462,4.075,4.075,0,0,1,1.318-3.311,6.04,6.04,0,0,1,3.953-1.1h4.07l.205,2.666h-4.261a2.4,2.4,0,0,0-1.559.43,1.612,1.612,0,0,0-.52,1.319,1.55,1.55,0,0,0,.674,1.383,3.688,3.688,0,0,0,2.035.452,6.482,6.482,0,0,0,2.481-.358,1.178,1.178,0,0,0,.813-1.118l.308,2.122a2.508,2.508,0,0,1-.871,1.175,4.3,4.3,0,0,1-1.5.71,7.361,7.361,0,0,1-1.918.236A5.821,5.821,0,0,1-341.358,457.171Zm7.906-8.508a2.488,2.488,0,0,0-.754-1.935,3.049,3.049,0,0,0-2.13-.688,5.63,5.63,0,0,0-1.728.272,5.392,5.392,0,0,0-1.523.76l-2.328-1.921a5.909,5.909,0,0,1,2.343-1.584,8.785,8.785,0,0,1,3.221-.566,7.676,7.676,0,0,1,3.309.652,4.687,4.687,0,0,1,2.1,1.892,5.821,5.821,0,0,1,.725,2.989V458.1h-3.236Z" transform="translate(446.7 -437.251)" fill="#0e7473"/><path d="M-300.646,436.19h7.145v3h-7.145Zm2.46,13.956a4.284,4.284,0,0,1-.893-2.946V431.861h3.5v14.866a1.379,1.379,0,0,0,.22.839.753.753,0,0,0,.644.294h1.215v3.283h-1.874A3.593,3.593,0,0,1-298.186,450.146Z" transform="translate(420.204 -430.227)" fill="#0e7473"/><path d="M-269.053,457.536a5.317,5.317,0,0,1-2.328-2.272,7.553,7.553,0,0,1-.805-3.62v-1.677a8.473,8.473,0,0,1,.769-3.77,5.35,5.35,0,0,1,2.24-2.38,7.177,7.177,0,0,1,3.536-.817,5.726,5.726,0,0,1,3.331.953,5.913,5.913,0,0,1,2.108,2.76,11.7,11.7,0,0,1,.725,4.358v.975H-269.8v-2.509h7.072l-.015-.157a4.209,4.209,0,0,0-.893-2.423,2.522,2.522,0,0,0-2.006-.86,3.108,3.108,0,0,0-2.445.967,3.987,3.987,0,0,0-.864,2.746V451.7a3.462,3.462,0,0,0,.937,2.6,3.626,3.626,0,0,0,2.635.91,4.733,4.733,0,0,0,1.706-.322,5.172,5.172,0,0,0,1.516-.9l2.284,2.093a8.521,8.521,0,0,1-2.6,1.641,7.723,7.723,0,0,1-2.906.581A8.03,8.03,0,0,1-269.053,457.536Z" transform="translate(402.257 -437.251)" fill="#0e7473"/><path d="M-226.285,457.551a4.639,4.639,0,0,1-1.772-2.136,8.451,8.451,0,0,1-.607-3.376V449.2a8.639,8.639,0,0,1,.6-3.39,4.617,4.617,0,0,1,1.749-2.15,5,5,0,0,1,2.76-.738,4.172,4.172,0,0,1,2.35.7A5.025,5.025,0,0,1-219.5,445.6l-.307,3.168a3.182,3.182,0,0,0-.308-1.462,2.1,2.1,0,0,0-.893-.918,2.965,2.965,0,0,0-1.42-.315,2.526,2.526,0,0,0-2.02.831,3.444,3.444,0,0,0-.717,2.323v2.809a3.335,3.335,0,0,0,.717,2.287,2.557,2.557,0,0,0,2.02.81,2.9,2.9,0,0,0,1.42-.323,2.143,2.143,0,0,0,.893-.925,3.146,3.146,0,0,0,.308-1.448l.205,3.269a4.045,4.045,0,0,1-1.457,1.871,4.086,4.086,0,0,1-2.423.71A5.127,5.127,0,0,1-226.285,457.551Zm.154,5.921a5.065,5.065,0,0,1-2.167-1.756l2.357-2.107a3.633,3.633,0,0,0,1.311,1.032,3.754,3.754,0,0,0,1.6.358,3.345,3.345,0,0,0,2.357-.8,2.9,2.9,0,0,0,.864-2.244V443.166h3.5V457.6a7.345,7.345,0,0,1-.783,3.512,5.183,5.183,0,0,1-2.284,2.222,7.912,7.912,0,0,1-3.609.76A7.615,7.615,0,0,1-226.132,463.472Z" transform="translate(374.81 -437.202)" fill="#0e7473"/><path d="M-183.993,427.437h3.484v3.426h-3.484Zm0,5.964h3.484v14.88h-3.484Z" transform="translate(346.64 -427.437)" fill="#0e7473"/><path d="M-161.441,457.529a5.3,5.3,0,0,1-2.3-2.279,7.673,7.673,0,0,1-.79-3.62v-2.021a7.52,7.52,0,0,1,.79-3.577,5.272,5.272,0,0,1,2.3-2.258A7.864,7.864,0,0,1-157.81,443a9.076,9.076,0,0,1,2.291.28,6.973,6.973,0,0,1,1.933.81,5.162,5.162,0,0,1,1.427,1.29l-2.372,2.179a4.121,4.121,0,0,0-1.406-.946,4.4,4.4,0,0,0-1.683-.329,3.466,3.466,0,0,0-2.519.867,3.27,3.27,0,0,0-.893,2.459v2.021a3.393,3.393,0,0,0,.886,2.516,3.426,3.426,0,0,0,2.526.882,4.124,4.124,0,0,0,1.7-.359,4.034,4.034,0,0,0,1.391-1.018l2.372,2.322a5.376,5.376,0,0,1-1.442,1.269,6.946,6.946,0,0,1-1.933.8,9.256,9.256,0,0,1-2.276.272A7.8,7.8,0,0,1-161.441,457.529Z" transform="translate(334.366 -437.251)" fill="#0e7473"/><path d="M-607.995,522.816h4.041V543.66h-3.279v-15.9l.147.918-4.656,12.372h-2.811l-4.656-12.085.146-1.2v15.9h-3.28V522.816h4.041l5.154,13.906Z" transform="translate(623.075 -487.586)" fill="#0e7473"/><path d="M-557.93,552.916a5.315,5.315,0,0,1-2.328-2.272,7.552,7.552,0,0,1-.805-3.62v-1.677a8.475,8.475,0,0,1,.769-3.77,5.349,5.349,0,0,1,2.24-2.379,7.177,7.177,0,0,1,3.536-.817,5.726,5.726,0,0,1,3.331.953,5.912,5.912,0,0,1,2.108,2.76,11.7,11.7,0,0,1,.725,4.358v.975h-10.322v-2.509h7.072l-.015-.158a4.2,4.2,0,0,0-.893-2.422,2.521,2.521,0,0,0-2.006-.86,3.107,3.107,0,0,0-2.445.968,3.984,3.984,0,0,0-.864,2.745v1.893a3.461,3.461,0,0,0,.937,2.6,3.624,3.624,0,0,0,2.635.911,4.731,4.731,0,0,0,1.706-.323,5.165,5.165,0,0,0,1.516-.9l2.284,2.093a8.521,8.521,0,0,1-2.6,1.642,7.722,7.722,0,0,1-2.906.58A8.025,8.025,0,0,1-557.93,552.916Z" transform="translate(584.43 -497.401)" fill="#0e7473"/><path d="M-519.524,531.57h7.145v3h-7.145Zm2.46,13.956a4.284,4.284,0,0,1-.893-2.946V527.241h3.5v14.866a1.382,1.382,0,0,0,.22.839.754.754,0,0,0,.644.294h1.215v3.283h-1.874A3.594,3.594,0,0,1-517.064,545.526Z" transform="translate(558.234 -490.376)" fill="#0e7473"/><path d="M-489.875,538.595h3.646v14.88h-3.646Zm7.6,3.261a3.352,3.352,0,0,0-1.186-.193,2.675,2.675,0,0,0-2.042.767,2.976,2.976,0,0,0-.725,2.129l-.307-3.369a5.325,5.325,0,0,1,1.72-2.071,4,4,0,0,1,2.335-.738,5.226,5.226,0,0,1,1.8.294,3.993,3.993,0,0,1,1.406.867l-2.138,2.881A2.273,2.273,0,0,0-482.276,541.856Z" transform="translate(539.537 -497.401)" fill="#0e7473"/><path d="M-454.263,552.93a5.094,5.094,0,0,1-2.2-2.215,7.535,7.535,0,0,1-.754-3.505v-2.423a7.382,7.382,0,0,1,.754-3.462,5.071,5.071,0,0,1,2.2-2.193,7.4,7.4,0,0,1,3.463-.752,7.4,7.4,0,0,1,3.463.752,5.074,5.074,0,0,1,2.2,2.193,7.386,7.386,0,0,1,.754,3.462v2.466a7.416,7.416,0,0,1-.754,3.476,5.114,5.114,0,0,1-2.2,2.2,7.337,7.337,0,0,1-3.463.76A7.338,7.338,0,0,1-454.263,552.93Zm5.615-3.347a3.307,3.307,0,0,0,.761-2.33v-2.466a3.259,3.259,0,0,0-.761-2.308,2.8,2.8,0,0,0-2.153-.817,2.8,2.8,0,0,0-2.152.817,3.259,3.259,0,0,0-.761,2.308v2.466a3.325,3.325,0,0,0,.754,2.33,2.777,2.777,0,0,0,2.159.824A2.784,2.784,0,0,0-448.648,549.583Z" transform="translate(518.939 -497.401)" fill="#0e7473"/><path d="M-411.789,538.595h3.5v20.93h-3.5ZM-407,553.023a3.919,3.919,0,0,1-1.493-1.885l.2-3.254a3.107,3.107,0,0,0,.308,1.441,2.114,2.114,0,0,0,.893.91,2.961,2.961,0,0,0,1.42.315,2.57,2.57,0,0,0,2.021-.8,3.308,3.308,0,0,0,.717-2.279v-2.8a3.441,3.441,0,0,0-.717-2.33,2.537,2.537,0,0,0-2.021-.824,3.014,3.014,0,0,0-1.42.308,2.065,2.065,0,0,0-.893.91,3.15,3.15,0,0,0-.308,1.448l-.307-3.082a5.037,5.037,0,0,1,1.706-2.014,4.14,4.14,0,0,1,2.35-.71,5.035,5.035,0,0,1,2.76.731,4.577,4.577,0,0,1,1.749,2.143,8.688,8.688,0,0,1,.6,3.4v2.809a8.411,8.411,0,0,1-.608,3.362,4.579,4.579,0,0,1-1.779,2.129,5.173,5.173,0,0,1-2.8.731A4.229,4.229,0,0,1-407,553.023Z" transform="translate(490.294 -497.401)" fill="#0e7473"/><path d="M-365.871,552.93a5.092,5.092,0,0,1-2.2-2.215,7.531,7.531,0,0,1-.754-3.505v-2.423a7.378,7.378,0,0,1,.754-3.462,5.069,5.069,0,0,1,2.2-2.193,7.4,7.4,0,0,1,3.463-.752,7.4,7.4,0,0,1,3.463.752,5.071,5.071,0,0,1,2.2,2.193,7.382,7.382,0,0,1,.754,3.462v2.466a7.412,7.412,0,0,1-.754,3.476,5.111,5.111,0,0,1-2.2,2.2,7.34,7.34,0,0,1-3.463.76A7.336,7.336,0,0,1-365.871,552.93Zm5.615-3.347a3.307,3.307,0,0,0,.762-2.33v-2.466a3.259,3.259,0,0,0-.762-2.308,2.8,2.8,0,0,0-2.152-.817,2.8,2.8,0,0,0-2.152.817,3.259,3.259,0,0,0-.762,2.308v2.466a3.327,3.327,0,0,0,.754,2.33,2.779,2.779,0,0,0,2.159.824A2.783,2.783,0,0,0-360.256,549.583Z" transform="translate(463.197 -497.401)" fill="#0e7473"/><path d="M-319.9,539.288a1.174,1.174,0,0,0,.278.839,1.037,1.037,0,0,0,.791.294h1.039V543.7h-1.9a3.573,3.573,0,0,1-2.731-1.032,4.077,4.077,0,0,1-.974-2.91V522.816h3.5Z" transform="translate(434.552 -487.586)" fill="#0e7473"/><path d="M-300.17,522.816h3.485v3.427h-3.485Zm0,5.964h3.485v14.88h-3.485Z" transform="translate(419.904 -487.586)" fill="#0e7473"/><path d="M-282.691,531.57h7.145v3h-7.145Zm2.46,13.956a4.284,4.284,0,0,1-.893-2.946V527.241h3.5v14.866a1.382,1.382,0,0,0,.22.839.754.754,0,0,0,.644.294h1.215v3.283h-1.874A3.594,3.594,0,0,1-280.231,545.526Z" transform="translate(408.881 -490.376)" fill="#0e7473"/><path d="M-253.72,552.551a4.357,4.357,0,0,1-1.3-3.462,4.075,4.075,0,0,1,1.318-3.311,6.04,6.04,0,0,1,3.953-1.1h4.07l.205,2.667h-4.261a2.4,2.4,0,0,0-1.559.43,1.614,1.614,0,0,0-.52,1.319,1.55,1.55,0,0,0,.673,1.383,3.687,3.687,0,0,0,2.035.452,6.475,6.475,0,0,0,2.481-.359,1.178,1.178,0,0,0,.813-1.118l.308,2.121a2.507,2.507,0,0,1-.871,1.176,4.292,4.292,0,0,1-1.5.709,7.342,7.342,0,0,1-1.918.237A5.819,5.819,0,0,1-253.72,552.551Zm7.906-8.508a2.488,2.488,0,0,0-.754-1.935,3.048,3.048,0,0,0-2.13-.689,5.631,5.631,0,0,0-1.728.273,5.383,5.383,0,0,0-1.523.76l-2.328-1.921a5.91,5.91,0,0,1,2.343-1.584,8.783,8.783,0,0,1,3.221-.566,7.674,7.674,0,0,1,3.309.652,4.688,4.688,0,0,1,2.1,1.892,5.821,5.821,0,0,1,.725,2.989v9.562h-3.236Z" transform="translate(391.433 -497.401)" fill="#0e7473"/><path d="M-621.945,638.547a4.638,4.638,0,0,1-1.772-2.136,8.449,8.449,0,0,1-.607-3.376V630.2a8.64,8.64,0,0,1,.6-3.391,4.617,4.617,0,0,1,1.749-2.15,5,5,0,0,1,2.76-.738,4.169,4.169,0,0,1,2.35.7,5.027,5.027,0,0,1,1.705,1.978l-.307,3.168a3.181,3.181,0,0,0-.308-1.462,2.108,2.108,0,0,0-.893-.918,2.962,2.962,0,0,0-1.421-.315,2.524,2.524,0,0,0-2.02.831,3.443,3.443,0,0,0-.718,2.322v2.809a3.335,3.335,0,0,0,.718,2.287,2.557,2.557,0,0,0,2.02.81,2.907,2.907,0,0,0,1.421-.322,2.145,2.145,0,0,0,.893-.925,3.146,3.146,0,0,0,.308-1.448l.205,3.269a4.044,4.044,0,0,1-1.457,1.871,4.087,4.087,0,0,1-2.423.71A5.126,5.126,0,0,1-621.945,638.547Zm6.479-20.35h3.5v20.844h-3.5Z" transform="translate(624.324 -547.735)" fill="#0e7473"/><path d="M-577.432,648.3a5.316,5.316,0,0,1-2.328-2.272,7.552,7.552,0,0,1-.805-3.62v-1.677a8.469,8.469,0,0,1,.769-3.77,5.346,5.346,0,0,1,2.24-2.379,7.177,7.177,0,0,1,3.536-.817,5.725,5.725,0,0,1,3.331.953,5.912,5.912,0,0,1,2.108,2.76,11.7,11.7,0,0,1,.725,4.358v.975h-10.322V640.3h7.072l-.015-.158a4.2,4.2,0,0,0-.893-2.422,2.521,2.521,0,0,0-2.006-.86,3.107,3.107,0,0,0-2.445.968,3.986,3.986,0,0,0-.864,2.745v1.892a3.461,3.461,0,0,0,.937,2.6,3.624,3.624,0,0,0,2.635.911,4.733,4.733,0,0,0,1.706-.323,5.174,5.174,0,0,0,1.516-.9l2.284,2.093a8.524,8.524,0,0,1-2.6,1.642,7.722,7.722,0,0,1-2.906.58A8.026,8.026,0,0,1-577.432,648.3Z" transform="translate(596.728 -557.55)" fill="#0e7473"/><path d="M-521.189,618.2h3.485v20.844h-3.485Zm1.757,17.6h6.281a4.155,4.155,0,0,0,2.723-.752,2.6,2.6,0,0,0,.893-2.1v-.043a3.346,3.346,0,0,0-.351-1.592,2.326,2.326,0,0,0-1.084-1.011,4.182,4.182,0,0,0-1.815-.351h-6.647v-3.211h6.647a3.191,3.191,0,0,0,2.211-.688,2.548,2.548,0,0,0,.761-1.993,2.4,2.4,0,0,0-.805-1.957,3.645,3.645,0,0,0-2.372-.666h-6.442V618.2h6.779a8.076,8.076,0,0,1,3.492.681,4.773,4.773,0,0,1,2.152,1.943,5.972,5.972,0,0,1,.725,3.025,4.668,4.668,0,0,1-.461,2.086,4.115,4.115,0,0,1-1.362,1.57,5.424,5.424,0,0,1-2.2.86,5.182,5.182,0,0,1,2.313.868,4.5,4.5,0,0,1,1.479,1.734,5.321,5.321,0,0,1,.513,2.358v.043a5.762,5.762,0,0,1-.769,3.018,5.03,5.03,0,0,1-2.211,1.971,7.872,7.872,0,0,1-3.419.688h-7.028Z" transform="translate(559.284 -547.735)" fill="#0e7473"/><path d="M-470.259,647.932a4.358,4.358,0,0,1-1.3-3.462,4.075,4.075,0,0,1,1.318-3.311,6.04,6.04,0,0,1,3.953-1.1h4.07l.205,2.667h-4.261a2.4,2.4,0,0,0-1.559.43,1.613,1.613,0,0,0-.52,1.319,1.549,1.549,0,0,0,.673,1.383,3.686,3.686,0,0,0,2.035.452,6.482,6.482,0,0,0,2.481-.359,1.178,1.178,0,0,0,.813-1.118l.308,2.121a2.506,2.506,0,0,1-.871,1.175,4.284,4.284,0,0,1-1.5.71,7.34,7.34,0,0,1-1.918.237A5.819,5.819,0,0,1-470.259,647.932Zm7.906-8.508a2.488,2.488,0,0,0-.754-1.935,3.047,3.047,0,0,0-2.131-.689,5.616,5.616,0,0,0-1.727.273,5.37,5.37,0,0,0-1.523.76l-2.328-1.921a5.9,5.9,0,0,1,2.343-1.584,8.774,8.774,0,0,1,3.221-.566,7.678,7.678,0,0,1,3.309.652,4.691,4.691,0,0,1,2.1,1.892,5.827,5.827,0,0,1,.725,2.989v9.562h-3.236Z" transform="translate(527.988 -557.55)" fill="#0e7473"/><path d="M-426.376,633.976h3.646v14.88h-3.646Zm7.6,3.261a3.352,3.352,0,0,0-1.186-.194,2.675,2.675,0,0,0-2.042.767,2.976,2.976,0,0,0-.725,2.129l-.307-3.369a5.328,5.328,0,0,1,1.72-2.071,4,4,0,0,1,2.336-.738,5.22,5.22,0,0,1,1.8.294,4,4,0,0,1,1.405.867l-2.138,2.881A2.269,2.269,0,0,0-418.777,637.237Z" transform="translate(499.493 -557.55)" fill="#0e7473"/><path d="M-390.625,648.29a5.294,5.294,0,0,1-2.3-2.279,7.667,7.667,0,0,1-.79-3.62v-2.021a7.513,7.513,0,0,1,.79-3.577,5.274,5.274,0,0,1,2.3-2.258,7.869,7.869,0,0,1,3.631-.774,9.076,9.076,0,0,1,2.292.28,6.963,6.963,0,0,1,1.933.81,5.165,5.165,0,0,1,1.427,1.29l-2.372,2.179a4.124,4.124,0,0,0-1.405-.946,4.4,4.4,0,0,0-1.684-.33,3.465,3.465,0,0,0-2.518.867,3.268,3.268,0,0,0-.893,2.459v2.021a3.394,3.394,0,0,0,.886,2.516,3.427,3.427,0,0,0,2.526.881,4.137,4.137,0,0,0,1.7-.358,4.035,4.035,0,0,0,1.391-1.018l2.372,2.322A5.363,5.363,0,0,1-382.785,648a6.943,6.943,0,0,1-1.933.8,9.258,9.258,0,0,1-2.276.272A7.8,7.8,0,0,1-390.625,648.29Z" transform="translate(478.895 -557.55)" fill="#0e7473"/><path d="M-350.15,648.3a5.318,5.318,0,0,1-2.328-2.272,7.553,7.553,0,0,1-.8-3.62v-1.677a8.469,8.469,0,0,1,.769-3.77,5.346,5.346,0,0,1,2.24-2.379,7.176,7.176,0,0,1,3.536-.817,5.725,5.725,0,0,1,3.331.953,5.913,5.913,0,0,1,2.108,2.76,11.7,11.7,0,0,1,.725,4.358v.975H-350.9V640.3h7.071l-.015-.158a4.2,4.2,0,0,0-.893-2.422,2.52,2.52,0,0,0-2.006-.86,3.107,3.107,0,0,0-2.445.968,3.986,3.986,0,0,0-.864,2.745v1.892a3.459,3.459,0,0,0,.937,2.6,3.623,3.623,0,0,0,2.635.911,4.736,4.736,0,0,0,1.706-.323,5.177,5.177,0,0,0,1.515-.9l2.284,2.093a8.533,8.533,0,0,1-2.6,1.642,7.725,7.725,0,0,1-2.907.58A8.027,8.027,0,0,1-350.15,648.3Z" transform="translate(453.398 -557.55)" fill="#0e7473"/><path d="M-305.074,634.669a1.174,1.174,0,0,0,.278.839,1.037,1.037,0,0,0,.791.293h1.039v3.283h-1.9a3.573,3.573,0,0,1-2.731-1.032,4.079,4.079,0,0,1-.973-2.91V618.2h3.5Z" transform="translate(425.203 -547.735)" fill="#0e7473"/><path d="M-283.307,648.311a5.094,5.094,0,0,1-2.2-2.215,7.535,7.535,0,0,1-.754-3.5v-2.423a7.381,7.381,0,0,1,.754-3.462,5.07,5.07,0,0,1,2.2-2.193,7.4,7.4,0,0,1,3.462-.752,7.4,7.4,0,0,1,3.463.752,5.073,5.073,0,0,1,2.2,2.193,7.385,7.385,0,0,1,.754,3.462v2.466a7.416,7.416,0,0,1-.754,3.476,5.114,5.114,0,0,1-2.2,2.2,7.343,7.343,0,0,1-3.463.76A7.343,7.343,0,0,1-283.307,648.311Zm5.615-3.347a3.307,3.307,0,0,0,.761-2.33v-2.466a3.259,3.259,0,0,0-.761-2.308,2.8,2.8,0,0,0-2.153-.817,2.8,2.8,0,0,0-2.152.817,3.259,3.259,0,0,0-.761,2.308v2.466a3.325,3.325,0,0,0,.754,2.33,2.777,2.777,0,0,0,2.159.824A2.784,2.784,0,0,0-277.692,644.964Z" transform="translate(411.13 -557.55)" fill="#0e7473"/><path d="M-240.833,633.976h3.5v14.88h-3.5Zm9,5.863a2.788,2.788,0,0,0-.732-2.064,2.813,2.813,0,0,0-2.079-.731,2.745,2.745,0,0,0-1.991.681,2.561,2.561,0,0,0-.7,1.928l-.307-3.082a5.373,5.373,0,0,1,1.735-2.093,4.259,4.259,0,0,1,2.467-.717,4.667,4.667,0,0,1,3.77,1.584,6.742,6.742,0,0,1,1.339,4.48v9.031h-3.5Z" transform="translate(382.484 -557.55)" fill="#0e7473"/><path d="M-196.167,647.932a4.358,4.358,0,0,1-1.3-3.462,4.075,4.075,0,0,1,1.318-3.311,6.04,6.04,0,0,1,3.953-1.1h4.07l.205,2.667h-4.261a2.4,2.4,0,0,0-1.559.43,1.613,1.613,0,0,0-.52,1.319,1.549,1.549,0,0,0,.673,1.383,3.686,3.686,0,0,0,2.035.452,6.482,6.482,0,0,0,2.481-.359,1.178,1.178,0,0,0,.813-1.118l.308,2.121a2.5,2.5,0,0,1-.872,1.175,4.283,4.283,0,0,1-1.5.71,7.34,7.34,0,0,1-1.918.237A5.819,5.819,0,0,1-196.167,647.932Zm7.906-8.508a2.488,2.488,0,0,0-.754-1.935,3.047,3.047,0,0,0-2.131-.689,5.62,5.62,0,0,0-1.728.273,5.38,5.38,0,0,0-1.523.76l-2.327-1.921a5.9,5.9,0,0,1,2.342-1.584,8.777,8.777,0,0,1,3.221-.566,7.679,7.679,0,0,1,3.309.652,4.691,4.691,0,0,1,2.1,1.892,5.827,5.827,0,0,1,.725,2.989v9.562h-3.236Z" transform="translate(355.139 -557.55)" fill="#0e7473"/></g></g></svg>