<svg xmlns="http://www.w3.org/2000/svg" width="295.293" height="82.171" viewBox="0 0 295.293 82.171"><path d="M316.307,465.093c.944-2.5,1.824-4.856,2.729-7.207,1.521-3.947,3.017-7.9,4.6-11.826a7.066,7.066,0,0,1,7.3-4.683,7.193,7.193,0,0,1,1.695.19,2.166,2.166,0,0,1,1.59,2.5,2.275,2.275,0,0,1-4.5-.181,7.024,7.024,0,0,1,.389-1.725,4.742,4.742,0,0,0-4.024,1.822,15.426,15.426,0,0,0-2.292,4.373q-4.59,11.834-9.193,23.662a1.758,1.758,0,0,1-.328.408,2.012,2.012,0,0,1-.341-.461c-2.735-7.6-5.439-15.219-8.2-22.815q-2.5-6.9-5.164-13.743a15.5,15.5,0,0,0-1.849-3.26c-1.532-2.162-3.8-2.114-5.793-.856a3.581,3.581,0,0,0-1.129,1.236c-.369.65-.037,1.15.708,1.216.512.045,1.028.042,1.54.086a2.039,2.039,0,0,1,1.873,1.65,2.083,2.083,0,0,1-.97,2.31,2.684,2.684,0,0,1-4.154-1.456c-1.082-3.021.561-5.83,3.829-6.61a7.892,7.892,0,0,1,6.928,1.771,18.381,18.381,0,0,1,5.923,8.456c2.3,6.268,4.461,12.583,6.672,18.881C314.87,460.871,315.56,462.919,316.307,465.093Z" transform="translate(-221.577 -421.8)" fill="#0e7473"/><path d="M714.347,428.184h.759v14.732h-.737c-.095-1.017-.151-2-.283-2.982-.789-5.848-4.289-10.33-10.494-11.329a11.874,11.874,0,0,0-8.835,1.541,8.211,8.211,0,0,0-3.762,6.885,9.1,9.1,0,0,0,.7,4.239,6.787,6.787,0,0,0,4.247,3.5c2.437.838,4.923,1.529,7.382,2.3a29.046,29.046,0,0,1,7.423,3.284,9.388,9.388,0,0,1,4.357,9.25,13.263,13.263,0,0,1-2.313,6.875,10.021,10.021,0,0,1-7.266,4.252,13.587,13.587,0,0,1-11.959-4.405,7.594,7.594,0,0,1-2.23-4.094,4.529,4.529,0,0,1,1.37-4,1.409,1.409,0,0,1,.684-.384.994.994,0,0,1,.771.1,1.057,1.057,0,0,1,.219.809,2.12,2.12,0,0,1-.422.86,5.063,5.063,0,0,0,.256,6.293,10.07,10.07,0,0,0,6.29,3.728,12.12,12.12,0,0,0,6.65-.113,7.745,7.745,0,0,0,5.455-6.739,7.316,7.316,0,0,0-1.2-5.705,8.972,8.972,0,0,0-3.7-2.9c-2.5-1.051-5.048-1.99-7.6-2.914a41.111,41.111,0,0,1-6.667-2.774,9.6,9.6,0,0,1-4.716-5.22,11.151,11.151,0,0,1-.355-4.631,13.768,13.768,0,0,1,1.191-4.669,10.657,10.657,0,0,1,8.025-6.033,18.383,18.383,0,0,1,11.666,1.54,16.62,16.62,0,0,0,2.988,1.081c1.2.291,1.765-.176,1.98-1.406C714.276,428.852,714.3,428.549,714.347,428.184Z" transform="translate(-472.451 -420.577)" fill="#0e7473"/><path d="M434.416,485.928h3.676l.033.6H416.871v-.591h3.683V455.1h-3.666l-.042-.527c2.51-.323,5.126.5,7.5-.985V485.9h6.292V455.089h-3.676v-.525c2.47-.312,5.087.5,7.457-.971Z" transform="translate(-301.272 -436.981)" fill="#0e7473"/><path d="M821.5,482.53h-3.975V482c.884-.1,1.759-.156,2.613-.315a5.089,5.089,0,0,0,3.995-3.45c.28-.743.447-1.528.689-2.286.049-.152.207-.269.314-.4l.168.094v6.241h6.353c.014.235.024.4.04.636h-6.336c-.014.26-.033.445-.033.631q0,7.363,0,14.726c0,2.059,1.406,3.018,3.327,2.251a5.944,5.944,0,0,0,2.868-2.91.693.693,0,0,0-.1-.567,10.188,10.188,0,0,1-1.664-6.625,9.734,9.734,0,0,1,19.369-.571,9.971,9.971,0,0,1-5.269,10.462,9.812,9.812,0,0,1-11.239-1.816c-.175-.175-.337-.362-.543-.585-.377.485-.709.939-1.069,1.371-2.113,2.537-5.513,2.427-7.776,1.283-1.458-.737-1.722-2.142-1.727-3.606-.013-4.431,0-8.862,0-13.293Zm23.516,8.451c-.085-1.71-.1-3.431-.276-5.134-.184-1.777-.907-3.335-2.758-3.9a9.478,9.478,0,0,0-3.2-.371c-3.036.159-4.449,1.8-4.61,4.871-.126,2.4-.119,4.805-.119,7.208a17.206,17.206,0,0,0,.234,2.785,4.1,4.1,0,0,0,2.552,3.452,7.186,7.186,0,0,0,3.545.387c2.813-.352,4.073-1.591,4.369-4.436C844.915,494.233,844.929,492.608,845.012,490.98Z" transform="translate(-553.949 -450.833)" fill="#0e7473"/><path d="M573.058,455.105h-3.6V454.6c2.465-.3,5.042.49,7.4-.956v32.317h3.205v.6h-6.928v-3.32c-.167.127-.271.17-.316.246-2.082,3.558-5.7,4.4-9.3,2.992a9.116,9.116,0,0,1-5.955-7.8,10.009,10.009,0,0,1,4.964-10.385,6.834,6.834,0,0,1,10.184,3.021.855.855,0,0,0,.354.4Zm.172,22.433-.217-.008a29.057,29.057,0,0,0-.029-3.882,6.817,6.817,0,0,0-5.763-5.89c-2.445-.257-4.305.582-4.934,3.224a18.788,18.788,0,0,0-.453,3.036,36.4,36.4,0,0,0,.238,8.728c.277,1.613.946,2.99,2.689,3.493a9.311,9.311,0,0,0,1.342.249,6.192,6.192,0,0,0,6.766-4.637A32.715,32.715,0,0,0,573.229,477.538Z" transform="translate(-389.938 -437.016)" fill="#0e7473"/><path d="M496.21,507.551c.006.213.083.439,0,.571a4.539,4.539,0,0,1-7.208.485,8.889,8.889,0,0,1-.7-1.261,2.641,2.641,0,0,0-.3.269,6.953,6.953,0,0,1-5.09,2.479,9.524,9.524,0,0,1-3.955-.318,4.241,4.241,0,0,1-3.05-3.309,4.636,4.636,0,0,1,1.742-4.827,11.52,11.52,0,0,1,5.84-2.224c1.412-.194,2.847-.221,4.271-.321.187-.013.374-.023.592-.037,0-2.007.058-3.973-.021-5.933-.049-1.212-.89-1.954-2.378-2.23a7.946,7.946,0,0,0-4.9.618,2.579,2.579,0,0,0-.767.58,1.051,1.051,0,0,0,.183,1.7,2,2,0,0,1,.977,1.405,1.893,1.893,0,0,1-1.624,2.179,1.94,1.94,0,0,1-2.326-1.647,4.243,4.243,0,0,1,2.274-4.363,8.855,8.855,0,0,1,4.643-1.179,9.911,9.911,0,0,1,5.483,1.476,4.509,4.509,0,0,1,2.25,4.092c-.034,3.723-.012,7.446-.007,11.169,0,.342.033.684.062,1.026a1.406,1.406,0,0,0,2.221,1.119A11.915,11.915,0,0,0,496.21,507.551Zm-7.841-7.871a17.822,17.822,0,0,0-5.709.588,3.866,3.866,0,0,0-2.635,2.91,8.542,8.542,0,0,0,.066,3.85,2.509,2.509,0,0,0,2.051,2.048,5.637,5.637,0,0,0,4.743-1.046,3.161,3.161,0,0,0,1.458-2.24C488.428,503.791,488.368,501.787,488.368,499.68Z" transform="translate(-338.448 -460.067)" fill="#0e7473"/><path d="M776.868,510.136a9.981,9.981,0,1,1,9.769-10A9.735,9.735,0,0,1,776.868,510.136Zm-5.533-9.959c.1,1.773.148,3.567.336,5.345a4.124,4.124,0,0,0,1.93,3.277,6.463,6.463,0,0,0,3.924.734c3.137-.22,4.318-1.784,4.592-4.213a48.549,48.549,0,0,0,.006-10.335,4.258,4.258,0,0,0-2.094-3.544,6.749,6.749,0,0,0-3.772-.67c-2.775.158-4.241,1.44-4.6,4.2C771.442,496.683,771.438,498.425,771.335,500.177Z" transform="translate(-522.164 -460.058)" fill="#0e7473"/><path d="M632.745,503.312h.509a7.861,7.861,0,0,1-5.811,6.558,8.941,8.941,0,0,1-11.147-7.307,10.9,10.9,0,0,1,3.256-10.158,7.236,7.236,0,0,1,10.868.5,10.876,10.876,0,0,1,2.336,4.144c.021.073.056.143.072.217.2.947.112,1.065-.844,1.065-3.666,0-7.333.009-11-.01-.479,0-.618.136-.605.611.051,1.907.019,3.818.116,5.723a7.842,7.842,0,0,0,.521,2.377,3.975,3.975,0,0,0,3.918,2.526,7.287,7.287,0,0,0,7.663-5.747C632.64,503.645,632.695,503.484,632.745,503.312Zm-8.36-5.556c1.2,0,2.4,0,3.607,0,.27,0,.559,0,.564-.393a12,12,0,0,0-.372-4.014,3.377,3.377,0,0,0-2.029-2.326c-1.974-.691-4.547-.151-5.3,2.5a24.263,24.263,0,0,0-.468,3.656c-.054.436.086.605.561.591C622.094,497.733,623.24,497.757,624.385,497.756Z" transform="translate(-426.92 -460.061)" fill="#0e7473"/><path d="M391.379,492.112H387.7l-.036-.634c1.284,0,2.521-.013,3.758,0a6.168,6.168,0,0,0,3.626-.762v19.219H387.7l-.032-.573h3.713Z" transform="translate(-282.871 -460.399)" fill="#0e7473"/><path d="M782.127,579.772c.1.245.14.382.206.508a2.227,2.227,0,0,1-.945,3.128,4.654,4.654,0,0,1-3.11.447.98.98,0,0,0-1.213.867.752.752,0,0,0,.375.59,3.451,3.451,0,0,0,1.063.161c1.2.076,2.4.127,3.593.211a2.014,2.014,0,0,1,.708.211,1.5,1.5,0,0,1,.468,2.605c-1.849,1.874-4.1,1.981-6.478,1.385a4.784,4.784,0,0,1-1.335-.631c-.493-.31-.538-.643-.168-1.094a14.8,14.8,0,0,1,1.206-1.293c.259-.247.28-.407-.009-.636-.728-.576-.716-1.048.02-1.694l.85-.748c-.256-.232-.515-.461-.766-.7a2.272,2.272,0,0,1,.261-3.68,4.511,4.511,0,0,1,3.943-.5c.706.177,1.459.16,2.184.271a6.234,6.234,0,0,1,.956.3c-.178.522-.615.22-.932.278A5.487,5.487,0,0,1,782.127,579.772Zm-2.47,9.726.03-.116c.342-.018.687-.018,1.028-.058a3.269,3.269,0,0,0,2.341-1.031.838.838,0,0,0-.445-1.453,2.476,2.476,0,0,0-.508-.078c-1.388-.08-2.784-.092-4.162-.254a1.354,1.354,0,0,0-1.489.841.956.956,0,0,0,.5,1.527C777.829,589.156,778.752,589.3,779.656,589.5Zm-2.331-8.411a2.627,2.627,0,0,0,.575,1.988,1.828,1.828,0,0,0,1.854.6,1.349,1.349,0,0,0,1.258-1.147,7.894,7.894,0,0,0-.127-2.294,1.678,1.678,0,0,0-1.22-1.251A1.8,1.8,0,0,0,777.325,581.088Z" transform="translate(-527.165 -515.873)" fill="#0e7473"/><path d="M492.076,572.285c-.058-1.166-.057-2.225-.18-3.269-.081-.677-.7-.47-1.175-.553l2.688-.95c.022.3.051.518.052.735q0,4.326,0,8.651a5.649,5.649,0,0,0,.034.742c.142,1.076.242,1.154,1.312,1.132-.795.277-1.586.567-2.391.812-.09.027-.311-.178-.375-.319a2.1,2.1,0,0,1-.045-.651c-.286.147-.489.231-.671.349a3.476,3.476,0,0,1-4.387-.212,3.773,3.773,0,0,1-1-4.132,4.153,4.153,0,0,1,4.894-2.855A10.932,10.932,0,0,1,492.076,572.285Zm-.047,3.631h0c0-.611.035-1.224-.009-1.832a2.029,2.029,0,0,0-1.347-1.94,2.12,2.12,0,0,0-2.416.5,4,4,0,0,0-.822,3.706,2.765,2.765,0,0,0,3.052,2.534,1.435,1.435,0,0,0,1.545-1.6Z" transform="translate(-344.698 -508.826)" fill="#0e7473"/><path d="M713.672,579.377H709.84l-.008-.05c.133-.023.266-.042.4-.069a.91.91,0,0,0,.878-1.058c.011-1.318.025-2.635-.006-3.952-.035-1.557-.8-2.093-2.416-1.629a3.884,3.884,0,0,0-1.249.774.889.889,0,0,0-.189.617c-.016,1.336-.01,2.673-.008,4.01,0,.941.153,1.115,1.092,1.269a.311.311,0,0,1,.2.081h-3.923c1.12-.417,1.182-.471,1.19-1.659.017-2.387.007-4.774,0-7.16,0-.266-.06-.53-.068-.8-.038-1.189-.122-1.274-1.288-1.317l2.777-.95v5.585l.167.08c.185-.137.361-.288.555-.41a7.635,7.635,0,0,1,1.648-.98,2.142,2.142,0,0,1,2.915,2.157c.036,1.316.03,2.634.04,3.951C712.556,578.894,712.712,579.1,713.672,579.377Z" transform="translate(-482.64 -508.811)" fill="#0e7473"/><path d="M346.79,580.406c-.227.017-.312.028-.4.029-1.583,0-3.166,0-4.754-.067.2-.018.4-.021.588-.058a1.094,1.094,0,0,0,1.041-1.213c.011-2.979,0-5.958.014-8.937,0-.389-.16-.51-.508-.5-.781.032-1.567.013-2.34.1a1.727,1.727,0,0,0-1.449,1.3.892.892,0,0,1-.291.488c.04-.73.067-1.461.138-2.187.009-.086.253-.215.389-.215q4.984-.018,9.968.006a.531.531,0,0,1,.388.342,15.616,15.616,0,0,1-.04,2.117c-.04-.142-.081-.284-.118-.426a1.8,1.8,0,0,0-1.65-1.439c-.74-.062-1.485-.059-2.227-.092-.377-.017-.539.115-.537.527.015,2.941,0,5.882.013,8.822C345.022,579.974,345.326,580.214,346.79,580.406Z" transform="translate(-251.988 -509.857)" fill="#0e7473"/><path d="M562.334,568.589l.288,3.53-.085.03a3.194,3.194,0,0,1-.231-.422,4.715,4.715,0,0,0-9.017,1.521,11.283,11.283,0,0,0,.08,2.894c.431,2.313,2.111,3.427,4.328,3.609a5.248,5.248,0,0,0,4.625-1.759,2.226,2.226,0,0,1,.211-.193c.013-.011.036-.01.054-.015a4.886,4.886,0,0,1-2.822,2.178,6.99,6.99,0,0,1-6.468-.969,5.72,5.72,0,0,1-.768-8.191,7.081,7.081,0,0,1,7.909-1.731C561.419,569.5,561.6,569.431,562.334,568.589Z" transform="translate(-385.97 -509.465)" fill="#0e7473"/><path d="M629.037,586.44h-3.948l-.011-.066c.2-.041.391-.076.584-.123a.755.755,0,0,0,.667-.749c.009-1.546.067-3.1-.03-4.636-.072-1.131-1.085-1.63-2.322-1.263a9.684,9.684,0,0,0-1.019.426c1.307-1.655,3.334-1.717,4.266-.628a2.112,2.112,0,0,1,.344.521c.182.422.4.4.676.1a3.885,3.885,0,0,1,2.113-1.288,2.194,2.194,0,0,1,2.815,2.056c.1,1.348.081,2.706.1,4.06.014,1.167.005,1.17,1.138,1.572-.135.009-.2.018-.272.018-1.183,0-2.366,0-3.558-.055.137-.035.272-.079.411-.1a.856.856,0,0,0,.779-.956c-.009-1.337,0-2.674,0-4.011,0-1.442-.693-2.064-2.092-1.738a6.005,6.005,0,0,0-1.707.875c-.137.086-.178.4-.181.614-.016,1.222-.006,2.445-.006,3.667C627.778,586.03,627.815,586.077,629.037,586.44Z" transform="translate(-431.252 -515.863)" fill="#0e7473"/><path d="M756.377,586.427h-3.889c.285-.137.764-.22.963-.5a2.281,2.281,0,0,0,.217-1.2c.025-1.125.023-2.252,0-3.377-.028-1.652-.779-2.181-2.506-1.648a2.477,2.477,0,0,0-.93.539,1.288,1.288,0,0,0-.417.786c-.044,1.239-.019,2.48-.019,3.72,0,1.3,0,1.3,1.223,1.675h-3.854c.992-.3,1.121-.472,1.123-1.466q0-2.032,0-4.064c0-1.145-.079-1.222-1.252-1.372.82-.277,1.637-.564,2.466-.814.057-.017.266.226.281.362a11.718,11.718,0,0,1,.014,1.243c.324-.239.5-.388.7-.51a9.071,9.071,0,0,1,1.65-.978,2.1,2.1,0,0,1,2.922,1.989c.059,1.142.032,2.289.042,3.433,0,.229,0,.458,0,.687C755.134,585.943,755.284,586.135,756.377,586.427Z" transform="translate(-509.5 -515.862)" fill="#0e7473"/><path d="M828.688,586.45c1.109-.249,1.253-.434,1.255-1.541q0-1.919,0-3.839c0-1.284-.031-1.313-1.405-1.462.9-.319,1.661-.591,2.422-.852.317-.109.414.073.414.353v1.058l.175.062a6.283,6.283,0,0,1,.838-.624,7.183,7.183,0,0,1,1.894-.854,2.1,2.1,0,0,1,2.445,2.275c.023,1.3-.005,2.6.011,3.9.014,1.075.146,1.225,1.252,1.522h-4.068a6.834,6.834,0,0,0,.867-.2.919.919,0,0,0,.534-.985c0-1.3.011-2.6-.006-3.9a3.29,3.29,0,0,0-.159-.955,1.167,1.167,0,0,0-1.1-.856,3.042,3.042,0,0,0-2.275.748.984.984,0,0,0-.382.6c-.027,1.45,0,2.9,0,4.352,0,.828.5,1.12,1.228,1.2Z" transform="translate(-560.896 -515.891)" fill="#0e7473"/><path d="M455.867,585.514a10.013,10.013,0,0,1-1.136.828c-.908.492-1.411.236-1.854-.971-.365.2-.725.386-1.064.6a2.783,2.783,0,0,1-2.7.43,1.65,1.65,0,0,1-.576-2.81,12.672,12.672,0,0,1,2.4-1.384,5.733,5.733,0,0,1,1.35-.462c.575-.129.736-.43.7-1.009-.094-1.7-1.241-1.968-2.448-1.654a.907.907,0,0,0-.748,1.009c0,.019,0,.038,0,.057.028.449-.037.9-.54,1a.97.97,0,0,1-.788-.26c-.348-.406-.124-.862.187-1.177a3.3,3.3,0,0,1,1.107-.777,4.974,4.974,0,0,1,3.472-.022,1.6,1.6,0,0,1,1.155,1.654c0,1.278.023,2.556.029,3.834C454.424,585.738,454.605,585.873,455.867,585.514Zm-2.889-3.649a6.849,6.849,0,0,0-3.2,1.466,1.481,1.481,0,0,0-.22,1.664,1.271,1.271,0,0,0,1.272.79,3.162,3.162,0,0,0,1.943-.716.47.47,0,0,0,.195-.318C452.985,583.823,452.978,582.894,452.978,581.865Z" transform="translate(-320.897 -515.826)" fill="#0e7473"/><path d="M807.271,586.64c-2.681.01-4.408-1.447-4.666-3.608a3.621,3.621,0,0,1,.889-2.761,4.375,4.375,0,0,1,6.092-.734,3.776,3.776,0,0,1,.9,5.062A3.906,3.906,0,0,1,807.271,586.64Zm2.247-3.455a5.307,5.307,0,0,0-1.017-3.293,2.349,2.349,0,0,0-3.919.3,5.312,5.312,0,0,0,1.131,5.6,2.263,2.263,0,0,0,3.528-.987A13.29,13.29,0,0,0,809.518,583.186Z" transform="translate(-544.528 -515.836)" fill="#0e7473"/><path d="M591.746,578.676a4.017,4.017,0,0,1,4.159,3.545,4.264,4.264,0,0,1-2.461,4.089,4.067,4.067,0,1,1-1.7-7.634Zm-2.7,3.394a5.325,5.325,0,0,0,.885,3.1,2.372,2.372,0,0,0,2.58,1.07,1.949,1.949,0,0,0,1.632-1.64,5.785,5.785,0,0,0-.619-4.412,2.351,2.351,0,0,0-2.32-1.165,2.073,2.073,0,0,0-1.975,1.7A11.309,11.309,0,0,0,589.046,582.07Z" transform="translate(-408.852 -515.866)" fill="#0e7473"/><path d="M520.454,581.591h-1.907c-1.241,0-2.482.005-3.723,0-.314,0-.5.068-.5.442a3.16,3.16,0,0,0,1.7,3.018,3.009,3.009,0,0,0,3.445-.171,6.415,6.415,0,0,0,.906-1.063c.013.093.047.164.028.217a3.671,3.671,0,0,1-5.7,1.949,4.044,4.044,0,0,1,4.478-6.729A2.555,2.555,0,0,1,520.454,581.591Zm-4.018-.262c.573,0,1.145-.01,1.718,0,.344.009.485-.123.462-.473a1.913,1.913,0,0,0-1.993-1.794,2.257,2.257,0,0,0-2.278,1.778c-.035.343.073.5.431.488C515.328,581.318,515.883,581.329,516.436,581.33Z" transform="translate(-361.939 -515.859)" fill="#0e7473"/><path d="M664.386,583.961c-.074,1.381-1.831,2.754-3.591,2.717a3.784,3.784,0,0,1-3.71-3.862,3.851,3.851,0,0,1,3.959-4.127,3.072,3.072,0,0,1,3.446,2.88c-.2.012-.4.034-.6.034-1.66,0-3.32.015-4.98-.007-.46-.006-.581.157-.575.6a3.319,3.319,0,0,0,4.763,2.965A6.165,6.165,0,0,0,664.386,583.961Zm-3.9-2.618c.552,0,1.1-.018,1.656.006.451.02.561-.172.494-.587a1.923,1.923,0,0,0-2.091-1.682,2.243,2.243,0,0,0-2.182,1.818c-.035.327.09.452.41.447C659.341,581.334,659.912,581.341,660.483,581.343Z" transform="translate(-452.773 -515.872)" fill="#0e7473"/><path d="M864.464,584a3.566,3.566,0,0,1-3.019,2.655,3.786,3.786,0,0,1-4.28-3.666,3.942,3.942,0,0,1,4.178-4.311,3.1,3.1,0,0,1,3.122,2.2c.172.621.109.714-.516.715q-2.52,0-5.039,0c-.293,0-.543.021-.532.41a3.307,3.307,0,0,0,4.458,3.269A6.272,6.272,0,0,0,864.464,584Zm-3.931-2.663H861.9c.862,0,.955-.124.706-.96a1.9,1.9,0,0,0-.19-.414,2.168,2.168,0,0,0-2.317-.837,2.349,2.349,0,0,0-1.687,1.825c-.036.341.139.386.4.385C859.39,581.335,859.961,581.337,860.533,581.338Z" transform="translate(-578.948 -515.867)" fill="#0e7473"/><path d="M394.665,583.681a3.529,3.529,0,0,1-2.115,2.7,3.847,3.847,0,0,1-5.179-4.167,4,4,0,0,1,6.236-2.912,2.713,2.713,0,0,1,1.1,1.678c.105.429-.041.581-.487.577-1.68-.018-3.361.012-5.042-.017-.545-.01-.652.226-.6.69a3.287,3.287,0,0,0,3.6,3.19,2.534,2.534,0,0,0,2.2-1.314C394.462,583.982,394.544,583.865,394.665,583.681Zm-3.954-2.4c.591,0,1.182,0,1.773,0,.3,0,.438-.079.409-.434a1.865,1.865,0,0,0-1.948-1.831,2.253,2.253,0,0,0-2.324,1.855c-.037.32.089.411.374.409C389.567,581.281,390.14,581.285,390.711,581.286Z" transform="translate(-282.669 -515.815)" fill="#0e7473"/><path d="M688.6,583.844a3.356,3.356,0,0,1-2.487,2.683,3.519,3.519,0,0,1-3.408-.782,4.135,4.135,0,0,1-.149-5.878,4.284,4.284,0,0,1,5.267-.5c.139.1.317.2.377.339a1.844,1.844,0,0,1,.241.927c-.027.165-.457.394-.674.365a2.835,2.835,0,0,1-.908-.456c-.037-.021-.05-.1-.057-.158-.09-.729-.37-1.284-1.2-1.352a2.344,2.344,0,0,0-2.177.863,4.051,4.051,0,0,0,.556,5.031,2.979,2.979,0,0,0,4.43-.745C688.469,584.067,688.533,583.956,688.6,583.844Z" transform="translate(-468.107 -515.868)" fill="#0e7473"/><path d="M882.2,586.516v-2.382a13.1,13.1,0,0,0,.615,1.192,2.765,2.765,0,0,0,2.893,1.185,1.184,1.184,0,0,0,1.054-.92,1.285,1.285,0,0,0-.578-1.495c-.886-.481-1.809-.895-2.7-1.369a2.943,2.943,0,0,1-.954-.7,1.921,1.921,0,0,1,1.268-3.037,8.808,8.808,0,0,1,2.083,0c.458.01.916.04,1.441.064v2.234c-.187-.406-.314-.707-.462-1a2.409,2.409,0,0,0-3.22-.914,1.056,1.056,0,0,0-.2,1.674,7.579,7.579,0,0,0,1.594.967c.641.333,1.346.555,1.958.931a1.885,1.885,0,0,1-.17,3.48,4.415,4.415,0,0,1-2.791.311C883.458,586.659,882.878,586.6,882.2,586.516Z" transform="translate(-594.701 -516.024)" fill="#0e7473"/><path d="M432.825,586.532h-4.273a2.749,2.749,0,0,0,.858-.257,1.174,1.174,0,0,0,.486-.713c.039-1.62.053-3.243,0-4.863-.031-.867-.177-.929-1.071-.949a.265.265,0,0,1-.225-.113c.8-.27,1.6-.552,2.41-.791.08-.024.325.2.341.328a8.661,8.661,0,0,1,.017,1.113l.15.062c.138-.131.27-.269.416-.391a6.054,6.054,0,0,1,1.284-1.006,2.033,2.033,0,0,1,1.238.057.535.535,0,0,1,.378.8c-.2.341-.506.655-.989.384-.049-.028-.1-.049-.155-.074a1.5,1.5,0,0,0-2.321,1.493c0,.935,0,1.87,0,2.8C431.365,585.985,431.382,586.01,432.825,586.532Z" transform="translate(-308.655 -515.973)" fill="#0e7473"/><path d="M414.83,586.394h-4.078l-.015-.055c.155-.037.31-.075.465-.11a.847.847,0,0,0,.721-.9c.006-1.623.015-3.246-.009-4.87-.011-.714-.165-.8-1.244-.958.773-.272,1.543-.557,2.325-.8.079-.024.331.207.347.339a9.448,9.448,0,0,1,.017,1.167l.229.1a15.264,15.264,0,0,1,1.212-1.29,1.277,1.277,0,0,1,1.81-.033c.161.178.315.626.23.713a1.538,1.538,0,0,1-.853.387c-.186.025-.406-.175-.605-.285a1.028,1.028,0,0,0-1.454.3,2.314,2.314,0,0,0-.577,1.725c.045.972,0,1.948.017,2.921.02,1.041.223,1.28,1.23,1.548C414.648,586.312,414.694,586.338,414.83,586.394Z" transform="translate(-297.377 -515.836)" fill="#0e7473"/><path d="M163.386,438.312l-.748-.415a3.617,3.617,0,0,1,2.2-.474,4.182,4.182,0,0,0,.965-.3c.086-.028.2-.1.257-.071.972.451,1.978.089,2.964.112,1.921.044,3.845-.063,5.766-.016a5.03,5.03,0,0,1,1.783.512,1.127,1.127,0,0,0,1.463-.375l.145.122a1.566,1.566,0,0,1-.2.448,1.12,1.12,0,0,1-1.668.06,1.5,1.5,0,0,0-1.157-.493,2.954,2.954,0,0,0-2.152.828,2.344,2.344,0,0,1-.339.171,3.367,3.367,0,0,0,.052-.664c-.451-.124-.918-.191-1.38-.273l-.067.2.76.618-.948.839-.291-.937c-.577.368-.889.155-1.065-.424a.459.459,0,0,0-.355-.216c-.721-.024-1.443-.017-2.164-.018-.038,0-.093,0-.11.023-.36.493-.637.331-1.113.062-.25-.141-.878.278-1.274.537a10.053,10.053,0,0,0-.9.865.462.462,0,0,1-.426.032c-.356-.213-.446-.024-.487.273a1.951,1.951,0,0,1-.015.341c-.051.151-.124.385-.226.406a.618.618,0,0,1-.494-.158c-.207-.217-.325-.518-.532-.737-.111-.118-.327-.138-.5-.2a3.169,3.169,0,0,1-.149.4c-.09.17-.2.328-.306.491-.157-.1-.378-.169-.46-.314-.228-.407-.436-.619-.862-.205-.067.065-.359-.012-.466-.112a.447.447,0,0,1,.072-.427,1.278,1.278,0,0,1,.619-.23c.359-.035.73.031,1.086-.017a3.472,3.472,0,0,0,.759-.288l-.035-.18-.351-.213.043-.135a2.655,2.655,0,0,1,.928.3,1.636,1.636,0,0,0,1.286.472Z" transform="translate(-138.581 -426.549)" fill="#0e7473"/><path d="M372.477,586.449c1.171-.252,1.272-.38,1.272-1.524q0-1.976,0-3.953c0-1.206-.063-1.271-1.254-1.414.8-.279,1.6-.585,2.413-.823.386-.113.347.24.348.483q0,2.062,0,4.125,0,.716,0,1.432c0,1.247,0,1.247,1.147,1.694H372.84C372.75,586.467,372.661,586.459,372.477,586.449Z" transform="translate(-273.292 -515.89)" fill="#0e7473"/><path d="M733.076,579.564c.769-.272,1.534-.554,2.307-.812.442-.148.459.151.458.472,0,1.642,0,3.284,0,4.926,0,.248,0,.5,0,.745.01,1.119.1,1.242,1.255,1.551h-3.844c1.046-.331,1.155-.485,1.155-1.629,0-1.26.016-2.521-.008-3.781S734.3,579.7,733.076,579.564Z" transform="translate(-500.695 -515.89)" fill="#0e7473"/><path d="M613.919,579.579c.7-.246,1.4-.477,2.092-.741.487-.187.6,0,.6.461-.011,1.879-.005,3.758,0,5.636,0,1.121.157,1.306,1.249,1.567h-3.792c.292-.167.722-.282.912-.56a2.129,2.129,0,0,0,.189-1.1c.02-1.2.007-2.4.006-3.6,0-.152,0-.305-.007-.457C615.12,579.845,615.023,579.757,613.919,579.579Z" transform="translate(-425.552 -515.924)" fill="#0e7473"/><path d="M113.249,485.458a.992.992,0,0,1-.623,1.162.979.979,0,0,1-1.124-.319c-.406-.394-.882-.716-1.292-1.107a.9.9,0,0,1-.265-.587,1.418,1.418,0,0,1,1.5-1.2c.348.061.834.044,1,.261a11.441,11.441,0,0,1,.956,1.728Z" transform="translate(-107.733 -455.778)" fill="#0e7473"/><path d="M125.945,534.255a4.171,4.171,0,0,0-.622.412,1.242,1.242,0,0,0-.327.52c-.14.462-.212.944-.355,1.4-.148.476-.245.911.21,1.288a.476.476,0,0,1,.092.441c-.1-.069-.229-.116-.282-.209a1.142,1.142,0,0,0-.966-.586.9.9,0,0,1-.555-.639.8.8,0,0,1,.45-.645c.488-.111.613-.294.426-.747a.745.745,0,0,1,.022-.389c.086-.439.171-.88.282-1.313a.881.881,0,0,1,.255-.467c.061-.047.287.093.421.175.273.167.534.352.8.53Z" transform="translate(-116.051 -487.261)" fill="#0e7473"/><path d="M122.363,450.6c-.027.014-.051.035-.059.03-.673-.4-1.237.133-1.834.26-.328.07-.571.477-.892.665-.187.11-.536.2-.662.1-.225-.173.039-.756.36-.889a16.464,16.464,0,0,0,1.635-.7c.243-.133.393-.444.571-.684.126-.17.231-.357.356-.554Z" transform="translate(-113.337 -433.979)" fill="#0e7473"/><path d="M133,537.728c.059.543.123,1.085.173,1.628.013.146.042.35-.037.433a6.857,6.857,0,0,1-.908.795.4.4,0,0,1-.367-.073.649.649,0,0,1,.051-.454c.239-.434.527-.841.763-1.277.167-.309-.007-.456-.3-.6-.148-.071-.191-.358-.282-.547a8.313,8.313,0,0,1,.828-.342,2.382,2.382,0,0,1,.207.4Z" transform="translate(-121.543 -489.768)" fill="#0e7473"/><path d="M162.545,458.551a5.583,5.583,0,0,0,.066-1.311c-.073-.377-.445-.71-.1-1.131.244.207.5.56.648.519.244-.066.419-.387.635-.614a.622.622,0,0,1,.184.91,15.007,15.007,0,0,1-1.043,1.418C162.878,458.419,162.752,458.444,162.545,458.551Z" transform="translate(-140.792 -438.513)" fill="#0e7473"/><path d="M376.419,567.818a.846.846,0,0,1,.9.685.832.832,0,0,1-.885.771.853.853,0,0,1-.871-.726A.819.819,0,0,1,376.419,567.818Z" transform="translate(-275.239 -509.019)" fill="#0e7473"/><path d="M737.016,569.271a.82.82,0,0,1-.843-.763.856.856,0,0,1,.914-.694.83.83,0,0,1,.841.758A.885.885,0,0,1,737.016,569.271Z" transform="translate(-502.647 -509.016)" fill="#0e7473"/><path d="M124.2,457.076c.314.4.3.618-.041.852-.3.209-.52.535-.81.767s-.517.122-.707-.254l.88-.27c-.4-.464-1.268.1-1.342-.86.312-.032.689-.187.937-.07C123.538,457.443,123.871,457.578,124.2,457.076Z" transform="translate(-115.446 -439.182)" fill="#0e7473"/><path d="M128.807,522.095a2.384,2.384,0,0,1,.24.6c.028.606.039,1.215.013,1.821-.007.146-.184.285-.282.427-.153-.116-.433-.229-.436-.348a16.954,16.954,0,0,1,.081-1.97C128.437,522.478,128.622,522.342,128.807,522.095Z" transform="translate(-119.332 -480.185)" fill="#0e7473"/><path d="M142.756,448.631c.285.078.57.154.854.233s.574.162.859.247a1.514,1.514,0,0,1,.579.2c.163.149.376.516.321.581a1.54,1.54,0,0,1-.726.456c-.09.026-.343-.244-.4-.418a.859.859,0,0,0-.683-.666,4.223,4.223,0,0,1-.875-.434Z" transform="translate(-128.381 -433.857)" fill="#0e7473"/><path d="M168.8,454.379l-.372.474a3.927,3.927,0,0,0-.308-.412c-.143-.149-.332-.257-.464-.414a1.68,1.68,0,0,1-.444-.683c-.024-.141.313-.5.42-.477a1.27,1.27,0,0,1,.686.462A5.878,5.878,0,0,1,168.8,454.379Z" transform="translate(-143.846 -436.527)" fill="#0e7473"/><path d="M202.473,445.475c-.1-.031-.209-.061-.313-.094-.728-.232-.716-.226-.38-.95.115-.248.123-.547.242-.793.06-.122.262-.175.4-.26.029.146.068.291.083.438.01.09-.033.187-.02.276.062.431.135.861.2,1.291Z" transform="translate(-165.506 -430.544)" fill="#0e7473"/><path d="M128.8,455.314h.677c.08-.336-.036-.824.54-.739a.479.479,0,0,1,.307.2.316.316,0,0,1-.1.288c-.259.179-.253.379-.238.677.013.232-.259.479-.4.72a4.133,4.133,0,0,1-.616-.531A1.808,1.808,0,0,1,128.8,455.314Z" transform="translate(-119.622 -437.599)" fill="#0e7473"/><path d="M153.758,460.422c.24.03.393.036.539.071.343.081.4.332.174.534a2.142,2.142,0,0,1-.92.5c-.2.042-.465-.186-.7-.293a2.756,2.756,0,0,1,.406-.664C153.387,460.445,153.639,460.452,153.758,460.422Z" transform="translate(-134.79 -441.293)" fill="#0e7473"/><path d="M183.017,445.72c.019.178.112.407.04.486-.327.356-.789,1-1.036.927-.464-.127-.813-.673-1.209-1.045.144-.064.3-.2.428-.173.148.028.268.2.4.3.6.447.725.417,1.053-.244a.926.926,0,0,1,.122-.188C182.838,445.76,182.886,445.76,183.017,445.72Z" transform="translate(-152.423 -432.021)" fill="#0e7473"/><path d="M211.551,422.948a1.839,1.839,0,0,1-.042.66c-.551,1.159-1.273,2.263-.947,3.685-.468-.236-.5-.717-.336-1.4a14.912,14.912,0,0,1,1.324-2.947Z" transform="translate(-170.915 -417.66)" fill="#0e7473"/><path d="M197.093,452.521c-.014.489-.9,1.04-1.2.88-.016-.009-.045-.022-.044-.032.019-.229-.041-.527.081-.672a1.8,1.8,0,0,1,.781-.508C196.806,452.158,197.008,452.443,197.093,452.521Z" transform="translate(-161.907 -436.1)" fill="#0e7473"/><path d="M178.451,449.523c-.1.271-.18.523-.292.758a1.961,1.961,0,0,1-.273.351,2,2,0,0,1-.2-.516c-.011-.1.127-.217.224-.366-.168-.11-.363-.179-.456-.317a1.94,1.94,0,0,1-.171-.563,1.522,1.522,0,0,1,.6.076A3.292,3.292,0,0,1,178.451,449.523Z" transform="translate(-150.198 -434.008)" fill="#0e7473"/><path d="M151.262,440.771l2.662-.678c-.072.192-.108.37-.144.37C152.966,440.465,152.321,441.464,151.262,440.771Z" transform="translate(-133.788 -428.473)" fill="#0e7473"/><path d="M174.54,457.013c-.355.315-.66.807-1.141.39a.76.76,0,0,1-.04-.744C173.874,456.2,174.15,456.819,174.54,457.013Z" transform="translate(-147.673 -438.815)" fill="#0e7473"/><path d="M115.964,469.914a12.047,12.047,0,0,1-.819-1.093c-.053-.088.1-.427.225-.465.173-.055.56.025.577.107a12.634,12.634,0,0,1,.165,1.441Z" transform="translate(-111.005 -446.285)" fill="#0e7473"/><path d="M192.025,452.729l-.758-.749c.192-.146.367-.38.579-.42a.506.506,0,0,1,.611.566C192.455,452.284,192.243,452.438,192.025,452.729Z" transform="translate(-159.016 -435.697)" fill="#0e7473"/><path d="M175.116,445.225a.929.929,0,0,1-.394.053,1.639,1.639,0,0,1-.474-.258c.144-.119.276-.315.435-.34a3.367,3.367,0,0,1,.933.021.353.353,0,0,1,.236.245.372.372,0,0,1-.186.293C175.56,445.286,175.41,445.239,175.116,445.225Z" transform="translate(-148.284 -431.35)" fill="#0e7473"/><path d="M175.431,471.728c-.3.26-.561.549-.607.517a3.651,3.651,0,0,1-.587-.6c.158-.12.325-.345.474-.334C174.912,471.326,175.1,471.523,175.431,471.728Z" transform="translate(-148.277 -448.159)" fill="#0e7473"/><path d="M149.7,488.5c.214.241.475.406.479.577s-.265.327-.414.491l-.62-.585Z" transform="translate(-132.454 -458.999)" fill="#0e7473"/><path d="M163.371,485.476a3.963,3.963,0,0,1-.809-.431.727.727,0,0,1-.114-.557c.013-.109.193-.2.3-.3a4.054,4.054,0,0,1,.308.416c.142.25.262.513.39.77Z" transform="translate(-140.837 -456.283)" fill="#0e7473"/><path d="M156.869,456.86c-.363-.119-.732-.226-1.085-.372-.053-.022-.078-.305-.036-.329.146-.084.371-.195.485-.136a4.954,4.954,0,0,1,.746.566Z" transform="translate(-136.604 -438.508)" fill="#0e7473"/><path d="M130.526,461.388c-.194.04-.433.168-.573.1a2.753,2.753,0,0,1-.663-.577c-.028-.029.03-.216.081-.233a.509.509,0,0,1,.365-.008c.274.15.526.34.787.515Z" transform="translate(-119.928 -441.429)" fill="#0e7473"/><path d="M186.456,439.61l-.451.7c-.121-.141-.368-.324-.338-.414.084-.248-.186-.7.308-.718C186.113,439.17,186.259,439.423,186.456,439.61Z" transform="translate(-155.483 -427.893)" fill="#0e7473"/><path d="M179.575,458.794a5.245,5.245,0,0,1,.523.79c.018.041-.349.345-.408.31a1.157,1.157,0,0,1-.471-.523C179.181,459.271,179.4,459.073,179.575,458.794Z" transform="translate(-151.416 -440.266)" fill="#0e7473"/><path d="M141.383,465.749c-.382.259-.665.474-.972.646-.1.054-.255-.006-.385-.013a1.03,1.03,0,0,1,.138-.324c.124-.134.337-.2.422-.352C140.879,465.195,141.084,465.459,141.383,465.749Z" transform="translate(-126.702 -444.442)" fill="#0e7473"/><path d="M155.009,514.361c-.063.255-.051.507-.164.592a1.605,1.605,0,0,1-.681.223c-.038.007-.173-.211-.158-.31a.486.486,0,0,1,.229-.335A4.385,4.385,0,0,1,155.009,514.361Z" transform="translate(-135.518 -475.308)" fill="#0e7473"/><path d="M139.529,542.149c-.3.182-.51.4-.609.355a.947.947,0,0,1-.415-.488c-.034-.079.142-.249.222-.377Z" transform="translate(-125.74 -492.51)" fill="#0e7473"/><path d="M127.627,477.03c.313-.227.544-.414.8-.566a.311.311,0,0,1,.3.042.361.361,0,0,1,.015.306C128.6,477.179,128.185,477.289,127.627,477.03Z" transform="translate(-118.883 -451.396)" fill="#0e7473"/><path d="M151.61,454.574a2.557,2.557,0,0,1-.6.622c-.127.066-.395-.141-.6-.224l.023-.188,1.051-.35Z" transform="translate(-133.254 -437.516)" fill="#0e7473"/><path d="M161.035,439.244l-1.324.28-.066-.318,1.331-.274Z" transform="translate(-139.075 -427.741)" fill="#0e7473"/><path d="M177.448,469.45a2.557,2.557,0,0,1-.294-.587c-.017-.074.192-.2.3-.3.134.147.323.276.382.449.037.107-.125.281-.2.426Z" transform="translate(-150.116 -446.425)" fill="#0e7473"/><path d="M157.97,454.069a3.648,3.648,0,0,1,.769.017c.1.023.168.235.25.361-.16.064-.346.212-.473.172a2.377,2.377,0,0,1-.582-.392Z" transform="translate(-137.996 -437.279)" fill="#0e7473"/><path d="M190.016,447.7l.4.368c-.153.141-.287.341-.467.4-.095.031-.27-.184-.409-.287Z" transform="translate(-157.929 -433.267)" fill="#0e7473"/><path d="M149.326,512.076l.209.744a2.133,2.133,0,0,1-.5.021,3.654,3.654,0,0,1-.068-.706Z" transform="translate(-132.339 -473.867)" fill="#0e7473"/><path d="M139.484,464.405c-.289.154-.461.313-.543.275a.978.978,0,0,1-.383-.4c-.02-.034.2-.289.252-.271A3.989,3.989,0,0,1,139.484,464.405Z" transform="translate(-125.776 -443.552)" fill="#0e7473"/><path d="M161.529,494.016a2.67,2.67,0,0,1-.554.392c-.056.02-.293-.225-.273-.269a.868.868,0,0,1,.35-.409C161.121,493.7,161.3,493.871,161.529,494.016Z" transform="translate(-139.74 -462.295)" fill="#0e7473"/><path d="M141.187,473.8l-.414.366c-.121-.144-.292-.273-.341-.438-.024-.082.176-.23.275-.348Z" transform="translate(-126.958 -449.463)" fill="#0e7473"/><path d="M186.865,449.093a1.932,1.932,0,0,1,.178.2c-.135.264-.271.528-.421.783,0,.007-.168-.08-.258-.123Z" transform="translate(-155.924 -434.148)" fill="#0e7473"/><path d="M158.311,476c-.225.2-.351.4-.491.406-.1.008-.226-.228-.339-.355.11-.1.213-.261.334-.277S158.079,475.89,158.311,476Z" transform="translate(-137.709 -450.975)" fill="#0e7473"/><path d="M132.355,466.643l-.405.372c-.079-.109-.246-.249-.22-.32a.839.839,0,0,1,.335-.432c.085-.048.271.081.411.13Z" transform="translate(-121.469 -444.969)" fill="#0e7473"/><path d="M169.744,447.931l-.553.965C168.926,448.335,169.086,448.074,169.744,447.931Z" transform="translate(-145.018 -433.415)" fill="#0e7473"/><path d="M124.858,469.206c-.044-.235-.093-.468-.117-.7a1.651,1.651,0,0,1,.282-.076l.181.7Z" transform="translate(-117.063 -446.339)" fill="#0e7473"/><path d="M136.73,466.363c.164.214.355.368.328.447a.8.8,0,0,1-.363.36c-.029.017-.274-.191-.265-.279C136.446,466.741,136.584,466.6,136.73,466.363Z" transform="translate(-124.434 -445.039)" fill="#0e7473"/><path d="M128.106,501.451c-.285.109-.427.219-.521.187a1.659,1.659,0,0,1-.417-.3c.113-.076.235-.226.336-.212A2.334,2.334,0,0,1,128.106,501.451Z" transform="translate(-118.594 -466.959)" fill="#0e7473"/><path d="M113.616,541.217c-.218.15-.339.292-.474.307-.1.011-.214-.147-.321-.229.119-.119.221-.281.365-.34C113.258,540.925,113.406,541.083,113.616,541.217Z" transform="translate(-109.546 -492.076)" fill="#0e7473"/><path d="M152.645,449.179l.589-.267a2.51,2.51,0,0,1,.1.366,4.877,4.877,0,0,1-.594.184Z" transform="translate(-134.66 -434.034)" fill="#0e7473"/><path d="M127.169,482.167c-.113-.291-.215-.433-.205-.566.008-.107.153-.2.238-.305.1.114.26.223.267.343S127.333,481.9,127.169,482.167Z" transform="translate(-118.465 -454.456)" fill="#0e7473"/><path d="M195.488,459.248c-.218.174-.325.307-.459.346-.069.021-.188-.125-.284-.2.092-.124.162-.29.285-.354C195.1,459.009,195.258,459.14,195.488,459.248Z" transform="translate(-161.21 -440.42)" fill="#0e7473"/><path d="M126.141,495.4l-.377.308a1.352,1.352,0,0,1-.256-.38c-.017-.065.177-.265.213-.251A2.031,2.031,0,0,1,126.141,495.4Z" transform="translate(-117.546 -463.149)" fill="#0e7473"/><path d="M196.953,447.784l-.6-.039c.032-.117.056-.331.1-.335a2.5,2.5,0,0,1,.542.056Z" transform="translate(-162.226 -433.085)" fill="#0e7473"/><path d="M134.5,532.076v-.7l.2,0v.7Z" transform="translate(-123.215 -486.035)" fill="#0e7473"/><path d="M164.617,446.656h.846l0,.169h-.852Z" transform="translate(-142.208 -432.611)" fill="#0e7473"/><path d="M132.443,531c-.187.133-.292.259-.409.272-.078.009-.173-.145-.261-.226.1-.1.18-.24.3-.287C132.134,530.732,132.26,530.873,132.443,531Z" transform="translate(-121.498 -485.646)" fill="#0e7473"/><path d="M131.434,548.4a3.075,3.075,0,0,1-.408.342c-.021.013-.211-.162-.2-.2a2,2,0,0,1,.249-.394Z" transform="translate(-120.902 -496.612)" fill="#0e7473"/><path d="M149.75,483.2c-.155.135-.284.289-.318.27a.661.661,0,0,1-.283-.3c-.02-.051.149-.253.2-.242A1.546,1.546,0,0,1,149.75,483.2Z" transform="translate(-132.455 -455.489)" fill="#0e7473"/><path d="M156.305,522.538l-.312-.413c.081-.058.188-.181.239-.161a1.753,1.753,0,0,1,.372.256Z" transform="translate(-136.772 -480.101)" fill="#0e7473"/><path d="M112.828,460.376l-.211-.531.328-.087.131.549Z" transform="translate(-109.418 -440.874)" fill="#0e7473"/><path d="M132.377,522.038l-.625-.113.053-.278.624.126Z" transform="translate(-121.485 -479.903)" fill="#0e7473"/><path d="M157.115,500.37a7.526,7.526,0,0,1,.738.761c.088.119.123.413.045.491a3.5,3.5,0,0,1-.823.578c-.052.028-.219-.177-.342-.26a2.6,2.6,0,0,0-.611-.369c-.39-.124-.817-.142-1.2-.285a.544.544,0,0,1-.184-.9.753.753,0,0,1,.159-.164c.223-.151.451-.293.677-.439a3.455,3.455,0,0,0-.12.706c.006.2.09.557.18.571a1.432,1.432,0,0,0,.823-.117A3.278,3.278,0,0,0,157.115,500.37Z" transform="translate(-135.88 -466.115)" fill="#0e7473"/><path d="M143.518,528.426a2.179,2.179,0,0,1,.243-.1c.189-.048.381-.089.571-.132a4,4,0,0,1-.078.859c-.017.06-.4.089-.564.021-.736-.3-1.429-.848-2.242-.207-.248-.676-.066-1.009.509-1.053a1.08,1.08,0,0,0,.223-.017C143.156,527.5,143.156,527.5,143.518,528.426Z" transform="translate(-127.532 -483.67)" fill="#0e7473"/><path d="M144.632,534.258a13.091,13.091,0,0,1,.282,1.361c.02.193-.127.4-.2.605a1.716,1.716,0,0,1-.534-.3C143.654,535.276,143.774,534.848,144.632,534.258Z" transform="translate(-129.123 -487.855)" fill="#0e7473"/><path d="M213.422,445.087c.241-.293.534-.51.97-.246.419.253.84.5,1.241.783.093.065.107.244.157.37-.15.013-.327.084-.446.03C214.716,445.739,214.1,445.422,213.422,445.087Z" transform="translate(-172.988 -431.392)" fill="#0e7473"/><path d="M149.188,497.617c.035-.436.051-.717.084-1a2.265,2.265,0,0,1,.1-.354,1.216,1.216,0,0,1,.4.128,1.352,1.352,0,0,1-.022,1.537.446.446,0,0,1-.414.028A.727.727,0,0,1,149.188,497.617Z" transform="translate(-132.48 -463.897)" fill="#0e7473"/><path d="M170.42,522.453l-1.018.849-.144-.123.035-.423q.038-.458.076-.916l1.017.394Z" transform="translate(-145.137 -480.024)" fill="#0e7473"/><path d="M135.981,554.406c-.154-.658.272-1.155.817-1a.415.415,0,0,1,.241.322.665.665,0,0,1-.268.441A3.862,3.862,0,0,1,135.981,554.406Z" transform="translate(-124.132 -499.912)" fill="#0e7473"/><path d="M161.9,524.811l.879-.636.088,1.421-.213.093Z" transform="translate(-140.499 -481.497)" fill="#0e7473"/><path d="M184.643,473.687c.018.487.048.932.607,1.086,0,0-.055.237-.085.364-.235-.06-.6-.048-.68-.193A1.018,1.018,0,0,1,184.643,473.687Z" transform="translate(-154.646 -449.658)" fill="#0e7473"/><path d="M148,544.085c.148.2.41.391.411.588s-.261.389-.408.583a2.058,2.058,0,0,1-.361-.582c-.038-.167.093-.373.15-.562Z" transform="translate(-131.501 -494.053)" fill="#0e7473"/><path d="M165.312,520.6l.888-.586.114,1.241-.193.1Z" transform="translate(-142.648 -478.872)" fill="#0e7473"/><path d="M198.911,463.287c-.03-.146-.124-.317-.078-.433a4.666,4.666,0,0,1,.5-.953c.077-.11.3-.117.458-.171a3.876,3.876,0,0,1-.129.431c-.106.249-.226.492-.346.734-.069.138-.15.27-.225.4Z" transform="translate(-163.78 -442.117)" fill="#0e7473"/><path d="M137.8,490.662a6.268,6.268,0,0,1-.223.826,2.24,2.24,0,0,1-.322.423,1.819,1.819,0,0,1-.362-.462c-.035-.1.083-.295.187-.381A5.184,5.184,0,0,1,137.8,490.662Z" transform="translate(-124.724 -460.363)" fill="#0e7473"/><path d="M155.557,553.009a2.629,2.629,0,0,1,.238.31c-.234.252-.482.493-.739.721a1.912,1.912,0,0,1-.231-.216C155.047,553.558,155.283,553.306,155.557,553.009Z" transform="translate(-136.035 -499.68)" fill="#0e7473"/><path d="M144,550.285l.42-1.708c.454.749.3,1.178-.436,1.693Z" transform="translate(-129.201 -496.885)" fill="#0e7473"/><path d="M186.608,469.384a6.637,6.637,0,0,1-.018.967c-.014.095-.239.158-.368.236-.034-.146-.12-.3-.089-.434a5.6,5.6,0,0,1,.286-.754Z" transform="translate(-155.775 -446.944)" fill="#0e7473"/><path d="M137.759,558.061l.438,1.239-.281.105-.458-1.221Z" transform="translate(-125.083 -502.866)" fill="#0e7473"/><path d="M223.213,436.519c-.181.136-.306.281-.357.258a4.421,4.421,0,0,1-.581-.359c.093-.117.238-.348.27-.333A5.039,5.039,0,0,1,223.213,436.519Z" transform="translate(-178.571 -425.944)" fill="#0e7473"/><path d="M109.105,552.523a2.161,2.161,0,0,1,.276.46,3.385,3.385,0,0,1,.059.65.554.554,0,0,1-.23.047,3.4,3.4,0,0,1-.247-.662C108.941,552.913,109.025,552.785,109.105,552.523Z" transform="translate(-107.111 -499.374)" fill="#0e7473"/><path d="M240.1,414.424c.088-.339.28-.561.672-.474.079.018.126.185.188.284l-.745.413Z" transform="translate(-189.809 -411.974)" fill="#0e7473"/><path d="M105.8,532.731l.418-.478c.089.151.251.3.248.452s-.168.3-.262.446Z" transform="translate(-105.119 -486.591)" fill="#0e7473"/><path d="M113.943,572.335c.318.341.163.742.107,1.13l-.172.025-.187-1.119Z" transform="translate(-110.095 -511.868)" fill="#0e7473"/><path d="M215.164,449.225c-.27.146-.413.29-.533.272-.147-.021-.275-.177-.411-.274.114-.093.228-.258.343-.26C214.715,448.961,214.869,449.087,215.164,449.225Z" transform="translate(-173.491 -434.066)" fill="#0e7473"/><path d="M167.437,516.807v.781l-.111.072c-.088-.12-.245-.239-.246-.36a1.789,1.789,0,0,1,.171-.541Z" transform="translate(-143.763 -476.82)" fill="#0e7473"/><path d="M166.381,528.414c.067-.219.13-.438.214-.651a1.31,1.31,0,0,1,.263.068c-.041.226-.1.45-.155.673Z" transform="translate(-143.323 -483.759)" fill="#0e7473"/><path d="M169.219,515.023c-.132-.171-.28-.293-.259-.349a1.53,1.53,0,0,1,.284-.368c.1.1.283.2.276.284C169.51,514.717,169.362,514.832,169.219,515.023Z" transform="translate(-144.948 -475.273)" fill="#0e7473"/><path d="M130.5,511.871l-.384.243c-.078-.133-.2-.262-.216-.4-.007-.08.171-.175.265-.264Z" transform="translate(-120.317 -473.472)" fill="#0e7473"/><path d="M143.109,553.16c0,.018.008.041,0,.055-.105.2-.213.408-.32.611l-.2-.22.53-.431Z" transform="translate(-128.322 -499.776)" fill="#0e7473"/><path d="M110.872,427.939l-.36.344c-.083-.109-.233-.221-.23-.327s.157-.215.245-.321Z" transform="translate(-107.945 -420.616)" fill="#0e7473"/><path d="M155.529,539.673h.913C156.207,540.049,155.98,540.06,155.529,539.673Z" transform="translate(-136.479 -491.27)" fill="#0e7473"/><path d="M144.59,413.922a21.688,21.688,0,0,1,1.765-2.526,7.386,7.386,0,0,1,2.686-1.933,10.241,10.241,0,0,1,2.4-.692,1.36,1.36,0,0,1,.323.03c.233,1.161.262,1.209,1.028,1.506a1.357,1.357,0,0,0,.367.036,2.248,2.248,0,0,0-.011-.367c-.035-.188-.184-.492-.128-.533a.8.8,0,0,1,.615-.173c.141.052.185.358.283.546.08.154.161.41.268.425a.843.843,0,0,0,.636-.148c.23-.225.179-.533-.178-.592-.441-.073-.575-.363-.64-.867.426.123.847.275,1.281.358a3.384,3.384,0,0,0,.818-.062l.118.425c.377.237.689.426.994.627a9.61,9.61,0,0,1,.87.609,16.2,16.2,0,0,1,1.288,1.16,6.739,6.739,0,0,1,.835,1.073,7.467,7.467,0,0,1,1.01,1.813,8.346,8.346,0,0,1,.112,2.084c.008.4-.022.775.569.781.088,0,.25.42.247.643-.025,2.28-.075,4.56-.124,6.839a35.327,35.327,0,0,0-.078,4.11c.18,1.871-.431,3.657-.368,5.5.035,1,.126,2,.119,3-.013,1.662.291,3.344-.266,4.979a3.727,3.727,0,0,0-.093.619,44.027,44.027,0,0,0-.491,8.051,33.682,33.682,0,0,0,.583,3.43,35.324,35.324,0,0,1-1.329,16.113c-.439,1.313-.822,2.645-1.238,3.966q-.239.759-.509,1.507a7.186,7.186,0,0,1-2.649,3.457c-3.273,2.407-6.43,4.974-9.6,7.519a15.759,15.759,0,0,1-7.406,3.405,19.612,19.612,0,0,1-7.164-.462,80.612,80.612,0,0,1-11.508-3.371c-.933-.346-1.906-.6-2.807-1.015a12.1,12.1,0,0,1-2.3-1.385,32.578,32.578,0,0,1-3.339-2.833c-1.313-1.327-2.521-2.763-3.722-4.2a8.972,8.972,0,0,1-1.274-1.98,7.289,7.289,0,0,1-.364-1.75c-.127-.705-.222-1.417-.371-2.117a18.108,18.108,0,0,0-.591-2.368c-.483-1.343-.122-2.758-.391-4.079-.375-1.839-.2-3.685-.419-5.514-.062-.515-.281-1.014-.315-1.528a11.845,11.845,0,0,1,.123-1.518c.021-.321.007-.645,0-.967-.014-1.1,0-2.2-.054-3.3-.056-1.158-.242-2.312-.252-3.469-.014-1.746.077-3.492.123-5.239.018-.678.006-1.359.064-2.034.041-.482.187-.954.264-1.434.068-.424.1-.855.158-1.28.243-1.666.511-3.328.73-5a11.119,11.119,0,0,0-.01-1.5c0-.108-.021-.261.038-.319.774-.738.577-1.759.731-2.655a19.151,19.151,0,0,0,.079-2.618.647.647,0,0,1,.155-.386.645.645,0,0,0-.1-1.056.3.3,0,0,1-.095-.191c-.129-1.127-.265-2.254-.361-3.384-.014-.168.175-.351.26-.532a1.176,1.176,0,0,0,.148-.4c.027-.526.034-1.053.035-1.579a.434.434,0,0,0-.192-.318l-.152.775-.093,0q-.075-.682-.15-1.364a1.939,1.939,0,0,0-.049-.454,2.87,2.87,0,0,1,.447-2.812,12.829,12.829,0,0,0,1.507-2.761c.225-.6.765-.828,1.036-1.333.188-.348.405-.153.58.126a14.305,14.305,0,0,0,1.132,1.645c.5.593,1.125,1.082,1.6,1.691.2.25.145.695.215,1.1l.529.026c.3.414.6.8.876,1.2.165.235.42.447.217.8-.034.059.062.269.146.308.537.252.58.743.641,1.231.014.11,0,.255.062.323,1.092,1.174,2.287,2.05,4.054,1.711a9.557,9.557,0,0,1,2.084.075c-.176.166-.257.313-.353.323a10.768,10.768,0,0,1-1.864.136,2.482,2.482,0,0,0-1.807.267c-.272.2-.462.116-.508-.237-.061-.464-.375-.671-.807-.478-.6.27-1.182.593-1.885.951.322.366.591.646.826.953a1.217,1.217,0,0,1,.118.426,1.771,1.771,0,0,1-.413-.03c-.3-.094-.587-.236-.89-.321a1.78,1.78,0,0,1-1.25-.714c-.147-.255-.352-.469-.7-.225-.065.046-.214-.046-.312-.023a1.362,1.362,0,0,0-.547.2c-.26.214-.455.509-.718.717-.118.093-.337.058-.509.081.023-.192-.023-.484.082-.557a1.044,1.044,0,0,0,.439-.891,11.3,11.3,0,0,1,.54-2.094c.134-.43.3-.822-.321-.993a.3.3,0,0,1-.177-.136c-.168-.364.1-.766-.267-1.183-.344-.391.178-.755.514-1.046a.836.836,0,0,0,.276-.475,8.175,8.175,0,0,0,.112-1.7,1.42,1.42,0,0,0-.5-.852c-.324-.269-.377.116-.479.324a6.583,6.583,0,0,1-.671,1.15c-.256-.561-.581-1.066-.134-1.656a2.461,2.461,0,0,0,.237-.744,1.229,1.229,0,0,0-1.14,1.33c.034.3.088.548-.262.726-.1.049-.113.354-.086.529.11.705.264,1.4.372,2.109.021.141-.056.407-.14.431a.623.623,0,0,1-.507-.1c-.338-.3-.633-.646-1.05-1.085v1.786l.071.018.246-.8c.146.277.266.4.264.52a1.762,1.762,0,0,0,.656,1.284,2.766,2.766,0,0,1,.29.539c.11.183.238.355.36.531.087.125.177.247.266.37-.155.085-.305.233-.465.244-.827.056-.843.058-.475.816.2.406.209.681-.276.915-.564.271-.589.668-.244,1.2a1.67,1.67,0,0,1,.25.793c.034.727.011,1.458.011,2.3l-.437.271a2.323,2.323,0,0,1-.095,2.091c-.141.229-.011.385.3.352a.753.753,0,0,1,.848.727c.009.095-.042.253-.109.281a.364.364,0,0,1-.294-.091c-.1-.083-.148-.224-.243-.314-.254-.241-.464-.182-.534.152a3.867,3.867,0,0,0-.029.742,2.379,2.379,0,0,1-.282,1.6c-.113.146-.079.4-.117.609-.053.283-.11.566-.192.988.4.372.452.872-.095,1.426-.1.1.076.443.083.675s.045.54-.076.637a.967.967,0,0,0,.025,1.683c.044.033.075.084.025.026-.136.576-.225,1.072-.375,1.549-.1.307-.119.519.169.749.1.077.074.416-.01.576s-.438.245-.452.385a3.114,3.114,0,0,0,.1,1.059c.165.655.4,1.294.554,1.95a.567.567,0,0,1-.239.45.772.772,0,0,0-.254,1.07c.078.088.311.068.466.047s.288-.132.439-.153c.04-.006.173.221.148.256a1.444,1.444,0,0,1-.362.319,2.542,2.542,0,0,1-.4.167,3.882,3.882,0,0,0,.434.6,2.287,2.287,0,0,1,.764,2.459,13.83,13.83,0,0,0-.02,1.388,2.205,2.205,0,0,1-.441.936c-.308.407-.3.6.164.817a1.636,1.636,0,0,1,.6,1.465,14.9,14.9,0,0,0-.117,2.209c0,.3.008.524-.316.633a.573.573,0,0,0-.294.164,5.273,5.273,0,0,0-.3.61c.246.1.505.3.737.276.645-.077.865.058.906.707.1,1.591.23,3.18.3,4.772a8.826,8.826,0,0,1-.189,1.459c-.048.377-.056.763-.141,1.131-.039.169-.219.306-.335.458-.09-.158-.187-.312-.268-.474a3.767,3.767,0,0,0-.194-.445,7.782,7.782,0,0,0-.868.287c.067.14.108.378.206.4.573.156.52.556.384.952-.11.321-.129.566.235.691.4.139.449-.2.593-.443a1.971,1.971,0,0,1,.521-.573,2.038,2.038,0,0,0,.393-1.6,4.224,4.224,0,0,1,.041-1.082c.021-.224.114-.444.122-.667.021-.605,0-1.212.024-1.817.023-.487.189-.974-.223-1.409-.054-.057.11-.468.259-.542.355-.175.758-.144.862.331.1.44.071.9.14,1.353s.222.912.284,1.374c.078.581.121,1.168.143,1.754.018.487.256.8.8,1.2.006-1.034.756-1.764.4-2.749a.933.933,0,0,1,.1-.718c.266-.418.383-.746-.042-1.153-.352-.336-.261-.672.162-.936.145-.091.308-.154.451-.248.321-.211.564-.227.682.214.028.106.087.254.17.286.929.365,1.161,1.351,1.794,1.975a1.37,1.37,0,0,0,.422.192c.03-.167.139-.379.075-.491a1.179,1.179,0,0,1,.047-1.423,2.853,2.853,0,0,0,.335-1.14c.086-.511.7-1,1.171-.813.2.079.333.387.424.62.056.143-.025.341-.059.639.385-.342.64-.747.933-.776s.624.316.965.513a.644.644,0,0,0-.2-.9,1.319,1.319,0,0,1-.364-.639c-.1-.365-.114-.757-.222-1.121a.932.932,0,0,0-.369-.54c-1-.506-1.008-1.4-.951-2.316.027-.431.185-.85-.432-1.058-.326-.11-.209-.469.159-.663a.839.839,0,0,0,.4-.447c.047-.171-.03-.525-.128-.556a2.3,2.3,0,0,0-.789.04.984.984,0,0,1-.04-.29c.024-.236.079-.468.121-.7a6.238,6.238,0,0,0,.574.321c.143.063.357.153.451.093a.642.642,0,0,0,.249-.454,10.556,10.556,0,0,0-.064-1.06c-.02-.346-.223-.4-.459-.237-.144.1-.194.325-.329.445a1.746,1.746,0,0,1-.453.214c0-.188-.064-.51.007-.542.559-.256.357-.847.58-1.243.034-.062-.119-.305-.236-.361a3.082,3.082,0,0,0-.816-.249,3.953,3.953,0,0,0-.706,0l.061.649c-.464.2-.657.086-.8-.393-.04-.138-.354-.342-.434-.3-.548.277-1.067.611-1.622.941a3.567,3.567,0,0,1,.437.637c.149.376.305.778-.321.935-.121.03-.21.311-.254.49-.039.158.084.409,0,.5-.524.561-.291,1.209-.232,1.822.044.453-.061.7-.546.713-.06,0-.118.071-.177.109.035.06.047.11.073.121.738.283.959.76.54,1.454-.363.6-.427,1.413-1.157,1.778a.115.115,0,0,0-.035.044,5.7,5.7,0,0,0,.3,2.189c.289.212.351.466.115.727s-.459.136-.653-.118a.6.6,0,0,0-.362-.24.725.725,0,0,1-.729-.85c.047-1.242-.178-2.529.527-3.679a.4.4,0,0,0,.071-.271c-.295-1.091.386-1.984.586-2.973.115-.574.151-1.164.262-1.739a7.306,7.306,0,0,1,.33-1.138c.246-.669.523-1.326.776-1.993.051-.134.119-.328.062-.427-.347-.6.053-1.069.266-1.556a1.376,1.376,0,0,1,1.461-.333,2.944,2.944,0,0,0,1.457.35,4.305,4.305,0,0,1,1.383.614,6.482,6.482,0,0,1,2.7,2.193c.113.162.753.152.993-.01.6-.4,1.248-.194,1.86-.322.02.167.094.461.05.48a3.751,3.751,0,0,1-1.2.392.932.932,0,0,0-.794.424,3.216,3.216,0,0,0-.651,2.029c.005.443.194.5.626.448.9-.115,1.106-.811,1.36-1.442a3.031,3.031,0,0,1,.635-.076.96.96,0,0,1,.541.2.462.462,0,0,1,.009.452.662.662,0,0,1-.468.221,1.123,1.123,0,0,0-1.159.985.512.512,0,0,0,.181.375,1.207,1.207,0,0,1,.26,1.839c-.114.148-.1.611.008.677.853.52.614,1.4.782,2.149.025.11-.034.267.024.334a1.4,1.4,0,0,0,.522.426c.1.035.411-.191.4-.259-.038-.219-.136-.542-.3-.6-.4-.153-.4-.415-.427-.763a12.7,12.7,0,0,0-.236-1.38.54.54,0,0,1,.077-.4,3.294,3.294,0,0,1,.675.671,3.241,3.241,0,0,1,.171.966,1.589,1.589,0,0,0,.383-.365,6.469,6.469,0,0,1,.339-.831,2.494,2.494,0,0,1,.68-.457l-.035-.17a1.678,1.678,0,0,0-.583.059c-.265.131-.558.358-.739.022-.115-.213,0-.551.021-.832a.859.859,0,0,1,.094-.225c-.11-.071-.2-.138-.3-.188-.41-.214-.348-.482-.04-.7.465-.333.962-.622,1.48-.953l.24.419c.658-.66.72-1.236.174-1.805-.239-.249-.205-.431.03-.615.174-.136.372-.243.69-.445,0,.394-.018.659.006.92a1.046,1.046,0,0,0,.159.548.466.466,0,0,0,.447-.036c.083-.139.025-.357.051-.538s.087-.38.128-.571c.044-.208.188-.482.106-.614-.221-.353-.445-.057-.651.093a1.039,1.039,0,0,1-.182.068c-.1-.143-.282-.29-.32-.467-.156-.729-.743-.916-1.318-1.152a.475.475,0,0,1-.256-.356c.008-.119.2-.33.291-.322a8.107,8.107,0,0,0,1.149.177c.337-.026.65-.3.992-.365a1.278,1.278,0,0,1,.759.165c.189.1.311.329.462.5-.23.064-.494.23-.685.17a.726.726,0,0,0-.908.386.4.4,0,0,0-.018.359.365.365,0,0,0,.333.116c.527-.317,1.253-.253,1.63-.85.07-.111.233-.221.222-.317-.066-.577.357-.8.726-1.063.33-.231.539-.431.25-.878-.161-.248-.133-.57.317-.683s.431-.4.239-.831a2.677,2.677,0,0,0-1.06-1.266c-.188-.115-.393-.2-.591-.3a2.2,2.2,0,0,1-.444-.218c-.234-.193-.478-.249-.609.043-.049.109.115.4.257.495.328.217.728.329,1.047.556.161.115.21.387.357.684l.4.12c-.081.123-.127.272-.191.28-.583.07-.634.516-.718.956-.22,1.156-.6,1.352-1.738,1.013a3.4,3.4,0,0,1-1.391-.565c-.313-.266-.752-.312-.9.3a1,1,0,0,1-.341.581,1.775,1.775,0,0,1-.7.1c.035-.185.01-.424.117-.547.551-.635.394-1.106-.414-1.38a12.232,12.232,0,0,1-1.808-.814c-.789-.42-1.559-.877-2.314-1.354-.146-.092-.188-.349-.278-.53.222-.093.451-.278.663-.26a9.533,9.533,0,0,1,1.314.285l.069-.171-.258-.491a2.617,2.617,0,0,0,.2-.215c.085-.114.16-.235.239-.353-.109-.063-.23-.191-.323-.173a.575.575,0,0,0-.38.25c-.306.677-.351.707-.939.266-.329-.246-.551-.187-.734.163-.276.529-.543,1.062-.841,1.578a.6.6,0,0,1-.9.241,1.324,1.324,0,0,1,.188-.351.745.745,0,0,0,.233-.921,1.048,1.048,0,0,1-.005-.5.711.711,0,0,0-.322-.769c-.32-.239-.684-.613-.151-1.066.08-.068.034-.318.006-.476-.091-.509.1-.82.593-.8a3.512,3.512,0,0,1,2.375.636,8.058,8.058,0,0,0,3.728,1.691,8.421,8.421,0,0,1,2.183,1.045c.267.138.516.313.818.5.041-.137.069-.238.1-.337.169-.546.461-.675,1.005-.438.4.173.791.353,1.346.6a12.5,12.5,0,0,0-.2-1.487c-.029-.115-.341-.151-.514-.24-.191-.1-.372-.214-.558-.322.132-.168.262-.338.4-.5a.214.214,0,0,1,.1-.049c.76-.225.834-.3.6-1.136-.454-1.622-.949-3.233-1.454-4.841-.059-.188-.276-.34-.451-.464-.03-.021-.21.21-.343.287a.672.672,0,0,1-.423.129c-.33-.086-.638-.263-.968-.344a.917.917,0,0,0-.627.045c-.4.238-.642.2-.894-.209a.693.693,0,0,0-.588-.251c-.165.032-.414.322-.392.462a.693.693,0,0,0,.446.48c.663.086.626.7.883,1.079.023.035-.14.276-.2.269-.165-.018-.441-.089-.463-.188a.826.826,0,0,0-.888-.771c-.2-.007-.568-.447-.532-.62a1.882,1.882,0,0,1,.6-1.12.91.91,0,0,1,1.148-.053c.052.045.555-.247.652-.469a1.2,1.2,0,0,1,1.129-.787c.56-.056,1.1-.31,1.661-.371a5.292,5.292,0,0,1,1.088.185c.526.061.551.417.571.827.021.429.435.6.9.355.294-.155.564-.382.871-.085.088.085.083.267.12.406a4.15,4.15,0,0,1-.889.216c-.841.018-.879.034-.745.865a2.112,2.112,0,0,0,.186.594c.343.693.711,1.373,1.052,2.067a2.385,2.385,0,0,1,.1.493,12.811,12.811,0,0,0,.343,1.346c.09.252.349.288.466.014.436-1.029.848-2.067,1.253-3.109.15-.387.247-.794.383-1.187.259-.75.519-1.5.8-2.243a4.141,4.141,0,0,1,.341-.511c.1-.173.28-.4.234-.538-.156-.473.114-.564.458-.66.926-.258.924-.269.925-1.216,0-.108.128-.315.163-.308.194.04.493.083.546.212.342.842.961.833,1.7.671.209-.046.458.122.695.161a2.7,2.7,0,0,0,1.005.1c.357-.086.476-.419.432-.826-.042-.39.136-.6.6-.466a.754.754,0,0,0,.972-.477c.075-.169.219-.308.293-.477a7.166,7.166,0,0,0,.386-1.015c.062-.232-.015-.5.059-.729s.225-.507.4-.551c.235-.06.523.577.416.865-.06.16-.191.31-.2.469a3.817,3.817,0,0,0,.093.715l.162-.027c.156-.315.293-.642.474-.942.14-.232.346-.422.5-.648.11-.163.274-.37.244-.524s-.259-.316-.433-.367a8.6,8.6,0,0,1-1.053-.276,4.686,4.686,0,0,1,2.287-.376.979.979,0,0,0,0-.246c-.082-.271-.329-.646-.232-.787a5.088,5.088,0,0,1,.986-.9,3.287,3.287,0,0,1,.369-.236c-.127-.115-.249-.321-.381-.327-.618-.03-.859-.4-.981-.919a7.044,7.044,0,0,1,1.017-.149,1.2,1.2,0,0,1,.617.208c.382.245.731.539,1.105.8a.53.53,0,0,0,.373.109,3.2,3.2,0,0,0,.574-.285,2.575,2.575,0,0,0-.537-.264,3.022,3.022,0,0,0-.65-.01,15.129,15.129,0,0,0,.6-2.034,6.656,6.656,0,0,0-.152-1.424,5,5,0,0,1,.071-.719c.021-.289.027-.579.041-.868a2.82,2.82,0,0,1,.037-.5,13.445,13.445,0,0,0,.34-1.345,1.55,1.55,0,0,1,1.134-1.4c.2-.076.312-.391.42-.628.779-.487,1.444-1.428,2.622-.853l.061-.205c-.2-.154-.409-.3-.6-.464-.27-.239-.482-.66-.911-.206-.222.236-.7-.1-.869.461-.063.206-.5.836-1.1.522a.243.243,0,0,0-.214.059,11.8,11.8,0,0,0-1.745,1.6c-.432.642-.692,1.518-1.613,1.73Zm-25.848,48.1c.733-.515.889-.944.435-1.693l-.42,1.708-.531.431.2.22c.107-.2.214-.407.32-.611C118.75,462.058,118.743,462.036,118.742,462.017Zm12.8-7.843-2.275-.694a2.929,2.929,0,0,0,.035,1.218c.2.4.242.626-.1.924-.3.258-.38.551.144.883.2-.424.4-.8.55-1.189.172-.447.36-.787.947-.646.376.09.693-.021.693-.5a2.275,2.275,0,0,0,.527.154.363.363,0,0,0,.27-.2.311.311,0,0,0-.133-.278.425.425,0,0,0-.338.037A1.816,1.816,0,0,0,131.538,454.175ZM158.886,424.9a.994.994,0,0,0,.24-1.455,1.049,1.049,0,0,1,.024-.786,3.176,3.176,0,0,1,.582-.841.85.85,0,0,0,.164-.937,2.723,2.723,0,0,1-.077-1.212c.106-.651.321-1.284.475-1.928a.637.637,0,0,0-.053-.328c-.279-.8-.582-1.592-.834-2.4-.052-.166.088-.386.114-.585s.1-.573.02-.612c-.721-.365-.629-1.176-.973-1.741-.378-.621-1.178-.926-1.262-1.741,0-.012-.029-.027-.047-.03-.754-.136-.938.6-1.373.938-.106.083-.064.426-.006.625.042.146.21.269.344.373a1.392,1.392,0,0,1,.544,1.514.645.645,0,0,0,.219.566,2.478,2.478,0,0,1,1.255,1.7c.372,1.07,1.026,2.112.524,3.333-.051.122.043.3.045.449a2.561,2.561,0,0,1-.03.789,11.831,11.831,0,0,1-2.309,4.647c-.414.45-.732.894-1.4.488-.021-.013-.088.05-.149.086.144.237.45.575.389.666a1.273,1.273,0,0,0,.066,1.758c.021.023.014.073.02.111.095.683.214.748.867.524a3.016,3.016,0,0,1,1.114-.3,1.318,1.318,0,0,0,1.414-.831,6.655,6.655,0,0,1-.914.213c-.167.014-.426-.037-.5-.15a.584.584,0,0,1,.072-.515c.058-.085.293-.078.443-.06.167.019.352.175.485.132a2.824,2.824,0,0,0,.768-.421c.064-.046.056-.237.031-.351-.045-.211-.239-.479-.166-.607a1.681,1.681,0,0,1,.617-.473,2.8,2.8,0,0,1,.465-.184l-.02-.138Zm-5.542-2.585a2.414,2.414,0,0,0,1.991-.008,7.344,7.344,0,0,0,1.53-1.758c.3-.544.809-1.054.752-1.776-.005-.063.2-.122.245-.214a2.993,2.993,0,0,0,.148-.513l-.171-.054a2.113,2.113,0,0,0-.241.22c-.059.072-.073.216-.139.241a5.224,5.224,0,0,1-.634.16c.013-.2-.048-.452.05-.593.585-.837.67-1.586.185-2.077-.028.024-.078.047-.079.073-.023.417.013.945-.519,1-.479.047-.5-.459-.611-.819a.378.378,0,0,0-.334-.16,1.23,1.23,0,0,0-.4,1.833,1.247,1.247,0,0,1-.445,2.031c-.455.192-.915.372-1.36.585a1.753,1.753,0,0,0-.379.348c.127.126.233.311.386.368.46.171.475.435.236.794C153.484,422.1,153.415,422.2,153.344,422.314Zm-42.079,39.1a2.3,2.3,0,0,1,.539,2.256,2.6,2.6,0,0,0-.064.394c.008.21.05.418.078.627.17-.127.334-.263.511-.377a3.313,3.313,0,0,1,.393-.187,1.67,1.67,0,0,1,.008.5c-.044.152-.287.309-.258.41.159.546-.164.794-.533,1.066a.345.345,0,0,0,.322.6,4.5,4.5,0,0,0,1.117-.734c.114-.113-.014-.487-.055-.738-.082-.5.337-.61.638-.74s.338.129.387.384c.021.11.408.268.427.243a1.052,1.052,0,0,1,1.186-.452c-.228-.273-.455-.537-.7-.554a2.571,2.571,0,0,1-2.478-2.141A1.131,1.131,0,0,0,111.264,461.414Zm44.387-46.839c-.311-.516-.493-.947-1.072-.956-.76-.013-1.523-.093-2.279-.045a2.51,2.51,0,0,0-2.266,1.575,1.658,1.658,0,0,0-.042,1.742,1.39,1.39,0,0,1,.4,1.052.765.765,0,0,0,.109.434,2.7,2.7,0,0,0,.38.406c.124-.127.311-.234.357-.384a3.538,3.538,0,0,0,.132-.9c.013-.328-.048-.66-.034-.988.017-.367-.095-.557-.489-.482-.126.024-.25.057-.523.121.09-.327.077-.661.232-.783A4.763,4.763,0,0,1,155.651,414.575Zm.372,55.345c.159-.071.411-.1.473-.225.42-.847.8-1.713,1.188-2.577.083-.187.109-.4.179-.592.164-.455.363-.9.5-1.364.042-.145-.055-.469-.127-.482a.823.823,0,0,0-.614.11,2.35,2.35,0,0,0-.8,1.917.992.992,0,0,1-.038.381c-.134.343-.292.677-.44,1.015-.051.181-.274.327-.3.5A9.743,9.743,0,0,0,156.023,469.92Zm-21.988-34.241c0-.311.069-.572-.027-.734a.578.578,0,0,0-.561-.014c-.135.14-.112.423-.182.636a2.615,2.615,0,0,1-.29.7c-.324.459-.7.881-1.029,1.336-.053.073,0,.239.033.355.044.161.133.312.168.475.1.472.406.615.679.241.636-.869,1.194-1.8,1.81-2.738Zm-21.909,42.082c-.2.435-.1.677.4.688.127,0,.26.132.374.222a4.263,4.263,0,0,0,.883.685.963.963,0,0,0,.8-.154,1.7,1.7,0,0,0,.469-.769c.075-.21.122-.555.008-.674s-.448-.08-.683-.068a.777.777,0,0,0-.36.16c-.59.406-1.03.291-1.384-.349a2.183,2.183,0,0,0-.464-.627.471.471,0,0,0-.461.072.728.728,0,0,0-.024.552C111.717,477.605,111.925,477.651,112.126,477.761Zm15.4-2.508.254.084c.109-.194.357-.5.3-.565a1.147,1.147,0,0,1,.028-1.417c.048-.085-.01-.224,0-.336a2.924,2.924,0,0,1,.125-.848c.46-1.037.848-2.06.015-3.217-.158.255-.424.492-.432.737a7.9,7.9,0,0,0,.2,1.425,1.8,1.8,0,0,0-.577,1.9,2.112,2.112,0,0,1,.074.556C127.527,474.129,127.521,474.691,127.521,475.253Zm2.265-35.593.486.618c.247-.471.475-.858.653-1.267.081-.186.155-.486.064-.609a.8.8,0,0,0-.624-.293,1.218,1.218,0,0,0-.629.424c-.187.206-.3.316-.611.168-.158-.075-.509.079-.666.236a.721.721,0,0,0-.174.639.793.793,0,0,0,.608.3A3.585,3.585,0,0,0,129.785,439.66Zm-4.6,3.228a3.279,3.279,0,0,1-.657.573,1.432,1.432,0,0,1-.823.117c-.09-.013-.174-.369-.18-.571a3.456,3.456,0,0,1,.12-.706c-.226.146-.454.288-.677.439a.751.751,0,0,0-.159.164.544.544,0,0,0,.184.9c.381.143.808.161,1.2.285a2.6,2.6,0,0,1,.611.369c.123.083.29.287.342.26a3.5,3.5,0,0,0,.823-.578c.078-.078.043-.373-.045-.491A7.529,7.529,0,0,0,125.19,442.888Zm19.825,29.994a3.848,3.848,0,0,0-.173-.568c-.112-.241-.243-.508-.6-.335-.292.143-.442.331-.277.683a1.075,1.075,0,0,1,.051.54c-.04.39-.119.777-.165,1.167-.037.318-.055.639-.068.96a1.537,1.537,0,0,0,.038.512.419.419,0,0,0,.354.009,1,1,0,0,0,.248-.465c.073-.309.079-.634.154-.942C144.7,473.93,144.862,473.426,145.015,472.882Zm-2.809-31.55-.136-.143c-.269.176-.542.346-.806.53-.618.432-1.135,1.041-2,1.021-.134,0-.421.369-.383.481.079.231.329.4.509.6a1.354,1.354,0,0,1,1.562-.529c.025,0,.067-.039.086-.07Q141.623,442.278,142.206,441.333Zm-22.264,12.057c-.362-.928-.362-.926-1.337-.628a1.08,1.08,0,0,1-.223.017c-.574.044-.757.378-.509,1.053.813-.641,1.506-.1,2.242.207.167.068.547.039.564-.021a4,4,0,0,0,.078-.859c-.191.044-.382.084-.571.132A2.162,2.162,0,0,0,119.942,453.389Zm39.464,8.979c-.17-.211-.276-.454-.444-.511-.12-.041-.381.13-.481.274a7.113,7.113,0,0,0-.71,1.227c-.085.2-.089.587.031.678.271.2.687.406.927-.056C158.988,463.48,159.17,462.94,159.406,462.368Zm-11.212-42.419c-.04.273.009.586-.124.728-.657.705-.67.787.04,1.417.225.2.406.181.553-.078.16-.28.293-.577.469-.845a.707.707,0,0,0-.318-1.07A5.126,5.126,0,0,0,148.194,419.949Zm-37.525,56.262c-.02-.773.309-.962.966-.814.315.071.524-.2.366-.564-.074-.173-.165-.339-.251-.507-.165-.321-.421-.321-.665-.058a5.874,5.874,0,0,1-.795.674c-.23.172-.485.312-.73.467Zm13.947-16.823.2.108a3.618,3.618,0,0,0,.235-.648c.088-.533.281-.659.769-.452.081.034.166.058.4.138l-.188-1.009c-.636.135-1.195.221-1.728.388-.163.051-.275.313-.365.5-.016.034.2.258.295.252C124.891,458.63,124.822,458.964,124.616,459.389Zm20.35-17.917c-.514-.281-.827-.474-1.161-.625a.767.767,0,0,0-.52-.064c-.081.029-.059.3-.115.448a5.808,5.808,0,0,1-.316.712,2.747,2.747,0,0,1-.294.379c.083.064.184.2.245.18a2.256,2.256,0,0,0,.469-.236c.263-.144.519-.3.789-.433S144.608,441.614,144.966,441.472Zm-26.209,30.813a1.1,1.1,0,0,0-1.112-.9,1.381,1.381,0,0,0-.722.6c-.115.165.833.834,1.234.773C118.376,472.719,118.558,472.449,118.757,472.285Zm1.552,2.573-.233.013c-.025.282-.18.693-.052.822.361.362.663.944,1.335.77a2.623,2.623,0,0,0,.574-.317c-.137-.2-.233-.49-.422-.575a3.8,3.8,0,0,0-.978-.169Zm4.142-21.242a2.77,2.77,0,0,0,.687-.422c.185-.194.246-.571-.135-.615a4.956,4.956,0,0,0-1.432.095c-.117.021-.23.319-.251.5-.009.083.2.231.328.28A5.823,5.823,0,0,0,124.452,453.616Zm-5.671,20.532c-.683.224-1.01.09-1.086-.5-.02-.156-.255-.285-.391-.426a1.425,1.425,0,0,0-.184.513c.038.586.389,1.158.049,1.763-.033.06.061.191.108.324Zm30.529-.427c-.288.511-.488.9-.721,1.264-.177.278-.147.433.17.564.236.1.438.275.669.39a1.531,1.531,0,0,0,.4.081,2.314,2.314,0,0,0-.006-.365c-.08-.471-.154-.945-.265-1.409A2.524,2.524,0,0,0,149.31,473.721Zm4.906-17.214c1.114-1.306,1.335-2.809.6-3.8a1.372,1.372,0,0,0-.065.691,1.9,1.9,0,0,1-.127,1.732A4.326,4.326,0,0,0,154.216,456.507Zm-34.753-1.471c-.857.59-.977,1.018-.45,1.666a1.716,1.716,0,0,0,.534.3c.071-.2.219-.413.2-.605A13.085,13.085,0,0,0,119.463,455.036Zm24.926-32.707c.68.335,1.294.652,1.922.937.119.054.3-.017.446-.03-.051-.126-.064-.305-.157-.37-.4-.28-.822-.53-1.241-.783C144.923,421.819,144.631,422.035,144.389,422.328ZM146.8,477.98c1.055.2,1.773-.441,2.549-.929a.313.313,0,0,0,.021-.3.394.394,0,0,0-.342-.072C148.279,477.1,147.542,477.545,146.8,477.98Zm-20.827-20.966c.433-.124.607-.279.443-.718-.075-.2.07-.491.139-.734.045-.159.178-.3.19-.458a1.286,1.286,0,0,0-.139-.447,1.642,1.642,0,0,0-.378.339c-.11.188-.1.457-.234.618A1.149,1.149,0,0,0,125.974,457.014Zm1.518,25.632a2.62,2.62,0,0,0-.147-.628c-.1-.181-.249-.4-.42-.452a.565.565,0,0,0-.487.267,1.066,1.066,0,0,0,.031.668.847.847,0,0,0,.342.366c.129.089.338.211.432.163C127.375,482.964,127.431,482.752,127.493,482.647ZM114.32,473.5l-.264-.2c-.055.143-.115.284-.165.429-.148.434-.352.668-.819.309-.07-.054-.284.079-.431.126.055.125.076.291.17.368a1.037,1.037,0,0,0,1.317.024C114.51,474.29,114.44,473.877,114.32,473.5Zm4.738-2.538c-.218-.207-.385-.376-.564-.53-.123-.106-.316-.163-.384-.291-.114-.214-.164-.578-.468-.311a.833.833,0,0,0-.14.782C117.778,471.128,118.3,471.231,119.058,470.959Zm35.3-20.994.13.012c-.028-.218-.066-.435-.081-.655-.022-.333-.034-.667-.038-1,0-.246.014-.492.023-.738-.22.065-.445.117-.659.2a.993.993,0,0,0-.246.177Zm-34.014,14.548c-.612.1-.745.339-.571.768a6.994,6.994,0,0,1,.233.857c.033.125.065.25.1.376l.185.017c-.155-.764.748-1.123.708-2.017l-.814.669-.11-.121Zm.318-22.159a.727.727,0,0,0,.149.342.446.446,0,0,0,.414-.028,1.352,1.352,0,0,0,.022-1.537,1.216,1.216,0,0,0-.4-.128,2.267,2.267,0,0,0-.1.354C120.714,441.636,120.7,441.918,120.663,442.353Zm13.987,3.7.124.085c.607-.3,1.215-.6,1.821-.9a.226.226,0,0,0,.115-.122c.034-.135.046-.274.067-.412-.14-.013-.311-.085-.413-.029a12.242,12.242,0,0,0-1.329.82A2.066,2.066,0,0,0,134.65,446.056Zm8.171,19.661c.164-.613.321-1.125.427-1.647.023-.112-.14-.26-.218-.392a1.607,1.607,0,0,0-.306.329c-.1.2-.128.431-.229.628C142.306,465,142.326,465.318,142.821,465.717Zm-13.582-14.655-.034-.22-1.017-.394q-.038.458-.076.916l-.035.423.144.123Zm-3.159,8.1c-.194.374-.393.717-.547,1.079a1.79,1.79,0,0,0-.056.525c.209,0,.5.082.612-.023A1.087,1.087,0,0,0,126.08,459.161Zm31.689-19.067-1.577,2.081a1.727,1.727,0,0,0,1.264-.861C157.65,440.959,158.126,440.635,157.769,440.094Zm-20.514,12.4c-.266.164-.448.29-.644.391s-.426.192-.64.287l-.041.163c.552-.2.937-.156.968.472,0,.058.211.174.245.15.111-.076.264-.209.259-.315C137.388,453.276,137.314,452.911,137.255,452.494ZM136.2,433.1a.8.8,0,0,0,.821-.862c.031-.471-.469-.467-.781-.606-.052-.023-.191.047-.222.108s-.024.229.023.257C136.489,432.262,136.366,432.643,136.2,433.1Zm-6.959,33.076a9.883,9.883,0,0,0-1.045.51c-.13.082-.189.3-.245.461-.014.043.095.172.166.192A.979.979,0,0,0,129.242,466.173Zm-3.267-3.236c-.057-.473-.082-.816-.148-1.151-.019-.1-.225-.244-.231-.238a2.3,2.3,0,0,0-.548.556.524.524,0,0,0,.16.475A3.92,3.92,0,0,0,125.976,462.937Zm-10.171.19a3.868,3.868,0,0,0,.79-.239.665.665,0,0,0,.268-.441.415.415,0,0,0-.241-.322C116.077,461.972,115.651,462.469,115.805,463.127Zm21.927-19.64-.717.96c.129.082.31.264.377.229a7.508,7.508,0,0,0,.829-.566Zm-12.373,8.46.754.878.213-.093-.088-1.421Zm8.592-19.285a1.018,1.018,0,0,0-.158,1.257c.082.146.445.133.68.193.03-.127.089-.362.085-.364C134,433.594,133.97,433.149,133.952,432.662Zm17.458,2.422-.13-.219c-.417.2-.843.387-1.24.622-.054.032.011.316.071.462a.3.3,0,0,0,.281.067C150.743,435.718,151.073,435.4,151.41,435.084Zm4.916,3.087c-1.033-.128-1.866.443-1.68,1.169Zm-27.662,25.18.174.087a1.657,1.657,0,0,0,.427-1.305c.007-.117-.124-.242-.191-.363-.1.115-.271.217-.293.345C128.713,462.521,128.7,462.938,128.664,463.351Zm-8.211-4.685-.207.027c-.056.189-.188.395-.15.562a2.057,2.057,0,0,0,.361.582c.147-.194.41-.39.408-.583S120.6,458.862,120.453,458.665Zm13.962-5.513h-.238c-.078.214-.172.424-.229.644-.038.147-.088.38-.017.444a.482.482,0,0,0,.455.043.584.584,0,0,0,.262-.436A2.746,2.746,0,0,0,134.415,453.152Zm14.429,10.487c-.035.508.135.859.553.964.278.069.624-.027.6-.467Zm-22.225-13.28.81.755.193-.1-.114-1.241ZM125.1,476.278c-.209-.226-.372-.429-.564-.6-.095-.084-.285-.186-.353-.146a.478.478,0,0,0-.181.365C124.011,476.457,124.49,476.632,125.1,476.278ZM139.087,429.8l.182.013c.075-.135.156-.266.225-.4.12-.242.24-.485.346-.734a3.869,3.869,0,0,0,.129-.431c-.157.054-.38.061-.458.171a4.666,4.666,0,0,0-.5.953C138.962,429.486,139.056,429.657,139.087,429.8ZM114.608,467.82l0,.181c.3.051.6.123.909.144a.49.49,0,0,0,.37-.153c.048-.062,0-.269-.077-.345-.106-.108-.3-.243-.411-.211A4.848,4.848,0,0,0,114.608,467.82Zm27.935-1.257-.269-.183a3.4,3.4,0,0,0-.646.682c-.058.106.173.371.273.564l.206-.016ZM116.1,479.8c-.11-.062-.236-.175-.277-.15-.378.232-.744.483-1.1.745a.263.263,0,0,0,.028.237.372.372,0,0,0,.307.026c.31-.2.6-.421.9-.643A.968.968,0,0,0,116.1,479.8Zm-3.338-7.316c.2-.152.4-.457.122-.681a2.533,2.533,0,0,0-.99-.259c0,.1-.038.239.01.281C112.156,472.04,112.431,472.233,112.761,472.481Zm4.272-33.549a5.184,5.184,0,0,0-.72.406c-.1.086-.222.286-.187.381a1.819,1.819,0,0,0,.362.462,2.241,2.241,0,0,0,.322-.423A6.271,6.271,0,0,0,117.034,438.932Zm-.112,29.119-.208.072a3.2,3.2,0,0,0,.071.844c.04.116.328.146.5.215.039-.165.155-.365.1-.489A3.458,3.458,0,0,0,116.922,468.051ZM121.7,477.5c-.075.052-.178.088-.214.158s-.038.221.006.255a7.187,7.187,0,0,0,.833.557c.06.034.217-.047.289-.117.049-.048.067-.222.034-.246C122.343,477.9,122.027,477.711,121.7,477.5Zm-6.029-8.021c-.383.231-.79.334-.738.809.01.088.368.244.5.194C115.862,470.321,115.809,469.956,115.667,469.482Zm32.653-19.733-.02-.153a7.392,7.392,0,0,0-1.023.286c-.125.054-.175.285-.259.436.184,0,.4.062.544-.014A5.763,5.763,0,0,0,148.32,449.749Zm-22.692,15.412a2.745,2.745,0,0,0,.132-1.336c-.088.007-.238-.012-.253.025a1.825,1.825,0,0,0-.2.665C125.311,464.683,125.467,464.851,125.628,465.161Zm-2.06,17.583a6,6,0,0,0-.871.327c-.079.041-.034.321-.045.491.116,0,.291.043.339-.016C123.221,483.268,123.416,482.961,123.569,482.744Zm-.091-20.782c-.274.3-.51.549-.732.814a1.91,1.91,0,0,0,.231.216c.258-.228.505-.468.739-.721A2.624,2.624,0,0,0,123.478,461.962Zm-7.831,8.845.215.3a6.05,6.05,0,0,0,.677-.492c.028-.026-.134-.259-.208-.4ZM129.4,460.332c-.37.121-.57.174-.759.253-.091.038-.211.114-.228.192s.081.268.119.265a1.513,1.513,0,0,0,.693-.139C129.35,460.824,129.344,460.551,129.4,460.332Zm7.612-5.244.056.324.843.041c-.071-.2-.128-.546-.216-.554A1.937,1.937,0,0,0,137.017,455.088Zm-2.229-24.015-.188.015a5.6,5.6,0,0,0-.286.754c-.031.13.055.288.089.434.128-.078.354-.141.368-.236A6.638,6.638,0,0,0,134.788,431.073ZM110.837,467.33c-.229-.182-.414-.375-.449-.351a1.578,1.578,0,0,0-.422.458c-.016.026.225.3.292.276A2.558,2.558,0,0,0,110.837,467.33Zm5.794-3.5-.3.123.458,1.221.281-.105Zm34.245-36.93c-.219.283-.412.512-.577.759a.455.455,0,0,0-.029.306c.007.038.128.086.189.076C150.713,428,151.024,427.214,150.876,426.9Zm-2.279-7.69a5.042,5.042,0,0,0-.667-.434c-.032-.015-.177.216-.27.333a4.412,4.412,0,0,0,.581.359C148.291,419.488,148.416,419.343,148.6,419.207Zm-20.329,45.36-.149.243c.161.134.31.343.489.373.112.018.27-.232.406-.362Zm-22.319-2.785c-.08.262-.164.39-.141.495a3.4,3.4,0,0,0,.247.662.554.554,0,0,0,.23-.047,3.385,3.385,0,0,0-.059-.65A2.161,2.161,0,0,0,105.949,461.782Zm10.425,4.636-.5.542c.14.1.313.3.411.271a.761.761,0,0,0,.36-.406C116.669,466.764,116.511,466.619,116.374,466.418Zm37.867-55.335.114.222.745-.413c-.062-.1-.108-.266-.188-.284C154.521,410.522,154.329,410.744,154.242,411.083Zm-49.6,43.691.4.419c.094-.148.259-.3.262-.446s-.159-.3-.248-.452Zm17.037,27.434.137-.283c-.142-.04-.326-.154-.418-.1a1.172,1.172,0,0,0-.426.452c-.028.051.164.222.255.339ZM145.855,440l-.226-.018-.079.862c.119,0,.3.039.346-.022A.561.561,0,0,0,145.855,440ZM126.41,476.725c-.3.223-.534.4-.758.587a1.456,1.456,0,0,0,.144.25c.232-.186.463-.372.693-.56A2.219,2.219,0,0,0,126.41,476.725ZM107.8,469.1l-.252.036.187,1.119.172-.025C107.966,469.842,108.121,469.441,107.8,469.1Zm40.316-13.725-.182.025a1,1,0,0,0,.1,1.055l.242-.033Zm-2.49-31.583c-.3-.137-.45-.264-.6-.262-.115,0-.229.167-.343.26.136.1.264.253.411.274C145.215,424.081,145.358,423.938,145.629,423.792Zm-21.644,47.62-.021-.314h-.628l.024.454Zm27.251-39.068-.178-.138c-.109.129-.291.249-.309.39-.021.164.1.345.163.519l.2-.042Zm-1.161,39.389c.141-.279.282-.43.261-.553-.025-.144-.19-.264-.295-.4-.079.132-.214.261-.22.4S149.94,471.457,150.075,471.733Zm-37.43-1.255c.4.648.586.712,1.193.386Zm9.441,9.651a2.006,2.006,0,0,0-.471-.378c-.062-.023-.194.149-.295.232a2.008,2.008,0,0,0,.355.392C121.718,480.4,121.88,480.256,122.085,480.129Zm-5.955-5.535-.825-.7C115.212,474.475,115.522,474.755,116.13,474.594Zm11.5-25.974-.186-.048a1.788,1.788,0,0,0-.171.541c0,.121.158.24.246.36l.111-.072Zm-.615,4.668.322.091c.056-.223.114-.447.155-.673a1.309,1.309,0,0,0-.263-.068C127.144,452.85,127.081,453.069,127.014,453.288Zm-3.336,6.777.328.03.061-.633a2.61,2.61,0,0,0-.328-.02C123.7,459.647,123.693,459.857,123.678,460.065Zm4.548-11.683c.143-.191.291-.306.3-.433.007-.086-.177-.189-.276-.284a1.53,1.53,0,0,0-.284.368C127.946,448.09,128.094,448.211,128.226,448.383Zm-14.088-1.351-.334-.421c-.095.089-.272.184-.265.264.012.138.138.267.216.4Zm23.988,9.071-.8.671C137.937,456.832,138.086,456.7,138.127,456.1Zm-31.244-40.147-.346-.3c-.088.107-.242.212-.245.321s.147.218.23.327Zm50.281,33.184-.472.945C157.295,449.9,157.339,449.573,157.164,449.14Zm-44.782,20.471c-.208-.141-.314-.261-.436-.281-.1-.016-.212.092-.319.144.108.108.2.252.329.311C112.027,469.817,112.164,469.706,112.382,469.611Zm10.624-12.575c.451.387.678.376.912,0Zm26.246-23.526.18-.846-.211-.043C148.925,432.814,148.926,433.067,149.251,433.51Z" transform="translate(-103.955 -408.633)" fill="#0e7473"/></svg>