<svg xmlns="http://www.w3.org/2000/svg" width="291.365" height="77.962" viewBox="0 0 291.365 77.962"><g transform="translate(6432.383 1864.797)"><path d="M-5935.88,433.394a38.762,38.762,0,0,1-38.718,39.034,39.116,39.116,0,0,1-39.389-38.934,39.111,39.111,0,0,1,39.286-39.027A38.735,38.735,0,0,1-5935.88,433.394Zm-26.747-6.166c1.522-1.41,2.894-2.652,4.235-3.927,3.565-3.39,3.557-3.7-.06-7.13a23.707,23.707,0,0,0-30.795-1.7,23.862,23.862,0,0,0-6.639,30.138c7.6,14.355,27.407,17.08,38.271,5.158.883-.969,1.576-3.4,1.016-4.155-1.673-2.266-4.014-4.04-6.065-5.979-8.03,7.88-15.435,8.842-21.271,3.113a13.01,13.01,0,0,1-.229-18.347C-5978.284,418.358-5971.023,419.2-5962.627,427.229Zm19.3,6.654-6.991-7.765-7,7.341,6.674,7.083Z" transform="translate(-418.396 -2259.264)" fill="#0e7473"/><g transform="translate(-6327.16 -1855.696)"><path d="M-5711.253,419.108h2.21v20.844h-2.108v-17.9l.22.918-6.413,14.092h-1.494l-6.413-13.8.219-1.2v17.9h-2.108V419.108h2.211l6.837,15.052Z" transform="translate(5727.871 -419.108)" fill="#0e7473"/><path d="M-5662.562,444.3a4.219,4.219,0,0,0,1.04,3.046,3.888,3.888,0,0,0,2.943,1.082,4.054,4.054,0,0,0,2.921-.989,3.69,3.69,0,0,0,1.032-2.8l.205,3.111a4.517,4.517,0,0,1-1.838,1.849,6.18,6.18,0,0,1-3.155.745,4.858,4.858,0,0,1-3.887-1.584,6.618,6.618,0,0,1-1.369-4.466v-9.046h2.108Zm7.936-9.046h2.093v14.88h-2.093Z" transform="translate(5688.476 -429.289)" fill="#0e7473"/><path d="M-5619.524,434.886h2.108v14.88h-2.108Zm10.1,5.863a4.216,4.216,0,0,0-1.061-3.068,3.99,3.99,0,0,0-2.994-1.089,4.089,4.089,0,0,0-2.907.967,3.581,3.581,0,0,0-1.032,2.745l-.307-2.867a4.885,4.885,0,0,1,2.138-2.114,6.943,6.943,0,0,1,3.089-.652,4.765,4.765,0,0,1,3.829,1.584,6.7,6.7,0,0,1,1.354,4.48v9.032h-2.108Z" transform="translate(5660.006 -428.922)" fill="#0e7473"/><path d="M-5572.988,419.108h2.108v2.064h-2.108Zm0,5.964h2.108v14.88h-2.108Z" transform="translate(5630.659 -419.108)" fill="#0e7473"/><path d="M-5552.08,449.265a4.7,4.7,0,0,1-2.188-2.151,7.936,7.936,0,0,1-.725-3.6v-2.452a7.721,7.721,0,0,1,.731-3.555,4.725,4.725,0,0,1,2.189-2.129,8.317,8.317,0,0,1,3.653-.71,9.042,9.042,0,0,1,2.269.265,6.168,6.168,0,0,1,1.83.788,5.479,5.479,0,0,1,1.406,1.326l-1.566,1.362a5.118,5.118,0,0,0-1.75-1.369,5.037,5.037,0,0,0-2.145-.451,4.633,4.633,0,0,0-3.39,1.111,4.548,4.548,0,0,0-1.12,3.362v2.452a4.648,4.648,0,0,0,1.127,3.412,4.579,4.579,0,0,0,3.382,1.132,5.752,5.752,0,0,0,2.262-.43,5.38,5.38,0,0,0,1.837-1.3l1.362,1.319a5.463,5.463,0,0,1-1.406,1.3,6.146,6.146,0,0,1-1.83.774,9.3,9.3,0,0,1-2.269.258A8.3,8.3,0,0,1-5552.08,449.265Z" transform="translate(5619.311 -428.922)" fill="#0e7473"/><path d="M-5512.185,419.108h2.108v2.064h-2.108Zm0,5.964h2.108v14.88h-2.108Z" transform="translate(5592.315 -419.108)" fill="#0e7473"/><path d="M-5493,434.886h2.108v20.93H-5493Zm3.719,14.5a3.634,3.634,0,0,1-1.815-1.957l.205-3.111a3.978,3.978,0,0,0,.469,1.871,3.768,3.768,0,0,0,1.347,1.455,3.735,3.735,0,0,0,2.05.559,3.834,3.834,0,0,0,2.943-1.111,4.389,4.389,0,0,0,1.04-3.118v-3.226a4.508,4.508,0,0,0-1.04-3.175,3.807,3.807,0,0,0-2.943-1.125,3.772,3.772,0,0,0-2.05.552,3.759,3.759,0,0,0-1.347,1.426,3.826,3.826,0,0,0-.469,1.835l-.308-2.867a4.77,4.77,0,0,1,2.1-2.086,6.9,6.9,0,0,1,3.053-.638,5.151,5.151,0,0,1,2.76.71,4.479,4.479,0,0,1,1.75,2.071,8.115,8.115,0,0,1,.6,3.283v3.24a7.767,7.767,0,0,1-.615,3.24,4.5,4.5,0,0,1-1.8,2.057,5.433,5.433,0,0,1-2.84.71A7.142,7.142,0,0,1-5489.282,449.386Z" transform="translate(5580.217 -428.922)" fill="#0e7473"/><path d="M-5449.362,448.777a4.152,4.152,0,0,1-1.464-3.4,4.072,4.072,0,0,1,1.34-3.261,5.623,5.623,0,0,1,3.785-1.154h5.051l.2,1.921h-5.242a3.486,3.486,0,0,0-2.262.652,2.245,2.245,0,0,0-.8,1.842,2.244,2.244,0,0,0,1,1.957,4.929,4.929,0,0,0,2.833.7,9.417,9.417,0,0,0,3.045-.387q1.083-.387,1.083-1.089l.307,1.95a4.073,4.073,0,0,1-1.164.8,6.64,6.64,0,0,1-1.625.509,10.642,10.642,0,0,1-1.969.172A6.327,6.327,0,0,1-5449.362,448.777Zm8.58-8.444a3.806,3.806,0,0,0-.989-2.8,3.772,3.772,0,0,0-2.8-1,6.707,6.707,0,0,0-2.123.344,6.033,6.033,0,0,0-1.845.975l-1.538-1.032a5.7,5.7,0,0,1,2.276-1.584,8.373,8.373,0,0,1,3.141-.566,7.367,7.367,0,0,1,3.235.652,4.588,4.588,0,0,1,2.05,1.892,5.973,5.973,0,0,1,.7,2.989v9.562h-2.108Z" transform="translate(5553.621 -428.922)" fill="#0e7473"/><path d="M-5403.532,436.038a2.107,2.107,0,0,0,.476,1.469,1.7,1.7,0,0,0,1.325.523h1.406v1.921h-1.757a3.355,3.355,0,0,1-2.628-1.032,4.2,4.2,0,0,1-.93-2.91v-16.9h2.108Z" transform="translate(5525.125 -419.108)" fill="#0e7473"/><path d="M-5380.945,419.108h2.108v2.064h-2.108Zm0,5.964h2.108v14.88h-2.108Z" transform="translate(5509.552 -419.108)" fill="#0e7473"/><path d="M-5360.535,439.457a4.506,4.506,0,0,1-1.8-2.057,7.767,7.767,0,0,1-.614-3.24v-3.24a8.107,8.107,0,0,1,.6-3.283,4.473,4.473,0,0,1,1.75-2.071,5.15,5.15,0,0,1,2.76-.71,6.9,6.9,0,0,1,3.053.638,4.768,4.768,0,0,1,2.1,2.086l-.307,2.867a3.909,3.909,0,0,0-.461-1.849,3.661,3.661,0,0,0-1.339-1.419,3.838,3.838,0,0,0-2.064-.545,3.807,3.807,0,0,0-2.943,1.125,4.506,4.506,0,0,0-1.04,3.175v3.226a4.387,4.387,0,0,0,1.04,3.118,3.833,3.833,0,0,0,2.943,1.111,3.736,3.736,0,0,0,2.05-.559,3.776,3.776,0,0,0,1.347-1.455,3.983,3.983,0,0,0,.469-1.871l.205,3.111a3.635,3.635,0,0,1-1.816,1.957,7.143,7.143,0,0,1-3.089.595A5.43,5.43,0,0,1-5360.535,439.457Zm7.54-20.349h2.108v20.844h-2.108Z" transform="translate(5498.204 -419.108)" fill="#0e7473"/><path d="M-5318.519,448.777a4.151,4.151,0,0,1-1.464-3.4,4.073,4.073,0,0,1,1.339-3.261,5.624,5.624,0,0,1,3.785-1.154h5.051l.205,1.921h-5.242a3.488,3.488,0,0,0-2.262.652,2.245,2.245,0,0,0-.8,1.842,2.245,2.245,0,0,0,1,1.957,4.93,4.93,0,0,0,2.833.7,9.417,9.417,0,0,0,3.045-.387q1.083-.387,1.083-1.089l.308,1.95a4.08,4.08,0,0,1-1.164.8,6.646,6.646,0,0,1-1.625.509,10.646,10.646,0,0,1-1.969.172A6.33,6.33,0,0,1-5318.519,448.777Zm8.58-8.444a3.808,3.808,0,0,0-.988-2.8,3.774,3.774,0,0,0-2.8-1,6.712,6.712,0,0,0-2.123.344,6.033,6.033,0,0,0-1.845.975l-1.537-1.032a5.7,5.7,0,0,1,2.276-1.584,8.373,8.373,0,0,1,3.141-.566,7.368,7.368,0,0,1,3.236.652,4.59,4.59,0,0,1,2.05,1.892,5.973,5.973,0,0,1,.7,2.989v9.562h-2.108Z" transform="translate(5471.107 -428.922)" fill="#0e7473"/><path d="M-5273.569,439.457a4.5,4.5,0,0,1-1.8-2.057,7.759,7.759,0,0,1-.615-3.24v-3.24a8.107,8.107,0,0,1,.6-3.283,4.476,4.476,0,0,1,1.75-2.071,5.15,5.15,0,0,1,2.76-.71,6.9,6.9,0,0,1,3.052.638,4.774,4.774,0,0,1,2.1,2.086l-.308,2.867a3.909,3.909,0,0,0-.461-1.849,3.663,3.663,0,0,0-1.34-1.419,3.839,3.839,0,0,0-2.064-.545,3.807,3.807,0,0,0-2.943,1.125,4.506,4.506,0,0,0-1.04,3.175v3.226a4.387,4.387,0,0,0,1.04,3.118,3.833,3.833,0,0,0,2.943,1.111,3.736,3.736,0,0,0,2.05-.559,3.779,3.779,0,0,0,1.347-1.455,3.983,3.983,0,0,0,.469-1.871l.2,3.111a3.634,3.634,0,0,1-1.815,1.957,7.143,7.143,0,0,1-3.089.595A5.429,5.429,0,0,1-5273.569,439.457Zm7.54-20.349h2.108v20.844h-2.108Z" transform="translate(5443.361 -419.108)" fill="#0e7473"/><path d="M-5726.7,534.837a4.5,4.5,0,0,1-1.8-2.057,7.767,7.767,0,0,1-.615-3.24V526.3a8.107,8.107,0,0,1,.6-3.283,4.469,4.469,0,0,1,1.749-2.071,5.151,5.151,0,0,1,2.76-.71,6.9,6.9,0,0,1,3.053.638,4.776,4.776,0,0,1,2.1,2.086l-.307,2.867a3.9,3.9,0,0,0-.462-1.849,3.661,3.661,0,0,0-1.339-1.419,3.834,3.834,0,0,0-2.064-.545,3.808,3.808,0,0,0-2.943,1.125,4.505,4.505,0,0,0-1.039,3.175v3.225a4.387,4.387,0,0,0,1.039,3.118,3.833,3.833,0,0,0,2.943,1.111,3.738,3.738,0,0,0,2.05-.559,3.779,3.779,0,0,0,1.347-1.455,3.981,3.981,0,0,0,.469-1.871l.205,3.111a3.638,3.638,0,0,1-1.815,1.957,7.149,7.149,0,0,1-3.09.595A5.432,5.432,0,0,1-5726.7,534.837Zm7.54-20.35h2.108v20.844h-2.108Z" transform="translate(5729.12 -479.257)" fill="#0e7473"/><path d="M-5682.3,544.58a5.269,5.269,0,0,1-2.277-2.279,7.7,7.7,0,0,1-.783-3.605v-1.677a8.6,8.6,0,0,1,.754-3.77,5.32,5.32,0,0,1,2.188-2.38,6.875,6.875,0,0,1,3.456-.817,6.236,6.236,0,0,1,3.25.8,5.158,5.158,0,0,1,2.057,2.344,8.811,8.811,0,0,1,.71,3.706v1.706h-10.981v-1.864h9.02V536.6a5.025,5.025,0,0,0-1.062-3.419,3.77,3.77,0,0,0-2.994-1.211,4.2,4.2,0,0,0-3.279,1.276,5.191,5.191,0,0,0-1.157,3.612v1.892a4.672,4.672,0,0,0,1.23,3.462,4.7,4.7,0,0,0,3.47,1.226,5.381,5.381,0,0,0,2.086-.43,5.778,5.778,0,0,0,1.838-1.219l1.435,1.347a8.112,8.112,0,0,1-2.519,1.642,7.376,7.376,0,0,1-2.84.58A7.676,7.676,0,0,1-5682.3,544.58Z" transform="translate(5701.524 -489.072)" fill="#0e7473"/><path d="M-5610.223,529.1c-.757,4.227-3.926,7.027-9.592,7.027-6.764,0-10.031-4.47-10.031-10.338,0-5.724,3.229-10.634,10.323-10.634,6.069,0,8.833,3.455,9.239,6.955h-6.006a3.116,3.116,0,0,0-3.372-2.791c-2.941,0-3.945,2.734-3.945,6.264,0,3.205.836,6.371,4.012,6.371a3.214,3.214,0,0,0,3.337-2.853Z" transform="translate(5666.515 -479.68)" fill="#0e7473"/><path d="M-5565.066,513.338h5.847v3.989h-5.847Zm0,5.878h5.847v15.39h-5.847Z" transform="translate(5625.663 -478.532)" fill="#0e7473"/><path d="M-5529.508,542.927v6.716h-5.817V532.759c0-1.388,0-3.066-.03-4.144h5.686a13.141,13.141,0,0,1,.15,1.719,4.963,4.963,0,0,1,4.408-2.092c3.31,0,6.154,2.683,6.154,7.7,0,5.692-3.281,8.44-6.9,8.44A4.334,4.334,0,0,1-5529.508,542.927Zm4.592-6.76c0-2.845-.88-3.892-2.377-3.892-1.837,0-2.406,1.232-2.406,4.106,0,2.657.571,4.036,2.278,4.036C-5525.693,540.417-5524.916,539.122-5524.916,536.167Z" transform="translate(5606.927 -487.931)" fill="#0e7473"/><path d="M-5463.91,536.291c0,4.8-3.058,8.087-8.457,8.087-5.57,0-8.334-3.583-8.334-8.03,0-4.643,2.884-8.106,8.523-8.106C-5466.993,528.242-5463.91,531.629-5463.91,536.291Zm-10.811.03c0,2.93.884,4.216,2.445,4.216s2.375-1.305,2.375-4.167c0-3.172-.815-4.256-2.4-4.256C-5473.756,532.114-5474.721,533.129-5474.721,536.321Z" transform="translate(5572.46 -487.931)" fill="#0e7473"/><path d="M-5423.413,534.607V513.338h5.847v21.269Z" transform="translate(5536.333 -478.532)" fill="#0e7473"/><path d="M-5393.783,534.607V513.338h5.847v21.269Z" transform="translate(5517.648 -478.532)" fill="#0e7473"/><path d="M-5360.193,537.442c0,1.551.608,3.105,2.331,3.105a1.843,1.843,0,0,0,2.078-1.385h5.742c-.572,2.046-2.354,5.216-7.918,5.216-5.935,0-8.119-3.914-8.119-7.937,0-4.638,2.507-8.2,8.227-8.2,6.091,0,7.95,4.036,7.95,7.878a10.96,10.96,0,0,1-.06,1.323Zm4.432-2.987c-.019-1.439-.439-2.654-2.113-2.654-1.561,0-2.164,1.127-2.26,2.654Z" transform="translate(5500.178 -487.931)" fill="#0e7473"/><path d="M-5314.1,522.44h2.265v-3.99h5.784v3.99h2.758V526.3h-2.758v6.6c0,.952.307,1.313,1.535,1.313.22,0,.5,0,.815-.029v3.535a13.156,13.156,0,0,1-3.407.355c-3.715,0-4.758-1.777-4.758-4.684V526.3h-2.233Z" transform="translate(5467.399 -481.756)" fill="#0e7473"/><path d="M-5280.819,522.44h2.264v-3.99h5.784v3.99h2.758V526.3h-2.758v6.6c0,.952.307,1.313,1.535,1.313.22,0,.5,0,.815-.029v3.535a13.156,13.156,0,0,1-3.407.355c-3.715,0-4.758-1.777-4.758-4.684V526.3h-2.233Z" transform="translate(5446.41 -481.756)" fill="#0e7473"/><path d="M-5241.008,513.338h5.846v3.989h-5.846Zm0,5.878h5.846v15.39h-5.846Z" transform="translate(5421.304 -478.532)" fill="#0e7473"/></g></g></svg>