<svg xmlns="http://www.w3.org/2000/svg" width="124.824" height="147.75" viewBox="0 0 124.824 147.75"><g transform="translate(0 0)"><path d="M-8661.983,644.031c.174-1.343.321-2.46.463-3.577.265-2.09.432-2.281,2.667-2.927.991,1.919,2,3.862,3,5.806.2.383.389.771.585,1.155,1.183,2.318,1.184,2.318-1.458,3.281l-2.235-4.253-.269.072-.426,4.947-4.3-2.532-.186.2c.561,1.1,1.077,2.225,1.7,3.291.454.781.445,1.277-.491,1.6a11.415,11.415,0,0,0-1.377.694,5.445,5.445,0,0,1-.455-.62c-1.437-2.781-2.868-5.567-4.286-8.325,1.5-1.432,2.069-1.516,3.746-.611Z" transform="translate(8735.508 -512.853)" fill="#0e7473"/><path d="M-8835.152,590.731l4.993-9.237a49.186,49.186,0,0,1,4.932,2.894c1.98,1.482,1.456,3.659-1.011,4.784a8.16,8.16,0,0,1,.309,1.574,2.785,2.785,0,0,1-3.457,2.716A63.157,63.157,0,0,1-8835.152,590.731Zm6.934-.812a18.07,18.07,0,0,0-2.212-1.279c-.128-.052-.514.524-.781.81a13.737,13.737,0,0,0,1.745,1.171C-8829.3,590.7-8828.9,590.315-8828.219,589.919Zm1.359-3.458a15.969,15.969,0,0,0-1.857-1.075c-.107-.045-.428.418-.649.646a11.836,11.836,0,0,0,1.474,1.094C-8827.768,587.195-8827.4,586.817-8826.859,586.46Z" transform="translate(8840.255 -477.517)" fill="#0e7473"/><path d="M-8725.46,638.259c-.452.809-.826,1.476-1.253,2.241l-4.379-2.316-.685,1.032,3.945,2.183-1.216,2.3c-1.1-.593-2.073-1.17-3.1-1.63-.314-.142-.772.035-1.166.065.186.315.3.751.571.924.927.583,1.9,1.095,2.878,1.592,1.142.581.218,1.172.01,1.723s-.469,1.076-1.287.609c-1.8-1.029-3.641-2-5.479-2.961-.548-.288-.6-.6-.315-1.127,1.393-2.542,2.745-5.107,4.155-7.64.14-.25.685-.554.853-.467C-8729.775,635.891-8727.662,637.062-8725.46,638.259Z" transform="translate(8778.423 -511.116)" fill="#0e7473"/><path d="M-8549.681,592.33l4.359-2.222,1.144,2.236a4.557,4.557,0,0,1-.542.412c-2.083,1.079-4.171,2.15-6.4,3.3-1.586-3.088-3.131-6.1-4.729-9.21l6.8-3.522c.184.127.268.157.308.216,1.307,1.919,1.3,1.922-.729,2.956-.863.44-1.714.9-2.562,1.351.168.955.543,1.179,1.31.724.672-.4,1.414-.684,2.073-1.1.776-.49,1.28-.415,1.6.495a13.582,13.582,0,0,0,.648,1.32c-1.051.553-2.06,1.127-3.106,1.619C-8550.284,591.266-8550.466,591.648-8549.681,592.33Z" transform="translate(8664.119 -478.669)" fill="#0e7473"/><path d="M-8784.867,621.816c-.886-.48-1.62-.838-2.307-1.273-.225-.142-.5-.519-.453-.725.219-1.014-.363-1.413-1.143-1.757-.5-.22-.949-.551-1.446-.779-.227-.1-.625-.2-.755-.089-1.595,1.4-2.477-.334-3.673-.643l-.3-.476a3.838,3.838,0,0,0,.855-.383c2.4-1.887,4.831-3.745,7.162-5.719.909-.769,1.472-.163,2.193.152a1.3,1.3,0,0,1,.882,1.545c-.32,3-.553,6.007-.824,9.011C-8784.7,620.983-8784.773,621.28-8784.867,621.816Zm-2.124-7.776-.273-.1-1.538,1.333,1.6.865Z" transform="translate(8814.896 -495.242)" fill="#0e7473"/><path d="M-8615.807,633.672c-.986.523-1.69.94-2.436,1.268a1.135,1.135,0,0,1-.858-.07,3.039,3.039,0,0,0-4.112,2.141,1.149,1.149,0,0,1-.474.728c-.691.412-1.431.745-2.237,1.152a4.512,4.512,0,0,1-.184-.679c-.234-3.172-.412-6.349-.714-9.514-.106-1.116.681-1.261,1.321-1.653a1.311,1.311,0,0,1,1.785.078c2.292,1.97,4.643,3.872,6.971,5.8C-8616.5,633.119-8616.261,633.308-8615.807,633.672Zm-6.111-1.186-1.847-1.647c.1,1,.164,1.651.243,2.448Z" transform="translate(8708.882 -506.045)" fill="#0e7473"/><path d="M-8576.028,603.207c1.091-.231,2.177-.487,3.273-.686a3.066,3.066,0,0,1,3.49,1.547,2.912,2.912,0,0,1-.637,3.834,6.921,6.921,0,0,1-5.315,1.774c-.562-.047-1.223-.12-.988-.927.2-.69-.395-1.857,1.133-1.863a9.437,9.437,0,0,0,2.71-.553c.264-.082.4-.579.589-.885a2.953,2.953,0,0,0-1.029-.192c-.728.136-1.425.44-2.152.585-1.9.38-3.191-.266-3.846-1.863a3.181,3.181,0,0,1,1.369-3.884,6.205,6.205,0,0,1,4.309-1.246c.533.046,1.158.119.917.847-.218.659.354,1.787-1.031,1.866a8.558,8.558,0,0,0-2.164.438c-.333.11-.573.5-.856.759Z" transform="translate(8678.738 -488.446)" fill="#0e7473"/><path d="M-8601.806,616.215a10.425,10.425,0,0,0,1.564-.013c.771-.139,1.519-.4,2.29-.53a3.073,3.073,0,0,1,3.529,1.9,2.9,2.9,0,0,1-.984,3.666,6.8,6.8,0,0,1-5.374,1.557c-.674-.092-.944-.417-.735-1.012s-.307-1.581.937-1.689a14.981,14.981,0,0,0,2.94-.6c.252-.075.371-.592.551-.906a3.143,3.143,0,0,0-1.031-.154c-.844.165-1.657.5-2.5.634a2.958,2.958,0,0,1-3.455-1.806,3.041,3.041,0,0,1,.974-3.691,6.032,6.032,0,0,1,4.437-1.548c.552.033,1.343-.063,1.124.886-.163.711.335,1.87-1.16,1.825A3.32,3.32,0,0,0-8601.806,616.215Z" transform="translate(8694.706 -496.764)" fill="#0e7473"/><path d="M-8704.232,659.653l-2.451-1.32c1.223-2.276,2.4-4.468,3.641-6.774l-2.264-1.377a8.426,8.426,0,0,1,.848-1.573,1.1,1.1,0,0,1,1-.278q2.94,1.485,5.8,3.125a1.086,1.086,0,0,1,.322.98,9.049,9.049,0,0,1-.874,1.616l-2.3-1.181C-8701.734,655.1-8702.948,657.31-8704.232,659.653Z" transform="translate(8759.239 -519.641)" fill="#0e7473"/><path d="M-8754.348,631.185l-1.249,2.255-6.795-3.656,4.923-9.122,2.441,1.336c-1.221,2.295-2.389,4.492-3.617,6.8Z" transform="translate(8794.37 -502.218)" fill="#0e7473"/><path d="M-8807.131,605.8c1.666-3.088,3.238-6,4.9-9.087l2.48,1.338c-1.652,3.069-3.252,6.039-4.912,9.123Z" transform="translate(8822.584 -487.112)" fill="#0e7473"/><path d="M-8548.5,578.486c-.725,1.8-1.261,3.448-3.51,3.849.221-1.116.385-2.2.684-3.249.064-.221.615-.363.963-.428C-8549.808,578.555-8549.236,578.548-8548.5,578.486Z" transform="translate(8661.696 -475.621)" fill="#0e7473"/><path d="M-8819.853,321.242h-2.139c0-2.377-.01-4.711.024-7.045a.708.708,0,0,1,.527-.448,3.086,3.086,0,0,1,1.648.5,23.475,23.475,0,0,1,1.985,2.76c.653-.943,1.278-1.742,1.786-2.609a1.5,1.5,0,0,1,1.939-.6c.279.086.477.852.488,1.314.053,1.991.023,3.983.023,6.108l-2.025.089v-3.436l-.289-.119-1.928,2.956-2.042-3.177Z" transform="translate(8831.956 -308.621)" fill="#0e7473"/><path d="M-8759.9,317.528V313.94c1.809-.483,2-.356,2,1.349,0,1.842-.009,3.683-.021,5.525a1.563,1.563,0,0,1-.11.372,2.1,2.1,0,0,1-2.747-1.013,13.438,13.438,0,0,0-2.138-2.713v3.754H-8765c0-2.322-.012-4.623.021-6.924,0-.185.334-.542.465-.52.65.1,1.5.107,1.88.517a32.918,32.918,0,0,1,2.477,3.358Z" transform="translate(8796.018 -308.637)" fill="#0e7473"/><path d="M-8603.873,313.855a34.551,34.551,0,0,1,3.7.024,3.554,3.554,0,0,1,3.163,3.877,3.56,3.56,0,0,1-3.444,3.624c-3.416.235-3.416.235-3.416-3.158Zm2.065,5.542c.428.024.694.061.958.051,1.273-.047,1.85-.741,1.741-2.078a1.6,1.6,0,0,0-2.007-1.573,1,1,0,0,0-.661.678C-8601.855,317.4-8601.808,318.335-8601.808,319.4Z" transform="translate(8694.404 -308.711)" fill="#0e7473"/><path d="M-8554.281,317.6c0-.981.028-1.962-.01-2.941-.026-.67.241-.918.9-.888.9.041,1.812-.042,2.7.059a3.568,3.568,0,0,1,3.264,3.9,3.563,3.563,0,0,1-3.565,3.623c-3.289.175-3.289.175-3.29-3.051V317.6Zm2.026-.123c0,1.957,0,1.957.936,1.947a1.593,1.593,0,0,0,1.793-1.8,1.615,1.615,0,0,0-1.857-1.858C-8552.921,315.77-8551.949,316.976-8552.255,317.476Z" transform="translate(8663.138 -308.682)" fill="#0e7473"/><path d="M-8657.716,321.264c-1.176-.139-2.061.359-2.9-.732a2.659,2.659,0,0,0-2.594-.031c-.868,1.092-1.74.676-2.867.687,1.037-2.437,1.987-4.742,3.007-7.015a1.489,1.489,0,0,1,2.281-.027C-8659.755,316.42-8658.8,318.726-8657.716,321.264Z" transform="translate(8733.629 -308.595)" fill="#0e7473"/><path d="M-8574.121,321.256c-1.142-.018-2.031.384-2.895-.7-.354-.446-1.9-.422-2.576-.036-1.334.761-1.239.926-2.807.648.426-1.023.836-2.022,1.256-3.016.473-1.118.987-2.22,1.422-3.352.263-.686.564-1.085,1.415-1.089a1.375,1.375,0,0,1,1.443,1.06C-8575.988,316.9-8575.076,319-8574.121,321.256Z" transform="translate(8680.861 -308.646)" fill="#0e7473"/><path d="M-8717.461,315.853c-.846.5-1.584.99-2.524-.025a1.72,1.72,0,0,0-2.506.327,1.989,1.989,0,0,0,.034,2.584,1.865,1.865,0,0,0,2.549.257c1.086-.768,1.086-.768,2.386-.013a3.7,3.7,0,0,1-4.088,2.326,3.974,3.974,0,0,1-3.433-3.625,3.938,3.938,0,0,1,3.032-4.074A3.875,3.875,0,0,1-8717.461,315.853Z" transform="translate(8770.821 -308.509)" fill="#0e7473"/><path d="M-8786.416,313.835h1.944a49.111,49.111,0,0,1-.046,5.4c-.168,1.494-1.729,2.384-3.388,2.266a3.025,3.025,0,0,1-2.976-2.672c-.113-1.444-.037-2.9-.061-4.353-.013-.81.562-.686,1.061-.708.555-.025,1.023,0,1.007.769-.026,1.177,0,2.355,0,3.533,0,.871.338,1.486,1.284,1.465.895-.02,1.178-.643,1.177-1.449C-8786.416,316.713-8786.416,315.344-8786.416,313.835Z" transform="translate(8812.377 -308.677)" fill="#0e7473"/><path d="M-8682.624,319.53c-.053.656-.1,1.23-.15,1.866h-1.872V313.98a32.335,32.335,0,0,1,3.95.035,2.628,2.628,0,0,1,2.138,2.714,2.5,2.5,0,0,1-2.208,2.616C-8681.336,319.456-8681.927,319.464-8682.624,319.53Zm0-1.885a14.915,14.915,0,0,0,1.879-.555c.1-.042.09-.775-.033-.831a13.374,13.374,0,0,0-1.846-.564Z" transform="translate(8745.342 -308.787)" fill="#0e7473"/><path d="M-8638.547,321.294c0-2.328-.007-4.6,0-6.863,0-.824.643-.61,1.116-.634.51-.026.931.027.919.727-.027,1.565-.009,3.13-.009,4.917.752,0,1.435,0,2.117,0,1.627,0,1.675.062,1.317,1.852Z" transform="translate(8716.271 -308.695)" fill="#0e7473"/><path d="M-8617.022,313.881c1.981-.388,2-.368,2,1.52q0,2.113,0,4.226c0,1.875-.028,1.9-2,1.528Z" transform="translate(8702.696 -308.628)" fill="#0e7473"/><path d="M-8696.059,321.388h-2.057c0-2.383-.026-4.716.055-7.045.006-.172.783-.42,1.21-.436.257-.01.753.356.759.562C-8696.037,316.727-8696.059,318.987-8696.059,321.388Z" transform="translate(8753.838 -308.77)" fill="#0e7473"/><path d="M-8735.3,321.487h-1.831v-7.446h1.831Z" transform="translate(8778.438 -308.855)" fill="#0e7473"/><path d="M-8840.038,317.743c-2.258-.643-3.173-1.792-3.173-4.033q0-5.065.1-10.129c.047-2.3,1.324-3.525,3.649-3.532q12.722-.042,25.445-.048,39.94,0,79.88.028c3.085,0,4.243,1.166,4.243,4.273q0,4.6,0,9.19c0,2.435-.782,3.519-2.964,4.213a82.038,82.038,0,0,0,.055,9.645c2.036,17.031,4.258,34.04,6.391,51.06,1.211,9.662,2.478,19.321,2.24,29.1q-.025,1.06-.056,2.12a8.734,8.734,0,0,1-4.315,7.759c-7.621,4.611-15.111,9.452-22.893,13.773-8.641,4.8-17.529,9.15-26.346,13.627-1.847.938-3.852,1.561-5.776,2.349a7.417,7.417,0,0,1-6.06-.058c-4.942-2.206-9.957-4.271-14.793-6.691Q-8823,431.076-8840.617,420c-1.658-1.046-3.253-2.2-4.852-3.335a7.657,7.657,0,0,1-3.227-5.889,95.181,95.181,0,0,1,.6-19.632c1.706-14.224,3.625-28.423,5.372-42.642.981-7.986,1.846-15.988,2.648-23.995C-8839.85,322.293-8840.038,320.041-8840.038,317.743Zm101.948,77.1a4.469,4.469,0,0,1,.332,1.478c-.234,1.225-.569,2.432-.905,3.634a1.032,1.032,0,0,1-1.584.783,1.5,1.5,0,0,0-1.987.78,9.426,9.426,0,0,0-.666,1.5,21.577,21.577,0,0,1-.942,2.527c-.21.4-.782.6-1.189.894a7.49,7.49,0,0,1-.872-1.374,5.569,5.569,0,0,1-.158-1.452c-1.37.053-1.5.212-1.124,1.271.13.37.282.733.4,1.107.455,1.438.354,1.642-.985,2.36-.412.22-.756.571-1.173.778a15.234,15.234,0,0,1-1.533.575l-.253-.286c.177-.486.211-1.165.559-1.422.957-.707.8-1.567.72-2.532-.105-1.317-.062-2.646-.075-3.97-.008-.718,0-1.436,0-2.505l-7.2,2.216.093.314a16.187,16.187,0,0,1,1.819-.16.844.844,0,0,1,.571.466.653.653,0,0,1-.162.614c-.8.513-1.628.97-2.625,1.55-.3-.746-.613-1.51-.955-2.351l-1.372.306c0,.742.023,1.405-.012,2.065a1.746,1.746,0,0,1-.247.847c-.439.652-.918,1.281-1.416,1.889a11.113,11.113,0,0,1-2.221,2.524c-1.8,1.144-3.8,1.98-5.678,3.01a1.963,1.963,0,0,0-.961,1.122c-.061.321.469.744.719,1.133a3.8,3.8,0,0,1,.732,1.315c.027.2-.641.684-1,.694a1.39,1.39,0,0,1-1.111-.634c-.4-1.028-1.1-1.044-1.895-.72a5.739,5.739,0,0,0-1.6.97,7.331,7.331,0,0,0-2.871,5.565c-.021,1.574-.432,1.843-1.951,1.712.047-.774.095-1.552.135-2.2a47.9,47.9,0,0,1-5.961,1c-4.188.185-8.388.105-12.582.181a2.123,2.123,0,0,1-2.4-1.739c-.557-1.977-1.114-4.012-3.5-4.551.41-1.336.949-1.856,1.852-1.805a1.8,1.8,0,0,1,1.768,1.3c.588,1.788.6,1.784,2.479,1.2a6.81,6.81,0,0,1,.8-.207c1.985-.364,1.985-.362,2.306-2.4.012-.078.021-.156.031-.233.43-3.037.414-2.416-1.783-3.608-2.129-1.155-3.486-2.627-2.959-5.275a1.43,1.43,0,0,0-.737-1.188c-1.338-.368-2.729-.819-4.031.242a3.121,3.121,0,0,1-1.217.378c-.587.14-1.181.252-1.948.413a11.3,11.3,0,0,1,2.132,1.922,2.991,2.991,0,0,0,2.942,1.526,13.3,13.3,0,0,1,1.53.016c1.056.064,1.526.632,1.417,1.928-1.789-.273-3.526-.491-5.24-.831-.451-.09-.831-.551-1.237-.852-1.251-.927-2.452-1.935-3.771-2.751-.482-.3-1.245-.128-1.876-.209a2.793,2.793,0,0,1-1.129-.271c-1.832-1.174-2.915-2.694-2.114-5,.028-.082-.071-.208-.135-.373-1.106.03-2.126-.116-2.382-1.495a.888.888,0,0,0-.565-.561c-1.544-.339-1.933-1.511-2.159-2.836a4.526,4.526,0,0,0-.389-.845c-.642.4-1.238.718-1.768,1.122-.789.6-1.137.53-1.412-.424a2.387,2.387,0,0,1-.1-.925,2.277,2.277,0,0,0-1.1-2.307c-.685-.455-1.379-.9-2.1-1.289-1.436-.769-1.532-1.759-.034-3.132a2.39,2.39,0,0,0,.4.687,7,7,0,0,0,1.009.618c.092-.427.4-.977.236-1.258a27.832,27.832,0,0,0-1.914-2.627c-.5.643-.734,1.154-1.134,1.4a2.4,2.4,0,0,1-1.646.509c-.961-.317-1.812-.592-2.6.246a6.147,6.147,0,0,0-.651-1.974c-.871-1.042-1.937-1.919-2.87-2.913a2.682,2.682,0,0,1-.543-1.149c-.479-1.885-.464-1.888-2.362-2.114-.234-.028-.466-.077-.7-.1-1.94-.185-3.882-.366-5.923-.558-.3,2.423-.6,4.711-.874,7a164.862,164.862,0,0,0-1.415,23.729,8.327,8.327,0,0,0,4.271,7.573c5.8,3.454,11.453,7.151,17.294,10.528a326.017,326.017,0,0,0,33.018,17.113c5.816,2.529,6.238,2.5,12.049-.025a280.511,280.511,0,0,0,28.084-14.351c7.717-4.441,15.253-9.2,22.876-13.8a6.968,6.968,0,0,0,3.456-6.059c.039-.863.139-1.729.1-2.588-.3-5.957-.553-11.917-.974-17.865-.243-3.436-.773-6.853-1.171-10.255-2.029-.152-2.471.059-2.594,1.7a2.741,2.741,0,0,1-1.5,2.44c-.641.347-.678.838-.586,1.482.5,3.505.483,3.469-2.918,4.114a5.4,5.4,0,0,0-2.192,1.042c-.262.2-.116.92-.181,1.4a1.933,1.933,0,0,1-.206.461c-.288-.106-.671-.127-.767-.3-.7-1.284-1.655-.758-2.5-.323a5.367,5.367,0,0,0-2.054,1.509c-1.4,2.127-2.7,4.317-4.816,5.843a.157.157,0,0,0-.07.092c-.058.582-.31,1.263-.089,1.711.134.274,1.025.336,1.524.235a21,21,0,0,0,2.6-.868c.117.755.206,1.325.315,2.024l2.095-4.55,1.293,1.961Zm-4.135-15.728c.539-.546.92-1.253,1.383-1.313a2.363,2.363,0,0,1,1.573.794c.976.954,1.169,1.053,2.184.082a1.268,1.268,0,0,1,1.834-.254,1.466,1.466,0,0,0,1.3.1,6.219,6.219,0,0,1,3.925-.933,9.5,9.5,0,0,0,1.644-.232c-.06-.6-.092-1.065-.155-1.527-.529-3.811-1.114-7.615-1.587-11.432-.982-7.948-1.856-15.91-2.87-23.855-.949-7.439-2.168-14.85-1.842-22.392a3.188,3.188,0,0,0-.1-.564h-1.873q-41.648,0-83.3-.013a9.847,9.847,0,0,0-4.871.886c-.947.506-1.376,1.072-.908,2.042a5.243,5.243,0,0,1,.248,3.555,8.032,8.032,0,0,0,.587,5,39.975,39.975,0,0,0,.2-4.18,3.767,3.767,0,0,1,3.518-4c.665-.093,1.9.135,2,.47.294,1.019-.768,1.156-1.487,1.394-2,.662-2.481,1.352-2.413,3.455.044,1.407.011,2.817.077,4.222a8.586,8.586,0,0,0,.417,1.6,4.2,4.2,0,0,0,.642-.59c1.287-2.15,2.622-4.276,3.82-6.475.633-1.164.992-2.475,1.537-3.692.381-.85.808-1.718,2.131-1.83a9.788,9.788,0,0,1-.251,1.514c-.472,1.407-.946,2.816-1.516,4.185-.66,1.589-1.412,3.14-2.153,4.694a.945.945,0,0,1-.546.4c-1.086.328-1.368,1.212-1.524,2.169a16.674,16.674,0,0,0-.329,2.679,7.463,7.463,0,0,0,.54,1.866,7.041,7.041,0,0,0,2.2-4.093,7.4,7.4,0,0,1,2.051-4.276c.249-.231.743-.2,1.124-.288a4.007,4.007,0,0,1,.147,1.3c-.074.345-.489.6-.68.939-.4.712-.755,1.451-1.128,2.18l.412.351a8.859,8.859,0,0,0,1.753-1.349,10.124,10.124,0,0,0,2.39-5.773,22.265,22.265,0,0,1,.52-3.492,23.351,23.351,0,0,1,.852-2.523c1.178.734,1.246,1.173.9,2.627-.393,1.635-.743,3.287-.978,4.95a10.386,10.386,0,0,0,.222,2.361,2.618,2.618,0,0,0,1.8-2.633c.03-1.256-.089-2.517-.007-3.767a12.053,12.053,0,0,1,.56-2.982c.154-.461.747-.776,1.141-1.158l.279.24-.289,3.161c1.447-.365,1.349-1.508,1.513-2.47.138-.8.156-1.647,1.1-1.984a3.031,3.031,0,0,1,.09,4c-1.644,1.742-2.178,3.859-2.63,6.055a2.773,2.773,0,0,1-1.575,2.292c-.357.16-.516.832-.688,1.3-.038.1.327.488.369.467a6.178,6.178,0,0,0,1.415-.85c.423-.383.66-.974,1.09-1.345a28.517,28.517,0,0,1,2.441-1.825,4.179,4.179,0,0,1,1.529-.828c.535-.087,1.531.056,1.62.327.259.795-.536.935-1.143,1.137a3.72,3.72,0,0,0-1.359.667,6.8,6.8,0,0,0-.919,1.391l.324.271,4.142-2.32.366.434c-.322.431-.558,1-.981,1.268a61.787,61.787,0,0,1-5.728,3.407c-3.939,1.941-5.535,5.358-6.282,9.382a2.021,2.021,0,0,0,.049,1.037,28.3,28.3,0,0,0,1.261,2.873c.164.318.643.766.873.711,1.532-.363,3.038-.838,4.544-1.3.15-.047.245-.274.517-.595-.834-.762-1.652-1.469-2.422-2.226a22.1,22.1,0,0,1-2.234-2.389,1.7,1.7,0,0,1,.251-2.535,25.084,25.084,0,0,1,4.829-3.069c3.9-1.643,8.119-2.061,12.287-2.545a65.2,65.2,0,0,1,22.363,1.07c4.09.948,8.087,2.341,11.068,5.6,1.16,1.269,1.253,2.066.2,3.425-.91,1.176-1.928,2.272-2.927,3.378-1.154,1.278-1.169,1.965-.319,3.472a39.573,39.573,0,0,1,2.217,4.525c1.035,2.544,1.767,5.223,2.951,7.689a44.36,44.36,0,0,1,2.83,7.834c.858,3.22,1.826,6.412,2.772,9.608.36,1.216.687,1.369,1.753.717a6.706,6.706,0,0,0,1.411-1.375c.386-.441.666-.972,1.052-1.412.625-.714,1.285-1.223,2.074-.127.124.173.547.2.824.179a8.679,8.679,0,0,0,1.2-.248Zm-48.569-13.845c.322,1.716-.073,2.2-2.029,2.45-5.058.652-10.116,1.29-15.173,1.951-.734.1-1.455.288-2.184.436a14.659,14.659,0,0,0,2.861.144,1.4,1.4,0,0,1,1.021.474c.129.2-.088.7-.261,1.006-.411.73-.887,1.424-1.362,2.173,1.438.619,3.1-.884,4.107.875-.112.094-.188.2-.29.238-.69.25-.95.8-.609,1.372.171.286.8.39,1.229.4a7.2,7.2,0,0,0,1.751-.207,49.02,49.02,0,0,1,11.706-.983c.616.016,1.4-.076,1.421.826.026,1.08-.9.664-1.409.68-2.275.069-4.559-.025-6.828.114-1.041.064-2.366-.231-2.955,1.175-.051.122-.424.208-.609.16-2.566-.652-4.9.268-7.211,1.121a16.154,16.154,0,0,1-6.648,1.256c-.8-.049-1.965-.166-2.043.833-.089,1.118,1.083,1.4,1.99,1.33,2.647-.213,5.286-.535,7.923-.853,1.315-.159,2.616-.469,3.934-.56.347-.024.732.511,1.1.789a4.355,4.355,0,0,1-1.023.947,4.784,4.784,0,0,1-1.5.236c-3.938.365-7.79,1.93-11.854.632-1.11-.355-1.513.334-1.488,2.1a25.248,25.248,0,0,1,3.021-.233c.476.015,1.249.335,1.347.672.223.778-.5,1.1-1.149,1.141-.975.066-1.96-.034-2.937.011-.34.016-.858.166-.97.406-.48,1.033-.838,2.122-1.338,3.444.83-.1,1.287-.139,1.738-.214,1.737-.291,3.466-.652,5.212-.877,2.1-.271,4.21-.432,6.316-.635.542-.052,1.136-.009,1.071.7a1.22,1.22,0,0,1-.787.825c-1.032.215-2.1.275-3.147.409-2.565.326-5.146.577-7.689,1.026-1.329.235-1.606,1.429-.662,2.448a5.489,5.489,0,0,0,1.448.97c.791.43,1.649.745,2.409,1.221a2.782,2.782,0,0,1,1.458,2.636c-.091,1.7.346,2.184,2.012,2.542,2.433.523,4.635-.284,7.023-1.1-1.2-1.856-.948-3.686-.24-5.566a19.075,19.075,0,0,0,1.045-3.733c.2-1.272.214-2.551,1.268-3.5.133-.121.111-.413.206-.81-1.269-.056-2.439-.062-3.6-.17q-2.547-.237-5.08-.62c-.219-.034-.472-.476-.516-.759-.022-.142.383-.491.609-.5a5.565,5.565,0,0,1,1.955.108c1.258.4,2.458.9,3.015-.809l3.807,1.816c.51-1.717.943-3.217,1.4-4.71a2.963,2.963,0,0,1,2.676-2.317c3-.238,6.015-.527,9.021-.518s6.024.346,9.034.568a8.186,8.186,0,0,1,1.373.332,2.605,2.605,0,0,1-2.164,2.493c-1.788.6-1.785.618-1.744,2.5.008.353.041.705.059,1.058a30.3,30.3,0,0,1-1.157,11.166,5.559,5.559,0,0,0-.281,1.732,3.486,3.486,0,0,0,3.056,2.819c1.424-.083,2.859.049,4.289.09a18.177,18.177,0,0,0,3.725.065c2-.367,3.938-1.026,5.9-1.584a8.6,8.6,0,0,0,1.17-.576c-.638-.266-1.04-.462-1.46-.6-.469-.154-.955-.256-1.455-.387.514-1.147.98-1.469,2.061-1.094,1.25.433,2.4,1.152,3.638,1.622a4.079,4.079,0,0,0,2.214.354c2.091-.508,4.13-1.229,6.2-1.845a.82.82,0,0,0,.664-1.136c-.288-1.108.271-1.323,1.214-1.135.346.069.7.1,1.048.159.611.1,1.245.158,1.432-.614.209-.867-.392-1.222-1.1-1.359-.807-.156-1.644-.161-2.444-.335q-2.581-.562-5.131-1.257c-.26-.071-.429-.472-.64-.721.28-.175.555-.486.84-.5a7.488,7.488,0,0,1,1.732.209c1.536.315,3.056.73,4.6.977,1.335.213,1.6-.142,1.223-1.417-.882-3.012-1.8-6.013-2.654-9.032a.929.929,0,0,0-1.058-.807,25.746,25.746,0,0,1-3.293-.156q-11.728-1.559-23.444-3.2a8.885,8.885,0,0,1-1.914-.738l.1-.439a12.567,12.567,0,0,1,2.519-.227q5.379.579,10.739,1.32c4.426.617,8.836,1.335,13.262,1.954.684.1,1.713.253,1.848-.732.121-.879-.755-1.166-1.512-1.344-.037-.009-.088,0-.114-.018-.233-.181-.6-.336-.652-.56a.843.843,0,0,1,.437-.693.9.9,0,0,0,.469-1.506,3.233,3.233,0,0,0-1.594-1.347,104.228,104.228,0,0,0-11.295-2.232,67.659,67.659,0,0,1-8.569-1.075c-2.094-.506-4.37-.283-6.566-.327-2.119-.043-4.257.162-6.354-.051a32.2,32.2,0,0,0-12.253.62,8.777,8.777,0,0,1-2.318.029l-.034-.4a7.014,7.014,0,0,1,1.084-.293c1.482-.161,2.965-.359,4.452-.411a66.437,66.437,0,0,0,12.632-1.605,1.4,1.4,0,0,1,.681.014c3.243.962,6.579.819,9.9.861a9.959,9.959,0,0,1,2.032.316c.9.2,1.771.554,2.677.684,3.835.553,7.68,1.036,11.516,1.572.95.132,1.886.365,3.206.626l-3.518-8.731a31.508,31.508,0,0,1-3.687-1.2c-6.417-2.9-13.311-2.6-20.089-3.092a1.516,1.516,0,0,0-.234.01q-6.973.567-13.944,1.138c-.272.023-.542.082-.812.131l-9.339,1.687c-.193.035-.383.086-.575.127-.738.159-1.2.54-1.141,1.37a2.09,2.09,0,0,1-1.085,1.948,1.159,1.159,0,0,0-.5.812c.061.964.237,1.921.38,2.944.266-.029.531-.045.793-.088,2.395-.386,4.775-.927,7.185-1.133,3.8-.324,7.572-.577,10.91-2.7C-8791.045,365.249-8790.906,365.278-8790.794,365.268Zm4.376-63.482h-52.535c-.274,0-.55,0-.824.01a1.448,1.448,0,0,0-1.557,1.559c-.028,3.612-.037,7.224,0,10.836a1.574,1.574,0,0,0,1.819,1.692c.823-.016,1.647.035,2.473.034q51.532-.024,103.065-.051c1.841,0,2.28-.43,2.285-2.286q.012-4.712,0-9.423c0-2-.389-2.37-2.433-2.37ZM-8844.5,375.74c.843.1,1.506.148,2.157.261,1.854.32,3.713.613,5.547,1.018a2.764,2.764,0,0,1,2.374,2.569c.039.353.484.661.743.989A3.877,3.877,0,0,0-8833,379.4c.142-.884.092-1.8.184-2.692a.9.9,0,0,1,1.1-.923c.531.054,1.072.011,1.751.011-.063.9-.1,1.63-.172,2.359a29.051,29.051,0,0,0-.319,2.917c0,.455.389.911.6,1.366.277-.4.736-.772.8-1.2a38.306,38.306,0,0,0,.36-4.217c.031-.894.566-1.043,1.238-1.032.832.014.771.657.7,1.2-.1.816-.312,1.619-.408,2.435a1.74,1.74,0,0,0,.146,1.11,20.5,20.5,0,0,0,2.521,3.208c1.625,1.519,3.089,2.948,1.953,5.452-.119.262.365,1.026.747,1.235.646.355.847-.279.989-.783.528-1.872,1.1-3.734,1.545-5.625a6.292,6.292,0,0,0-.141-1.858,3.172,3.172,0,0,0-.814-.032,19.231,19.231,0,0,1-2.595.7,1.988,1.988,0,0,1-1.3-.656c-.09-.085.229-.837.525-1.048a5.173,5.173,0,0,1,1.708-.743c1.216-.306,2.468-.47,3.676-.8.433-.117,1.036-.478,1.124-.836.34-1.376.493-2.771-.586-4a1.64,1.64,0,0,1-.273-1.25,10.923,10.923,0,0,0-1.4-7.713,15.494,15.494,0,0,1-2.491-7.813,2.714,2.714,0,0,0-1.055-1.927,6.53,6.53,0,0,0-8.127,1.329c-.8.969-1.534,1.987-2.317,2.967a6.063,6.063,0,0,1-3.545,2.14c-1.756.4-3.483.932-5.2,1.467-.348.108-.831.456-.876.751C-8843.506,368.462-8843.982,372.033-8844.5,375.74Zm71.964-29.287.125-.471c.732.145,1.477.247,2.194.444,1.208.332,2.388.775,3.6,1.059a1.179,1.179,0,0,0,1.049-.444,1.268,1.268,0,0,0-.334-1.127,3.221,3.221,0,0,0-1.453-.705c-4.42-.9-8.828-1.876-13.281-2.571a19.124,19.124,0,0,0-6.906-.124c-2.539.563-5.056.395-7.566.69a8.224,8.224,0,0,0-1.624.241c-.288.1-.669.469-.673.72a1.06,1.06,0,0,0,.587.831c.675.153,1.4.083,2.093.172a12.918,12.918,0,0,1,1.5.368l-.054.413c-.478.112-.95.242-1.432.331-2.114.389-4.224.817-6.35,1.131-1.653.245-2.45,1.579-3.524,2.563-.135.124-.018.523-.018.89,1.937-.52,3.717-.979,5.484-1.489a1.965,1.965,0,0,0,.955-.618c.541-.689.905-.712,1.409.058a1.723,1.723,0,0,0,1.11.588,8.584,8.584,0,0,0,1.763-.048c1.4-.094,2.813-.186,2.843-2.127,0-.059.092-.118.232-.287a8.04,8.04,0,0,0,.928.638c.249.126.657.3.811.192.753-.531,1.414-.16,2.119.067,2.126.685,2.86.416,3.827-1.459.319.2.769.312.917.589a2.488,2.488,0,0,0,2.455,1.284,25.311,25.311,0,0,1,2.584.185c2.293.266,4.6.459,6.866.878,1.639.3,1.821.273,1.745-1.449C-8769.794,347.185-8771.573,347.884-8772.533,346.453Zm13.23,15.469a4.187,4.187,0,0,0-2.514-4.156c-5.476-2.866-11.443-3.381-17.447-3.551a82.56,82.56,0,0,0-8.7.393c-3.091.24-6.189-.092-9.244,1.2-2.366,1-5.086,1.215-7.669,1.659-2.4.413-3.038,1.056-3.14,3.776,2.14-.431,4.517.062,5.745-1.844a20.338,20.338,0,0,0,2.477.151c.616-.038,1.213-.324,1.83-.42a.938.938,0,0,0,.933-1.086c-.014-.6.073-1.2,1.023-1.173.034.706.066,1.381.1,2.036,1.828.372,3.26-.04,3.968-1.354a13.618,13.618,0,0,0,3.248.941,44.511,44.511,0,0,0,5.038-.413,1.673,1.673,0,0,0,1.58-1.186c.127-.349.534-.6.814-.888.267.266.653.485.778.806a1.91,1.91,0,0,0,1.929,1.249,16.092,16.092,0,0,1,1.987.229,1.154,1.154,0,0,0,1.5-.725.732.732,0,0,1,1.31-.292c1.209,1.277,2.808,1.476,4.384,1.776a24.8,24.8,0,0,1,7.633,2.274A10.023,10.023,0,0,0-8759.3,361.922Zm-8.335-10.483.217-.575c.907.248,1.809.529,2.727.728a3.966,3.966,0,0,0,1.1-.071c-.05-.4.024-.885-.178-1.183a9.664,9.664,0,0,0-1.364-1.452,1.38,1.38,0,0,0-2.473.565c-.162.469-.338.935-.528,1.461-.571-.158-1.016-.306-1.47-.4-1.441-.306-2.876-.678-4.334-.863-1.315-.167-2.7.079-3.981-.2-5.046-1.121-9.919-.1-14.81.946a5.8,5.8,0,0,1-2.1.131c-3.155-.52-6.069.436-8.973,1.406a7.759,7.759,0,0,0-1.713,1.146l.237.553c.757-.168,1.528-.286,2.263-.521.476-.152.873-.608,1.347-.69.833-.145,1.73.02,2.54-.185a12.525,12.525,0,0,0,2.286-1.085c.109,1.36-.2,1.852-1.48,1.969-2.481.227-4.673,1.936-7.295,1.394-.07-.014-.191,0-.223.048-.33.481-.646.972-.966,1.46a3.836,3.836,0,0,0,1.322.61,7.011,7.011,0,0,0,1.831-.378c1.327-.329,2.638-.77,3.983-.971a3.86,3.86,0,0,0,2.614-1.114,1.96,1.96,0,0,1,1.265-.363c1.407-.06,2.819-.017,4.226-.08,3.691-.165,7.379-.407,11.07-.525,1.07-.034,2.051.01,2.633-1.377.85,1.632,2.3,1.54,3.644,1.7,1.13.132,2.267.208,3.4.351,2.561.324,5.168.441,7.467,1.867a6.87,6.87,0,0,0,1.742.521l.268-.26c-.264-.519-.394-1.246-.815-1.519-1.395-.9-2.9-1.638-4.356-2.436C-8766.892,351.837-8767.266,351.639-8767.638,351.439Zm-73.069-4.6c-.206,1.814-.421,3.481-.56,5.154a1.089,1.089,0,0,0,.5.771,8.314,8.314,0,0,0,1.293.554c1.308.56,1.521,1.089,1.266,2.491-.095.514-.039,1.435.223,1.55a2.794,2.794,0,0,0,1.711-.163,1.818,1.818,0,0,0,.914-.706,14.077,14.077,0,0,1,2.042-2.763c.666-.63,1.155-.934,1.928-.775a8.063,8.063,0,0,0,4.37-.055,1.57,1.57,0,0,0,.922-2.617c-.654-.942-1.611-.954-2.621-.967-.96-.013-2.142.151-2.828-.33a5.466,5.466,0,0,0-3.968-1,4.921,4.921,0,0,1-1.621-.2C-8838.28,347.513-8839.405,347.186-8840.707,346.834Zm14.579-10.139.437-.392a8.2,8.2,0,0,0-.79-1.484c-1.015-1.231-2.066-2.436-3.162-3.6a11.409,11.409,0,0,0-2.032-1.722,1.167,1.167,0,0,0-1.078.346,9.345,9.345,0,0,0-1.324,6.314q.27,2.155.466,4.319a3.019,3.019,0,0,0,2.044,2.767c.854.316,1.766.482,2.672.721l-.714,1.986,3.045-1.762a8.976,8.976,0,0,1-1.145-.917,9.238,9.238,0,0,1-.766-1.172c.542-.067,1.216-.369,1.6-.154a14.274,14.274,0,0,1,2.15,1.788l2.012,1.749c.1-.958.14-1.538.237-2.107a.787.787,0,0,0-.781-1.041c-1.334-.16-1.852-1.018-2.253-2.213a3.6,3.6,0,0,0-1.55-2.038,9.761,9.761,0,0,1-3.312-2.523c-.616-.689-1.47-1.161-2.161-1.791a3.731,3.731,0,0,1-.566-.994c.358-.129.82-.467,1.057-.349a15.929,15.929,0,0,1,2.346,1.492C-8828.488,334.821-8827.316,335.769-8826.128,336.7Zm85.167,45.652-.234-.011c-.367,1.025-.708,2.061-1.121,3.069-.092.225-.433.348-.658.519-.141-.221-.411-.451-.395-.66a4.558,4.558,0,0,1,.346-1.453,2.678,2.678,0,0,0-.273-3.082c-.589-.545-1.771-.492-2.7-.6-.256-.029-.556.334-.836.517.2.258.351.625.616.754,1.033.5.591,1.352.48,2.056a1.2,1.2,0,0,1-1.472,1.106c-.126-.687-.283-1.369-.369-2.059-.12-.966-.646-1.041-1.4-.707a1.966,1.966,0,0,0-1.04,2.279,28.618,28.618,0,0,0,3.055,9.949c.061.124.211.2.3.291a1.977,1.977,0,0,0,.962-3.031c-.312-.6-.685-1.168.245-1.839l1.252,1.74c.93-.528,1.891-1.036,2.8-1.617a1.1,1.1,0,0,0,.416-.794C-8740.945,386.634-8740.961,384.49-8740.961,382.347Zm-30.146,29.281a22.9,22.9,0,0,0,3.892-2.511,2.863,2.863,0,0,1,2.282-1.077c.768.043,1.026-.385,1.151-1.034a7.756,7.756,0,0,1,1.938-3.831,1.713,1.713,0,0,0,.137-1.343c-.038-.153-.732-.3-1.06-.2-1.659.466-3.3.983-4.937,1.534-2.687.908-5.349,1.782-8.214.626a6.612,6.612,0,0,0-2.315-.293c-.719-.012-1.235.342-1.314,1.419,2.31-.617,3.59.86,5.072,2.123S-8771.283,409.285-8771.106,411.628Zm-16.083-.167c.076,1.709,1.178,1.938,2.406,1.88,3.326-.158,6.65-.365,9.975-.542,1.111-.059,1.375-.719,1.241-1.677-.142-1.011-.629-1.455-1.687-1.063a3.1,3.1,0,0,1-1.047.11c-4.354.006-8.708.018-13.062,0-1.984-.01-1.95-.053-2.541-1.986-.172-.56-.493-1.346-.932-1.5a39.838,39.838,0,0,0-4.312-1.054,2.857,2.857,0,0,0,1.363,2.822c.716.456,1.6.639,2.321,1.094a2.773,2.773,0,0,1,1.2,1.356,3.667,3.667,0,0,0,3.041,2.435C-8787.887,413.5-8787.61,412.518-8787.189,411.462Zm-42.352-84.907c-.412.112-.908.407-1.328.325a1.008,1.008,0,0,1-.8-1.329c.123-.622.066-1.309.967-1.323a6.256,6.256,0,0,1,1.516.051c.848.2,1.146-.15,1.209-.927.152-1.891.322-3.781.488-5.714h-6.736a16.848,16.848,0,0,0-.215,3.44,21.3,21.3,0,0,0,1.1,3.46,6.7,6.7,0,0,0,2.137,3.159c1.215,1.034,2.275,2.25,3.413,3.376.553.547,1.131,1.068,1.7,1.6C-8826.383,330.047-8827.913,328.25-8829.541,326.555Zm20.588,28.774c.965-.729,1.572-1.586,1.271-2.508-.166-.51-1.1-.843-1.749-1.1a3.51,3.51,0,0,0-1.721-.216,1.818,1.818,0,0,0-1.207.745,22.159,22.159,0,0,0-1.2,2.914,1.528,1.528,0,0,0,.032.682,25.937,25.937,0,0,1,.359,2.582c.057,1.523,0,3.05.006,4.574,0,.759.174,1.566,1.072,1.479.414-.04.912-.714,1.111-1.206.646-1.59,1.078-3.272,1.787-4.83a2.228,2.228,0,0,0,.121-1.978c-.318-.758-.561-1.548-.837-2.324l.275-.1C-8809.425,354.434-8809.217,354.827-8808.953,355.329Zm-30.564-10.067-.182.471c.521.243,1.025.526,1.564.717a13.7,13.7,0,0,0,2.241.648c.605.1,1.445.252,1.808-.057a2.076,2.076,0,0,0,.215-1.755c-.641-2.207-1.449-4.365-2.116-6.565-.59-1.945-1.362-2.564-3.546-2.546q-.391,3.418-.785,6.858c-.17,1.474.313,1.885,1.724,1.459.263-.079.52-.18.786-.243,1.105-.262,1.523.107,1.49,1.4Zm3.5-10.363c.661-2.216,1.232-4.062,1.753-5.923a4.6,4.6,0,0,0,.25-1.843,2.961,2.961,0,0,0-.812-1.581,8.231,8.231,0,0,1-2.78-5.585,4.256,4.256,0,0,0-.335-1.057c-.418,4.7-.837,9.358-1.232,14.021a.826.826,0,0,0,.281.675C-8837.9,334.094-8836.881,334.517-8836.015,334.9Zm58.686,73.152c-.419-1.575-1.176-2.031-3.224-2q-3.647.061-7.293.179a5.857,5.857,0,0,0-1.857.232c-.387.146-.964.8-.887.968.221.485.727,1.186,1.127,1.19,3.447.032,6.9-.052,10.345-.152A8.947,8.947,0,0,0-8777.329,408.051Zm-40.411-56.882c.312.017.624.023.936.052.731.069,1.056-.288.9-.973a43.231,43.231,0,0,0-1.2-4.643,1.47,1.47,0,0,0-2.645-.465,7.674,7.674,0,0,0-1.357,2.527,3.571,3.571,0,0,0,.848,3.162c.606.836,1.37.214,2.048.338A2.365,2.365,0,0,0-8817.74,351.169Zm32.711,69.286c.8,0,1.611.056,2.415-.01,2.468-.2,4.456-1.073,5.3-3.7.158-.49.854-.82,1.325-1.192.382-.3.8-.551,1.2-.824l-.152-.3c-.841,0-1.686-.051-2.521.011-1.852.138-2.177.418-2.506,2.23-.168.921-.57,1.367-1.561,1.3a8.494,8.494,0,0,0-1.982.157C-8784.791,418.352-8785.187,418.968-8785.029,420.455Zm-7.361.255v0c1.565,0,3.13,0,4.7,0,.907,0,1-.7.905-1.306a1.2,1.2,0,0,0-.884-.714c-2.344-.149-4.692-.236-7.041-.29a21.919,21.919,0,0,0-2.219.194c-.794.064-1,.491-1,1.257,0,.853.525.853,1.076.86C-8795.365,420.722-8793.878,420.71-8792.391,420.71Zm-2.453-17.036c-.012.2-.025.406-.038.609a11.745,11.745,0,0,0,2.739.674c3.127.013,6.256-.085,9.379-.253.41-.022.785-.689,1.177-1.058-.452-.432-.88-1.195-1.36-1.23a21.062,21.062,0,0,0-3.59.279c-1.86.189-3.722.375-5.579.586C-8793.028,403.384-8793.935,403.541-8794.844,403.674Zm7.693,10.971,0,.054c-1.369,0-2.739-.026-4.107.013-.549.016-1.25-.071-1.23.852.016.763.243,1.294,1.135,1.261,3.045-.115,6.092-.2,9.134-.369.272-.015.519-.52.777-.8-.265-.216-.511-.591-.795-.622C-8783.871,414.862-8785.512,414.767-8787.15,414.645Zm-14.865-16.036c1.9.526,2.292.442,2.577-.685.457-1.81.867-3.635,1.2-5.47.072-.394-.25-.86-.391-1.293a6.29,6.29,0,0,0-1.657.6c-.281.2-.324.766-.43,1.18q-.437,1.7-.832,3.414C-8801.717,397.11-8801.86,397.867-8802.016,398.61Zm-4.8-22.977c-1.513.2-3.062.357-4.588.635a9.188,9.188,0,0,0-2.315.788c-.79.382-.8.977-.17,1.589a2.011,2.011,0,0,0,2.565.239,9.413,9.413,0,0,1,3.063-.93C-8806.6,377.792-8806.33,377.538-8806.812,375.633Zm9.2,24.305a26.983,26.983,0,0,0-2.771.579,1.186,1.186,0,0,0-.683.879,1.088,1.088,0,0,0,.74.769c1.932.2,3.872.35,5.813.388.31.006.788-.6.892-.995.064-.249-.37-.844-.681-.933C-8795.377,400.314-8796.5,400.156-8797.609,399.938Zm-1.434-9.924c1.313-.177,2.133-.666,2.333-1.916.173-1.077.394-2.148.565-3.226a1.987,1.987,0,0,0-.966-2.4C-8798.735,384.75-8798.781,387.352-8799.043,390.014Zm-17.929-50.335a2.675,2.675,0,0,0,2.2-1.511c1.219-1.807,1.662-4.208,3.967-5.21.152-.066.231-.789.142-.839-.351-.193-1.011-.45-1.146-.3a10.563,10.563,0,0,0-2.254,2.9,5.629,5.629,0,0,1-2.364,3.206A1.156,1.156,0,0,0-8816.972,339.679Zm-.814,21.133c.56-4.14.485-6.054-1.7-6.122C-8820.389,357.826-8819.713,360.376-8817.786,360.812Zm12.161-17.959c.464.885.889.948,1.546.593.922-.5,1.919-.854,2.857-1.325a18.624,18.624,0,0,0,2.323-1.353,1.045,1.045,0,0,0,.221-.91c-.047-.195-.437-.409-.691-.434a2.69,2.69,0,0,0-2.883,1.371,2.681,2.681,0,0,1-1.023.841C-8804.031,342.07-8804.822,342.442-8805.625,342.853Zm25.478-2.83c-.162-1.773-.714-2.133-3.448-2.23-1.578-.055-1.631,0-2,2.23Zm-44.45-2.766c-.025.417-.064.76-.062,1.1a7.578,7.578,0,0,0,.078,1.164,1.935,1.935,0,0,0,2.056,1.825,1.075,1.075,0,0,0,.824-.5C-8821.013,339.261-8822.549,337.293-8824.6,337.257Zm32.353,3.234.283.462-1.165.451.22.354,3.464-.2,0-.387-1.835-.217c.623-.883,1.206-1.854.15-2.519a2.8,2.8,0,0,0-2,.027c-.856.257-1.171,1.015-1.185,2.03Zm-39.777,4.594-.5.269c.149.6.1,1.454.488,1.765,1.017.82,2.139,1.58,3.643.989.824-.324,1.764-.341,2.619-.6a4.395,4.395,0,0,0,1.093-.742c-.391-.249-.772-.683-1.173-.7a3.974,3.974,0,0,0-1.66.437c-.5.215-.922.591-1.4.85-1.42.765-1.635.621-2.087-.906C-8831.152,345.936-8831.672,345.536-8832.022,345.085Zm47.884-8.547.02.079c1.152-.212,2.309-.4,3.451-.656a.906.906,0,0,0,.5-.543c.037-.1-.226-.446-.368-.457-1.595-.122-3.193-.265-4.787-.232-.281.006-.547.792-.818,1.218a6.433,6.433,0,0,0,1.072.572A3.144,3.144,0,0,0-8784.139,336.538Zm50.061,45.984c-.222-1.03-.594-1.772-1.54-2.028a2.144,2.144,0,0,0-2.312.8,3.316,3.316,0,0,0-.481,3.443c.831-.535.161-2.01,1.478-2.067C-8736.034,382.628-8735.137,382.576-8734.078,382.522Zm-28.41-36.8.045-.418a9.218,9.218,0,0,0-5-2.518c-.271-.066-.7.522-.97.739,1.577.805,2.916,1.555,4.316,2.166A4.36,4.36,0,0,0-8762.488,345.717Zm-52.34-2.969c2.131-2.655,2.659-6.278,5.207-8.656a19.784,19.784,0,0,0-2.773,3.064c-.848,1.1-1.6,2.28-2.52,3.315C-8815.8,341.472-8815.874,341.609-8814.828,342.748Zm10.26-3.62a5.716,5.716,0,0,0,4.188-.822,1.034,1.034,0,0,0,.216-.8,1.039,1.039,0,0,0-.438-.732C-8801.6,336.369-8804.187,337.894-8804.568,339.128Zm6.772-.9c2.541-.237,3.852-.294,3.181-2.206C-8797.141,335.633-8798.039,336.23-8797.8,338.232Zm36,4.791.136-.349a12.612,12.612,0,0,0-2-1.328,7.416,7.416,0,0,0-2.238-.438c-.2-.018-.529.3-.629.536a.727.727,0,0,0,.315.631A9.945,9.945,0,0,0-8761.794,343.023Zm-26.163-6.244c-.451-1.514-1.2-1.681-3.7-1.135-.7.153-1.336.3-.992,1.135Zm17.567,3.61c-1.307-1.571-3.052-1.423-4.732-1.382-.264.006-.514.609-.921,1.129Zm-5.873,1.319-.043.335c.534.135,1.066.284,1.6.4,1.168.256,2.334.54,3.514.722a7.511,7.511,0,0,0,1.624-.094l.115-.507c-.535-.264-1.086-.777-1.6-.744a10.518,10.518,0,0,1-4.255-.157A2.69,2.69,0,0,0-8776.263,341.708Zm-27.427,5.161c1.564-.347,3.04-.641,4.492-1.028.25-.066.394-.531.671-.935C-8801.6,344.866-8803.529,345.609-8803.689,346.868Zm29.43-10.185a2.194,2.194,0,0,0-2.431-1.663c-1,.308-.517,1.093-.528,1.8.469,0,.85.016,1.23,0C-8775.45,336.786-8774.914,336.734-8774.26,336.683Zm2.076-.713c.131.724,1.895,2.037,2.924,2.178C-8768.664,336.7-8768.991,336.12-8772.184,335.97Zm-14.532,2.381-.437-.413-2.567.7c.742.738.969,1.834,1.96,1.311C-8787.269,339.684-8787.055,338.9-8786.716,338.351Zm51.536,45.405c-1.6-.123-1.978.546-1.532,2.563C-8735.561,386.3-8735.09,385.545-8735.18,383.756Zm-70.173-44.7c-1.69.129-2.275.62-2.437,1.975C-8806.4,341.588-8805.569,340.941-8805.353,339.056Zm45.472,3.138a2.819,2.819,0,0,0-3.578-2.467Zm-18.981-4.279-.28.454a7.682,7.682,0,0,0,1.648,1.464c.232.115.848-.544,1.288-.85l-.081-.416Zm-54.994,20.041c-.762.3-1.508.375-1.85.787-.3.362-.142,1.1-.2,1.882A2.779,2.779,0,0,0-8833.856,357.956Zm69.511-18.951.111-.539a2.73,2.73,0,0,0-2.405-.976c-.172,0-.416.286-.485.489-.053.151.09.526.2.551C-8766.071,338.723-8765.206,338.855-8764.346,339.005Zm-34.387,3.685-.2-.382-3.913,1.515.176.443C-8801.517,343.336-8799.563,344.466-8798.732,342.69Zm1.732-1.468.646.259a15.612,15.612,0,0,0,.73-1.61,5.023,5.023,0,0,0-.812-.45Q-8796.718,340.322-8797,341.223Zm28.393-.047,1.447-.1c-.085-1.241-.115-1.269-1.253-1.222Z" transform="translate(8848.967 -300)" fill="#0e7473"/></g></svg>