<svg xmlns="http://www.w3.org/2000/svg" xmlns:xlink="http://www.w3.org/1999/xlink" width="1920" height="576" viewBox="0 0 1920 576"><defs><style>.a{fill:#0e7435;opacity:0.627;mix-blend-mode:multiply;}.a,.b{isolation:isolate;}.b{opacity:0.1;clip-path:url(#a);}.c,.e{fill:none;}.c,.e,.g{stroke:#277677;}.c{stroke-linecap:round;stroke-linejoin:round;stroke-width:1.25px;}.d{opacity:0.8;}.e{stroke-miterlimit:10;stroke-width:2.5px;}.f{opacity:0.5;}.g{fill:#fff;}</style><clipPath id="a"><rect class="a" width="1920" height="576"/></clipPath></defs><g class="b"><g transform="translate(1939.474 -1609.763) rotate(90)"><g transform="translate(709.194 19.786)"><line class="c" x1="79.752" y1="270.499" transform="translate(1340.827 0.001)"/><path class="c" d="M475.638,270.5,620.8,416.387,475.638,629.139,332.06,392.072,158.819,337.365,0,349.522,274.313,0,332.06,392.072V0L475.638,270.5,332.06,392.072,620.8,310.011,475.638,270.5,620.8,0" transform="translate(944.941 0)"/><path class="c" d="M477.89,629.139,161.071,337.365,276.565,0,0,135.25,2.251,349.522Z" transform="translate(942.689 0)"/><path class="c" d="M0,0,145.158,194.516,72.578,407.269Z" transform="translate(1420.579 629.14)"/><path class="c" d="M501.487,0,0,145.888l428.908,66.865,72.579,106.376" transform="translate(1064.249 823.656)"/><path class="c" d="M499.811,291.775l-356.33,340.4L260.866,349.522,0,322.168,182.992,0l77.874,349.522,238.945-57.747L644.969,151.966" transform="translate(920.768 337.365)"/><path class="c" d="M185.871,550.116,0,404.229,210.045,240.106,22.614,0,207.793,25.834" transform="translate(734.896 109.416)"/><path class="c" d="M502.161,66.865l-98.771,262.9L307.652,120.053,0,142.848,73.252,0" transform="translate(990.996 969.543)"/><path class="c" d="M1182.295,1405.934l-171.349-177.8,171.349-25.834-72.579-237.067-194.508,53.188-234.4-120.053L537.326,588.357,561.5,278.347,164.123,243.4,374.069,38.241,82.062,0l82.062,243.4L351.455,442.47,0,354.33,82.062,0" transform="translate(383.441 71.175)"/><path class="c" d="M547.565,314.571,383.441,425.505,182.846,135.25,465.5,71.175,219.951,188.94,0,118.534,182.846,135.25,343.93,0,465.5,71.175,538.447,0l9.118,314.571"/><line class="c" x1="136.769" y1="135.25" transform="translate(46.077 0.001)"/></g><path class="c" d="M0,97.258,87.257,0l13.356,197.556Z" transform="translate(1343.478 618.532)"/><path class="c" d="M16.716,422.466l83.581-170.2L0,0,121.573,79.023" transform="translate(806.94 211.263)"/><path class="c" d="M0,183.879,12.157,0l91.18,77.5Z" transform="translate(968.023 404.261)"/><path class="c" d="M0,76.618,54.708,0,75.983,76.618Z" transform="translate(1092.636 717.31)"/><path class="c" d="M0,191.477l152.742,72.944L270.088,0,407.212,132.21" transform="translate(1320.641 843.442)"/><path class="c" d="M109.416,0,0,188.438l147.407-79.022Z" transform="translate(1876.78 1183.845)"/><path class="c" d="M103.952,182.359,0,0,202.307,41.03Z" transform="translate(1343.478 1278.065)"/><g class="d" transform="translate(891.028 47.141)"><path class="e" d="M0,0" transform="translate(778.966 650.639)"/><path class="e" d="M0,0" transform="translate(862.266 351.209)"/><path class="e" d="M0,0" transform="translate(1175.203 594.355)"/><path class="e" d="M0,0" transform="translate(1193.213 727.185)"/><path class="e" d="M0,0" transform="translate(1226.984 709.174)"/><path class="e" d="M0,0" transform="translate(733.938 121.572)"/><path class="e" d="M0,0" transform="translate(704.672 121.572)"/><path class="e" d="M0,0" transform="translate(0 72.043)"/><path class="e" d="M0,0" transform="translate(27.016 45.026)"/><path class="e" d="M0,0" transform="translate(1339.551 0)"/><path class="e" d="M0,0" transform="translate(1305.781 29.267)"/><path class="e" d="M0,0" transform="translate(1197.717 249.899)"/><path class="e" d="M0,0" transform="translate(1242.744 202.621)"/><path class="e" d="M0,0" transform="translate(1181.957 225.134)"/><path class="e" d="M0,0" transform="translate(522.312 511.055)"/><path class="e" d="M0,0" transform="translate(542.575 513.307)"/><path class="e" d="M0,0" transform="translate(180.107 434.509)"/><path class="e" d="M0,0" transform="translate(432.258 988.341)"/><path class="e" d="M0,0" transform="translate(1096.406 1134.678)"/><path class="e" d="M0,0" transform="translate(657.393 1272.011)"/><path class="e" d="M0,0" transform="translate(1339.551 832.998)"/><path class="e" d="M0,0" transform="translate(1319.289 848.757)"/><path class="e" d="M0,0" transform="translate(563.287 224.909)"/><path class="e" d="M0,0" transform="translate(587.602 212.752)"/><path class="e" d="M0,0" transform="translate(845.943 632.178)"/><path class="e" d="M0,0" transform="translate(891.533 568.352)"/><path class="e" d="M0,0" transform="translate(997.909 659.531)"/><path class="e" d="M0,0" transform="translate(186.412 480.212)"/><path class="e" d="M0,0" transform="translate(16.21 413.346)"/><path class="e" d="M0,0" transform="translate(128.665 246.184)"/><path class="e" d="M0,0" transform="translate(177.293 243.146)"/><path class="e" d="M0,0" transform="translate(122.586 185.398)"/><path class="e" d="M0,0" transform="translate(201.608 398.15)"/><path class="e" d="M0,0" transform="translate(809.471 1085.036)"/></g><g class="d" transform="translate(145.897 83.615)"><path class="e" d="M0,0" transform="translate(1490.662 621.372)"/><path class="e" d="M0,0" transform="translate(1573.962 920.801)"/><path class="e" d="M0,0" transform="translate(1886.899 677.656)"/><path class="e" d="M0,0" transform="translate(1904.909 544.826)"/><path class="e" d="M0,0" transform="translate(1938.68 562.837)"/><path class="e" d="M0,0" transform="translate(1445.635 1150.439)"/><path class="e" d="M0,0" transform="translate(1416.367 1150.439)"/><path class="e" d="M0,0" transform="translate(711.696 1199.968)"/><path class="e" d="M0,0" transform="translate(738.712 1226.984)"/><path class="e" d="M0,0" transform="translate(2051.247 1272.011)"/><path class="e" d="M0,0" transform="translate(2017.477 1242.744)"/><path class="e" d="M0,0" transform="translate(1909.413 1022.112)"/><path class="e" d="M0,0" transform="translate(1954.44 1069.39)"/><path class="e" d="M0,0" transform="translate(1893.654 1046.877)"/><path class="e" d="M0,0" transform="translate(1234.008 760.955)"/><path class="e" d="M0,0" transform="translate(1254.271 758.704)"/><path class="e" d="M0,0" transform="translate(891.803 837.501)"/><path class="e" d="M0,0" transform="translate(1143.954 283.67)"/><path class="e" d="M0,0" transform="translate(1786.826 137.332)"/><path class="e" d="M0,0" transform="translate(1369.089 0)"/><path class="e" d="M0,0" transform="translate(2051.247 439.013)"/><path class="e" d="M0,0" transform="translate(2030.985 423.254)"/><path class="e" d="M0,0" transform="translate(1274.983 1047.102)"/><path class="e" d="M0,0" transform="translate(1299.297 1059.259)"/><path class="e" d="M0,0" transform="translate(1557.639 639.833)"/><path class="e" d="M0,0" transform="translate(1603.229 703.659)"/><path class="e" d="M0,0" transform="translate(1709.605 612.479)"/><path class="e" d="M0,0" transform="translate(898.108 791.799)"/><path class="e" d="M0,0" transform="translate(727.906 858.664)"/><path class="e" d="M0,0" transform="translate(840.36 1025.827)"/><path class="e" d="M0,0" transform="translate(888.989 1028.865)"/><path class="e" d="M0,0" transform="translate(834.282 1086.613)"/><path class="e" d="M0,0" transform="translate(913.304 873.861)"/><path class="e" d="M0,0" transform="translate(410.854 644.761)"/><path class="e" d="M0,0" transform="translate(437.471 617.352)"/><path class="e" d="M0,0" transform="translate(45.789 469.977)"/><path class="e" d="M0,0" transform="translate(249.76 83.771)"/><path class="e" d="M0,0" transform="translate(0 464.343)"/><path class="e" d="M0,0" transform="translate(69.349 633.548)"/><path class="e" d="M0,0" transform="translate(234.847 518.658)"/><path class="e" d="M0,0" transform="translate(237.175 469.99)"/><path class="e" d="M0,0" transform="translate(295.717 523.846)"/><path class="e" d="M0,0" transform="translate(81.83 447.947)"/><path class="e" d="M0,0" transform="translate(577.895 261.386)"/><path class="e" d="M0,0" transform="translate(541.879 290.22)"/><path class="e" d="M0,0" transform="translate(744.784 160.093)"/><path class="e" d="M0,0" transform="translate(711.582 124.433)"/><path class="e" d="M0,0" transform="translate(791.013 120.157)"/><path class="e" d="M0,0" transform="translate(587.303 220.206)"/><path class="e" d="M0,0" transform="translate(1521.167 186.975)"/></g><g class="f" transform="translate(846.001 59.297)"><path class="e" d="M0,0" transform="translate(1251.748 762.307)"/><path class="e" d="M0,0" transform="translate(1258.503 730.788)"/><path class="e" d="M0,0" transform="translate(1267.508 746.547)"/><path class="e" d="M0,0" transform="translate(823.992 665.498)"/><path class="e" d="M0,0" transform="translate(846.506 667.75)"/><path class="e" d="M0,0" transform="translate(607.864 532.67)"/><path class="e" d="M0,0" transform="translate(646.137 465.129)"/><path class="e" d="M0,0" transform="translate(657.393 485.391)"/><path class="e" d="M0,0" transform="translate(677.656 474.135)"/><path class="e" d="M0,0" transform="translate(40.524 30.619)"/><path class="e" d="M0,0" transform="translate(0 28.368)"/><path class="e" d="M0,0" transform="translate(616.868 165.699)"/><path class="e" d="M0,0" transform="translate(580.847 217.481)"/><path class="e" d="M0,0" transform="translate(668.65 221.983)"/><path class="e" d="M0,0" transform="translate(648.388 339.053)"/><path class="e" d="M0,0" transform="translate(565.088 352.561)"/><path class="e" d="M0,0" transform="translate(616.868 375.075)"/><path class="e" d="M0,0" transform="translate(355.713 368.321)"/><path class="e" d="M0,0" transform="translate(366.97 341.304)"/><path class="e" d="M0,0" transform="translate(393.986 384.081)"/><path class="e" d="M0,0" transform="translate(155.342 460.627)"/><path class="e" d="M0,0" transform="translate(184.61 435.861)"/><path class="e" d="M0,0" transform="translate(195.867 485.391)"/><path class="e" d="M0,0" transform="translate(945.566 1018.96)"/><path class="e" d="M0,0" transform="translate(959.074 593.455)"/><path class="e" d="M0,0" transform="translate(1242.744 388.583)"/><path class="e" d="M0,0" transform="translate(1260.754 433.61)"/><path class="e" d="M0,0" transform="translate(1310.284 411.096)"/><path class="e" d="M0,0" transform="translate(1269.76 406.594)"/><path class="e" d="M0,0" transform="translate(1402.588 593.455)"/><path class="e" d="M0,0" transform="translate(1371.07 588.953)"/><path class="e" d="M0,0" transform="translate(1118.919 814.087)"/><path class="e" d="M0,0" transform="translate(1150.439 811.836)"/><path class="e" d="M0,0" transform="translate(1085.149 852.36)"/><path class="e" d="M0,0" transform="translate(1274.262 946.917)"/><path class="e" d="M0,0" transform="translate(1294.524 949.168)"/><path class="e" d="M0,0" transform="translate(1301.279 971.682)"/><path class="e" d="M0,0" transform="translate(1314.787 913.147)"/><path class="e" d="M0,0" transform="translate(1344.053 1136.03)"/><path class="e" d="M0,0" transform="translate(1308.032 1214.828)"/><path class="e" d="M0,0" transform="translate(845.38 431.583)"/><path class="e" d="M0,0" transform="translate(878.813 431.583)"/><path class="e" d="M0,0" transform="translate(1100.683 659.533)"/><path class="e" d="M0,0" transform="translate(1146.273 653.454)"/><path class="e" d="M0,0" transform="translate(1076.368 702.083)"/><path class="e" d="M0,0" transform="translate(1273.925 1106.312)"/><path class="e" d="M0,0" transform="translate(973.032 209.713)"/><path class="e" d="M0,0" transform="translate(1033.819 176.281)"/><path class="e" d="M0,0" transform="translate(1027.74 258.343)"/><path class="e" d="M0,0" transform="translate(1015.582 209.713)"/><path class="e" d="M0,0" transform="translate(894.01 72.945)"/><path class="e" d="M0,0" transform="translate(951.756 0)"/><path class="e" d="M0,0" transform="translate(1170.588 161.085)"/><path class="e" d="M0,0" transform="translate(517.134 875.324)"/><path class="e" d="M0,0" transform="translate(587.039 869.246)"/><path class="e" d="M0,0" transform="translate(362.129 1045.526)"/><path class="e" d="M0,0" transform="translate(331.736 1267.397)"/><path class="e" d="M0,0" transform="translate(401.639 1170.138)"/><path class="e" d="M0,0" transform="translate(328.696 1297.789)"/><path class="e" d="M0,0" transform="translate(353.011 1300.829)"/><path class="e" d="M0,0" transform="translate(164.573 1203.571)"/><path class="e" d="M0,0" transform="translate(261.831 1081.997)"/><path class="e" d="M0,0" transform="translate(85.551 1121.508)"/><path class="e" d="M0,0" transform="translate(85.551 765.909)"/><path class="e" d="M0,0" transform="translate(161.534 601.785)"/><path class="e" d="M0,0" transform="translate(948.718 708.161)"/><path class="e" d="M0,0" transform="translate(988.229 686.886)"/><path class="e" d="M0,0" transform="translate(957.835 662.571)"/><path class="e" d="M0,0" transform="translate(784.594 167.163)"/><path class="e" d="M0,0" transform="translate(890.97 130.691)"/><path class="e" d="M0,0" transform="translate(942.639 79.022)"/><path class="e" d="M0,0" transform="translate(480.663 127.652)"/></g><g transform="translate(1236.681 9.149)"><path class="c" d="M21.275,10.637A10.637,10.637,0,1,0,10.637,21.275,10.638,10.638,0,0,0,21.275,10.637Z"/><g transform="translate(5.002 5.002)"><path class="g" d="M11.271,5.635a5.636,5.636,0,1,0-5.636,5.636A5.636,5.636,0,0,0,11.271,5.635Z"/></g></g><g transform="translate(1435.214 524.302)"><g transform="translate(0 0)"><path class="c" d="M17.752,8.876a8.876,8.876,0,1,0-8.877,8.877A8.877,8.877,0,0,0,17.752,8.876Z"/></g><g transform="translate(4.174 4.173)"><path class="g" d="M9.4,4.7a4.7,4.7,0,1,0-4.7,4.7A4.7,4.7,0,0,0,9.4,4.7Z"/></g></g><g transform="translate(1802.316 346.513)"><g transform="translate(0 0)"><path class="c" d="M21.275,10.638A10.637,10.637,0,1,0,10.638,21.275,10.638,10.638,0,0,0,21.275,10.638Z"/></g><g transform="translate(5.003 5.002)"><path class="g" d="M11.27,5.636a5.635,5.635,0,1,0-5.635,5.635A5.636,5.636,0,0,0,11.27,5.636Z"/></g></g><g transform="translate(1246.122 323.719)"><path class="c" d="M21.274,10.637A10.637,10.637,0,1,0,10.637,21.275,10.637,10.637,0,0,0,21.274,10.637Z"/><g transform="translate(5.001 5.002)"><circle class="g" cx="5.635" cy="5.635" r="5.635"/></g></g><g transform="translate(1433.994 805.45)"><g transform="translate(0 0)"><path class="c" d="M21.275,10.638A10.637,10.637,0,1,0,10.637,21.275,10.639,10.639,0,0,0,21.275,10.638Z"/></g><g transform="translate(5.002 5.002)"><path class="g" d="M11.271,5.636a5.636,5.636,0,1,0-5.636,5.635A5.636,5.636,0,0,0,11.271,5.636Z"/></g></g><g transform="translate(2264.293 832.804)"><g transform="translate(0 0)"><path class="c" d="M21.274,10.638A10.637,10.637,0,1,0,10.637,21.276,10.639,10.639,0,0,0,21.274,10.638Z"/></g><g transform="translate(5.002 5.003)"><circle class="g" cx="5.635" cy="5.635" r="5.635"/></g></g><g transform="translate(1619.325 668.68)"><g transform="translate(0 0)"><path class="c" d="M21.274,10.638A10.637,10.637,0,1,0,10.637,21.277,10.638,10.638,0,0,0,21.274,10.638Z"/></g><g transform="translate(5.002 5.004)"><path class="g" d="M11.27,5.635A5.635,5.635,0,1,0,5.635,11.27,5.635,5.635,0,0,0,11.27,5.635Z"/></g></g><g transform="translate(1160.962 77.162)"><path class="c" d="M27.6,13.8A13.8,13.8,0,1,0,13.8,27.6,13.8,13.8,0,0,0,27.6,13.8Z"/><g transform="translate(6.488 6.488)"><path class="g" d="M14.621,7.312A7.311,7.311,0,1,0,7.31,14.622,7.311,7.311,0,0,0,14.621,7.312Z"/></g></g><g transform="translate(878.241 141.237)"><path class="c" d="M27.6,13.8A13.8,13.8,0,1,0,13.8,27.6,13.8,13.8,0,0,0,27.6,13.8Z"/><g transform="translate(6.49 6.488)"><path class="g" d="M14.621,7.311A7.311,7.311,0,1,0,7.31,14.622,7.311,7.311,0,0,0,14.621,7.311Z"/></g></g><g transform="translate(1759.644 975.529)"><path class="c" d="M27.6,13.8A13.8,13.8,0,1,0,13.8,27.6,13.8,13.8,0,0,0,27.6,13.8Z"/><g transform="translate(6.488 6.49)"><path class="g" d="M14.621,7.31A7.31,7.31,0,1,0,7.31,14.621,7.31,7.31,0,0,0,14.621,7.31Z"/></g></g><g transform="translate(2115.973 276.486)"><g transform="translate(0)"><path class="c" d="M27.6,13.8A13.8,13.8,0,1,0,13.8,27.6,13.8,13.8,0,0,0,27.6,13.8Z"/></g><g transform="translate(6.49 6.489)"><path class="g" d="M14.621,7.311a7.311,7.311,0,1,0-7.312,7.31A7.312,7.312,0,0,0,14.621,7.311Z"/></g></g><g transform="translate(2109.988 629.139)"><path class="c" d="M39.57,19.786A19.785,19.785,0,1,0,19.784,39.573,19.786,19.786,0,0,0,39.57,19.786Z"/><g transform="translate(9.303 9.304)"><path class="g" d="M20.964,10.483A10.482,10.482,0,1,0,10.481,20.965,10.483,10.483,0,0,0,20.964,10.483Z"/></g></g><g transform="translate(1634.349 348.002)"><path class="c" d="M39.572,19.786A19.786,19.786,0,1,0,19.786,39.573,19.787,19.787,0,0,0,39.572,19.786Z"/><g transform="translate(9.305 9.305)"><path class="g" d="M20.964,10.481A10.482,10.482,0,1,0,10.481,20.964,10.482,10.482,0,0,0,20.964,10.481Z"/></g></g><g transform="translate(2182.565 1036.408)"><g transform="translate(0)"><path class="c" d="M39.571,19.786A19.786,19.786,0,1,0,19.786,39.573,19.786,19.786,0,0,0,39.571,19.786Z"/></g><g transform="translate(9.305 9.305)"><path class="g" d="M20.964,10.481A10.482,10.482,0,1,0,10.481,20.963,10.482,10.482,0,0,0,20.964,10.481Z"/></g></g><g transform="translate(1910.912)"><path class="c" d="M39.571,19.786A19.786,19.786,0,1,0,19.785,39.573,19.787,19.787,0,0,0,39.571,19.786Z"/><g transform="translate(9.304 9.304)"><path class="g" d="M20.965,10.482A10.482,10.482,0,1,0,10.482,20.964,10.483,10.483,0,0,0,20.965,10.482Z"/></g></g><path class="c" d="M261.381,118.532,0,277.81,307.458,0" transform="translate(447.813 19.787)"/><path class="c" d="M156.018,277.81,0,118.532,463.477,0,417.4,118.532" transform="translate(291.795 19.787)"/><path class="c" d="M0,0,154.012,205.21l137.782-86.677L0,0" transform="translate(0 19.787)"/><line class="c" x1="285.696" y2="118.531" transform="translate(291.795 19.789)"/><path class="c" d="M0,118.378,79.022,0l28.367,63.826Z" transform="translate(222.903 308.6)"/><path class="c" d="M62.812,168.851,0,11.707,151.966,0Z" transform="translate(460.984 397.226)"/><path class="c" d="M0,95.01l34.446-63.2L0,0Z" transform="translate(70.937 272.275)"/></g></g></svg>