<svg xmlns="http://www.w3.org/2000/svg" width="135.192" height="182.608" viewBox="0 0 135.192 182.608"><defs><style>.a{fill:#007473;}.b{fill:#fff;}</style></defs><g transform="translate(0 0)"><g transform="translate(0)"><path class="a" d="M4576.639-1222.048c-17.458-30.5-58.211-41.561-90.262-24.824a65.015,65.015,0,0,0-35.425,57.806c0,45.49,41.052,94.392,61.936,114.888a7.369,7.369,0,0,0,10.245.079c21.025-20.047,63.011-66.445,63.011-115.574C4586.143-1200.639,4582.648-1211.547,4576.639-1222.048Z" transform="translate(-4450.951 1254.674)"/></g><path class="b" d="M4553.516-1211.393h-12.922a10.348,10.348,0,0,0-10.338-10.338,10.347,10.347,0,0,0-10.336,10.338H4507a7.756,7.756,0,0,0-7.753,7.753v56.858a7.756,7.756,0,0,0,7.753,7.753h46.52a7.755,7.755,0,0,0,7.753-7.753v-56.858A7.755,7.755,0,0,0,4553.516-1211.393Zm-23.26-3.876a3.868,3.868,0,0,1,3.877,3.876,3.868,3.868,0,0,1-3.877,3.877,3.867,3.867,0,0,1-3.875-3.877A3.867,3.867,0,0,1,4530.256-1215.269Zm20.677,59.442a1.3,1.3,0,0,1-1.292,1.292h-23.26a1.3,1.3,0,0,1-1.293-1.292v-2.585a1.3,1.3,0,0,1,1.293-1.292h23.26a1.3,1.3,0,0,1,1.292,1.292Zm0-15.507a1.3,1.3,0,0,1-1.292,1.293h-23.26a1.3,1.3,0,0,1-1.293-1.293v-2.584a1.3,1.3,0,0,1,1.293-1.293h23.26a1.3,1.3,0,0,1,1.292,1.293Zm0-15.506a1.3,1.3,0,0,1-1.292,1.292h-23.26a1.3,1.3,0,0,1-1.293-1.292v-2.585a1.3,1.3,0,0,1,1.293-1.292h23.26a1.3,1.3,0,0,1,1.292,1.292Zm-29.116-5.616-6.8,6.743a.571.571,0,0,1-.808-.005l-3.928-3.96a.573.573,0,0,1,.005-.809l1.351-1.34a.571.571,0,0,1,.808.005l2.188,2.206,5.041-5a.57.57,0,0,1,.808,0l1.341,1.351A.572.572,0,0,1,4521.817-1192.456Zm0,15.507-6.8,6.743a.571.571,0,0,1-.808-.005l-3.928-3.961a.572.572,0,0,1,.005-.808l1.351-1.341a.571.571,0,0,1,.808.005l2.188,2.206,5.041-5a.57.57,0,0,1,.808,0l1.341,1.351A.572.572,0,0,1,4521.817-1176.949Zm0,15.506-6.8,6.742a.571.571,0,0,1-.808,0l-3.928-3.961a.572.572,0,0,1,.005-.808l1.351-1.341a.57.57,0,0,1,.808.005l2.188,2.206,5.041-5a.57.57,0,0,1,.808,0l1.341,1.351A.572.572,0,0,1,4521.817-1161.443Z" transform="translate(-4462.661 1246.687)"/></g></svg>