<svg xmlns="http://www.w3.org/2000/svg" width="135.192" height="182.608" viewBox="0 0 135.192 182.608"><defs><style>.a{fill:#007473;}.b{fill:#fff;}</style></defs><g transform="translate(0 0)"><g transform="translate(0 0)"><path class="a" d="M4832.485-1639.187c-17.457-30.5-58.209-41.56-90.261-24.823A65.013,65.013,0,0,0,4706.8-1606.2c0,45.49,41.052,94.392,61.936,114.888a7.37,7.37,0,0,0,10.246.079c21.023-20.047,63.011-66.445,63.011-115.574C4841.991-1617.778,4838.5-1628.686,4832.485-1639.187Z" transform="translate(-4706.799 1671.813)"/></g><g transform="translate(33.168 25.791)"><path class="b" d="M4783.124-1601.456l-16.8-4.916a4.6,4.6,0,0,1-3.3-4.4,4.588,4.588,0,0,1,4.59-4.589h10.314a9.5,9.5,0,0,1,5.321,1.633,2.425,2.425,0,0,0,3.033-.311l5.415-5.29a2.523,2.523,0,0,0-.281-3.812,22,22,0,0,0-13.456-4.667v-7.468a2.5,2.5,0,0,0-2.49-2.488h-4.978a2.494,2.494,0,0,0-2.488,2.488v7.468h-.391a17.046,17.046,0,0,0-16.957,18.607c.653,7.171,6.13,13.006,13.036,15.028l15.947,4.668a4.615,4.615,0,0,1,3.3,4.4,4.588,4.588,0,0,1-4.589,4.589h-10.314a9.5,9.5,0,0,1-5.321-1.633,2.426,2.426,0,0,0-3.034.311l-5.414,5.29a2.522,2.522,0,0,0,.28,3.811,22,22,0,0,0,13.459,4.668v7.467a2.5,2.5,0,0,0,2.488,2.489h4.978a2.5,2.5,0,0,0,2.49-2.489v-7.5c7.25-.14,14.047-4.45,16.443-11.311a17.083,17.083,0,0,0-11.278-22.045Z" transform="translate(-4750.583 1637.767)"/><path class="b" d="M4842.672-1586.841l1.416,1.416a1.523,1.523,0,0,1,0,2.161l-12.389,12.4a1.525,1.525,0,0,1-2.163,0l-12.4-12.4a1.523,1.523,0,0,1,0-2.161l1.415-1.416a1.533,1.533,0,0,1,2.188.026l7.32,7.684v-33.213a1.526,1.526,0,0,1,1.531-1.53h2.041a1.526,1.526,0,0,1,1.53,1.53v33.213l7.321-7.684a1.52,1.52,0,0,1,2.187-.026Z" transform="translate(-4766.612 1631.974)"/></g></g></svg>