<svg xmlns="http://www.w3.org/2000/svg" width="135.193" height="182.608" viewBox="0 0 135.193 182.608"><defs><style>.a{fill:#007473;}.b{fill:none;}.c{fill:#fff;}</style></defs><g transform="translate(0 0)"><g transform="translate(0 0)"><path class="a" d="M4559.833-1639.187c-17.457-30.5-58.21-41.56-90.262-24.823a65.014,65.014,0,0,0-35.426,57.806c0,45.49,41.052,94.392,61.936,114.888a7.369,7.369,0,0,0,10.245.079c21.025-20.047,63.012-66.445,63.012-115.574C4569.338-1617.778,4565.844-1628.686,4559.833-1639.187Z" transform="translate(-4434.146 1671.813)"/></g><g transform="translate(26.568 22.062)"><path class="b" d="M4550.659-1590.582c-1.131-2.553-2.366-6.191-3.672-10.042-1.967-5.8-4.2-12.374-6.112-15.1a26.63,26.63,0,0,0-13.225-9.862,14.992,14.992,0,0,1-4.081,12.08l-20.311,20.971a3.291,3.291,0,0,1-4.755,0L4489-1602.35a24.474,24.474,0,0,0,8.131,17.911,1.822,1.822,0,0,1,.605,1.357v22.37h26.949v-4.819a1.824,1.824,0,0,1,1.825-1.824h8.743a6.926,6.926,0,0,0,6.917-6.918v-10.841a1.825,1.825,0,0,1,1.824-1.825h4.373a2.541,2.541,0,0,0,1.955-.917,2.546,2.546,0,0,0,.544-2.124A2.705,2.705,0,0,0,4550.659-1590.582Z" transform="translate(-4474.014 1638.542)"/><path class="c" d="M4504.093-1615.635c1.387,0,2.142-.55,2.142-1.8a1.654,1.654,0,0,0-1.2-1.531h-1.8a1.643,1.643,0,0,0-1.225,1.531C4502.011-1616.185,4502.7-1615.635,4504.093-1615.635Z" transform="translate(-4477.169 1636.936)"/><path class="c" d="M4515.824-1624.828c.367,0,.448-.408.448-1.347s-.082-1.326-.448-1.326-.45.387-.45,1.326S4515.456-1624.828,4515.824-1624.828Z" transform="translate(-4480.409 1639.007)"/><path class="c" d="M4503.308-1623.133h1.8a1.9,1.9,0,0,0,1-1.592c0-1.021-.653-1.591-1.9-1.591-1.225,0-1.9.571-1.9,1.591A1.9,1.9,0,0,0,4503.308-1623.133Z" transform="translate(-4477.241 1638.719)"/><path class="c" d="M4523.241-1615.588c0,.939.082,1.348.449,1.348s.45-.408.45-1.348-.082-1.326-.45-1.326S4523.241-1616.526,4523.241-1615.588Z" transform="translate(-4482.317 1636.44)"/><path class="c" d="M4549.655-1594.784a6.389,6.389,0,0,0-.456-1.423c-1.065-2.4-2.274-5.967-3.554-9.738-2.147-6.328-4.366-12.871-6.585-16.026a30.288,30.288,0,0,0-17.257-11.881,14.716,14.716,0,0,0-4.06-5.623c-5.751-4.9-14.306-4.02-19.585,1.427l-2.068,2.131-2.067-2.131c-5.269-5.448-13.835-6.329-19.586-1.427a15.072,15.072,0,0,0-1.04,21.822l7.359,7.6a27.369,27.369,0,0,0-.21,3.38,28.124,28.124,0,0,0,8.743,20.241v23.4a1.823,1.823,0,0,0,1.825,1.824h30.6a1.823,1.823,0,0,0,1.824-1.824v-4.819h6.919a10.577,10.577,0,0,0,10.566-10.566v-9.017h2.55a6.184,6.184,0,0,0,4.755-2.23A6.223,6.223,0,0,0,4549.655-1594.784Zm-36.615-27.054c0,1.979-.877,2.98-2.449,2.98s-2.449-1-2.449-2.98.876-2.959,2.449-2.959S4513.04-1623.817,4513.04-1621.837Zm-3.522-11.433.954.339a.284.284,0,0,1,.175.358l-4.619,13.855a.284.284,0,0,1-.358.18l-.95-.312a.283.283,0,0,1-.18-.36l4.614-13.883A.283.283,0,0,1,4509.518-1633.27Zm-4.886.453c1.571,0,2.45.98,2.45,2.96s-.879,2.979-2.45,2.979-2.449-1-2.449-2.979S4503.06-1632.817,4504.632-1632.817Zm-15.51,24.724v-2.583a.556.556,0,0,1,.556-.555h4.646v-4.615a.556.556,0,0,1,.556-.555h2.583a.555.555,0,0,1,.556.555v4.615h4.708a.556.556,0,0,1,.555.555v2.583a.555.555,0,0,1-.555.555h-4.708v4.678a.555.555,0,0,1-.556.555h-2.583a.556.556,0,0,1-.556-.555v-4.678h-4.646A.556.556,0,0,1,4489.122-1608.094Zm2.141-21.049c0-2.327,1.939-3.674,4.878-3.674,2.9,0,4.959,1.327,4.959,3.694a3.149,3.149,0,0,1-1.468,3.082,3.668,3.668,0,0,1,1.673,3.286c0,2.837-2.328,3.9-5.164,3.9s-5.1-.837-5.1-3.674a3.882,3.882,0,0,1,1.695-3.511A3.348,3.348,0,0,1,4491.263-1629.143Zm-11.654,6.612a3.885,3.885,0,0,1,1.695-3.511,3.348,3.348,0,0,1-1.471-3.1c0-2.327,1.939-3.674,4.879-3.674,2.9,0,4.958,1.327,4.958,3.694a3.148,3.148,0,0,1-1.469,3.082,3.665,3.665,0,0,1,1.674,3.286c0,2.837-2.327,3.9-5.163,3.9S4479.609-1619.694,4479.609-1622.531ZM4545.522-1592a2.543,2.543,0,0,1-1.956.917h-4.372a1.825,1.825,0,0,0-1.824,1.825v10.841a6.926,6.926,0,0,1-6.917,6.918h-8.743a1.825,1.825,0,0,0-1.824,1.824v4.819h-26.949v-22.37a1.826,1.826,0,0,0-.6-1.358,24.467,24.467,0,0,1-8.133-17.911l9.508,9.817a3.291,3.291,0,0,0,4.755,0l20.31-20.971a14.99,14.99,0,0,0,4.082-12.079,26.619,26.619,0,0,1,13.224,9.862c1.915,2.724,4.146,9.3,6.113,15.1,1.307,3.851,2.542,7.49,3.673,10.042a2.773,2.773,0,0,1,.2.6A2.547,2.547,0,0,1,4545.522-1592Z" transform="translate(-4469.217 1642.69)"/><path class="c" d="M4488.221-1623.133h1.8a1.9,1.9,0,0,0,1-1.592c0-1.021-.653-1.591-1.9-1.591-1.225,0-1.9.571-1.9,1.591A1.9,1.9,0,0,0,4488.221-1623.133Z" transform="translate(-4473.583 1638.719)"/><path class="c" d="M4491.147-1617.431a1.656,1.656,0,0,0-1.2-1.531h-1.8a1.643,1.643,0,0,0-1.225,1.531c0,1.245.693,1.8,2.083,1.8S4491.147-1616.185,4491.147-1617.431Z" transform="translate(-4473.51 1636.936)"/></g></g></svg>