<svg id="Grupo_5895" data-name="Grupo 5895" xmlns="http://www.w3.org/2000/svg" width="129.417" height="39.357" viewBox="0 0 129.417 39.357">
  <g id="Grupo_5894" data-name="Grupo 5894">
    <rect id="Rectángulo_261" data-name="Rectángulo 261" width="129.417" height="39.357" rx="1.742"/>
    <g id="Grupo_5889" data-name="Grupo 5889" transform="translate(37.063 3.87)">
      <text id="Available_on_the" data-name="Available on the" transform="translate(28 11.285)" fill="#fff" font-size="7" font-family="Montserrat-Light, Montserrat" font-weight="300"><tspan x="-27.608" y="0">Available on the</tspan></text>
      <text id="Google_Play" data-name="Google Play" transform="translate(37 25.285)" fill="#fff" font-size="12" font-family="Montserrat-SemiBold, Montserrat" font-weight="600"><tspan x="-36.798" y="0">Google Play</tspan></text>
    </g>
    <g id="Grupo_5893" data-name="Grupo 5893" transform="translate(7.249 6.621)">
      <g id="Grupo_5892" data-name="Grupo 5892">
        <g id="Grupo_5891" data-name="Grupo 5891">
          <g id="Grupo_5890" data-name="Grupo 5890">
            <path id="Trazado_7842" data-name="Trazado 7842" d="M191.274,427.554l-4.931-2.846-4.055,3.92,3.705,3.582,5.282-3.047a.931.931,0,0,0,0-1.608Z" transform="translate(-167.382 -414.999)" fill="#fff"/>
            <path id="Trazado_7843" data-name="Trazado 7843" d="M194.7,430.553l-5.426-3.132-11.891-6.094,13.431,12.983Z" transform="translate(-176.572 -421.328)" fill="#fff"/>
            <path id="Trazado_7844" data-name="Trazado 7844" d="M177.447,439.09l11.714-6.453,5.057-2.919-3.537-3.42Z" transform="translate(-176.443 -412.022)" fill="#fff"/>
            <path id="Trazado_7845" data-name="Trazado 7845" d="M177.11,421.51l-.013,26.22,13.569-13.117Z" transform="translate(-177.097 -420.985)" fill="#fff"/>
          </g>
        </g>
      </g>
    </g>
  </g>
</svg>
