<svg id="Grupo_5885" data-name="Grupo 5885" xmlns="http://www.w3.org/2000/svg" width="135.681" height="144.991" viewBox="0 0 135.681 144.991">
  <path id="Trazado_7837" data-name="Trazado 7837" d="M1293.64,411.259a25.436,25.436,0,0,0,17.992,43.426h.005a25.464,25.464,0,0,0,23.747-16.354l23.746-.005a25.475,25.475,0,0,0,23.741,16.359h.008a25.447,25.447,0,1,0-11.606-48.083,33.428,33.428,0,0,0-5.364-6.364,3.443,3.443,0,0,0-4.428-.195c-.141.113-14.154,10.543-27.518,1l-7.054-10.908a25.428,25.428,0,0,0,19.7,9.344h.008a25.557,25.557,0,1,0-22.726-14.021l-8.492-13.134a8.669,8.669,0,0,0-14.559,9.416l14.449,22.344a25,25,0,0,0-21.643,7.174Zm39.833-50.369a18.564,18.564,0,1,1-5.444,13.133A18.456,18.456,0,0,1,1333.474,360.89Zm36.252,55.21a18.585,18.585,0,1,1,13.154,31.734h-.008a18.585,18.585,0,0,1-13.146-31.734Zm-64.188-37.4a3.068,3.068,0,0,1,.908-4.246,3.148,3.148,0,0,1,4.246.913l16.6,25.672h0l4.27,6.6.272.267a29.571,29.571,0,0,0,3.6,1.871,27.758,27.758,0,0,0,3.115,1.123c10.608,3.1,20.3-1.292,24.532-3.718a27.331,27.331,0,0,1,2.538,3.4c-.243.226-.5.436-.735.672a25.277,25.277,0,0,0-7.459,17.99c0,.738.051,1.462.112,2.185h-20.562c.062-.728.108-1.462.108-2.206a25.5,25.5,0,0,0-13.329-22.359l-.364-.559Zm24.692,50.534a18.624,18.624,0,0,1-18.592,18.6h-.005a18.6,18.6,0,1,1,18.6-18.6Z" transform="translate(-1279.414 -348.546)" fill="#0e7473"/>
  <path id="Trazado_7838" data-name="Trazado 7838" d="M1276.376,555.483a3.436,3.436,0,0,0,2.439,1.02l57.585-.01a3.426,3.426,0,0,0,3.423-3.313c.031-.907.577-22.365-12.923-34.734a3.443,3.443,0,0,0-4.393-.194c-.61.461-15.11,11.21-28.836.036a3.423,3.423,0,0,0-4.408.066c-.554.482-13.548,12.036-13.872,34.677A3.413,3.413,0,0,0,1276.376,555.483Zm15.523-30.006c12.1,8.005,25.072,4.216,32.236-.072,6.757,7.682,8.362,18.764,8.736,24.236l-50.467.01C1283.443,536.959,1288.943,528.933,1291.9,525.477Z" transform="translate(-1275.391 -411.511)" fill="#0e7473"/>
  <path id="Trazado_7839" data-name="Trazado 7839" d="M1436.061,518.251c-.611.461-15.108,11.21-28.837.036a3.426,3.426,0,0,0-4.41.066c-.551.482-13.549,12.036-13.872,34.677a3.427,3.427,0,0,0,3.428,3.472l57.586-.01a3.423,3.423,0,0,0,3.42-3.313c.031-.907.577-22.365-12.923-34.734A3.442,3.442,0,0,0,1436.061,518.251Zm10.362,31.39-50.465.01c1.039-12.692,6.542-20.719,9.5-24.175,12.1,8.005,25.068,4.216,32.237-.072C1444.445,533.087,1446.05,544.169,1446.422,549.641Z" transform="translate(-1317.705 -411.511)" fill="#0e7473"/>
</svg>
