<svg xmlns="http://www.w3.org/2000/svg" width="111.821" height="139.653" viewBox="0 0 111.821 139.653">
  <g id="Grupo_5870" data-name="Grupo 5870" transform="translate(3.5 4)">
    <g id="Grupo_5869" data-name="Grupo 5869" transform="translate(9.557)">
      <path id="Trazado_7798" data-name="Trazado 7798" d="M13660.979,1846.342s-18.459.15-23.787-17.594,5.729-29.81,14.678-32.208c3.627-19.308,18.012-26.2,30.906-26.127s26.545,7.208,30.285,26.127c16.7,4.475,19.832,20.675,15.861,32.208s-16.529,16.536-23.469,17.594" transform="translate(-13635.8 -1770.413)" fill="none" stroke="#fff" stroke-linecap="round" stroke-width="8"/>
      <path id="Trazado_7799" data-name="Trazado 7799" d="M13717.763,1922.055s8.741-47.881,14.647-47.881,19.024,62.606,19.024,62.606a33.4,33.4,0,0,0-4.5,4.423c-1.134,1.642.28,3.332-7.432,0s-18.916-12.117-18.916-12.117a3.1,3.1,0,0,1-2.822-1.761C13716.672,1925.4,13717.763,1922.055,13717.763,1922.055Z" transform="translate(-13685.521 -1832.991)" fill="#fff"/>
      <path id="Trazado_7800" data-name="Trazado 7800" d="M8.82,0S2.248,9.363,0,29.072c5.384,13.282,7.534,6.987,7.534,6.987S4.825,24.842,5.687,15.814A78.789,78.789,0,0,1,8.82,0Z" transform="matrix(0.999, 0.035, -0.035, 0.999, 46.815, 30.758)" fill="#fff" stroke="#fff" stroke-linecap="round" stroke-linejoin="round" stroke-width="8"/>
      <path id="Trazado_7801" data-name="Trazado 7801" d="M9.421,37.132S2.248,28.205,0,8.5C5.383-4.787,8.948,1.475,8.948,1.475S5,12,5.1,20.466,9.421,37.132,9.421,37.132Z" transform="matrix(-0.996, 0.087, -0.087, -0.996, 49.998, 68.806)" fill="#fff" stroke="#fff" stroke-linecap="round" stroke-linejoin="round" stroke-width="8"/>
      <path id="Trazado_7802" data-name="Trazado 7802" d="M8.82,0S2.248,9.363,0,29.073c5.383,13.283,6.561,7.335,6.561,7.335S4.44,25.465,5.3,16.438A75.752,75.752,0,0,1,8.82,0Z" transform="translate(72.479 47.262) rotate(57)" fill="#fff" stroke="#fff" stroke-linecap="round" stroke-linejoin="round" stroke-width="8"/>
      <path id="Trazado_7803" data-name="Trazado 7803" d="M8.82,0S2.248,9.363,0,29.073c5.383,13.283,6.561,7.335,6.561,7.335S4.44,25.465,5.3,16.438A75.752,75.752,0,0,1,8.82,0Z" transform="matrix(0.559, -0.829, 0.829, 0.559, 19.12, 53.549)" fill="#fff" stroke="#fff" stroke-linecap="round" stroke-linejoin="round" stroke-width="8"/>
      <path id="Trazado_7804" data-name="Trazado 7804" d="M13790.873,1883.433c-2.646,6.312-8.73,16.869-8.73,16.869,3.9-1.406,3.85-1.341,3.85-1.341s.225,1.927,1.993-5.046S13790.873,1883.433,13790.873,1883.433Z" transform="translate(-13724.06 -1839.066)" fill="#fff" stroke="#fff" stroke-linecap="round" stroke-linejoin="round" stroke-width="8"/>
      <path id="Trazado_7805" data-name="Trazado 7805" d="M8.731,0C6.084,6.312,0,16.869,0,16.869c3.9-1.406,3.849-1.341,3.849-1.341s.226,1.926,1.994-5.046S8.731,0,8.731,0Z" transform="matrix(-0.588, -0.809, 0.809, -0.588, 22.073, 68.933)" fill="#fff" stroke="#fff" stroke-linecap="round" stroke-linejoin="round" stroke-width="8"/>
    </g>
    <path id="Trazado_7811" data-name="Trazado 7811" d="M13527.049,1372.558h7.07v-28.1s7.7-8.471,18.838-8.471,31.178,11.574,31.178,11.574c5.705,3.586,3.26,13.05-4.1,11.839" transform="translate(-13527.049 -1246.495)" fill="none" stroke="#fff" stroke-linecap="round" stroke-linejoin="round" stroke-width="7"/>
    <path id="Trazado_7812" data-name="Trazado 7812" d="M13571.106,1357.629l17.183,7.178a7.365,7.365,0,0,0,3.335.644,9.456,9.456,0,0,0,3.2-1.521l28.424-12.5s5.975-1.27,8.146,2.4a6.6,6.6,0,0,1-1.82,8.872l-.04.025c-2.244,1.407-38.865,16.56-44.517,19.1s-9.78,3.3-16.141,0-14.9-7.66-14.9-7.66" transform="translate(-13535.37 -1251.874)" fill="none" stroke="#fff" stroke-linecap="round" stroke-linejoin="round" stroke-width="7"/>
  </g>
</svg>
