<svg id="Grupo_5884" data-name="Grupo 5884" xmlns="http://www.w3.org/2000/svg" width="195.65" height="136.414" viewBox="0 0 195.65 136.414">
  <g id="Grupo_5882" data-name="Grupo 5882" transform="translate(0 0)">
    <path id="Trazado_7824" data-name="Trazado 7824" d="M1419.819,649.589h-59.213v-51.9a3.4,3.4,0,0,0-3.4-3.4h-63.6a3.4,3.4,0,0,0-3.395,3.4v22.532h-59.256a3.4,3.4,0,0,0-3.4,3.4V727.308a3.394,3.394,0,0,0,3.4,3.4h188.857a3.4,3.4,0,0,0,3.4-3.4V652.984A3.4,3.4,0,0,0,1419.819,649.589Zm-36.986,46.11h11.321V725.27h-11.321Zm33.589,28.212h-18.193V693.661a2.037,2.037,0,0,0-2.036-2.038h-15.4a2.039,2.039,0,0,0-2.038,2.038v30.251h-18.193V656.382h55.858Zm-182.063-96.9h55.859v96.9h-18.193V693.661a2.039,2.039,0,0,0-2.038-2.038h-15.4a2.04,2.04,0,0,0-2.038,2.038v30.251h-18.191Zm22.268,68.687h11.32V725.27h-11.32Zm97.145-42.715v70.927h-19.523V693.661a2.039,2.039,0,0,0-2.038-2.038h-15.4a2.04,2.04,0,0,0-2.039,2.038v30.251h-17.762V601.083h56.8v51.495A3.369,3.369,0,0,0,1353.771,652.984Zm-34.924,72.286V695.7h11.323V725.27Z" transform="translate(-1227.566 -594.29)" fill="#fff"/>
    <path id="Trazado_7825" data-name="Trazado 7825" d="M1367.372,625.661h-15.213a2.037,2.037,0,0,0-2.036,2.038v15.213a2.038,2.038,0,0,0,2.036,2.039h15.213a2.04,2.04,0,0,0,2.038-2.039V627.7A2.039,2.039,0,0,0,1367.372,625.661Zm-2.038,15.212H1354.2V629.738h11.136Z" transform="translate(-1273.236 -605.98)" fill="#fff"/>
    <path id="Trazado_7826" data-name="Trazado 7826" d="M1404.187,625.661h-15.212a2.039,2.039,0,0,0-2.039,2.038v15.213a2.04,2.04,0,0,0,2.039,2.039h15.212a2.038,2.038,0,0,0,2.036-2.039V627.7A2.037,2.037,0,0,0,1404.187,625.661Zm-2.038,15.212h-11.138V629.738h11.138Z" transform="translate(-1286.954 -605.98)" fill="#fff"/>
    <path id="Trazado_7827" data-name="Trazado 7827" d="M1367.372,665.367h-15.213a2.035,2.035,0,0,0-2.036,2.036v15.213a2.038,2.038,0,0,0,2.036,2.039h15.213a2.04,2.04,0,0,0,2.038-2.039V667.4A2.037,2.037,0,0,0,1367.372,665.367Zm-2.038,15.211H1354.2V669.442h11.136Z" transform="translate(-1273.236 -620.776)" fill="#fff"/>
    <path id="Trazado_7828" data-name="Trazado 7828" d="M1404.187,665.367h-15.212a2.037,2.037,0,0,0-2.039,2.036v15.213a2.04,2.04,0,0,0,2.039,2.039h15.212a2.038,2.038,0,0,0,2.036-2.039V667.4A2.035,2.035,0,0,0,1404.187,665.367Zm-2.038,15.211h-11.138V669.442h11.138Z" transform="translate(-1286.954 -620.776)" fill="#fff"/>
    <path id="Trazado_7829" data-name="Trazado 7829" d="M1367.372,705.067h-15.213a2.037,2.037,0,0,0-2.036,2.038v15.212a2.037,2.037,0,0,0,2.036,2.039h15.213a2.04,2.04,0,0,0,2.038-2.039V707.105A2.039,2.039,0,0,0,1367.372,705.067Zm-2.038,15.213H1354.2V709.144h11.136Z" transform="translate(-1273.236 -635.57)" fill="#fff"/>
    <path id="Trazado_7830" data-name="Trazado 7830" d="M1404.187,705.067h-15.212a2.039,2.039,0,0,0-2.039,2.038v15.212a2.04,2.04,0,0,0,2.039,2.039h15.212a2.038,2.038,0,0,0,2.036-2.039V707.105A2.037,2.037,0,0,0,1404.187,705.067Zm-2.038,15.213h-11.138V709.144h11.138Z" transform="translate(-1286.954 -635.57)" fill="#fff"/>
    <path id="Trazado_7831" data-name="Trazado 7831" d="M1251.171,684.655h15.211a2.038,2.038,0,0,0,2.036-2.039V667.4a2.035,2.035,0,0,0-2.036-2.036h-15.211a2.036,2.036,0,0,0-2.038,2.036v15.213A2.039,2.039,0,0,0,1251.171,684.655Zm2.036-15.213h11.136v11.136h-11.136Z" transform="translate(-1235.603 -620.776)" fill="#fff"/>
    <path id="Trazado_7832" data-name="Trazado 7832" d="M1287.985,684.655h15.21a2.04,2.04,0,0,0,2.039-2.039V667.4a2.038,2.038,0,0,0-2.039-2.036h-15.21a2.037,2.037,0,0,0-2.038,2.036v15.213A2.04,2.04,0,0,0,1287.985,684.655Zm2.038-15.213h11.134v11.136h-11.134Z" transform="translate(-1249.321 -620.776)" fill="#fff"/>
    <path id="Trazado_7833" data-name="Trazado 7833" d="M1266.382,724.356a2.037,2.037,0,0,0,2.036-2.039V707.105a2.037,2.037,0,0,0-2.036-2.038h-15.211a2.038,2.038,0,0,0-2.038,2.038v15.212a2.038,2.038,0,0,0,2.038,2.039Zm-13.175-15.213h11.136V720.28h-11.136Z" transform="translate(-1235.603 -635.57)" fill="#fff"/>
    <path id="Trazado_7834" data-name="Trazado 7834" d="M1287.985,724.356h15.21a2.04,2.04,0,0,0,2.039-2.039V707.105a2.039,2.039,0,0,0-2.039-2.038h-15.21a2.039,2.039,0,0,0-2.038,2.038v15.212A2.04,2.04,0,0,0,1287.985,724.356Zm2.038-15.213h11.134V720.28h-11.134Z" transform="translate(-1249.321 -635.57)" fill="#fff"/>
    <path id="Trazado_7835" data-name="Trazado 7835" d="M1452.337,724.356h15.212a2.039,2.039,0,0,0,2.038-2.039V707.105a2.039,2.039,0,0,0-2.038-2.038h-15.212a2.039,2.039,0,0,0-2.039,2.038v15.212A2.04,2.04,0,0,0,1452.337,724.356Zm2.038-15.213h11.138V720.28h-11.138Z" transform="translate(-1310.565 -635.57)" fill="#fff"/>
    <path id="Trazado_7836" data-name="Trazado 7836" d="M1489.154,724.356h15.212a2.041,2.041,0,0,0,2.039-2.039V707.105a2.041,2.041,0,0,0-2.039-2.038h-15.212a2.039,2.039,0,0,0-2.038,2.038v15.212A2.039,2.039,0,0,0,1489.154,724.356Zm2.038-15.213h11.136V720.28h-11.136Z" transform="translate(-1324.285 -635.57)" fill="#fff"/>
  </g>
</svg>
