<svg xmlns="http://www.w3.org/2000/svg" width="143.716" height="139.67" viewBox="0 0 143.716 139.67">
  <g id="Grupo_5868" data-name="Grupo 5868" transform="translate(4 4)">
    <g id="Grupo_5864" data-name="Grupo 5864" transform="translate(12.156 11.748)">
      <path id="Trazado_7798" data-name="Trazado 7798" d="M13649.023,1810.287s-9.7.079-12.492-9.239,3.008-15.655,7.707-16.914c1.906-10.14,9.459-13.758,16.23-13.721s13.939,3.786,15.9,13.721c8.771,2.35,10.416,10.857,8.33,16.914s-8.68,8.684-12.324,9.239" transform="translate(-13635.801 -1770.413)" fill="none" stroke="#fff" stroke-linecap="round" stroke-width="6"/>
      <path id="Trazado_7799" data-name="Trazado 7799" d="M13719.855,1897.1s3.8-22.927,6.9-22.927,6.793,22.927,6.793,22.927.6,2.1,0,2.959a1.908,1.908,0,0,1-1.691.733h-10.521a1.629,1.629,0,0,1-1.482-.925A4.235,4.235,0,0,1,13719.855,1897.1Z" transform="translate(-13702.134 -1852.547)" fill="#fff"/>
      <path id="Trazado_7800" data-name="Trazado 7800" d="M4.632,0S1.181,4.917,0,15.268c2.827,6.975,3.957,3.669,3.957,3.669A38.636,38.636,0,0,1,2.987,8.3,41.376,41.376,0,0,1,4.632,0Z" transform="matrix(0.999, 0.035, -0.035, 0.999, 24.585, 16.153)" fill="#fff" stroke="#fff" stroke-linecap="round" stroke-linejoin="round" stroke-width="4"/>
      <path id="Trazado_7801" data-name="Trazado 7801" d="M4.947,19.5S1.18,14.812,0,4.461C2.827-2.514,4.7.774,4.7.774S2.628,6.3,2.681,10.748A22.6,22.6,0,0,0,4.947,19.5Z" transform="matrix(-0.996, 0.087, -0.087, -0.996, 26.257, 36.134)" fill="#fff" stroke="#fff" stroke-linecap="round" stroke-linejoin="round" stroke-width="4"/>
      <path id="Trazado_7802" data-name="Trazado 7802" d="M4.632,0S1.18,4.917,0,15.268c2.827,6.975,3.445,3.852,3.445,3.852A43.726,43.726,0,0,1,2.785,8.632,39.781,39.781,0,0,1,4.632,0Z" transform="translate(38.063 24.82) rotate(57)" fill="#fff" stroke="#fff" stroke-linecap="round" stroke-linejoin="round" stroke-width="4"/>
      <path id="Trazado_7803" data-name="Trazado 7803" d="M4.632,0S1.18,4.917,0,15.268c2.827,6.975,3.445,3.852,3.445,3.852A43.726,43.726,0,0,1,2.785,8.632,39.781,39.781,0,0,1,4.632,0Z" transform="matrix(0.559, -0.829, 0.829, 0.559, 10.041, 28.121)" fill="#fff" stroke="#fff" stroke-linecap="round" stroke-linejoin="round" stroke-width="4"/>
      <path id="Trazado_7804" data-name="Trazado 7804" d="M13786.729,1883.433c-1.391,3.314-4.586,8.859-4.586,8.859,2.051-.738,2.021-.7,2.021-.7s.119,1.012,1.047-2.65S13786.729,1883.433,13786.729,1883.433Z" transform="translate(-13751.64 -1860.133)" fill="#fff" stroke="#fff" stroke-linecap="round" stroke-linejoin="round" stroke-width="4"/>
      <path id="Trazado_7805" data-name="Trazado 7805" d="M4.585,0C3.2,3.315,0,8.859,0,8.859c2.05-.738,2.021-.7,2.021-.7S2.14,9.166,3.069,5.5,4.585,0,4.585,0Z" transform="matrix(-0.588, -0.809, 0.809, -0.588, 11.592, 36.2)" fill="#fff" stroke="#fff" stroke-linecap="round" stroke-linejoin="round" stroke-width="4"/>
    </g>
    <g id="Rectángulo_256" data-name="Rectángulo 256" transform="translate(75.169 24.382)" fill="none" stroke="#fff" stroke-width="8">
      <rect width="64.547" height="111.288" rx="18" stroke="none"/>
      <rect x="4" y="4" width="56.547" height="103.288" rx="14" fill="none"/>
    </g>
    <path id="Trazado_7806" data-name="Trazado 7806" d="M13646.152,1760.32v-13.96h-117.468v83.962h66.9" transform="translate(-13528.685 -1746.359)" fill="none" stroke="#fff" stroke-linecap="round" stroke-linejoin="round" stroke-width="8"/>
    <path id="Trazado_7807" data-name="Trazado 7807" d="M13596.416,1873.705H13530.2" transform="translate(-13529.433 -1804.764)" fill="none" stroke="#fff" stroke-linecap="round" stroke-width="8"/>
    <path id="Trazado_7808" data-name="Trazado 7808" d="M13607.7,1912.41v24.61h18.608" transform="translate(-13558.774 -1828.449)" fill="none" stroke="#fff" stroke-linecap="round" stroke-linejoin="round" stroke-width="8"/>
    <circle id="Elipse_183" data-name="Elipse 183" cx="5.193" cy="5.193" r="5.193" transform="translate(102.249 113.412)" fill="#fff"/>
    <g id="Trazado_7809" data-name="Trazado 7809" transform="translate(88.153 48.123)" fill="none">
      <path d="M19.29,0c.431.16,0,19.29,0,19.29s19.633-.089,19.29,0A19.29,19.29,0,1,1,19.29,0Z" stroke="none"/>
      <path d="M 15.48188591003418 4.475296020507812 C 12.85460662841797 5.145713806152344 10.44577217102051 6.510871887207031 8.478326797485352 8.478324890136719 C 5.590427398681641 11.36621475219727 3.999996185302734 15.20585441589355 3.999996185302734 19.28995513916016 C 3.999996185302734 23.37404632568359 5.590427398681641 27.21369552612305 8.478317260742188 30.10158538818359 C 11.3662166595459 32.98947525024414 15.20585823059082 34.57990646362305 19.28995704650879 34.57990646362305 C 23.37404632568359 34.57990646362305 27.21369743347168 32.98947525024414 30.10158729553223 30.10158538818359 C 32.03078460693359 28.17238998413086 33.38100814819336 25.81831741333008 34.06484603881836 23.25051307678223 C 33.9564208984375 23.25048065185547 33.84513854980469 23.25046539306641 33.73113632202148 23.25046539306641 C 28.0901985168457 23.25047492980957 19.39522743225098 23.28951644897461 19.30805778503418 23.28991508483887 L 15.19839668273926 23.30849456787109 L 15.29097747802734 19.19984436035156 C 15.40990829467773 13.92106246948242 15.48902320861816 8.164264678955078 15.48188591003418 4.475296020507812 M 19.28995704650879 -3.814697265625e-06 C 19.72104835510254 0.1603965759277344 19.28995704650879 19.28995513916016 19.28995704650879 19.28995513916016 C 19.28995704650879 19.28995513916016 38.9226188659668 19.20110321044922 38.57990646362305 19.28995513916016 C 38.57990646362305 29.94350433349609 29.94349670410156 38.57990646362305 19.28995704650879 38.57990646362305 C 8.636407852172852 38.57990646362305 -3.814697265625e-06 29.94350433349609 -3.814697265625e-06 19.28995513916016 C -3.814697265625e-06 8.636405944824219 8.636407852172852 -3.814697265625e-06 19.28995704650879 -3.814697265625e-06 Z" stroke="none" fill="#fff"/>
    </g>
    <path id="Trazado_7810" data-name="Trazado 7810" d="M1211.5,1807.757v16.079h16.395s.312-7.1-4.167-11.982S1211.5,1807.757,1211.5,1807.757Z" transform="translate(-1098.864 -1762.193)" fill="#fff"/>
  </g>
</svg>
