<svg xmlns="http://www.w3.org/2000/svg" width="159.658" height="140.912" viewBox="0 0 159.658 140.912">
  <g id="Grupo_5874" data-name="Grupo 5874" transform="translate(4.842 3.5)">
    <g id="Grupo_5872" data-name="Grupo 5872" transform="translate(0 0)">
      <path id="Trazado_7813" data-name="Trazado 7813" d="M22.627,0s9.321,8.346,9.321,18.642-9.321,18.642-9.321,18.642S13,28.938,13,18.642,22.627,0,22.627,0Z" transform="translate(26.925)" fill="none" stroke="#fff" stroke-linecap="round" stroke-linejoin="round" stroke-width="7"/>
      <path id="Trazado_7818" data-name="Trazado 7818" d="M9.627,0s9.321,8.346,9.321,18.642S9.627,37.285,9.627,37.285,0,28.938,0,18.642,9.627,0,9.627,0Z" transform="translate(92.303 20.213) rotate(60)" fill="none" stroke="#fff" stroke-linecap="round" stroke-linejoin="round" stroke-width="7"/>
      <path id="Trazado_7819" data-name="Trazado 7819" d="M9.627,37.285s9.321-8.346,9.321-18.642S9.627,0,9.627,0,0,8.346,0,18.642,9.627,37.285,9.627,37.285Z" transform="matrix(-0.545, 0.839, -0.839, -0.545, 41.59, 50.372)" fill="none" stroke="#fff" stroke-linecap="round" stroke-linejoin="round" stroke-width="7"/>
      <g id="Grupo_5871" data-name="Grupo 5871" transform="translate(15.01 83.775)">
        <rect id="Rectángulo_257" data-name="Rectángulo 257" width="68.778" height="12.213" fill="none" stroke="#fff" stroke-linecap="round" stroke-linejoin="round" stroke-width="7"/>
        <path id="Trazado_7814" data-name="Trazado 7814" d="M0,0H54.637L51.423,37.924H3.214Z" transform="translate(7.071 12.213)" fill="none" stroke="#fff" stroke-linecap="round" stroke-linejoin="round" stroke-width="7"/>
      </g>
      <path id="Trazado_7815" data-name="Trazado 7815" d="M13536,1811.961v-46.036" transform="translate(-13486.602 -1728.186)" fill="none" stroke="#fff" stroke-linecap="round" stroke-width="7"/>
      <path id="Trazado_7816" data-name="Trazado 7816" d="M13550.422,1791.989l-14.911,8.442" transform="translate(-13485.784 -1745.166)" fill="none" stroke="#fff" stroke-linecap="round" stroke-linejoin="round" stroke-width="7"/>
      <path id="Trazado_7817" data-name="Trazado 7817" d="M12.9,0,0,7.559" transform="matrix(0.438, 0.899, -0.899, 0.438, 43.414, 55.718)" fill="none" stroke="#fff" stroke-linecap="round" stroke-linejoin="round" stroke-width="7"/>
    </g>
    <g id="Grupo_5873" data-name="Grupo 5873" transform="translate(106.989 15.868)">
      <g id="Trazado_7822" data-name="Trazado 7822" transform="translate(0)" fill="none">
        <path d="M11.57,0H36.258a11.57,11.57,0,0,1,11.57,11.57V70.892a11.57,11.57,0,0,1-11.57,11.57H11.57A11.57,11.57,0,0,1,0,70.892V11.57A11.57,11.57,0,0,1,11.57,0Z" stroke="none"/>
        <path d="M 11.57009887695312 6.999992370605469 C 9.050132751464844 6.999992370605469 7.000007629394531 9.050125122070312 7.000007629394531 11.57008361816406 L 7.000007629394531 70.89193725585938 C 7.000007629394531 73.41190338134766 9.050132751464844 75.4620361328125 11.57009887695312 75.4620361328125 L 36.25788116455078 75.4620361328125 C 38.7778434753418 75.4620361328125 40.82796859741211 73.41190338134766 40.82796859741211 70.89193725585938 L 40.82796859741211 11.57008361816406 C 40.82796859741211 9.050125122070312 38.7778434753418 6.999992370605469 36.25788116455078 6.999992370605469 L 11.57009887695312 6.999992370605469 M 11.57009887695312 -7.62939453125e-06 L 36.25788116455078 -7.62939453125e-06 C 42.64786148071289 -7.62939453125e-06 47.82796859741211 5.180107116699219 47.82796859741211 11.57008361816406 L 47.82796859741211 70.89193725585938 C 47.82796859741211 77.28192138671875 42.64786148071289 82.4620361328125 36.25788116455078 82.4620361328125 L 11.57009887695312 82.4620361328125 C 5.18011474609375 82.4620361328125 7.62939453125e-06 77.28192138671875 7.62939453125e-06 70.89193725585938 L 7.62939453125e-06 11.57008361816406 C 7.62939453125e-06 5.180107116699219 5.18011474609375 -7.62939453125e-06 11.57009887695312 -7.62939453125e-06 Z" stroke="none" fill="#fff"/>
      </g>
      <circle id="Elipse_184" data-name="Elipse 184" cx="3.848" cy="3.848" r="3.848" transform="translate(20.066 65.97)" fill="#fff"/>
      <g id="Trazado_7820" data-name="Trazado 7820" transform="translate(9.621 17.592)" fill="none">
        <path d="M14.293,0c.319.119,0,14.293,0,14.293s14.547-.066,14.293,0A14.293,14.293,0,1,1,14.293,0Z" stroke="none"/>
        <path d="M 10.43239974975586 4.751352310180664 C 6.663917541503906 6.281587600708008 3.999998092651367 9.982172012329102 3.999998092651367 14.29341888427734 C 3.999998092651367 19.96922874450684 8.617607116699219 24.58683967590332 14.29341697692871 24.58683967590332 C 18.56240081787109 24.58683967590332 22.23266983032227 21.97480392456055 23.78989028930664 18.26485061645508 C 19.6851692199707 18.26924896240234 14.37013530731201 18.29311561584473 14.3115177154541 18.29337882995605 L 10.20183753967285 18.31196975708008 L 10.29443740844727 14.20329856872559 C 10.36667442321777 10.997802734375 10.42000198364258 7.43480110168457 10.43239974975586 4.751352310180664 M 14.29341697692871 -1.9073486328125e-06 C 14.6128568649292 0.1188488006591797 14.29341697692871 14.29341888427734 14.29341697692871 14.29341888427734 C 14.29341602325439 14.29341888427734 28.84077644348145 14.22758865356445 28.58683776855469 14.29341888427734 C 28.58683776855469 22.18745803833008 22.18745803833008 28.58683967590332 14.29341697692871 28.58683967590332 C 6.399377822875977 28.58683967590332 -1.9073486328125e-06 22.18745803833008 -1.9073486328125e-06 14.29341888427734 C -1.9073486328125e-06 6.399379730224609 6.399377822875977 -1.9073486328125e-06 14.29341697692871 -1.9073486328125e-06 Z" stroke="none" fill="#fff"/>
      </g>
      <path id="Trazado_7821" data-name="Trazado 7821" d="M1211.5,1807.745v11.914h12.148s.231-5.262-3.088-8.878S1211.5,1807.745,1211.5,1807.745Z" transform="translate(-1184.381 -1790.764)" fill="#fff"/>
    </g>
    <path id="Trazado_7823" data-name="Trazado 7823" d="M13586.629,1903.129h43.419c4.45,0,5.542-2.206,5.542-5.305v-11.966" transform="translate(-13504.688 -1784.177)" fill="none" stroke="#fff" stroke-linecap="round" stroke-linejoin="round" stroke-width="4" stroke-dasharray="4 8"/>
  </g>
</svg>
