<svg xmlns="http://www.w3.org/2000/svg" width="118.758" height="144.881" viewBox="0 0 118.758 144.881">
  <g id="Grupo_5867" data-name="Grupo 5867" transform="translate(5.065 5.062)">
    <g id="Grupo_5864" data-name="Grupo 5864" transform="translate(0 34.433)">
      <path id="Trazado_7798" data-name="Trazado 7798" d="M13664.68,1857.5s-21.174.172-27.283-20.179,6.57-34.191,16.834-36.941c4.162-22.146,20.66-30.048,35.447-29.967s30.447,8.268,34.736,29.967c19.156,5.133,22.75,23.714,18.193,36.941s-18.957,18.967-26.916,20.179" transform="translate(-13635.8 -1770.413)" fill="none" stroke="#fff" stroke-linecap="round" stroke-width="10"/>
      <path id="Trazado_7799" data-name="Trazado 7799" d="M13720.156,1924.247s8.3-50.073,15.078-50.073,14.838,50.073,14.838,50.073,1.3,4.58,0,6.463a4.173,4.173,0,0,1-3.7,1.6h-22.98a3.56,3.56,0,0,1-3.238-2.02C13718.9,1928.08,13720.156,1924.247,13720.156,1924.247Z" transform="translate(-13681.451 -1826.939)" fill="#fff"/>
      <path id="Trazado_7800" data-name="Trazado 7800" d="M10.117,0S2.579,10.739,0,33.345c6.175,15.235,8.642,8.014,8.642,8.014S5.534,28.493,6.523,18.138A90.369,90.369,0,0,1,10.117,0Z" transform="matrix(0.999, 0.035, -0.035, 0.999, 53.695, 35.278)" fill="#fff" stroke="#fff" stroke-linecap="round" stroke-linejoin="round" stroke-width="8"/>
      <path id="Trazado_7801" data-name="Trazado 7801" d="M10.805,42.589S2.578,32.351,0,9.744C6.174-5.491,10.263,1.691,10.263,1.691S5.739,13.763,5.855,23.473,10.805,42.589,10.805,42.589Z" transform="matrix(-0.996, 0.087, -0.087, -0.996, 57.347, 78.919)" fill="#fff" stroke="#fff" stroke-linecap="round" stroke-linejoin="round" stroke-width="8"/>
      <path id="Trazado_7802" data-name="Trazado 7802" d="M10.116,0S2.578,10.739,0,33.345c6.174,15.235,7.525,8.413,7.525,8.413S5.093,29.208,6.082,18.853A86.885,86.885,0,0,1,10.116,0Z" transform="translate(83.132 54.208) rotate(57)" fill="#fff" stroke="#fff" stroke-linecap="round" stroke-linejoin="round" stroke-width="8"/>
      <path id="Trazado_7803" data-name="Trazado 7803" d="M10.116,0S2.578,10.739,0,33.345c6.174,15.235,7.525,8.413,7.525,8.413S5.093,29.208,6.082,18.853A86.885,86.885,0,0,1,10.116,0Z" transform="matrix(0.559, -0.829, 0.829, 0.559, 21.93, 61.419)" fill="#fff" stroke="#fff" stroke-linecap="round" stroke-linejoin="round" stroke-width="8"/>
      <path id="Trazado_7804" data-name="Trazado 7804" d="M13792.157,1883.433c-3.035,7.239-10.015,19.349-10.015,19.349,4.478-1.613,4.415-1.538,4.415-1.538s.259,2.21,2.287-5.787S13792.157,1883.433,13792.157,1883.433Z" transform="translate(-13715.523 -1832.545)" fill="#fff" stroke="#fff" stroke-linecap="round" stroke-linejoin="round" stroke-width="8"/>
      <path id="Trazado_7805" data-name="Trazado 7805" d="M10.014,0C6.979,7.239,0,19.349,0,19.349c4.478-1.612,4.415-1.538,4.415-1.538s.259,2.21,2.287-5.787S10.014,0,10.014,0Z" transform="matrix(-0.588, -0.809, 0.809, -0.588, 25.317, 79.064)" fill="#fff" stroke="#fff" stroke-linecap="round" stroke-linejoin="round" stroke-width="8"/>
    </g>
    <g id="Grupo_5866" data-name="Grupo 5866" transform="translate(32.921)">
      <g id="Grupo_5863" data-name="Grupo 5863">
        <g id="Grupo_362" data-name="Grupo 362">
          <path id="Trazado_1180" data-name="Trazado 1180" d="M2868.325,1611.059c-5.519-9.641-18.4-13.138-28.534-7.847a20.552,20.552,0,0,0-11.2,18.274c0,14.38,12.977,29.839,19.579,36.319a2.33,2.33,0,0,0,3.239.025c6.646-6.337,19.919-21,19.919-36.536A20.678,20.678,0,0,0,2868.325,1611.059Zm-8.819,16.646a11.005,11.005,0,1,1,1.294-7.409A11.014,11.014,0,0,1,2859.507,1627.7Z" transform="translate(-2828.593 -1600.745)" fill="#007473" stroke="#0e7473" stroke-width="10"/>
        </g>
      </g>
      <g id="Grupo_5865" data-name="Grupo 5865">
        <g id="Grupo_362-2" data-name="Grupo 362">
          <path id="Trazado_1180-2" data-name="Trazado 1180" d="M2868.325,1611.059c-5.519-9.641-18.4-13.138-28.534-7.847a20.552,20.552,0,0,0-11.2,18.274c0,14.38,12.977,29.839,19.579,36.319a2.33,2.33,0,0,0,3.239.025c6.646-6.337,19.919-21,19.919-36.536A20.678,20.678,0,0,0,2868.325,1611.059Zm-8.819,16.646a11.005,11.005,0,1,1,1.294-7.409A11.014,11.014,0,0,1,2859.507,1627.7Z" transform="translate(-2828.593 -1600.745)" fill="#fff"/>
        </g>
      </g>
    </g>
  </g>
</svg>
