<svg id="Grupo_5888" data-name="Grupo 5888" xmlns="http://www.w3.org/2000/svg" width="129.417" height="39.357" viewBox="0 0 129.417 39.357">
  <rect id="Rectángulo_260" data-name="Rectángulo 260" width="129.417" height="39.357" rx="1.742"/>
  <g id="Grupo_5886" data-name="Grupo 5886" transform="translate(6.988 6.953)">
    <path id="Trazado_7840" data-name="Trazado 7840" d="M130.519,426.733c-2.1,3.645-.767,9.174,1.557,12.525,1.157,1.674,2.332,3.179,3.938,3.179l.092,0a4.831,4.831,0,0,0,1.827-.485,5.017,5.017,0,0,1,2.168-.514,4.7,4.7,0,0,1,2.059.5,4.382,4.382,0,0,0,1.976.474c1.809-.034,2.921-1.657,3.9-3.09a13.7,13.7,0,0,0,1.712-3.5l.006-.023a.207.207,0,0,0-.109-.25l-.014-.006a5.188,5.188,0,0,1-3.145-4.75,5.348,5.348,0,0,1,2.525-4.466l.02-.011a.212.212,0,0,0,.089-.132.2.2,0,0,0-.032-.155,5.865,5.865,0,0,0-4.618-2.507,3.736,3.736,0,0,0-.4-.02,8.069,8.069,0,0,0-2.9.724,4.649,4.649,0,0,1-1.39.417,4.533,4.533,0,0,1-1.436-.422,6.963,6.963,0,0,0-2.533-.643l-.063,0A6.2,6.2,0,0,0,130.519,426.733Z" transform="translate(-129.471 -417.605)" fill="#fff"/>
    <path id="Trazado_7841" data-name="Trazado 7841" d="M138.03,421.443a5.67,5.67,0,0,0-3.742,1.919,5.323,5.323,0,0,0-1.344,3.941.2.2,0,0,0,.187.175c.086.009.172.012.261.012a4.8,4.8,0,0,0,3.533-1.812,5.6,5.6,0,0,0,1.318-4.052A.2.2,0,0,0,138.03,421.443Z" transform="translate(-123.032 -421.443)" fill="#fff"/>
  </g>
  <g id="Grupo_5887" data-name="Grupo 5887" transform="translate(36.036 4.382)">
    <text id="Download_on_the" data-name="Download on the" transform="translate(34 12)" fill="#fff" font-size="8" font-family="Montserrat-Light, Montserrat" font-weight="300"><tspan x="-34.32" y="0">Download on the</tspan></text>
    <text id="App_Store" data-name="App Store" transform="translate(31.011 25.285)" fill="#fff" font-size="12" font-family="Montserrat-SemiBold, Montserrat" font-weight="600"><tspan x="-30.654" y="0">App Store</tspan></text>
  </g>
</svg>
