<svg xmlns="http://www.w3.org/2000/svg" width="135.192" height="182.608" viewBox="0 0 135.192 182.608"><defs><style>.a{fill:#007473;}.b{fill:#fff;}</style></defs><g transform="translate(0 0)"><g transform="translate(0 0)"><path class="a" d="M4289.314-1639.187c-17.457-30.5-58.21-41.56-90.261-24.823a65.013,65.013,0,0,0-35.426,57.806c0,45.49,41.051,94.392,61.936,114.888a7.37,7.37,0,0,0,10.246.079c21.024-20.047,63.011-66.445,63.011-115.574C4298.819-1617.778,4295.325-1628.686,4289.314-1639.187Z" transform="translate(-4163.627 1671.813)"/></g><g transform="translate(34.617 24.96)"><path class="b" d="M4247.515-1592.143h-8.945a2.982,2.982,0,0,0-2.982,2.982v35.783a2.981,2.981,0,0,0,2.982,2.982h8.945a2.98,2.98,0,0,0,2.982-2.982v-35.783A2.981,2.981,0,0,0,4247.515-1592.143Zm-23.854,17.891h-8.947a2.981,2.981,0,0,0-2.981,2.982v17.891a2.98,2.98,0,0,0,2.981,2.982h8.947a2.981,2.981,0,0,0,2.981-2.982v-17.891A2.981,2.981,0,0,0,4223.66-1574.251Zm47.71-35.783h-8.946a2.981,2.981,0,0,0-2.982,2.982v53.675a2.981,2.981,0,0,0,2.982,2.982h8.946a2.98,2.98,0,0,0,2.981-2.982v-53.675A2.981,2.981,0,0,0,4271.371-1610.034Z" transform="translate(-4209.908 1631.874)"/><path class="b" d="M4211.15-1591.9a1.822,1.822,0,0,1-1.419-.676,1.825,1.825,0,0,1,.268-2.566l53.445-43.319a1.826,1.826,0,0,1,2.566.268,1.825,1.825,0,0,1-.269,2.566L4212.3-1592.3A1.818,1.818,0,0,1,4211.15-1591.9Z" transform="translate(-4209.324 1638.864)"/><g transform="translate(40.91 0)"><path class="b" d="M4274.527-1623.074a1.824,1.824,0,0,1-.461-.059,1.823,1.823,0,0,1-1.305-2.225l2.538-9.751-10.066.439a1.82,1.82,0,0,1-1.9-1.743,1.824,1.824,0,0,1,1.742-1.9l12.535-.548a1.825,1.825,0,0,1,1.5.676,1.822,1.822,0,0,1,.347,1.607l-3.161,12.141A1.824,1.824,0,0,1,4274.527-1623.074Z" transform="translate(-4263.327 1638.864)"/></g></g></g></svg>