<svg xmlns="http://www.w3.org/2000/svg" width="135.192" height="182.608" viewBox="0 0 135.192 182.608"><defs><style>.a{fill:#007473;}.b{fill:#fff;}</style></defs><g transform="translate(0 0)"><g transform="translate(0)"><path class="a" d="M4289.23-1222.048c-17.456-30.5-58.209-41.561-90.26-24.824a65.013,65.013,0,0,0-35.426,57.806c0,45.49,41.051,94.392,61.936,114.888a7.369,7.369,0,0,0,10.246.079c21.024-20.047,63.01-66.445,63.01-115.574C4298.736-1200.639,4295.242-1211.547,4289.23-1222.048Z" transform="translate(-4163.544 1254.674)"/></g><g transform="translate(26.72 24.006)"><path class="b" d="M4223.813-1215.274v1.873a7.267,7.267,0,0,0,.553,2.77,34.933,34.933,0,0,0-19.62,31.419c0,.945.032,1.825.1,2.69.02.25.039.493.065.715a34.909,34.909,0,0,0,10.438,21.674,34.888,34.888,0,0,0,22,9.792c.179.016.361.025.544.033l.147.008c.148.007.3.015.456.016.19.01.378.014.574.018s.411,0,.621,0a34.9,34.9,0,0,0,18.132-5.063c.454-.278.914-.573,1.406-.9.621-.414,1.268-.885,2.048-1.488l.015-.012,2.985,3.3-.257.2c-.833.65-1.584,1.2-2.3,1.674-.525.354-1.05.691-1.6,1.026a39.305,39.305,0,0,1-20.427,5.7h-.024c-.229,0-.453,0-.654,0l-.226-.007c-.142,0-.282-.008-.422-.015h-.074c-.145,0-.286-.011-.457-.021-.24-.011-.481-.02-.748-.043a39.341,39.341,0,0,1-24.832-11.037,39.381,39.381,0,0,1-11.767-24.462c-.03-.252-.049-.5-.068-.783-.079-.964-.117-1.953-.117-3.022a39.139,39.139,0,0,1,7.167-22.664,39.313,39.313,0,0,1,16.345-13.4m1.483-2.205a40.887,40.887,0,0,0-26.479,38.268c0,1.06.038,2.106.122,3.143.019.282.041.56.075.838a40.863,40.863,0,0,0,37.975,36.8c.255.022.519.033.782.045.167.011.34.022.519.022.223.011.445.015.674.022s.483,0,.727,0a40.668,40.668,0,0,0,21.2-5.92c.564-.345,1.112-.7,1.657-1.063.82-.546,1.612-1.131,2.388-1.735.5-.4,1-.8,1.479-1.223l-4.975-5.5q-.53.463-1.079.9c-.638.493-1.283.971-1.953,1.42-.45.3-.9.589-1.358.871a33.3,33.3,0,0,1-17.357,4.845c-.2,0-.4,0-.593,0s-.371-.008-.556-.018c-.141,0-.285-.008-.421-.015-.216-.011-.431-.019-.642-.037a33.46,33.46,0,0,1-31.092-30.131c-.025-.229-.044-.456-.063-.689-.065-.849-.1-1.705-.1-2.573a33.475,33.475,0,0,1,20.22-30.742,5.77,5.77,0,0,1-1.15-3.451v-4.074Z" transform="translate(-4198.817 1221.65)"/><path class="b" d="M4296.712-1168.464a33.644,33.644,0,0,1-.679,6.745c-.026.125-.056.248-.083.373l7.2,1.777c.048-.219.1-.436.145-.655a40.994,40.994,0,0,0,.829-8.239,41.331,41.331,0,0,0-.267-4.691l-7.348,1.018A33.786,33.786,0,0,1,4296.712-1168.464Z" transform="translate(-4222.369 1210.903)"/><path class="b" d="M4290.618-1191.072q.37.609.71,1.246c.129.237.255.474.38.715.111.223.227.451.339.679a.52.52,0,0,0,.021.049c.349.732.679,1.479.979,2.238a33.2,33.2,0,0,1,1.858,6.763l7.349-1.018a40.557,40.557,0,0,0-2.312-8.461c-.366-.928-.769-1.839-1.194-2.734a.426.426,0,0,1-.028-.06c-.135-.278-.277-.556-.414-.829-.153-.3-.305-.583-.464-.873q-.417-.777-.867-1.523c-.121-.2-.246-.391-.368-.586l-6.2,4.056C4290.476-1191.3,4290.549-1191.187,4290.618-1191.072Z" transform="translate(-4221.025 1216.313)"/><path class="b" d="M4290.712-1202.358l-6.2,4.059a33.543,33.543,0,0,0-14.245-11.651,5.8,5.8,0,0,0,1.141-3.466v-4.063A41.018,41.018,0,0,1,4290.712-1202.358Z" transform="translate(-4216.141 1221.65)"/><path class="b" d="M4293.7-1153.383c-.264.778-.554,1.546-.871,2.3q-.322.757-.67,1.487-.3.617-.621,1.22c-.248.462-.507.915-.774,1.363l6.263,3.959c.365-.6.72-1.216,1.053-1.84.262-.491.513-.988.759-1.49q.423-.892.818-1.817c.387-.916.742-1.855,1.064-2.8q.4-1.185.731-2.405l-7.2-1.777Q4294-1154.274,4293.7-1153.383Z" transform="translate(-4221.111 1206.547)"/><path class="b" d="M4283.842-1137.327c-.179.179-.364.352-.547.527l4.971,5.5c.274-.26.548-.52.815-.787a41.081,41.081,0,0,0,5.142-6.284l-6.263-3.959A33.726,33.726,0,0,1,4283.842-1137.327Z" transform="translate(-4219.3 1203.429)"/><g transform="translate(11.275)"><path class="b" d="M4243.295-1150.949c-.181,0-.357,0-.535,0-.158,0-.312-.008-.466-.015s-.284-.01-.422-.018c-.163-.007-.366-.016-.566-.033a30.015,30.015,0,0,1-27.461-26.634c-.022-.184-.041-.4-.058-.619-.057-.729-.086-1.5-.086-2.275a29.414,29.414,0,0,1,23.5-28.969v-1.273h-2.446a3.983,3.983,0,0,1-3.964-3.956v-4.278a3.983,3.983,0,0,1,3.958-3.963h17.1a3.968,3.968,0,0,1,3.964,3.963v4.27a3.968,3.968,0,0,1-3.964,3.963H4249.4v1.277a29.639,29.639,0,0,1,18.731,12.853c.189.288.373.585.558.888.224.373.436.743.639,1.122.107.2.218.4.328.615l.3.6.032.066q.477.982.858,1.967a29.02,29.02,0,0,1,2.054,10.844,29.808,29.808,0,0,1-.6,5.969,29.3,29.3,0,0,1-.953,3.524c-.234.691-.493,1.374-.771,2.029-.19.448-.387.883-.59,1.311-.182.374-.363.73-.55,1.083a29.723,29.723,0,0,1-5.2,7.017c-.493.494-1.019.982-1.559,1.451-.35.308-.72.61-1.093.9-.56.438-1.139.858-1.726,1.256-.4.268-.8.523-1.2.769A29.534,29.534,0,0,1,4243.295-1150.949Zm-8.542-68.387a.321.321,0,0,0-.315.321v4.263a.322.322,0,0,0,.321.315h4.264a1.824,1.824,0,0,1,1.824,1.824v4.62a1.825,1.825,0,0,1-1.546,1.8,26.113,26.113,0,0,0-21.952,25.643c0,.683.024,1.354.076,1.991.013.17.025.332.044.495a26.346,26.346,0,0,0,24.113,23.4c.18.015.332.021.483.027s.256.011.366.016c.136.006.273.01.413.013s.3,0,.45,0a25.89,25.89,0,0,0,13.455-3.757q.534-.327,1.059-.679c.511-.346,1.023-.719,1.512-1.1.318-.249.637-.51.946-.782.483-.419.945-.848,1.379-1.282a26.055,26.055,0,0,0,4.563-6.153q.25-.469.485-.953c.175-.366.35-.754.518-1.149.24-.569.468-1.167.673-1.775a25.737,25.737,0,0,0,.835-3.084,26.232,26.232,0,0,0,.53-5.244,25.412,25.412,0,0,0-1.8-9.5l-.006-.012c-.225-.58-.477-1.158-.751-1.718-.008-.017-.018-.036-.026-.057l-.267-.532c-.084-.162-.182-.348-.284-.533-.18-.336-.362-.654-.55-.966-.158-.26-.322-.526-.495-.788a25.975,25.975,0,0,0-17.779-11.523,1.825,1.825,0,0,1-1.545-1.8v-4.622a1.824,1.824,0,0,1,1.825-1.824h4.273a.316.316,0,0,0,.315-.315v-4.27a.315.315,0,0,0-.315-.314Z" transform="translate(-4213.701 1222.985)"/></g><path class="b" d="M4251.057-1176.25V-1194.1a.668.668,0,0,0-.669-.668h-2a.667.667,0,0,0-.667.668v17.918a2.908,2.908,0,0,0-1.2,2.356,2.985,2.985,0,0,0,.056.564l-7.286,7.287a.668.668,0,0,0,0,.945l1.418,1.418a.668.668,0,0,0,.945,0l7.336-7.337a2.923,2.923,0,0,0,.447.038,2.916,2.916,0,0,0,2.916-2.916A2.911,2.911,0,0,0,4251.057-1176.25Z" transform="translate(-4208.582 1216.144)"/></g></g></svg>