<svg xmlns="http://www.w3.org/2000/svg" width="135.191" height="182.608" viewBox="0 0 135.191 182.608"><defs><style>.a{fill:#007473;}.b{fill:#fff;}</style></defs><g transform="translate(0 0)"><g transform="translate(0 0)"><path class="a" d="M4822.39-1224.341c-17.457-30.5-58.211-41.561-90.262-24.824a65.012,65.012,0,0,0-35.425,57.806c0,45.491,41.051,94.392,61.935,114.888a7.37,7.37,0,0,0,10.246.079c21.024-20.047,63.011-66.446,63.011-115.575C4831.894-1202.932,4828.4-1213.84,4822.39-1224.341Z" transform="translate(-4696.703 1256.967)"/></g><g transform="translate(25.079 19.946)"><g transform="translate(0 6.24)"><path class="b" d="M4807.277-1175.583a35.592,35.592,0,0,0-31.572-19.685,35.6,35.6,0,0,0-31.571,19.686,3.594,3.594,0,0,0,0,3.239,35.591,35.591,0,0,0,31.571,19.684,35.6,35.6,0,0,0,31.572-19.686A3.591,3.591,0,0,0,4807.277-1175.583Zm-31.572,17.6a15.979,15.979,0,0,1-15.978-15.979,15.979,15.979,0,0,1,15.978-15.979,15.979,15.979,0,0,1,15.979,15.979,15.971,15.971,0,0,1-15.963,15.979Zm0-26.631a10.57,10.57,0,0,0-2.808.42,5.31,5.31,0,0,1-1.129,7.424,5.311,5.311,0,0,1-6.294,0,10.628,10.628,0,0,0,7.473,13.041,10.629,10.629,0,0,0,13.042-7.473,10.628,10.628,0,0,0-7.472-13.041A10.65,10.65,0,0,0,4775.705-1184.616Z" transform="translate(-4733.188 1215.821)"/><path class="b" d="M4772.326-1137.366a42.565,42.565,0,0,1-42.517-42.516,42.565,42.565,0,0,1,42.517-42.517,42.565,42.565,0,0,1,42.516,42.517A42.564,42.564,0,0,1,4772.326-1137.366Zm0-81.385a38.911,38.911,0,0,0-38.868,38.868,38.91,38.91,0,0,0,38.868,38.867,38.911,38.911,0,0,0,38.868-38.867A38.912,38.912,0,0,0,4772.326-1218.751Z" transform="translate(-4729.81 1222.399)"/></g><path class="b" d="M4830.269-1218.615h-7.054v-5.009h7.054v-7.013h5.009v7.013h7.136v5.009h-7.136v7.1h-5.009Z" transform="translate(-4752.458 1230.637)"/></g></g></svg>