<svg xmlns="http://www.w3.org/2000/svg" width="346.625" height="50.287" viewBox="0 0 346.625 50.287"><g transform="translate(-2266.658 -599.308)"><line y2="47.778" transform="translate(2360.265 599.308)" fill="none" stroke="#007473" stroke-miterlimit="10" stroke-width="1.132"/><g transform="translate(2374.639 608.162)"><g transform="translate(0 0)"><path d="M2453.342,644.7V614.891h10.113l5.164,21.742,5.165-21.742H2483.9V644.7h-5.938V621.642h-.646l-5.724,21.741h-5.939l-5.723-21.741h-.646V644.7Z" transform="translate(-2453.342 -614.732)" fill="#007473"/><path d="M2522.668,634.749q0,5.216,5.208,5.216t5.207-5.216V614.891h5.938v19.725q0,5.481-2.775,8.043t-8.37,2.564q-5.6,0-8.37-2.564t-2.776-8.043V614.891h5.938Z" transform="translate(-2480.065 -614.732)" fill="#007473"/><path d="M2565.833,644.7V614.891h10.027l7.057,24.547h.43V614.891h5.939V644.7h-9.769l-7.315-24.546h-.43V644.7Z" transform="translate(-2500.767 -614.732)" fill="#007473"/><rect width="5.939" height="29.807" transform="translate(94.888 0.159)" fill="#007473"/><path d="M2649.568,644.1h-10.081V615.333h10.081q6.9,0,9.144,5.571a22.583,22.583,0,0,1,1.305,8.4q0,10.852-5.307,13.678A10.873,10.873,0,0,1,2649.568,644.1Zm7.225-14.8q0-8.271-3.633-10.31a7.2,7.2,0,0,0-3.592-.832h-6.938v23.115h6.938Q2656.793,641.275,2656.793,629.3Z" transform="translate(-2531.818 -614.918)" fill="#007473"/><rect width="3.143" height="28.769" transform="translate(133.995 0.415)" fill="#007473"/><path d="M2712.709,631.952v-2.87h7.8v14.135a48.785,48.785,0,0,1-9.184,1q-6.164,0-8.551-3.617t-2.387-11.162q0-7.545,2.387-11.184t8.469-3.637a39.466,39.466,0,0,1,7.878.831l1.388.249-.123,2.661a52.561,52.561,0,0,0-8.775-.873q-4.694,0-6.326,2.765t-1.633,9.188q0,6.423,1.633,9.187t6.286,2.765a30.466,30.466,0,0,0,5.837-.581v-8.856Z" transform="translate(-2557.491 -614.616)" fill="#007473"/><rect width="3.143" height="28.769" transform="translate(169.177 0.415)" fill="#007473"/><path d="M2758.1,618.2v-2.869h20.409V618.2H2769.9v25.9h-3.1V618.2Z" transform="translate(-2581.824 -614.918)" fill="#007473"/><path d="M2792.678,644.1l7.756-28.769h6.857l7.755,28.769h-3.1l-2.041-7.4h-12.082l-2.041,7.4Zm10.122-26.025-4.286,15.757h10.694l-4.285-15.757Z" transform="translate(-2596.401 -614.918)" fill="#007473"/><path d="M2854.59,644.1h-15.551V615.333h3.143v25.9h12.408Z" transform="translate(-2615.946 -614.918)" fill="#007473"/></g></g><g transform="translate(2266.658 599.308)"><path d="M2362.28,615.11h-5.386v30.21h7.266c6.109,0,9.78-3.759,9.78-14.367C2373.94,621.286,2372.752,615.11,2362.28,615.11Z" transform="translate(-2304.7 -605.97)" fill="none"/><path d="M2288.681,629.977a8.81,8.81,0,0,1,3.1-.938l-9.731-28.611a1.652,1.652,0,0,0-1.564-1.12H2268.31a1.652,1.652,0,0,0-1.652,1.653v45.185a1.653,1.653,0,0,0,1.652,1.653h6.678a1.653,1.653,0,0,0,1.653-1.653V613.774h.135l7.587,21.718A8.419,8.419,0,0,1,2288.681,629.977Z" transform="translate(-2266.658 -599.308)" fill="#007473"/><path d="M2346.984,599.308h-21.77a1.653,1.653,0,0,0-1.573,1.146l-9.224,28.664a8.452,8.452,0,0,1,5.925,4.066,9.392,9.392,0,0,1,.944,2.266l7.615-22.016h.094v32.712a1.653,1.653,0,0,0,1.653,1.653h16.338c14.805,0,19.042-10.459,19.042-24.517C2366.025,607.186,2359.548,599.308,2346.984,599.308Zm-.732,39.35h-7.266v-30.21h5.386c10.473,0,11.66,6.176,11.66,15.843C2356.032,634.9,2352.361,638.658,2346.252,638.658Z" transform="translate(-2286.792 -599.308)" fill="#007473"/><g transform="translate(19.076 31.274)"><path d="M2307.152,672.177a.767.767,0,0,1-1.067-.008c-2.174-2.134-6.448-7.225-6.448-11.961a6.768,6.768,0,0,1,3.688-6.018,7.118,7.118,0,0,1,9.4,2.584,6.808,6.808,0,0,1,.99,3.37C2313.712,665.259,2309.341,670.09,2307.152,672.177Z" transform="translate(-2299.637 -653.377)" fill="#007473"/><path d="M2312.306,664.772a3.625,3.625,0,1,1,.426-2.44,3.626,3.626,0,0,1-.426,2.44" transform="translate(-2302.125 -655.893)" fill="#fff"/></g></g></g></svg>