<svg xmlns="http://www.w3.org/2000/svg" xmlns:xlink="http://www.w3.org/1999/xlink" width="743.242" height="204.374" viewBox="0 0 743.242 204.374">
  <defs>
    <style>
      .cls-1 {
        fill: #fff;
      }

      .cls-2 {
        filter: url(#Trazado_8709);
      }
    </style>
    <filter id="Trazado_8709" x="0" y="0" width="743.242" height="204.374" filterUnits="userSpaceOnUse">
      <feOffset input="SourceAlpha"/>
      <feGaussianBlur stdDeviation="10" result="blur"/>
      <feFlood flood-color="#182e26" flood-opacity="0.973"/>
      <feComposite operator="in" in2="blur"/>
      <feComposite in="SourceGraphic"/>
    </filter>
  </defs>
  <g id="tituloCarousel_-_02" data-name="tituloCarousel - 02" transform="translate(28.15 -12.794)">
    <g class="cls-2" transform="matrix(1, 0, 0, 1, -28.15, 12.79)">
      <path id="Trazado_8709-2" data-name="Trazado 8709" class="cls-1" d="M17.538.814a46.843,46.843,0,0,0,7.548-.962l-.37-6.512c-1.776.148-4.588.3-6.068.3-3.848,0-4-1.924-4-7.474v-16.28H24.79V-37H14.652V-47.73H6.586V-37H1.85v6.882H6.586V-12.95C6.586-2.294,9.176.814,17.538.814ZM31.376,0h8.066V-25.826a61.99,61.99,0,0,1,12.506-3.848v-8.14a41.86,41.86,0,0,0-12.506,5.18V-37H31.376ZM66.748.814A32.139,32.139,0,0,0,78.662-1.924a10.1,10.1,0,0,0,3.848,2A17.418,17.418,0,0,0,88.5.814l.222-6.142c-2.146-.37-3.034-1.184-3.256-3.4V-25.6c0-8.436-3.7-12.21-12.728-12.21A75.034,75.034,0,0,0,57.868-35.89l.3,5.772c3.848-.3,10.286-.74,13.912-.74S77.4-29.6,77.4-25.6v2.664l-9.472.814c-7.918.666-12.21,3.33-12.21,11.174C55.722-3.256,59.422.814,66.748.814Zm1.628-6.586c-3.182,0-4.514-2.146-4.514-5.4,0-3.33,1.7-4.884,5.032-5.254l8.51-.74v9.694A32.115,32.115,0,0,1,68.376-5.772ZM95.608,0h8.066V-28.638a21.111,21.111,0,0,1,8.362-1.924c5.624,0,6.512,3.626,6.512,10.952V0h8.066V-19.832c0-12.136-2.516-17.982-12.8-17.982-3.478,0-7.844,1.776-10.138,3.108V-37H95.608ZM148.3.814c9.176,0,14.726-3.108,14.726-11.766,0-7.4-3.256-9.62-12.136-11.174-7.178-1.258-8.732-1.924-8.732-4.366,0-2.96,1.924-4.07,6.364-4.07a125.44,125.44,0,0,1,13.246,1.184l.148-6.734a86.042,86.042,0,0,0-13.986-1.628c-7.326,0-13.838,3.108-13.838,11.47,0,7.844,4.144,9.62,12.284,10.952,7.326,1.184,8.584,2,8.584,4.588,0,3.182-2.072,4.292-7.4,4.292-2.738,0-8.806-.666-12.654-1.184l-.3,6.808A85.345,85.345,0,0,0,148.3.814ZM172.42,0h8.066V-30.118h9.694V-37h-9.694v-2.294c0-5.032,1.036-6.66,4.366-6.66,1.628,0,4.366.074,5.92.148l.148-6.586a70.79,70.79,0,0,0-8.066-.814c-7.7,0-10.434,3.182-10.434,13.838V-37h-4.292v6.882h4.292ZM210.6.814c12.728,0,16.5-7.252,16.5-19.536,0-11.988-4.07-19.092-16.5-19.092-12.358,0-16.5,7.1-16.5,19.092C194.1-6.438,197.95.814,210.6.814Zm0-6.882c-6.808,0-8.288-4.07-8.288-12.654,0-8.51,1.85-12.21,8.288-12.21,6.512,0,8.288,3.7,8.288,12.21C218.892-10.138,217.486-6.068,210.6-6.068ZM235.1,0h8.066V-25.826a61.991,61.991,0,0,1,12.506-3.848v-8.14a41.86,41.86,0,0,0-12.506,5.18V-37H235.1Zm26.714,0h8.066V-28.638a19.509,19.509,0,0,1,7.992-1.924c5.55,0,6.29,3.4,6.29,11.544V0h8.066V-19.166a76.18,76.18,0,0,0-.518-9.472,23.6,23.6,0,0,1,8.362-1.924c5.328,0,6.216,3.626,6.216,10.952V0h8.066V-19.832c0-12.58-2.738-17.982-12.8-17.982-4.366,0-9.768,2.072-12.728,3.626-2.072-2.516-4.884-3.626-9.4-3.626-3.182,0-7.252,1.776-9.546,3.108V-37h-8.066Zm70.67.814A32.138,32.138,0,0,0,344.4-1.924a10.1,10.1,0,0,0,3.848,2,17.418,17.418,0,0,0,5.994.74l.222-6.142c-2.146-.37-3.034-1.184-3.256-3.4V-25.6c0-8.436-3.7-12.21-12.728-12.21A75.034,75.034,0,0,0,323.6-35.89l.3,5.772c3.848-.3,10.286-.74,13.912-.74s5.328,1.258,5.328,5.254v2.664l-9.472.814c-7.918.666-12.21,3.33-12.21,11.174C321.456-3.256,325.156.814,332.482.814Zm1.628-6.586c-3.182,0-4.514-2.146-4.514-5.4,0-3.33,1.7-4.884,5.032-5.254l8.51-.74v9.694A32.115,32.115,0,0,1,334.11-5.772ZM378.066,0h8.066V-52.392h-8.066Zm27.01.814A32.138,32.138,0,0,0,416.99-1.924a10.1,10.1,0,0,0,3.848,2,17.418,17.418,0,0,0,5.994.74l.222-6.142c-2.146-.37-3.034-1.184-3.256-3.4V-25.6c0-8.436-3.7-12.21-12.728-12.21A75.034,75.034,0,0,0,396.2-35.89l.3,5.772c3.848-.3,10.286-.74,13.912-.74s5.328,1.258,5.328,5.254v2.664l-9.472.814c-7.918.666-12.21,3.33-12.21,11.174C394.05-3.256,397.75.814,405.076.814ZM406.7-5.772c-3.182,0-4.514-2.146-4.514-5.4,0-3.33,1.7-4.884,5.032-5.254l8.51-.74v9.694A32.115,32.115,0,0,1,406.7-5.772ZM450.216,0h8.066V-28.638a19.509,19.509,0,0,1,7.992-1.924c5.55,0,6.29,3.4,6.29,11.544V0h8.066V-19.166a76.18,76.18,0,0,0-.518-9.472,23.6,23.6,0,0,1,8.362-1.924c5.328,0,6.216,3.626,6.216,10.952V0h8.066V-19.832c0-12.58-2.738-17.982-12.8-17.982-4.366,0-9.768,2.072-12.728,3.626-2.072-2.516-4.884-3.626-9.4-3.626-3.182,0-7.252,1.776-9.546,3.108V-37h-8.066Zm70.67.814A32.138,32.138,0,0,0,532.8-1.924a10.1,10.1,0,0,0,3.848,2,17.417,17.417,0,0,0,5.994.74l.222-6.142c-2.146-.37-3.034-1.184-3.256-3.4V-25.6c0-8.436-3.7-12.21-12.728-12.21a75.034,75.034,0,0,0-14.874,1.924l.3,5.772c3.848-.3,10.286-.74,13.912-.74s5.328,1.258,5.328,5.254v2.664l-9.472.814c-7.918.666-12.21,3.33-12.21,11.174C509.86-3.256,513.56.814,520.886.814Zm1.628-6.586c-3.182,0-4.514-2.146-4.514-5.4,0-3.33,1.7-4.884,5.032-5.254l8.51-.74v9.694A32.115,32.115,0,0,1,522.514-5.772ZM549.746,0h8.066V-28.638a21.11,21.11,0,0,1,8.362-1.924c5.624,0,6.512,3.626,6.512,10.952V0h8.066V-19.832c0-12.136-2.516-17.982-12.8-17.982-3.478,0-7.844,1.776-10.138,3.108V-37h-8.066Zm54.02.814a87.617,87.617,0,0,0,15.022-1.7l-.148-6.068c-3.33.3-9.4.666-13.69.666-6.142,0-8.362-2.886-8.362-8.806h22.866l.518-5.772c0-11.544-5.18-16.946-15.54-16.946-10.212,0-16.058,6.142-16.058,19.684C588.374-5.106,592.666.814,603.766.814Zm-7.252-22.126c.074-7.03,2.442-9.842,7.918-9.842,5.4,0,7.548,2.516,7.548,9.842ZM627.742,0h8.066V-25.826a61.99,61.99,0,0,1,12.506-3.848v-8.14a41.861,41.861,0,0,0-12.506,5.18V-37h-8.066Zm35.372.814a32.138,32.138,0,0,0,11.914-2.738,10.1,10.1,0,0,0,3.848,2,17.417,17.417,0,0,0,5.994.74l.222-6.142c-2.146-.37-3.034-1.184-3.256-3.4V-25.6c0-8.436-3.7-12.21-12.728-12.21a75.034,75.034,0,0,0-14.874,1.924l.3,5.772c3.848-.3,10.286-.74,13.912-.74S673.77-29.6,673.77-25.6v2.664l-9.472.814c-7.918.666-12.21,3.33-12.21,11.174C652.088-3.256,655.788.814,663.114.814Zm1.628-6.586c-3.182,0-4.514-2.146-4.514-5.4,0-3.33,1.7-4.884,5.032-5.254l8.51-.74v9.694A32.115,32.115,0,0,1,664.742-5.772ZM17.168,74.814a25.457,25.457,0,0,0,9.916-2.738V74h7.992V21.608H27.01v15.54a61.241,61.241,0,0,0-8.436-.962c-10.582,0-15.392,5.994-15.392,19.388C3.182,69.782,7.622,74.814,17.168,74.814Zm1.258-7.252c-4.514,0-7.03-2.59-7.03-11.988,0-8.436,2.294-12.358,7.77-12.358a57.777,57.777,0,0,1,7.844.74v21.83A26.54,26.54,0,0,1,18.426,67.562ZM58.46,74.814a87.618,87.618,0,0,0,15.022-1.7l-.148-6.068c-3.33.3-9.4.666-13.69.666-6.142,0-8.362-2.886-8.362-8.806H74.148l.518-5.772c0-11.544-5.18-16.946-15.54-16.946-10.212,0-16.058,6.142-16.058,19.684C43.068,68.894,47.36,74.814,58.46,74.814ZM51.208,52.688c.074-7.03,2.442-9.842,7.918-9.842,5.4,0,7.548,2.516,7.548,9.842Zm62.752,38.48c9.916,0,17.094-3.4,17.094-12.136,0-8.51-3.626-10.952-15.318-11.026-7.178-.074-7.918-.518-7.918-2.886a13.9,13.9,0,0,1,.962-3.478,24.2,24.2,0,0,0,3.256.3c9.916,0,15.1-2.738,15.1-12.8a9.235,9.235,0,0,0-2-5.994l6.216.3V36.926l-11.544.3a36.754,36.754,0,0,0-7.548-.962c-8.51,0-14.8,3.552-14.8,12.876,0,6.66,2.516,9.472,5.328,11.1-1.184,1.85-2.738,4.662-2.738,5.92a6.446,6.446,0,0,0,2.516,5.4c-3.774,2.886-5.624,5.18-5.624,8.954C96.94,88.948,102.786,91.168,113.96,91.168Zm-1.7-35.446c-4.736,0-6.734-2.072-6.734-6.586,0-4.44,2-6.512,6.734-6.512,4.958,0,6.882,2.072,6.882,6.512C119.14,53.65,117.216,55.722,112.258,55.722Zm1.776,28.786c-6.66,0-9.1-1.406-9.1-4.736,0-2.294.888-3.552,2.886-5.254,2.146.222,5.55.444,7.252.444,5.994.074,7.844.518,7.844,4.514C122.914,83.028,119.954,84.508,114.034,84.508Zm38.332-9.694c12.728,0,16.5-7.252,16.5-19.536,0-11.988-4.07-19.092-16.5-19.092-12.358,0-16.5,7.1-16.5,19.092C135.864,67.562,139.712,74.814,152.366,74.814Zm0-6.882c-6.808,0-8.288-4.07-8.288-12.654,0-8.51,1.85-12.21,8.288-12.21,6.512,0,8.288,3.7,8.288,12.21C160.654,63.862,159.248,67.932,152.366,67.932ZM190.4,74.814c13.246,0,18.056-4.44,18.056-19.832,0-13.838-4.292-18.8-14.356-18.8a26.956,26.956,0,0,0-9.176,2.22v-16.8H176.86V73.926C181,74.3,187.59,74.814,190.4,74.814Zm0-7.252c-1.11,0-3.7-.148-5.476-.3V44.844a31.552,31.552,0,0,1,8.214-1.406c4.958,0,7.1,3.182,7.1,11.544C200.244,63.936,198.616,67.562,190.4,67.562Zm39.738,7.252a87.618,87.618,0,0,0,15.022-1.7l-.148-6.068c-3.33.3-9.4.666-13.69.666-6.142,0-8.362-2.886-8.362-8.806h22.866l.518-5.772c0-11.544-5.18-16.946-15.54-16.946-10.212,0-16.058,6.142-16.058,19.684C214.748,68.894,219.04,74.814,230.14,74.814Zm-7.252-22.126c.074-7.03,2.442-9.842,7.918-9.842,5.4,0,7.548,2.516,7.548,9.842ZM254.116,74h8.066V48.174a61.99,61.99,0,0,1,12.506-3.848v-8.14a41.86,41.86,0,0,0-12.506,5.18V37h-8.066Zm26.714,0H288.9V45.362a21.11,21.11,0,0,1,8.362-1.924c5.624,0,6.512,3.626,6.512,10.952V74h8.066V54.168c0-12.136-2.516-17.982-12.8-17.982-3.478,0-7.844,1.776-10.138,3.108V37H280.83Zm49.062.814a32.138,32.138,0,0,0,11.914-2.738,10.1,10.1,0,0,0,3.848,2,17.418,17.418,0,0,0,5.994.74l.222-6.142c-2.146-.37-3.034-1.184-3.256-3.4V48.4c0-8.436-3.7-12.21-12.728-12.21a75.034,75.034,0,0,0-14.874,1.924l.3,5.772c3.848-.3,10.286-.74,13.912-.74s5.328,1.258,5.328,5.254V51.06l-9.472.814c-7.918.666-12.21,3.33-12.21,11.174C318.866,70.744,322.566,74.814,329.892,74.814Zm1.628-6.586c-3.182,0-4.514-2.146-4.514-5.4,0-3.33,1.7-4.884,5.032-5.254l8.51-.74v9.694A32.115,32.115,0,0,1,331.52,68.228ZM358.752,74h8.066V48.174a61.99,61.99,0,0,1,12.506-3.848v-8.14a41.86,41.86,0,0,0-12.506,5.18V37h-8.066Zm55.648.814a46.843,46.843,0,0,0,7.548-.962l-.37-6.512c-1.776.148-4.588.3-6.068.3-3.848,0-4-1.924-4-7.474V43.882h10.138V37H411.514V26.27h-8.066V37h-4.736v6.882h4.736V61.05C403.448,71.706,406.038,74.814,414.4,74.814Zm25.456,0c4.218,0,7.178-1.184,10.8-3.108V74h7.992V37h-8.066V65.638a19.976,19.976,0,0,1-8.436,1.924c-5.624,0-6.216-3.108-6.216-11.174V37h-8.066V56.314C427.868,68.6,430.088,74.814,439.856,74.814Zm58.608,0a78.592,78.592,0,0,0,11.248-1.332l-.222-6.512c-2.516.222-6.586.592-8.658.592-7.992,0-9.472-3.108-9.472-12.58,0-8.436,1.7-11.544,9.4-11.544,2.072,0,6.142.37,8.658.592l.3-6.438a74.67,74.67,0,0,0-11.1-1.406c-11.026,0-15.466,5.55-15.466,18.8C483.146,69.19,487.068,74.814,498.464,74.814Zm19.018-44.03h8.066V22.2h-8.066Zm0,43.216h8.066V37h-8.066Zm29.526.814c4.218,0,7.178-1.184,10.8-3.108V74H565.8V37h-8.066V65.638a19.976,19.976,0,0,1-8.436,1.924c-5.624,0-6.216-3.108-6.216-11.174V37H535.02V56.314C535.02,68.6,537.24,74.814,547.008,74.814Zm40.922,0a25.457,25.457,0,0,0,9.916-2.738V74h7.992V21.608h-8.066v15.54a61.24,61.24,0,0,0-8.436-.962c-10.582,0-15.392,5.994-15.392,19.388C573.944,69.782,578.384,74.814,587.93,74.814Zm1.258-7.252c-4.514,0-7.03-2.59-7.03-11.988,0-8.436,2.294-12.358,7.77-12.358a57.777,57.777,0,0,1,7.844.74v21.83A26.54,26.54,0,0,1,589.188,67.562Zm35.076,7.252a32.138,32.138,0,0,0,11.914-2.738,10.1,10.1,0,0,0,3.848,2,17.417,17.417,0,0,0,5.994.74l.222-6.142c-2.146-.37-3.034-1.184-3.256-3.4V48.4c0-8.436-3.7-12.21-12.728-12.21a75.034,75.034,0,0,0-14.874,1.924l.3,5.772c3.848-.3,10.286-.74,13.912-.74S634.92,44.4,634.92,48.4V51.06l-9.472.814c-7.918.666-12.21,3.33-12.21,11.174C613.238,70.744,616.938,74.814,624.264,74.814Zm1.628-6.586c-3.182,0-4.514-2.146-4.514-5.4,0-3.33,1.7-4.884,5.032-5.254l8.51-.74v9.694A32.115,32.115,0,0,1,625.892,68.228Zm39.516,6.586a25.457,25.457,0,0,0,9.916-2.738V74h7.992V21.608H675.25v15.54a61.24,61.24,0,0,0-8.436-.962c-10.582,0-15.392,5.994-15.392,19.388C651.422,69.782,655.862,74.814,665.408,74.814Zm1.258-7.252c-4.514,0-7.03-2.59-7.03-11.988,0-8.436,2.294-12.358,7.77-12.358a57.777,57.777,0,0,1,7.844.74v21.83A26.54,26.54,0,0,1,666.666,67.562Z" transform="translate(28.15 83.21)"/>
    </g>
  </g>
</svg>
