<svg xmlns="http://www.w3.org/2000/svg" width="275.856" height="114.104" viewBox="0 0 275.856 114.104"><path d="M-2543.824,387.876c.306,1.625-.351,2.345-1.967,2.667-17.529,3.5-31.711,12.5-42.986,26.259-.778.949-1.356,2.275-3.1,1.273-1.82-1.046-1.347-2.414-.756-3.763,6.333-14.458,13.959-28.064,26.252-38.426a112.814,112.814,0,0,1,10.239-7.422,3.007,3.007,0,0,1,2.848.15A30.47,30.47,0,0,1-2543.824,387.876Z" transform="translate(2718.84 -359.817)" fill="#0e7473"/><path d="M-2549.835,440.609c1.289,12.6-2.582,22.555-12.148,30.1-8.6,6.786-21.7,8.515-30.847,4.042C-2582.9,457.979-2568.96,446.485-2549.835,440.609Z" transform="translate(2718.631 -405.495)" fill="#0c514e"/><path d="M-2606.855,548.2c5.444-3.5,9.514-3.167,13.847.5,3.378-1.032,6.274-2.5,9.25-2.692,4.854-.306,8.229,2.875,8.564,7.768.352,5.146.2,10.329.211,15.5a3.393,3.393,0,0,1-.506,2.218,8.681,8.681,0,0,1-3.545,2.392,2.809,2.809,0,0,1-3.4-2.428,33.87,33.87,0,0,1-.5-5.109c-.18-3.515-.2-7.039-.469-10.546a3.011,3.011,0,0,0-3.26-2.993c-1.959.007-3.391.981-3.651,2.965-.289,2.207-.265,4.454-.379,6.683-.145,2.828-.184,5.668-.471,8.482a3.256,3.256,0,0,1-3.564,3.038c-2.105.03-3.57-1.013-3.736-3.133-.281-3.593-.294-7.206-.467-10.809-.074-1.54.083-3.231-.515-4.562a5.091,5.091,0,0,0-3-2.565c-1.742-.431-3.172.689-3.625,2.516a18.06,18.06,0,0,0-.464,3.825c-.1,3.531.041,7.074-.2,10.594-.192,2.846-1.688,4.2-3.99,4.134-2.616-.074-3.719-1.8-3.775-4.065q-.234-9.557-.115-19.121c.021-1.874.346-3.915,2.536-4.675S-2608.236,546.349-2606.855,548.2Z" transform="translate(2732.391 -471.801)" fill="#0e7473"/><path d="M-2914.49,570.62c-8.353,7.4-17.227.336-18.58-7.162-1.621-8.982,2.658-16.444,10.454-17.907,2.777-.521,4.632-.014,8.253,2.285a19.046,19.046,0,0,1,1.463-1.307,3.533,3.533,0,0,1,5.74,1.9,11.328,11.328,0,0,1,.454,3.055c.014,6.55.16,13.108-.1,19.648-.481,12.087-13.187,18.459-23.488,11.907-2.172-1.381-3.053-3.6-2.18-5.476.843-1.813,2.594-2.2,5.4-1.287a43.429,43.429,0,0,0,4.7,1.335C-2917.494,578.616-2914.373,575.924-2914.49,570.62Zm.353-10.629c-.257-4.746-3.424-7.819-7.05-6.668-2.41.765-3.892,3.186-3.9,6.369-.008,3.219,1.385,5.736,3.716,6.5a4.389,4.389,0,0,0,5.59-1.945A25.942,25.942,0,0,0-2914.137,559.991Z" transform="translate(2933.411 -471.555)" fill="#0e7473"/><path d="M-2603.168,401.114c-.416-1.321-1.219-2.65-1.189-3.961.306-13.4,4.565-25.672,11.339-37.079,2.535-4.27,5.733-8.147,8.6-12.22a5.056,5.056,0,0,1,5.044-2.282c5.468.447,12.686,3.158,15.363,6.166-18.751,11.674-30.705,28.651-38.176,49.1Z" transform="translate(2725.902 -345.544)" fill="#0e7473"/><path d="M-2620.149,369.125c-11.419,16.766-16.935,35.068-15.258,55.4-8.244-5.719-14.537-19.217-10.913-32.611C-2643.084,379.957-2631.772,369.924-2620.149,369.125Z" transform="translate(2753.025 -360.415)" fill="#0e7473"/><path d="M-2477.692,571.361c-9.216,6.978-18.409-1.2-19.028-9.61-.611-8.292,3.469-14.771,10.456-16.149,3.044-.6,5.116-.04,8.862,2.6a5.782,5.782,0,0,1,1.071-1.591c2.5-1.91,5.7-.8,6.06,2.3.408,3.5.359,7.049.426,10.579.055,2.932.094,5.872-.056,8.8-.1,2.036-.171,4.294-2.576,5.2C-2474.785,574.346-2476.454,573.229-2477.692,571.361Zm-10.716-11.257a15.58,15.58,0,0,0,.577,2.763,4.611,4.611,0,0,0,4.7,3.306,4.52,4.52,0,0,0,4.466-3.255,10.944,10.944,0,0,0,.6-3.775c-.051-3.431-2.334-6.01-5.134-6.017C-2486.112,553.118-2488.336,555.771-2488.408,560.1Z" transform="translate(2658.061 -471.567)" fill="#0e7473"/><path d="M-2750.864,548.138c1.5-1.883,3.219-2.928,5.477-1.941,2.2.962,2.326,3.064,2.349,5.049.063,5.681.037,11.363.012,17.044a4.554,4.554,0,0,1-.355,2.264c-.717,1.154-1.619,2.905-2.6,3.018-1.6.184-3.337-.748-5.781-1.419a8.61,8.61,0,0,1-8.871,1.517,15.535,15.535,0,0,1-6.366-4.5c-4.658-5.808-3.791-15.236,1.463-20.321C-2761.347,544.793-2755.824,544.462-2750.864,548.138Zm-.064,11.792c-.286-4.614-3-7.335-6.615-6.442-2.464.609-4,2.948-4.054,6.18-.054,3.151,1.45,5.786,3.76,6.427,2.331.647,4.345.055,5.54-2.1A22.792,22.792,0,0,0-2750.928,559.93Z" transform="translate(2830.384 -471.692)" fill="#0e7473"/><path d="M-2328.115,562.007c.7,3.337,2.578,4.885,6,4.5a28.335,28.335,0,0,0,6.378-1.888c1.74-.634,3.421-1.048,4.639.705,1.264,1.819.445,3.478-.908,4.871-3.72,3.832-11.909,4.874-17.189,2.236-5.422-2.708-8.5-9.109-7.432-15.473A13.815,13.815,0,0,1-2324.9,545.2a13.258,13.258,0,0,1,15.02,12.479c.144,2.928-.727,3.974-3.651,4.032-4.48.09-8.963.056-13.444.088A7.456,7.456,0,0,0-2328.115,562.007Zm10.12-5.61c-.716-3.229-2.358-4.663-5.094-4.653-2.806.01-4.556,1.586-5.113,4.653Z" transform="translate(2557.193 -471.37)" fill="#0e7473"/><path d="M-2246.524,547.98c2.056-.749,3.759-1.7,5.562-1.967,7.028-1.026,11.37,2.552,11.682,9.637.193,4.388.074,8.791.031,13.187a10.914,10.914,0,0,1-.5,2.522,3.353,3.353,0,0,1-3.613,2.672,3.292,3.292,0,0,1-3.562-2.748,42.245,42.245,0,0,1-.5-6.147c-.091-2.669.052-5.35-.108-8.013-.177-2.948-1.562-4.3-4.072-4.344-2.61-.043-4.013,1.14-4.234,4.136-.253,3.43-.14,6.886-.25,10.328a19.126,19.126,0,0,1-.437,4.094,3.384,3.384,0,0,1-3.618,2.7,3.378,3.378,0,0,1-3.584-2.712,6.5,6.5,0,0,1-.333-1.506c-.022-6.55-.15-13.1.1-19.645a5.59,5.59,0,0,1,2.42-3.819c1.529-.96,3.34-.3,4.589,1.217A3.448,3.448,0,0,0-2246.524,547.98Z" transform="translate(2505.029 -471.856)" fill="#0e7473"/><path d="M-2676.379,562.108c1.552-4.016,2.862-7.433,4.2-10.84a32.241,32.241,0,0,1,1.439-3.313,3.012,3.012,0,0,1,4.156-1.544,6.383,6.383,0,0,1,2.59,3.356c.323.888-.179,2.207-.6,3.213-4.047,9.7-8.094,19.405-12.315,29.032a6.017,6.017,0,0,1-3.232,3.217c-2.936.791-5.123-2.182-4.04-5.35.776-2.271,2.074-4.362,2.864-6.628a5.485,5.485,0,0,0,.067-3.548c-2.188-5.433-4.6-10.776-6.882-16.17a9.671,9.671,0,0,1-.811-2.958c-.153-2,.626-3.622,2.658-4.221a3.48,3.48,0,0,1,4.624,2.2c1.6,4,3.119,8.028,4.673,12.045C-2676.882,560.878-2676.766,561.153-2676.379,562.108Z" transform="translate(2779.256 -471.997)" fill="#0e7473"/><path d="M-2847.226,557.636c.2-2.739.306-5.491.637-8.215.256-2.108,1.649-3.116,3.782-3.088a3.192,3.192,0,0,1,3.51,3.072c.285,3.422.317,6.864.453,10.3a35.5,35.5,0,0,0,.181,4.127,3.561,3.561,0,0,0,3.886,3.338c2.242,0,3.76-.992,3.907-3.233.249-3.776.206-7.57.343-11.355a19.227,19.227,0,0,1,.433-3.567,3.312,3.312,0,0,1,3.589-2.695c1.929-.023,3.519.977,3.546,2.712.1,6.256.1,12.538-.4,18.766-.24,2.957-2.694,4.938-5.517,5.995a16,16,0,0,1-12.113-.154c-4.366-1.835-5.758-5.672-6.02-10.039-.118-1.977-.02-3.966-.02-5.949Z" transform="translate(2879.061 -472.158)" fill="#0e7473"/><path d="M-2369.97,534.861c0-4.735-.075-9.47.026-14.2.081-3.8,1.421-5.474,4.061-5.455a3.221,3.221,0,0,1,3.533,2.705,21.671,21.671,0,0,1,.495,4.076q.063,13.17,0,26.34a16.818,16.818,0,0,1-.512,3.812,3.238,3.238,0,0,1-3.406,2.58,3.361,3.361,0,0,1-3.666-2.611,15.824,15.824,0,0,1-.505-3.818C-2370.008,543.814-2369.972,539.338-2369.97,534.861Z" transform="translate(2578.107 -452.536)" fill="#0e7473"/><path d="M-2400.024,535.155c0,4.313.027,8.627-.017,12.94a18.855,18.855,0,0,1-.38,3.586,3.425,3.425,0,0,1-3.367,3.019,3.368,3.368,0,0,1-3.854-2.689,15.287,15.287,0,0,1-.493-3.558q-.059-13.458,0-26.916a18.49,18.49,0,0,1,.453-3.569c.412-2.027,1.844-2.79,3.781-2.777a3.293,3.293,0,0,1,3.427,2.922,29.6,29.6,0,0,1,.433,5.135C-2399.984,527.217-2400.024,531.186-2400.024,535.155Z" transform="translate(2602.177 -452.528)" fill="#0e7473"/><path d="M-2294.045,504.148c1.046,9.463-6.952,15.759-15.865,12.535A26.525,26.525,0,0,1-2294.045,504.148Z" transform="translate(2540.215 -445.564)" fill="#0e7473"/></svg>