<svg xmlns="http://www.w3.org/2000/svg" width="272.884" height="113.798" viewBox="0 0 272.884 113.798"><path d="M-6661.147,434.788c-22.212-10.786-44.146-10.654-66.006.89,3.31-2.389,6.5-4.987,9.99-7.062,1.367-.812,3.447-.353,5.17-.66a24.4,24.4,0,0,0,3.448-1.135c-1.679-4.465-5.5-4.282-9.3.254.144-4.3,3.768-5.683,9.2-3.661a41.615,41.615,0,0,0,5.085-4.219,5.851,5.851,0,0,0,1-3.607q.123-15.682.029-31.365c-.019-2.581-.023-5.005,2.35-6.664,2.718-1.9,3.547-4.557,3.286-7.742-.054-.659.363-1.356,1.4-2.159.289.779.919,1.608.812,2.328-.6,4.04,1.879,6.449,4.376,8.929a3.54,3.54,0,0,1,1.167,2.089c.063,11.121.037,22.243.006,33.365a3.4,3.4,0,0,1-.361,1.087h-10.533l-.125,1.011,4.45,1.191-5.165,1.488c2.408,1.687,6.232.973,5.907,4.757.184-2.16.369-4.32.577-6.766,7.244,0,14.232-.078,21.212.12.7.02,1.849,1.661,1.938,2.627.261,2.84.093,5.719.093,8.582l.9.02c0-3.727.1-7.46-.121-11.174-.029-.486-1.674-1.191-2.61-1.259-7.19-.521-7.195-.479-7.189-7.721,0-3.337.049-6.674,0-10.01-.024-1.812.7-2.722,2.57-2.559a6,6,0,0,0,.667,0c10.2-.258,10.211-.258,10.229,9.963.013,7.118.179,14.243-.075,21.352-.115,3.216.759,5.334,3.768,6.528A11.1,11.1,0,0,1-6661.147,434.788Zm-29.764-53.49c-3.637.012-6.477-.85-9.607.855C-6697.172,383.99-6693.258,383.81-6690.912,381.3Zm-9.135,3.369q.04,1.022.079,2.044c2.437,0,4.875.043,7.308-.048.355-.013.812-.617.975-1.042.079-.2-.408-.906-.651-.912C-6694.905,384.64-6697.477,384.667-6700.047,384.667Zm8.417,4.964c-2.844-2.31-6.724-2.085-8.716,0Zm-8.363,2.223,0,1.114h8.355l.008-1.114Zm8.627,4.465c-1.956-2.121-6.034-2.26-9.508,0Zm-12.121,23.527-4.45,6.233C-6702.334,425.981-6701.739,425.158-6703.487,419.846Zm29.255,7.684c1.171-4.742.929-5.709-1.378-5.768q-7.5-.192-15,.047c-.69.021-1.346,1.132-2.442,2.12a32.673,32.673,0,0,1,5-1.193c2.771-.151,5.562.061,8.334-.075C-6676.425,422.5-6673.359,422.4-6674.232,427.53Zm-17.441-27.794-.081-1.3c-2.788-.391-5.579-.858-8.287.263q.019.518.04,1.036Zm-.13,13.391c-.008-.354-.018-.708-.025-1.062h-8.091l-.019,1.062Zm-8.047-4.369-.1,1.054h8.165l.015-1.054Zm8.051-2.37q-.019-.463-.039-.927h-8.12q.02.632.041,1.263C-6697.2,406.921-6694.474,407.507-6691.8,406.388Zm0-3.337-.016-1.02h-8.142q.007.51.015,1.02Z" transform="translate(6829.929 -367.657)" fill="#0e7473"/><path d="M-6444.744,648.064H-6461.9l7.861-13.476c-5.191-.941-7.225.271-7.263,4.489-.035,3.942-1.066,7.09-4.97,8.543a8.351,8.351,0,0,1-9.94-2.548c-.118-.136-.4-.13-.835-.257-.584,3.51-3.132,3.562-5.968,3.46-4.1-.148-8.218-.038-11.764-.038-.68-1.972-.986-3.754-1.924-5.092-.332-.474-2.843-.279-3.238.333-.731,1.135-.638,2.8-.95,4.607-4.045.847-8.128.415-10.708-4.586a23.967,23.967,0,0,0-4.725-5.7c-.012,3.448-1.823,7.039,1.7,10.235h-16.762c2.246-4.875,1.383-9.79.522-15.15,4.688,0,9.732-.09,14.766.087.864.03,1.835,1.074,2.5,1.865,2.054,2.439,3.984,4.983,6.295,7.338.295-3.116,1.717-6.281-1.6-9.085h4.188c-.3,4.51-.6,9.071-.9,13.633l1.2.476a14.57,14.57,0,0,0,2.048-2.815c1.318-3.181,2.379-6.469,3.706-9.647a3.318,3.318,0,0,1,1.97-1.705c.375-.1,1.327.967,1.6,1.668,1.289,3.314,2.345,6.721,3.69,10.01.345.842,1.442,1.376,2.193,2.052.373-.834,1.1-1.687,1.058-2.5-.185-3.672.917-7.49-.967-11.2h4.7c0,4.113-.158,8.141.072,12.147.1,1.781,3.177,2.409,4.522.874a9.49,9.49,0,0,0,2.365-4.282c1.566-9.181,7.546-11.692,15.027-6.153,3.337-5.315,8.385-1.727,13.494-3.117l-7.681,13.8c3.514,1.345,5.857.279,7.776-3.369.113,1.853.175,2.858.237,3.862l.681.238a23.923,23.923,0,0,0,1.854-3.177c1.237-3.1,2.278-6.27,3.541-9.354.274-.669,1.162-1.513,1.755-1.5s1.437.88,1.71,1.558c1.039,2.575,1.818,5.254,2.838,7.837.748,1.894,1.721,3.7,2.639,5.641h-5.19c-.626-1.817-.931-3.59-1.864-4.922-.327-.467-2.852-.253-3.227.356C-6444.585,644.651-6444.47,646.316-6444.744,648.064Zm-76.748-5.721-4.716-.841c-.69,4.845.6,6.314,3.973,5.241,3.995-1.271,5.77-9.346,2.593-12.51l-.854,1.443-5.149-1.386c-.4,1.8-.8,3.59-1.4,6.284l5.551-1.351Zm56.324-1.617a24.11,24.11,0,0,0-1.814-5.12c-1.423-2.353-4.357-2.052-5.615.328-1.313,2.485-.816,7.424.957,9.5,1.936,2.265,4.674,1.837,5.657-.943A33.085,33.085,0,0,0-6465.168,640.725Z" transform="translate(6706.476 -534.691)" fill="#0e7473"/><path d="M-6702.167,642.046l5.082,5.375c1.1-1.939,2.3-3.826,3.253-5.832.854-1.8,1.313-3.791,2.181-5.583a12.357,12.357,0,0,1,2.156-2.488,12.8,12.8,0,0,1,2.024,2.661c1.013,2.463,1.727,5.047,2.688,7.533.622,1.61,1.467,3.133,2.288,4.852h-4.921c-.6-1.743-.853-3.514-1.8-4.739-.433-.557-2.992-.457-3.3.082-.738,1.289-.715,3.015-1.031,4.745-5.188,1.048-9.991.242-11.842-6.86l-1.221.933c.21,1.9.421,3.79.651,5.864h-17.643c2.691-4.341,1.018-8.979,1.146-13.528l-.938-.316a22.337,22.337,0,0,0-1.977,3.087c-1.288,2.953-2.365,6-3.671,8.943-.348.783-1.221,1.333-1.853,1.99a9.422,9.422,0,0,1-1.784-2.1c-1.148-2.648-2.042-5.408-3.2-8.054-.726-1.666-1.741-3.207-2.709-4.954h5.313c1.09,3.274,2.12,6.371,3.248,9.763,3.092-3.661,3.971-7.33,2.47-9.891,8.205,0,16.293-.106,24.371.113,1.227.033,3.276,1.445,3.426,2.445.252,1.7-.708,3.571-1.158,5.372Zm-10.469-5.548-5.188-2.084-.909.8q.346,2.646.694,5.292l4.423-.626V643l-5.725-1.079c.82,2.45,1.249,5.105,1.8,5.13,2.041.093,4.121-.679,6.5-1.194l.3.931c.217-4.079,1.237-8.152-.41-12.982Zm10.782,1.74-3.471-3.416c-.44.845-1.294,1.727-1.223,2.528a12.455,12.455,0,0,0,1.349,3.429Z" transform="translate(6837.141 -535.309)" fill="#0e7473"/><path d="M-6873.072,641.588l5.047,5.989,1.114-.567c.357-4.551,1.209-9.117-.815-13.743h5.605c-1.127,5.1-1.648,10.044.428,15.192-2.85,0-6.181.749-8.9-.219-2.506-.892-4.355-3.628-7.066-6.067.267,2.173.5,4.057.75,6.111h-10.367c-.574-1.766-.795-3.524-1.714-4.763-.4-.537-2.958-.423-3.277.126-.731,1.259-.688,2.967-1.008,4.772h-3.21c1.687-4.244,3.354-8.574,5.151-12.85a11.307,11.307,0,0,1,1.873-2.378,10.267,10.267,0,0,1,2.155,2.466c1.143,2.766,1.988,5.653,3.044,8.457a7.022,7.022,0,0,0,2.1,2.918c1.063-4.582,1.542-9.051.023-13.9a28.021,28.021,0,0,1,5.578.08c2.016.4,4.751.92,5.6,2.334.77,1.277-.578,3.831-.992,5.822Zm-5.38-3.975,2.5,2.832c.678-.86,2-1.814,1.886-2.558-.175-1.186-1.3-2.232-2.022-3.338Z" transform="translate(6936.716 -535.001)" fill="#0e7473"/><path d="M-7005.4,648.609a33.2,33.2,0,0,0,.094-14.957,69.637,69.637,0,0,1,8.084.067c3.039.344,4.67,3.545,2.682,5.566-2.469,2.51-1.012,4.037.435,5.831a13.428,13.428,0,0,1,2.7,4.024c-1.779-.585-3.857-.782-5.254-1.862-1.484-1.147-2.322-3.131-3.442-4.75l-.978.208c.214,1.9.429,3.805.663,5.873Zm3.618-10.837,2.164,3.057c.765-.882,2.266-1.9,2.131-2.615-.232-1.227-1.481-2.262-2.3-3.378Z" transform="translate(7005.398 -535.342)" fill="#0e7473"/><path d="M-6784.849,640.693a7.694,7.694,0,0,1-7.926,8.047c-4.856.084-8.141-3.03-8.143-7.718,0-4.443,3.508-7.691,8.3-7.683C-6788.059,633.349-6784.912,636.326-6784.849,640.693Zm-3.863.355a24.038,24.038,0,0,0-1.734-4.838,3.113,3.113,0,0,0-5.609.177c-1.34,2.446-1.019,7.465.915,9.426a4.7,4.7,0,0,0,3.4,1.359c.861-.107,1.764-1.437,2.267-2.419A15.309,15.309,0,0,0-6788.712,641.049Z" transform="translate(6876.447 -535.204)" fill="#0e7473"/><path d="M-6960.684,633.428c4.523-.019,7.7,2.947,7.785,7.271.094,4.707-3.353,8.1-8.179,8.059-4.661-.042-7.792-3.1-7.826-7.633C-6968.936,636.726-6965.435,633.448-6960.684,633.428Zm3.982,7.769a24.568,24.568,0,0,0-1.684-4.871,3.16,3.16,0,0,0-5.667-.007c-1.453,2.467-.945,7.731.945,9.808,1.995,2.192,4.7,1.662,5.652-1.167A32.531,32.531,0,0,0-6956.7,641.2Z" transform="translate(6982.383 -535.259)" fill="#0e7473"/><path d="M-6614.3,468.639a23.608,23.608,0,0,0,.02,3c.417,3.225-1.182,4.047-4.082,3.822-1.708-.133-2.753-.523-2.716-2.463.055-2.889.075-5.78,0-8.667-.071-2.57,1.638-2.433,3.364-2.43s3.485-.154,3.4,2.407c-.047,1.443-.008,2.889-.008,4.334Z" transform="translate(6763.042 -427.087)" fill="#0e7473"/><path d="M-6559.022,642.716c3.413-2.027,4.264-5.291,2.029-7.163-.573-.479-2.807-.024-2.808.014q-.045,5.773.241,11.545c.015.312.846.583.974,1.408h-5.749a33.683,33.683,0,0,0-.021-15.147c1.92,0,4.2-.026,6.47.006,4.028.055,5.769,1.575,5.619,4.855C-6552.42,641.581-6554.462,643.069-6559.022,642.716Z" transform="translate(6727.265 -535.22)" fill="#0e7473"/><path d="M-6611.2,411.8a34.843,34.843,0,0,1-4.837-.288c-1.731-.334-4.807,1.472-4.687-2.28.115-3.594,3.113-2.031,4.851-2.1a9.131,9.131,0,0,1,5.087,1.228c4.2,2.754,1.648,6.875,2.145,10.486l-11.465-.822-.055-.792,9.15-.4-.015-1.637-8.612-.479c2.715-1.7,6.087.013,8.607-1.739Q-6611.11,412.391-6611.2,411.8Z" transform="translate(6762.811 -392.376)" fill="#0e7473"/><path d="M-6923.652,644.109c1.165,1.11,1.962,2.341,3.074,2.785.9.358,2.176-.232,3.285-.4-.271-.981-.29-2.166-.876-2.892-.738-.913-2.247-1.25-2.871-2.2-.958-1.457-2.337-3.536-1.9-4.777.514-1.466,2.64-2.618,4.312-3.341,1.193-.516,2.789-.1,4.449-.1-.088,1.439-.146,2.395-.238,3.9-.663-.745-.922-1.316-1.3-1.408-1.313-.323-2.667-.481-4-.7.381,1.191.491,2.6,1.217,3.516.785,1,2.239,1.429,3.235,2.3a4.135,4.135,0,0,1-1.034,7.1C-6920.193,649.763-6923.491,648.221-6923.652,644.109Z" transform="translate(6953.847 -535.004)" fill="#0e7473"/><path d="M-6874.675,585.006c1.332-2.368,2.584-4.592,3.835-6.815l1.052.465V588.4h-2.006v-5.516l-.475-.158-3.062,5.955-3.341-7.059v6.818h-1.559c.232-3.207.458-6.348.713-9.872C-6876.39,579.241-6877.119,583.147-6874.675,585.006Z" transform="translate(6926.464 -500.425)" fill="#0e7473"/><path d="M-6792.679,589.151l-6-7.134v7.017h-1.553v-9.95c3.69.586,4.293,5,7.762,6.965-.136-2.434-.251-4.485-.382-6.81l1.432-.081c-.172,3.288-.336,6.441-.5,9.594Z" transform="translate(6876.016 -500.988)" fill="#0e7473"/><path d="M-6443.351,588.646l-5.415.891v-9.683c4.979-1.014,7.6-.176,8.534,2.678.911,2.8-.215,4.96-3.224,6.205,1.835-1.948,2.79-4.311,1.247-6.611-.837-1.248-2.782-1.754-4.227-2.594l-.89.8c0,1.523.122,3.058-.025,4.566C-6447.651,587.967-6446.5,589.326-6443.351,588.646Z" transform="translate(6654.371 -501.214)" fill="#0e7473"/><path d="M-6566.345,588.155l-5.491.932v-9.862c5.591-.792,8.11.072,8.679,3.151.507,2.745-.053,5.124-3.3,5.874,1.862-2.074,2.813-4.505,1.077-6.894-.835-1.149-2.713-1.54-4.932-2.7,0,2.714.134,4.249-.028,5.752C-6570.671,587.52-6569.428,588.774-6566.345,588.155Z" transform="translate(6731.982 -500.72)" fill="#0e7473"/><path d="M-6495.759,588.637l-5.415.891v-9.679c4.973-1.026,7.591-.191,8.516,2.674.91,2.818-.2,4.963-3.206,6.207,1.837-1.948,2.791-4.311,1.247-6.612-.838-1.248-2.783-1.753-4.229-2.593l-.89.8c0,1.523.122,3.058-.026,4.567C-6500.062,587.962-6498.9,589.317-6495.759,588.637Z" transform="translate(6687.421 -501.205)" fill="#0e7473"/><path d="M-6653.954,579.539c1.22,3.218,2.438,6.437,3.7,9.77h-2.368c0-.475.2-1.107-.038-1.428a25.893,25.893,0,0,0-2.176-2.4c-.687.834-1.4,1.644-2.048,2.509a18.83,18.83,0,0,0-1.053,1.766l-.728-.512,3.844-9.632Z" transform="translate(6786.738 -501.275)" fill="#0e7473"/><path d="M-6531.21,579.539c1.219,3.218,2.438,6.437,3.7,9.77h-2.369c0-.475.195-1.107-.038-1.428a25.893,25.893,0,0,0-2.176-2.4c-.687.834-1.4,1.644-2.048,2.509a18.935,18.935,0,0,0-1.053,1.766l-.728-.512,3.844-9.632Z" transform="translate(6709.332 -501.275)" fill="#0e7473"/><path d="M-6734.147,587.512a3.859,3.859,0,0,1-6,1c-1.369-1.067-2.574-3.657-2.238-5.224.331-1.547,2.517-3.033,4.223-3.826,1.09-.506,2.787.294,4.116,1.11-2.2-.6-4.671-1.772-6.049.767a6.647,6.647,0,0,0,.141,5.523C-6738.7,589.1-6736.339,589.1-6734.147,587.512Z" transform="translate(6839.568 -501.127)" fill="#0e7473"/><path d="M-6836.57,579.284h1.874c0,2.108-.3,4.157.117,6.046.237,1.066,1.66,1.87,2.549,2.792.844-.845,2.231-1.586,2.417-2.558a34.7,34.7,0,0,0,.114-6.324l1.307-.073c-.177,2.172-.331,4.212-.512,6.25-.221,2.494-1.5,3.884-4.1,3.773-2.359-.1-3.246-1.495-3.307-3.724C-6836.169,583.491-6836.4,581.52-6836.57,579.284Z" transform="translate(6898.931 -501.041)" fill="#0e7473"/><path d="M-6682.2,580.1v8.8l-1.852.1v-9.833c2.146.06,4.777-1.307,6.013,1.608.845,1.995-.066,3.653-2.468,4.235.439-1.17,1.243-2.278,1.1-3.255-.119-.842-1.308-1.533-2.024-2.291Z" transform="translate(6802.748 -500.866)" fill="#0e7473"/><path d="M-6410.356,579.825h4.989q.021.227.041.454h-3.544c-.059,1.265-.111,2.408-.172,3.721l3.323.278q-.01.322-.019.645h-3.281c.146,1.366-.072,3.2.455,3.444,1.068.5,2.54.15,3.975.808l-5.767.563Z" transform="translate(6630.149 -501.456)" fill="#0e7473"/><path d="M-6622.5,587.657V577.032c.842,1.085,1.533,1.573,1.59,2.126.144,1.416-.131,2.875.021,4.289.13,1.21.275,2.887,1.055,3.418.695.473,2.266-.34,3.32-.559C-6617.251,588.116-6617.251,588.116-6622.5,587.657Z" transform="translate(6763.93 -499.694)" fill="#0e7473"/><path d="M-6591.444,579.855c1.432.115,1.431.115,1.427,4.085a22.359,22.359,0,0,1-.573,5.915,5.365,5.365,0,0,1-.814-1.8C-6591.5,585.317-6591.444,582.578-6591.444,579.855Z" transform="translate(6744.357 -501.475)" fill="#0e7473"/><path d="M-6761.831,579.278l1.914-.1v9.859l-1.914.195Z" transform="translate(6851.798 -501.05)" fill="#0e7473"/><path d="M-6704.135,588.7h-1.711v-9.5l.487-.607c.408.6,1.14,1.185,1.169,1.8C-6704.061,583.114-6704.135,585.838-6704.135,588.7Z" transform="translate(6816.493 -500.68)" fill="#0e7473"/><path d="M-6485.946,626.413h6.469c-1.994,2.63-4.332.747-6.414.936Z" transform="translate(6677.818 -530.835)" fill="#0e7473"/></svg>