<svg xmlns="http://www.w3.org/2000/svg" width="360.005" height="109.646" viewBox="0 0 360.005 109.646"><g transform="translate(6088.934 1872.414)"><g transform="translate(-6088.934 -1872.414)"><path d="M-5024.532,405.606c3.318,4.431,7.992,4.226,11.117-1.527,1.467-2.7,3.551-3.3,5.7-1.393A100.848,100.848,0,0,1-4997.2,413.34c.683.819-.04,4.167-1.1,4.866-8.756,5.8-10.961,12.668-6.434,22.278,2.3,4.877,3.65,10.019,1.374,14.918-1.9,4.095-4.561,8.349-8.023,11.1-6.829,5.423-14.462,9.832-21.733,14.7-4.363,2.923-8.768,3.1-13.164.234-7.461-4.866-15.021-9.6-22.256-14.788-8.882-6.364-11.132-15.965-6.451-26.151,2.918-6.351,2.75-12.425-1.165-18.231a11.932,11.932,0,0,0-3.662-3.534c-5.558-3.283-5.722-4.055-.973-8.625,2.589-2.491,5.207-4.962,7.936-7.3,2.53-2.165,5.085-2.158,6.274,1.283,1.049,3.038,3.013,4.6,5.888,4.158,2.3-.355,4.437-1.8,6.645-2.766l-1.4-.985c-.481-2.319-1.938-5.009-1.228-6.873,1.234-3.234,3.456-6.372,8.053-5.522,4.674.864,6.049-1.5,5.632-5.847a30.726,30.726,0,0,1,.155-8.87c.287-1.424,2.352-3.577,3.553-3.539,5.034.161,10.034,1.352,15.069,1.53,3.815.135,5.25,1.38,5.176,5.257-.221,11.48.886,9.97-10.053,10.089a15.966,15.966,0,0,0-6.647,1.013,12.288,12.288,0,0,0,3.574.338c4.94-1.011,7.814,2.158,9.629,5.625C-5021.711,399.248-5023.575,402.2-5024.532,405.606Zm-17,37.3c-.044,1.858-.2,3.723-.068,5.568a2.558,2.558,0,0,0,1.307,1.639c.32.174,1.213-.238,1.545-.636,1.551-1.863.131-5.751-2.458-6.916,2.693-2.315,3.517-.381,3.984,1.862.283,1.357,0,2.843.358,4.17a2.623,2.623,0,0,0,1.836,1.6,2.644,2.644,0,0,0,2.052-1.309c2.085-4.57-.244-8.273-5.123-8.331q-1.637-.019-3.273,0c-5.659.05-7.177,1.9-5.809,7.471.219.891,1.486,1.523,2.268,2.275a9.9,9.9,0,0,0,1.824-2.257A53.227,53.227,0,0,0-5041.532,442.9Zm14.653,15.233c.072-2.5-1.032-3.627-3.632-3.586-6.36.1-12.723-.022-19.082.1-1.08.021-2.146.808-3.218,1.241l.268,1.781,25.623.505-3.1,1.738c5.771,3.331,11.138,1.045,16.524,0-5.909,4.841-12.158,3.717-18.413.925a18.093,18.093,0,0,0-15.763-.043c-6.947,3.3-13.562,2.986-20.107-.968a42.839,42.839,0,0,0-4.207-1.977,4.417,4.417,0,0,0,.867,3.142c5.589,7.235,16.053,8.8,24.5,3.683,5.359-3.242,8.4-3.233,12.186.037-3.19.047-6.569-.561-9.528.29-4.8,1.38-9.32,3.717-13.922,5.634,2.242,2.35,5.276,4.278,8.867,1.579,6.266-4.708,12.138-4.476,18.428-.005,3.434,2.441,6.535,1.048,8.351-1.306l-12.141-6.146c4.983.886,9.971,2.506,14.947,2.466a12.621,12.621,0,0,0,11.732-9.415l-3.648.883a38.063,38.063,0,0,0,3.153-2.467c1.247-1.192,2.354-2.53,3.521-3.805l-1.039-.842Zm8.421-30.947c-1.216-1.39-2.255-3.031-3.72-4.071-.807-.573-2.875-.661-3.441-.071-3.713,3.868-6.479,8.233-4.922,14.456,1.728-1.12,2.819-2.815,4.273-4.1,2.487-2.207,5.2-4.16,7.819-6.22a12.757,12.757,0,0,0,1.282,2.434c5.109,6.09,5.124,6.077.376,12.231.606,2.894,6.916,4.52,1.921,8.719-6,5.046-6.265-4.324-11.5-3.712-.619.9-3.093,3.2-2.656,4.117.859,1.8,3.247,3.777,5.164,3.956a21.76,21.76,0,0,0,9.031-1.559c3.314-1.192,6.363-3.122,10.56-5.258-5.687-10.634-8.519-21.788,2.9-31.982-3-2.672-5.34-4.988-7.95-6.939a4.211,4.211,0,0,0-3.6-.335c-7.924,3.64-10.457,2.93-15.268-4.654-1.452-2.289-7.592-2.986-9.158-1.039-2.535,3.152.019,12.172,3.918,13.451,2.753.9,3.14,1.991,1.251,4.324-.854,1.056-.821,2.829-1.19,4.277,1.474-.395,3.421-.329,4.335-1.269,3.14-3.227,5.917-6.806,9.274-10.772,2.842,3.152,4.692,4.87,6.107,6.893.9,1.29,2.06,3.562,1.527,4.463C-5013.37,426.631-5015.14,429.257-5018.458,427.188Zm-30.986,24.423c5.639,3.485,11.492.854,17.227,1.61l.044-1.644h-17.242c-.179-.693-.357-1.386-.53-2.076q-.005-5.67-.011-11.34c2.881-3.49.6-6.5-.639-9.818-2.5-6.666-4.913-7.513-9.761-2.733-2.017,1.988-3.5,3.109-6.127.529-2.717-2.665-1.968-4.309.389-6.467a78.58,78.58,0,0,0,5.568-6.417c3.81,4.27,6.707,7.758,9.9,10.943.878.874,2.66.84,4.027,1.223-.291-1.468-.676-2.925-.843-4.406a19.186,19.186,0,0,1-.076-3.942c6.336-.688,5.567-5.463,5.336-9.562-.1-1.8-1.112-4.763-2.264-5.062-2.795-.727-5.877-1.188-7.77,2.847-2.95,6.288-8.768,7.409-14.42,3.49-.725-.5-1.483-.956-2.265-1.456l-9.366,9.03c7.367,6.65,9.247,14.351,6.28,23.255-.879,2.637-2.874,5.631-2.222,7.829.566,1.907,4.215,2.825,6.386,4.345C-5061.622,456.128-5055.521,456.6-5049.444,451.611Zm20.077,23.584c-9.808-6.859-13.512-6.77-20.94.279C-5041.915,482.7-5037.767,482.693-5029.367,475.2Zm-20.4-15.393-24.558-8.555C-5073.861,458.528-5058.779,463.534-5049.771,459.8Zm18.808-10.581,10.146-11.588-3.634-3.379C-5031.69,439.931-5031.917,440.43-5030.964,449.221Zm-9.528-38.458.663.007v-33.56l-.663.022Zm3.394-24.222-.127,1.2h15.163q.007-.6.013-1.2Zm-10.153,45.975c-.254,5.289,3.566,4.267,6.046,3.97,2.986-.358,7.788,2.529,8.653-4.349-1.991,3.7-3.736,4.852-5.6.9-1.224-2.6-2.333-2.927-3.613-.067C-5043.63,437.145-5045.368,435.651-5047.252,432.516Zm10.006-33.616-.022,1.241h12.447q0-.621.005-1.241Zm-5.448,1.28-.1-1.235h-11.509l.028,1.235Zm-26.589,5.052-1.312-1.259-10.866,10.246,1.342,1.363Zm37.333,23.377,0-.861h-16.188v.861Zm21.561-23.769.578-.6,10.646,11.126-.646.665Zm-26.5-26.191.013,1.009h14.384l-.014-1.009Zm0,3.852.008,1.049h14.405l-.015-1.049Zm8.785,13.817.181-1.235h-9.446l0,1.235Zm-23.919-1.222.013,1.1h9.283l-.021-1.1Zm8.879,27.033-1.244.282c.343,1.077.578,3.024,1.047,3.082a25.693,25.693,0,0,0,6.866-.14c.354-.052.42-2.044.62-3.139C-5040.167,426.333-5040.171,426.333-5043.15,422.13Zm9.344-2.909,0-.849h-12.466l.009.849Z" transform="translate(5084.173 -373.848)" fill="#0e7473"/><path d="M-4807.047,452.521c2.051-4.024,3.394-7.372,5.393-10.267a6.834,6.834,0,0,1,4.78-2.488c.776-.035,2.347,2.566,2.4,4.014.253,7.014.254,14.047-.011,21.059-.051,1.356-1.488,3.542-2.635,3.8-2.919.661-3.036-1.877-3.067-3.95-.057-3.724-.016-7.45-.016-10.829-2.515,1.362-4.951,3.774-7.146,3.57-2.312-.214-4.392-2.927-6.831-4.739,0,3.95.235,8.257-.143,12.51-.114,1.28-1.928,2.409-2.962,3.608-.922-1.168-2.6-2.31-2.642-3.508q-.369-10.989,0-22c.043-1.286,1.545-3.441,2.564-3.559a5.726,5.726,0,0,1,4.634,1.879C-4810.662,444.692-4809.236,448.192-4807.047,452.521Z" transform="translate(4917.65 -415.391)" fill="#0e7473"/><path d="M-4666.743,450.531c0,4.647.2,9.308-.123,13.932-.1,1.409-1.661,2.715-2.553,4.068-1-1.417-2.791-2.8-2.854-4.258-.3-6.861-.275-13.749-.011-20.614.058-1.494,1.7-4.222,2.4-4.154,2.159.211,5.221.91,6.125,2.468,3.032,5.23,5.28,10.914,8.827,16.325,0-4.839-.211-9.692.123-14.508.107-1.55,1.651-3,2.538-4.5.849,1.529,2.365,3.031,2.431,4.593.276,6.551.3,13.129-.01,19.676-.082,1.707-1.361,4.259-2.735,4.807-2.586,1.032-5.07.066-6.371-3.036-2.106-5.026-4.5-9.932-6.774-14.888Z" transform="translate(4824.555 -415.121)" fill="#0e7473"/><path d="M-4355.286,552.715c0-3.282.147-6.573-.033-9.845-.2-3.706,1.547-5.142,5.03-4.981,3.113.144,6.313-.127,9.322.51,5.744,1.217,7.835,5.994,5.855,11.53a8.3,8.3,0,0,0,.184,5.33c2.091,5.427-.412,10.668-6.055,12.006-.3.072-.617.1-.925.15-11.672,2.027-13.382.628-13.382-10.949Q-4355.291,554.591-4355.286,552.715Zm8.447,10.458,2.2.225c1.44-1.588,3.764-3,4.124-4.8.63-3.147-2.215-3.532-4.689-3.667-2.582-.142-4.562.661-4,3.617C-4348.892,560.179-4347.657,561.637-4346.839,563.174Zm2.2-12.163c1.413-1.445,3.8-2.748,4.034-4.364.491-3.387-2.5-3.588-5.084-3.738-2.53-.147-3.625.878-3.658,3.5C-4349.38,549.209-4348.343,550.5-4344.637,551.011Z" transform="translate(4624.549 -477.289)" fill="#0e7473"/><path d="M-4533.77,567.226c-4.089,1.79-6.178.291-7.943-2.954-1.417-2.6-3.488-4.854-5.269-7.26a62.153,62.153,0,0,1-2.107,7.861c-.5,1.255-2.037,2.1-3.1,3.128-1.019-1.08-2.881-2.13-2.919-3.244-.26-7.483-.24-14.982-.022-22.468.035-1.2,1.5-3.34,2.338-3.359,4.462-.1,9.149-.42,13.354.768,5.224,1.477,7.126,9.1,3.238,13.214-3.079,3.259-2.095,5.525-.329,8.484A64.353,64.353,0,0,1-4533.77,567.226Zm-12.459-14.789,2.242.08c1.15-1.621,3.051-3.141,3.288-4.886.437-3.211-2.148-3.969-4.9-4.05-3.2-.095-3.651,2.111-3.18,4.334C-4548.436,549.529-4547.114,550.937-4546.229,552.437Z" transform="translate(4750.653 -477.879)" fill="#0e7473"/><path d="M-4168.854,453.347q0-5.4,0-10.793c0-2.64,1.153-4.117,3.947-4.049,3.1.076,6.311-.366,9.3.257,7.161,1.494,9.531,7.324,8.344,19.339-.6,6.049-4.56,9.693-10.936,10.06-10.7.614-10.7.614-10.7-10.119v-4.693Zm6.362.057c0,1.553-.093,3.114.023,4.658.152,2.009-.663,5.19,2.636,4.768,2.2-.282,5.585-2.022,5.969-3.681a26.613,26.613,0,0,0-.064-11.89c-.39-1.613-3.923-2.468-6.028-3.668-.845,1.562-2,3.042-2.443,4.711C-4162.818,449.9-4162.489,451.7-4162.492,453.4Z" transform="translate(4506.979 -414.57)" fill="#0e7473"/><path d="M-4489.94,552.053c0-3.751-.186-7.517.109-11.246a4.638,4.638,0,0,1,2.257-3.417c6.261-2.259,14.77.138,17.468,4.606,3.172,5.252,2.462,17.454-1.248,21.464-3.09,3.339-13.815,5.083-17.211,2.589a4.638,4.638,0,0,1-1.316-3.213C-4490.045,559.248-4489.943,555.648-4489.94,552.053Zm6-.2c0,1.717-.333,3.523.092,5.128.435,1.638,1.877,4.464,2.422,4.361,2.2-.417,5.8-1.487,6.031-2.818a36.273,36.273,0,0,0-.056-13.228c-.284-1.408-4.121-2.242-6.457-2.894-.258-.072-1.619,2.735-1.956,4.316A25.07,25.07,0,0,0-4483.942,551.856Z" transform="translate(4709.47 -476.438)" fill="#0e7473"/><path d="M-4820.094,551.15c.005-3.441-.223-6.9.115-10.311.139-1.405,1.2-3.493,2.34-3.9,10.838-3.924,19.262,2.1,19.313,13.59a41.346,41.346,0,0,1-.214,6.085c-.822,5.674-4.156,8.94-9.895,9.568-2.463.27-4.985-.039-7.479.013-2.947.061-4.284-1.278-4.208-4.251C-4820.03,558.345-4820.1,554.747-4820.094,551.15Zm5.959-.247c0,1.711-.332,3.509.088,5.109.469,1.785,1.275,4.442,2.547,4.861,2.813.925,6.012-.1,6.476-3.506a43.7,43.7,0,0,0-.014-11.957c-.479-3.343-3.669-4.446-6.5-3.544-1.253.4-1.983,3.085-2.524,4.862C-4814.449,548.007-4814.135,549.5-4814.135,550.9Z" transform="translate(4917.682 -475.939)" fill="#0e7473"/><path d="M-4297.229,451.72c.006-3.74-.139-7.488.092-11.213a4.4,4.4,0,0,1,1.838-3.268c9.863-4.349,19.26,1.872,19.357,12.661.006.623,0,1.247,0,1.87,0,12.223-6.157,17.206-18.3,14.476-1.221-.274-2.7-2.391-2.864-3.79A92.429,92.429,0,0,1-4297.229,451.72Zm5.97.1c0,1.56-.088,3.126.021,4.678.144,2.021-.658,5.2,2.694,4.723,2.212-.315,5.594-2.041,5.97-3.7a26.9,26.9,0,0,0-.089-11.968c-.39-1.6-3.978-2.426-6.111-3.6-.828,1.573-1.966,3.067-2.4,4.743C-4291.58,448.308-4291.257,450.106-4291.259,451.822Z" transform="translate(4587.965 -412.941)" fill="#0e7473"/><path d="M-4401.227,552.54c-.031,11.023-5.232,16.246-14.411,14.471-5.547-1.073-8.287-4.86-8.487-11.735-.337-11.575,1.618-16.085,7.633-17.612C-4406.831,535.211-4401.193,540.7-4401.227,552.54Zm-16.972-.342.161,0a40.78,40.78,0,0,0,.024,4.219c.325,3.113,1.649,5.377,5.208,5.469,3.383.088,4.912-2.04,5.121-4.937.245-3.392.517-6.988-.376-10.173-.488-1.744-3.327-3.839-5.155-3.887-1.528-.04-3.526,2.437-4.564,4.234C-4418.546,548.455-4418.1,550.482-4418.2,552.2Z" transform="translate(4667.952 -476.792)" fill="#0e7473"/><path d="M-4624.538,552.37a45.324,45.324,0,0,1,.024-4.68c.633-6.084,4.44-9.627,10.466-9.866,6.6-.261,10.974,2.671,11.853,8.737a43.874,43.874,0,0,1,.042,12.11c-.848,6.169-5.219,9.24-11.673,9-6.306-.238-10.123-3.811-10.705-10.147-.156-1.7-.023-3.433-.023-5.15Zm17,.346c-.273-2.015.022-4.366-.963-5.888-1.078-1.667-3.308-3.47-5.093-3.53-1.508-.052-4.177,2.116-4.438,3.628a32.322,32.322,0,0,0,.027,11.491c.306,1.567,3.1,3.509,4.9,3.655,1.481.12,3.671-1.859,4.6-3.457S-4607.817,554.728-4607.541,552.716Z" transform="translate(4794.358 -477.245)" fill="#0e7473"/><path d="M-4271.342,567.019c-4.237,1.565-6.377.707-6.938-3.008-.461-3.052-2.269-4-5.251-3.994-2.907.01-4.894.732-5.332,3.862-.514,3.667-2.552,4.687-6.694,3.321.858-3.727,1.639-7.453,2.583-11.137,1.2-4.69,2.185-9.486,3.987-13.944a7.018,7.018,0,0,1,5.172-3.563c1.838-.08,4.961,1.53,5.457,3.066C-4275.685,549.9-4273.653,558.386-4271.342,567.019Zm-11.733-22.289-.954-.095c-.6,2.332-1.347,4.641-1.742,7.007a3.2,3.2,0,0,0,.992,2.587,2.579,2.579,0,0,0,2.535-.091,3.518,3.518,0,0,0,.783-2.733C-4281.826,549.153-4282.516,546.952-4283.075,544.73Z" transform="translate(4586.851 -477.715)" fill="#0e7473"/><path d="M-4741.636,450.645c0-2.814-.31-5.679.146-8.416.193-1.161,1.993-2.055,3.063-3.071.889,1.022,2.48,2,2.544,3.073.3,4.986.1,10,.224,15,.086,3.331.773,6.345,5.13,6.352,4.466.008,4.877-3.007,4.876-6.388q0-7.035.034-14.07c.013-2.193.432-4.525,3.234-3.835a4.966,4.966,0,0,1,2.98,3.617,137.527,137.527,0,0,1-.479,17.771c-.559,5.378-4,7.818-9.808,7.988-6.771.2-10.171-1.781-11.329-7.307-.729-3.477-.651-7.123-.936-10.694Z" transform="translate(4868.362 -415.034)" fill="#0e7473"/><path d="M-4419.251,467.331c-4.091,1.4-6.288.875-6.914-2.686-.55-3.132-1.854-4.9-5.572-4.835-3.5.065-4.7,1.766-5.208,4.684-.662,3.835-2.917,4.32-6.9,2.773,2.384-8.728,4.584-17.455,7.3-26.02.422-1.332,3.241-2.718,4.879-2.635,1.841.093,4.744,1.456,5.207,2.9C-4423.755,449.943-4421.63,458.56-4419.251,467.331Zm-15.157-12.55c2.162-.329,4.747-.631,4.739-.735-.235-3.089-.728-6.157-1.179-9.23l-1.223.008C-4432.78,447.847-4433.489,450.868-4434.408,454.781Z" transform="translate(4680.365 -414.688)" fill="#0e7473"/><path d="M-4225.035,433.5c2.353,2.657,4.732,4.215,5.415,6.322,2.206,6.815,3.9,13.806,5.507,20.795.283,1.234-.812,2.785-1.27,4.189-1.467-.965-3.71-1.622-4.238-2.958-1.131-2.862-1.556-5.546-5.734-5.244-2.932.212-4.766.9-5.2,4.021-.146,1.056-.394,2.526-1.114,2.976a7.4,7.4,0,0,1-4.171.952c-.426-.026-1.246-2.038-1.026-2.928,1.865-7.57,3.7-15.165,6.092-22.574C-4230.157,437.142-4227.581,435.87-4225.035,433.5Zm.366,8.482-1.283-.254-2.2,9.55h5.5C-4223.388,447.882-4224.028,444.93-4224.668,441.978Z" transform="translate(4549.861 -411.463)" fill="#0e7473"/><path d="M-4492.771,452.432q0-3.512,0-7.025c.015-7.656.017-7.656,7.839-7.992,7.785-.334,12.589,3.047,12.916,9.089.3,5.5-3.1,9.633-9.088,9.647-4.929.012-6.218,1.909-5.736,6.37.218,2.029.569,4.722-2.838,4.779-3.779.064-2.994-2.846-3.063-5.034C-4492.847,458.991-4492.77,455.71-4492.771,452.432Zm14.4-6.815c-.924-.6-2.451-2.158-4.263-2.638-2.9-.768-4.279.838-4.151,3.886.1,2.326.083,4.484,3.3,4.441C-4480.708,451.269-4478.464,450.662-4478.369,445.617Z" transform="translate(4711.235 -413.921)" fill="#0e7473"/><path d="M-4754.173,552.027q0-1.17,0-2.339c.011-11.3,3.326-14.185,14.535-12.356,1.205.2,2.218,1.578,3.32,2.409-1.092.82-2.077,2-3.3,2.366-1.439.427-3.3-.312-4.594.286-1.518.7-2.623,2.3-3.907,3.507,1.245,1,2.354,2.358,3.772,2.884,1.38.511,3.194-.175,4.6.3,1.176.4,2.039,1.719,3.04,2.631-.947.808-1.782,2.039-2.866,2.324-1.613.424-3.557-.231-5.071.34-1.375.519-3.437,2.251-3.286,3.114a6.156,6.156,0,0,0,3.153,4.054c1.74.731,4.027.038,5.989.419.929.18,2.283,1.417,2.293,2.189a3.2,3.2,0,0,1-2.127,2.351c-3.4.236-7.123.853-10.146-.256-2.226-.817-4.183-3.863-5.092-6.343-.855-2.336-.184-5.231-.184-7.88Z" transform="translate(4876.145 -476.625)" fill="#0e7473"/><path d="M-4564.058,468.843c-7.931-1.087-12.053-4.963-12.368-12.151-.109-2.494-.1-5-.01-7.493.4-11.052,9.2-12.561,16.541-10.737a3.321,3.321,0,0,1,1.816,2.657c-.045.735-1.456,1.646-2.434,1.988a11.213,11.213,0,0,1-3.252.066c-4.767.115-6.394,1.66-6.632,6.495a62.982,62.982,0,0,0,.033,7.023c.241,3.825,2.087,5.912,6.217,6.075,2.127.084,5.821-1.819,5.9,2.055C-4558.218,466.12-4562.011,467.5-4564.058,468.843Z" transform="translate(4764.024 -414.182)" fill="#0e7473"/><path d="M-4678.177,551.81c0-1.56-.088-3.125.015-4.678a11.616,11.616,0,0,1,16.4-9.858c.785.366,1.771,1.755,1.6,2.368a4.308,4.308,0,0,1-2.313,2.176c-.774.358-1.839.061-2.774.1-1.086.051-2.346-.175-3.228.291-6.134,3.249-3.323,9.037-3.571,13.833-.18,3.487,2.1,5.367,5.691,5.353a2.83,2.83,0,0,1,.931.024c1.809.659,5.026,1.159,5.152,2.075.5,3.646-2.862,2.874-4.944,3.064C-4674.409,567.4-4678.232,563-4678.177,551.81Z" transform="translate(4828.164 -476.229)" fill="#0e7473"/><path d="M-4375.066,451.188a61.7,61.7,0,0,1,.136-8.849c.179-1.223,1.852-2.229,2.845-3.334,1.119,1.132,3.12,2.2,3.205,3.406a154.759,154.759,0,0,1,.168,15.859c-.118,3.731,1.155,5.633,5.1,5.2a5.821,5.821,0,0,1,2.77.12,13.07,13.07,0,0,1,2.65,2.008c-.824.916-1.577,2.546-2.484,2.637-9.461.945-14.685.631-14.44-10.982.042-2.022.006-4.046.006-6.069Z" transform="translate(4637.052 -414.938)" fill="#0e7473"/><path d="M-4601.205,453.3a88.827,88.827,0,0,1,.148-10.7c.158-1.291,2-2.377,3.079-3.556,1.035,1.22,2.917,2.408,2.965,3.667.282,7.292.156,14.6.114,21.9-.013,2.244-.774,4.411-3.437,3.631-1.224-.358-2.613-2.379-2.758-3.768a108.563,108.563,0,0,1-.13-11.175Z" transform="translate(4779.665 -414.959)" fill="#0e7473"/><path d="M-4513.26,453.549a100.1,100.1,0,0,1-.145,11.173c-.148,1.31-1.962,2.433-3.015,3.641-1.065-1.215-3-2.4-3.053-3.651-.29-7.448-.267-14.916-.011-22.367.039-1.145,1.831-2.231,2.813-3.344,1.131,1.12,3.093,2.141,3.239,3.377a95.663,95.663,0,0,1,.156,11.171Z" transform="translate(4728.191 -414.935)" fill="#0e7473"/><path d="M-4322.377,453.365c0-3.748-.2-7.513.124-11.233.093-1.075,1.677-2.022,2.578-3.027,1.06,1.022,3,2.014,3.04,3.072q.4,11.464.02,22.945c-.037,1.121-1.866,2.183-2.865,3.272-.97-1.106-2.667-2.145-2.776-3.33-.356-3.871-.133-7.8-.133-11.7Z" transform="translate(4603.816 -415.001)" fill="#0e7473"/><path d="M-4591.155,524.857l-7.377,2.985c1.117-5.486,3.778-5.365,6.687-4.735Z" transform="translate(4777.915 -467.786)" fill="#0e7473"/><path d="M-4973.375,595.955-4999,595.45l-.268-1.781c1.072-.433,2.138-1.22,3.218-1.241,6.359-.122,12.722,0,19.082-.1,2.6-.041,3.7,1.091,3.632,3.586Z" transform="translate(5030.628 -511.627)" fill="#0e7473"/><path d="M-4970.432,520.634h-16.19v-.861h16.188Z" transform="translate(5022.655 -465.872)" fill="#0e7473"/><path d="M-4969.095,495.236h-12.454l-.009-.849h12.466Z" transform="translate(5019.461 -449.863)" fill="#0e7473"/><path d="M-5031.049,551.224l7.573,7.034a36.3,36.3,0,0,0-4.606,2.653c-2.288,1.783-3.781,5.233-7.48,1.45-3.548-3.627-.178-4.974,1.542-7.074C-5032.958,553.991-5032.035,552.582-5031.049,551.224Z" transform="translate(5054.502 -485.706)" fill="#0e7473"/><path d="M-5024.524,523.637l-6.6,5.179c-2.989,2.738-4.687,0-5.89-1.869-.635-.986-.086-3.28.687-4.506,1.4-2.218,3.361-4.077,5.706-6.8Z" transform="translate(5054.609 -463.264)" fill="#0e7473"/><line x2="11.687" y2="14.32" transform="translate(23.986 52.373)" fill="none" stroke="#0e7473" stroke-miterlimit="10" stroke-width="4"/></g><line x2="11.47" y2="10.232" transform="translate(-6064.731 -1806.2)" fill="none" stroke="#0e7473" stroke-miterlimit="10" stroke-width="4"/></g></svg>