<svg xmlns="http://www.w3.org/2000/svg" width="305.136" height="142.539" viewBox="0 0 305.136 142.539"><g transform="translate(2.5 2.5)"><ellipse cx="46.143" cy="68.769" rx="46.143" ry="68.769" transform="translate(0 0)" fill="none" stroke="#0e7473" stroke-miterlimit="10" stroke-width="5"/><path d="M-9476.256,516.014c0-4,.1-7.417-.03-10.823-.127-3.219,1.205-4.18,4.463-3.093v23.623c-8.979-.882-8.427-10.591-14.624-14.307,0,3.461.223,6.956-.113,10.4-.129,1.316-1.537,2.508-2.362,3.756-.759-1.15-2.136-2.279-2.175-3.452-.213-6.555-.1-13.12-.1-20.846C-9482.422,502.759-9482.18,511.678-9476.256,516.014Z" transform="translate(9719.661 -432.03)" fill="#0e7473"/><path d="M-9813.566,501.959c5.835.584,11.629-1.868,15.521,3.684,2.012,2.87,1.11,6.174-2.393,10.788,1.487,2.8,3.012,5.672,4.608,8.68-3.543,2.221-4.954.088-6.447-2.524-1.4-2.453-1.8-6.5-6.575-4.884-.126,2.546-.255,5.127-.473,9.5-2.014-1.746-4.053-2.674-4.094-3.683C-9813.7,516.516-9813.566,509.492-9813.566,501.959Zm4.76,12.063c2.7-1.08,4.814-1.615,6.5-2.78.571-.4.47-3.222-.057-3.487-1.839-.928-4-1.222-6.442-1.863Z" transform="translate(9922.956 -432.433)" fill="#0e7473"/><path d="M-9757.07,526.83V503.22h13.723c.245,3.372.245,3.372-8.877,4.17a16.436,16.436,0,0,0-.459,2.207,26.378,26.378,0,0,0,.112,2.888,28.108,28.108,0,0,1,5.3.392c.945.244,1.652,1.4,2.467,2.152-.807.573-1.555,1.492-2.435,1.642a32.356,32.356,0,0,1-5.164.076v6.115c2.627,0,5.236-.144,7.813.082.854.075,1.626,1.1,2.436,1.693-.854.731-1.672,2.04-2.564,2.092C-9748.629,526.961-9752.562,526.83-9757.07,526.83Z" transform="translate(9887.308 -433.261)" fill="#0e7473"/><path d="M-9791.092,454.9c-5.853-3.224-2.493-9.072-4.884-13.828-1.386,2.86-2.54,5.464-3.907,7.949-.482.876-1.509,2.053-2.247,2.025-.823-.031-1.877-1.131-2.345-2.021-1.281-2.442-2.309-5.018-3.64-8-2.262,4.739.159,10.344-3.2,14.222l-1.746-.285c.476-6.749.917-13.5,1.5-20.24.045-.511,1.225-1.425,1.618-1.305a4.339,4.339,0,0,1,2.563,1.705c1.774,3.691,3.3,7.5,5.2,11.929,1.692-3.885,3.036-7.364,4.731-10.661.643-1.248,2.1-2.079,3.18-3.1.6,1.193,1.614,2.345,1.741,3.587C-9791.924,442.874-9791.551,448.891-9791.092,454.9Z" transform="translate(9922.617 -389.164)" fill="#0e7473"/><path d="M-9538.612,502.086c3.953,0,7.548-.165,11.109.1,1.036.078,1.979,1.4,2.964,2.148-1.078.668-2.092,1.718-3.25,1.916a38.326,38.326,0,0,1-6.139.087v5.416a32.448,32.448,0,0,1,5.339.386c.839.193,1.472,1.285,2.2,1.971-.763.627-1.447,1.611-2.307,1.8a31.888,31.888,0,0,1-5.207.309v5.889c2.521,0,4.949-.148,7.343.079.851.081,1.615,1.07,2.419,1.645-.806.745-1.576,2.083-2.422,2.134-3.9.23-7.814.1-12.048.1Z" transform="translate(9749.543 -432.514)" fill="#0e7473"/><path d="M-9326.3,525.834c-2.906,1.01-4.858.941-5.419-2.276-.517-2.964-2.588-3.219-5.108-3.2-2.486.017-4.561.174-5.1,3.185-.555,3.109-2.488,3.378-5.44,2.289,2.544-7.234,4.962-14.345,7.615-21.367a3.768,3.768,0,0,1,2.9-1.866,3.753,3.753,0,0,1,2.924,1.824C-9331.277,511.446-9328.859,518.562-9326.3,525.834Zm-7.793-9.364-2.744-8.415-2.753,8.415Z" transform="translate(9628.939 -432.868)" fill="#0e7473"/><path d="M-9408.641,520.82c-5.715,6.608-13.045,6.779-17.811,2.109a12.847,12.847,0,0,1-.717-17.018c4.34-5.16,11.34-5.637,18.975-.214-2.245.635-3.842,1.678-4.887,1.279-4.275-1.634-8.711-1.977-10.711,2.412a12.318,12.318,0,0,0,.622,9.908c2.288,3.879,6.541,3.38,10.5,1.355C-9411.626,520.12-9410,520.733-9408.641,520.82Z" transform="translate(9681.078 -432.386)" fill="#0e7473"/><path d="M-9627.521,507.759a8.6,8.6,0,0,1-1.548-.2c-2.545-1.053-5.417-2.846-7.083.662-.3.637,2.673,3.417,4.558,4.393,5.1,2.642,7.038,5.623,5.445,9.46-1.578,3.8-6.263,5.565-10.916,3.976a37.555,37.555,0,0,1-4.336-2.106l-.259-1.734a23.022,23.022,0,0,1,4.325-.84c1.088-.013,2.258,1.033,3.256.854a5.468,5.468,0,0,0,3.36-1.986c.312-.467-.754-2.377-1.64-3.007-1.577-1.122-3.9-1.382-5.165-2.713-1.656-1.741-3.949-4.532-3.5-6.217a9.505,9.505,0,0,1,5.539-5.838c2.43-.713,5.557.765,8.286,1.591C-9626.955,504.13-9627.4,506.461-9627.521,507.759Z" transform="translate(9814.526 -432.667)" fill="#0e7473"/><path d="M-9671.1,454.672c-7.02-3.925-8.5-11-14.044-16.012,0,4.6.1,8.407-.073,12.2-.039.895-.986,1.748-1.517,2.621-.648-.747-1.841-1.48-1.859-2.242-.151-6.372-.086-12.749-.086-20.521,7.526,3.7,8.882,11.266,14.361,16.091,0-4.331-.106-8.158.069-11.971.049-1.049.941-2.059,1.448-3.087.566.959,1.6,1.907,1.624,2.879C-9671.03,440.836-9671.1,447.046-9671.1,454.672Z" transform="translate(9844.189 -387.541)" fill="#0e7473"/><path d="M-9383.795,454.951V433.126c5.672.054,11.627-1.523,15.9,3.7,3.17,3.88,3.392,8.526.848,12.878C-9370.853,456.22-9377.273,454.824-9383.795,454.951Zm3.795-18.493v15.294c8.134.261,11.078-2.066,10.9-8.234C-9369.276,437.707-9372.555,435.534-9380,436.458Z" transform="translate(9651.911 -388.943)" fill="#0e7473"/><path d="M-9698.927,508.387c-1.984-.768-2.929-1.482-3.792-1.394a38.56,38.56,0,0,0-5.254,1.222c1.1,1.335,1.957,3.086,3.358,3.921,3.18,1.9,7.662,2.761,7.157,7.546a9.065,9.065,0,0,1-3.792,6.13c-4.089,2.345-8.188.993-11.935-3.528a26.679,26.679,0,0,1,4.508-.607c1.267.033,2.58,1,3.758.817a4.493,4.493,0,0,0,2.871-2.119c.275-.522-.645-2.126-1.424-2.659-1.6-1.1-3.871-1.429-5.142-2.764-1.755-1.845-4.1-4.465-3.872-6.5.235-2.122,2.932-5.064,5.069-5.606,2.658-.674,5.867.669,8.766,1.419C-9698.432,504.327-9698.795,506.622-9698.927,508.387Z" transform="translate(9859.632 -432.913)" fill="#0e7473"/><path d="M-9461.339,432.087a11.368,11.368,0,0,1,11.095,11.449,11.509,11.509,0,0,1-11.472,11.129,11.131,11.131,0,0,1-10.929-11.5A11.005,11.005,0,0,1-9461.339,432.087Zm-.181,3.061a8.169,8.169,0,0,0-7.845,7.967c-.114,4.431,3.651,8.553,7.822,8.564,4.253.011,7.786-3.907,7.711-8.551A7.858,7.858,0,0,0-9461.52,435.148Z" transform="translate(9707.941 -388.402)" fill="#0e7473"/><path d="M-9590.626,525.5V506.656a27.667,27.667,0,0,1-5.223-.341c-.987-.257-1.767-1.319-2.639-2.02.87-.708,1.719-2,2.611-2.028,5.568-.188,11.146-.095,16.669-.095.422,3.62.422,3.62-7,4.875,0,5.083-.075,10.3.028,15.511C-9586.123,525.609-9587.087,526.907-9590.626,525.5Z" transform="translate(9787.302 -432.586)" fill="#0e7473"/><path d="M-9323.269,437.573v5.521l7.313.845q.1.847.2,1.693l-7.361,1.245v5.855l9.557.693q.029.829.058,1.658c-4.02,2.183-8.491.556-13.113.97V434.687h12.364l.161,1.713Z" transform="translate(9615.853 -390.042)" fill="#0e7473"/><path d="M-9745.352,441.966a31.919,31.919,0,0,1,.06-4.912,16.513,16.513,0,0,1,1.44-3.586c.576,1.119,1.561,2.207,1.648,3.362.237,3.1.076,6.228.1,9.346.026,3.556,1.375,6.3,5.295,6.283,4.161-.014,5.524-2.725,5.338-6.621a96.385,96.385,0,0,1,.043-9.838c.048-.878.954-1.708,1.467-2.561.688.875,1.918,1.722,1.967,2.631a80.766,80.766,0,0,1-.036,11.308c-.471,5.394-4.061,8.387-9.184,8.133-5.158-.256-8.006-3.437-8.131-9.115C-9745.379,444.92-9745.352,443.443-9745.352,441.966Z" transform="translate(9879.962 -389.255)" fill="#0e7473"/><path d="M-9530.247,447.341c-.548,2.609-1.085,5.161-1.621,7.713l-1.74-.4V433.73c7.339-2.268,13.123-.519,14.366,4.389C-9517.953,443.2-9521.029,445.755-9530.247,447.341Zm-.328-2.808c2.819-.943,5.329-1.379,7.286-2.658.684-.447.557-3.972-.153-4.365-2.043-1.128-4.573-1.374-7.133-2.023Z" transform="translate(9746.387 -388.82)" fill="#0e7473"/><path d="M-9602.086,454.719c-5.852-.384-9.465-2.475-11.3-7.107a10.935,10.935,0,0,1,2.646-12.62,11.084,11.084,0,0,1,12.777-1.755c.924.5,1.43,1.767,2.128,2.682a10.777,10.777,0,0,1-3.295.023c-5.49-1.735-9.9-.034-11.231,4.5-1.454,4.936.947,10.02,5.668,10.77,2.168.345,4.578-.989,6.906-1.415a8.507,8.507,0,0,1,2.458.277c-.284.785-.352,2.011-.892,2.277C-9598.378,453.41-9600.68,454.173-9602.086,454.719Z" transform="translate(9797.299 -388.326)" fill="#0e7473"/><path d="M-9361.83,525.75c-.992-1.185-2.78-2.33-2.844-3.563a174.147,174.147,0,0,1-.008-17.636c.065-1.31,1.75-2.539,2.689-3.806l1.452.833v22.848Z" transform="translate(9639.996 -431.7)" fill="#0e7473"/><path d="M-9662.238,514.069c0-3.11-.164-6.234.106-9.32.076-.872,1.427-1.632,2.192-2.444.789.787,2.236,1.554,2.261,2.363q.283,9.566,0,19.144c-.023.824-1.429,1.609-2.2,2.412-.79-.778-2.194-1.506-2.263-2.343C-9662.4,520.629-9662.24,517.343-9662.238,514.069Z" transform="translate(9827.535 -432.684)" fill="#0e7473"/><path d="M-9551.471,444.074c0,2.785.16,5.585-.088,8.348-.087.977-1.171,1.866-1.8,2.794-.549-.846-1.551-1.68-1.573-2.54q-.218-8.35-.006-16.708c.021-.847,1.022-1.67,1.57-2.5.633.915,1.715,1.786,1.811,2.754C-9551.3,438.814-9551.47,441.452-9551.471,444.074Z" transform="translate(9759.903 -389.271)" fill="#0e7473"/><path d="M-9486.859,455.607c-.607-.686-1.725-1.361-1.741-2.061-.142-6.07-.134-12.145-.013-18.215.013-.613,1.072-1.2,1.645-1.806.466.556,1.327,1.106,1.336,1.668.094,6.657.061,13.316.061,19.974Z" transform="translate(9718.07 -389.31)" fill="#0e7473"/><path d="M-9628.783,455.6c-.467-.823-1.32-1.639-1.338-2.471q-.185-8.6-.017-17.208c.014-.759.821-1.5,1.262-2.254.642.537,1.831,1.064,1.842,1.613.128,6.649.083,13.3.083,19.954Z" transform="translate(9807.309 -389.398)" fill="#0e7473"/><g transform="translate(0 0)"><path d="M-10031.576,332.838a9.411,9.411,0,0,1-.86-2.129c-1.235-1.164-2.546-2.261-3.677-3.52-11.724-13.057-29.818-19.344-48.652-5.777l-14.749,16.651a24.016,24.016,0,0,1-.943,3.68c-13.392,31.241-12.651,61.624,5.407,90.994a6.408,6.408,0,0,1,.5,1.745q3.053,2.959,6.1,5.92c11.844,11.536,25.089,13.94,40.181,7.323a11.715,11.715,0,0,1,2.313-.5l9.587-7.289a8.358,8.358,0,0,1,1.012-2.6C-10012.576,411.445-10011.582,361.077-10031.576,332.838Zm-51.959-9.855c13.33-11,30.408-9.766,43,2.159,13.217,12.515,18.787,28.566,20.949,46.109.5,4.046.611,8.14.952,12.913h-42V354.422c7.287,7.019,10.441,15.526,12.091,24.94,3.795-1.33,4.2-4.024,3.055-6.768-2.8-6.747-5.945-13.354-8.948-20.012,7.454,1.042,14.207,5,20.4,10.322,1.069-5.043,1.278-5.443-2.76-7.552-6.285-3.284-12.888-5.962-20.058-9.214l19.413-6.138c-9.346-5.454-15.8,1.383-23.238,3.32-.354-4-.717-8.077-1.184-13.335-5.947,4.417-2.43,9.489-4.315,13.32-7.182-1.715-13.729-8.83-23.278-3.328l20.426,6.405c-6.256,2.319-11.287,3.643-15.773,6.006-4.03,2.123-10.254,3.158-8.687,9.767l21.056-10.738.716,1.261c-2.465,4.451-5.287,8.745-7.319,13.385-3.96,9.04-3.73,9.914.906,13.286a44.652,44.652,0,0,1,11.979-25.229v30.011h-41.758C-10107.355,360.44-10102.6,338.713-10083.535,322.983Zm-20.379,65.453c11.625-.059,23.251.026,34.876-.049,3.325-.021,3.933,1.449,2.868,4.436h-40.618C-10107.534,388.576-10107.535,388.455-10103.914,388.436Zm-2.155,8.689c12.636,0,25.272-.078,37.9.147,1.017.018,2,2.123,2.992,3.259l-.912,1.274c-12.63,0-25.262.079-37.888-.15-1.022-.019-2.006-2.156-3.007-3.308Zm56.022,49.443a28.449,28.449,0,0,1-27.049-.187c-16.314-8.5-23.273-23.475-28.016-40.61h39.053V417.92c-7.145,2.987-16.4-3.229-23.368,5.514h19.742l-5.131,5.641q.378.614.755,1.228c1.717-.96,3.709-1.626,5.1-2.934,5.227-4.916,10.283-4.91,15.931-.32,2.13,1.731,5.1,2.43,7.684,3.6l1.4-1.954c-2.529-2.9-5.057-5.8-7.809-8.961,2.889-4.942,11.148,1.243,13.671-5.483-8.294-2.431-15.22,1.722-22.726,5.079V405.868h39.036C-10026.318,423.1-10033.541,438.145-10050.047,446.568Zm26.561-44.883c-12.307.224-24.619.135-38.5.135,1.337-2.119,2.127-4.506,2.96-4.521,12.776-.237,25.559-.165,38.339-.165l.9,1.593C-10021.021,399.757-10022.236,401.662-10023.486,401.685Zm1-8.628c-12.635-.077-25.271-.03-37.905-.03l-1.264-1.363c1.06-1.078,2.1-3.076,3.182-3.095,12.794-.218,25.593-.14,38.555-.14C-10019.019,391.262-10018.812,393.079-10022.485,393.057Z" transform="translate(10109.661 -313.821)" fill="#0e7473"/><path d="M-9900.65,359.382c.008.019.014.039.021.059l.118.109Z" transform="translate(9977.854 -342.553)" fill="#00e87b"/><path d="M-10068.969,640.314c0-.014-.007-.029-.01-.043l-.13-.125Z" transform="translate(10084.088 -519.61)" fill="#00e87b"/></g></g></svg>