<svg xmlns="http://www.w3.org/2000/svg" width="382.75" height="164.055" viewBox="0 0 382.75 164.055"><g transform="translate(-5060.603 202.746)"><path d="M5173.383-199.168c-6.478-3.093-10.9,2.741-10.9,2.741l-3.71.538,2.685,2.617-.263,1.535-1.474.253-2.616-2.685-.539,3.71-3.362,1.66,3.362,1.66.539,3.711,2.616-2.686,2.155.37a2.186,2.186,0,0,0-.11.657v.732a3.657,3.657,0,0,1-3.653,3.653,3.657,3.657,0,0,1-3.654-3.653v-.732a2.2,2.2,0,0,0-2.2-2.2,2.2,2.2,0,0,0-2.2,2.2v.732a3.658,3.658,0,0,1-3.654,3.653,3.657,3.657,0,0,1-3.653-3.653v-1.419l1.978-.34,2.617,2.686.539-3.711,3.362-1.66-3.362-1.66-.539-3.71-2.617,2.685-1-.17-.278-1.618,2.687-2.617-3.711-.538-1.659-3.363-1.66,3.363-3.71.538,2.685,2.617-.263,1.532-1.494.256-2.617-2.685-.54,3.71-3.361,1.66,3.361,1.66.54,3.711,2.617-2.686,2.021.348v1.411a3.658,3.658,0,0,1-3.654,3.653,3.657,3.657,0,0,1-3.653-3.653v-.732a2.2,2.2,0,0,0-2.2-2.2,2.2,2.2,0,0,0-2.2,2.2v.732a3.658,3.658,0,0,1-3.654,3.653,3.657,3.657,0,0,1-3.653-3.653v-1.416l2-.343,2.618,2.686.538-3.711,3.362-1.66-3.362-1.66-.538-3.71-2.618,2.685-1-.17-.278-1.618,2.686-2.617-3.711-.538-1.657-3.363-1.66,3.363-3.71.538,2.685,2.617-.263,1.532-1.5.256-2.616-2.685-.54,3.71-3.361,1.66,3.361,1.66.54,3.711,2.616-2.686,2,.343v1.416a3.657,3.657,0,0,1-3.653,3.653,3.657,3.657,0,0,1-3.653-3.653v-.732a2.2,2.2,0,0,0-2.2-2.2,2.2,2.2,0,0,0-2.2,2.2v.732a3.657,3.657,0,0,1-3.653,3.653,3.657,3.657,0,0,1-3.653-3.653v-1.457l1.757-.3,2.618,2.686.538-3.711,3.361-1.66-3.361-1.66-.538-3.71-2.618,2.685-1-.17-.277-1.618,2.686-2.617-3.711-.538-1.658-3.363-1.66,3.363-3.71.538,2.685,2.617-.262,1.532-1.5.256-2.617-2.685-.539,3.71-3.362,1.66,3.362,1.66.539,3.711,2.617-2.686,2.242.385v1.374a3.657,3.657,0,0,1-3.653,3.653,3.657,3.657,0,0,1-3.653-3.653v-.732a2.2,2.2,0,0,0-2.2-2.2,2.2,2.2,0,0,0-2.2,2.2v.732a3.657,3.657,0,0,1-3.653,3.653,3.657,3.657,0,0,1-3.653-3.653v-.732a2.156,2.156,0,0,0-.111-.657l2.155-.37,2.616,2.686.54-3.711,3.361-1.66-3.361-1.66-.54-3.71-2.616,2.685-1.473-.253-.263-1.535,2.685-2.617-3.711-.538s-4.421-5.834-10.9-2.741a.507.507,0,0,0,.125.953c2.457.455,7.09,2.015,7.09,7.326v6.534a8.063,8.063,0,0,0,8.055,8.055,8.023,8.023,0,0,0,5.854-2.539,8.026,8.026,0,0,0,5.854,2.539,8.026,8.026,0,0,0,5.854-2.539,8.023,8.023,0,0,0,5.854,2.539,8.025,8.025,0,0,0,5.854-2.539,8.023,8.023,0,0,0,5.854,2.539,8.025,8.025,0,0,0,5.854-2.539,8.023,8.023,0,0,0,5.854,2.539,8.025,8.025,0,0,0,5.854-2.539,8.024,8.024,0,0,0,5.854,2.539,8.025,8.025,0,0,0,5.854-2.539,8.024,8.024,0,0,0,5.854,2.539,8.025,8.025,0,0,0,5.854-2.539,8.025,8.025,0,0,0,5.854,2.539,8.063,8.063,0,0,0,8.054-8.055v-6.534c0-5.31,4.633-6.871,7.091-7.326A.507.507,0,0,0,5173.383-199.168Z" transform="translate(0 0.345)"/><path d="M5164.182-177.694h-95.355a2.126,2.126,0,0,0-2.126,2.127,2.126,2.126,0,0,0,2.126,2.127h95.355a2.126,2.126,0,0,0,2.127-2.127A2.126,2.126,0,0,0,5164.182-177.694Z" transform="translate(0.786 3.23)"/><path d="M5164.182-167.607h-95.355a2.126,2.126,0,0,0-2.126,2.127,2.126,2.126,0,0,0,2.126,2.127h95.355a2.126,2.126,0,0,0,2.127-2.127A2.126,2.126,0,0,0,5164.182-167.607Z" transform="translate(0.786 4.53)"/><path d="M5068.827-168.4h5.324a2.128,2.128,0,0,0,2.128-2.128,2.128,2.128,0,0,0-2.128-2.127h-5.324a2.127,2.127,0,0,0-2.126,2.127A2.127,2.127,0,0,0,5068.827-168.4Z" transform="translate(0.786 3.88)"/><path d="M5081.375-170.524a2.128,2.128,0,0,0-2.127-2.127,2.127,2.127,0,0,0-2.127,2.127,2.128,2.128,0,0,0,2.127,2.128A2.128,2.128,0,0,0,5081.375-170.524Z" transform="translate(2.129 3.88)"/><path d="M1.884,0H7.694A1.884,1.884,0,0,1,9.578,1.884v.486A1.884,1.884,0,0,1,7.694,4.255H1.885A1.885,1.885,0,0,1,0,2.37V1.884A1.884,1.884,0,0,1,1.884,0Z" transform="translate(5157.204 -168.709)"/><circle cx="2.127" cy="2.127" r="2.127" transform="translate(5150.764 -168.709)"/><path d="M5116.5-168.4a2.128,2.128,0,0,0,2.129-2.128,2.128,2.128,0,0,0-2.129-2.127h-10.238a2.128,2.128,0,0,0-2.129,2.127,2.128,2.128,0,0,0,2.129,2.128Z" transform="translate(5.612 3.88)"/><circle cx="2.127" cy="2.127" r="2.127" transform="translate(5126.426 -168.771)"/><path d="M5102.307-170.524a2.126,2.126,0,0,0-2.126-2.127,2.128,2.128,0,0,0-2.128,2.127,2.128,2.128,0,0,0,2.128,2.128A2.127,2.127,0,0,0,5102.307-170.524Z" transform="translate(4.828 3.88)"/><path d="M5096.585-170.531c0-.5-5.572-2.065-6.1-2.065s-6.718,1.5-6.718,2.065c0,.5,5.677,2.19,6.718,2.19S5096.585-170.03,5096.585-170.531Z" transform="translate(2.986 3.887)"/><path d="M5138.713-170.531c0-.5-5.572-2.065-6.1-2.065s-6.719,1.5-6.719,2.065c0,.5,5.678,2.19,6.719,2.19S5138.713-170.03,5138.713-170.531Z" transform="translate(8.417 3.887)"/><path d="M5068.03-162.176V-84.09c0,17.831,8.838,36.79,48.006,36.79s48.006-18.959,48.006-36.79v-78.086H5068.03Zm2.807,4.518,3.232.351,1.312-2.975,1.312,2.975,3.231-.351-1.92,2.624,1.92,2.624-3.231-.351-1.312,2.975-1.312-2.975-3.232.351,1.92-2.624Zm0,38.526,3.232.352,1.312-2.975,1.312,2.975,3.231-.352-1.92,2.624,1.92,2.624-3.231-.351-1.312,2.975-1.312-2.975-3.232.351,1.92-2.624Zm9.843,43.775-3.232-.352-1.312,2.976-1.312-2.976-3.231.352,1.92-2.624-1.92-2.624,3.231.351,1.312-2.975,1.312,2.975,3.232-.351-1.92,2.624Zm35.357,12.415c-18.336,0-26.871-4.95-30.669-12.35h61.044C5142.736-67.892,5134.372-62.942,5116.037-62.942Zm10.1-23.525a5.938,5.938,0,0,0-.3,1.689c0,4.476,3.38,3.217,3.38,5.59,0,.98-1.331,1.048-1.377,1.84h-2.076c-2.09-.033-1.859,0-3.378,0-2.5,0-3.921-1.03-3.921-4.159v-17.31c1.84,1.732,2.593,5.459,5.621,4.528C5123.4-87.72,5126.14-86.681,5126.14-86.468Zm25.794-71.191,3.232.351,1.312-2.975,1.312,2.975,3.232-.351-1.92,2.624,1.92,2.624-3.232-.351-1.312,2.975-1.312-2.975-3.232.351,1.921-2.624Zm0,38.526,3.232.352,1.312-2.975,1.312,2.975,3.232-.352-1.92,2.624,1.92,2.624-3.232-.351-1.312,2.975-1.312-2.975-3.232.351,1.921-2.624Zm-.754,38.528,3.232.351,1.312-2.975,1.313,2.975,3.232-.351-1.921,2.624,1.921,2.624-3.232-.352-1.313,2.976-1.312-2.976-3.232.352,1.921-2.624Zm-2.08-9.551a37.381,37.381,0,0,1-1.8,12.806h-7.533c.036-1.279-2.346-3.3-2.346-4.833a6.323,6.323,0,0,0-.492-2.455A1.926,1.926,0,0,0,5139-87.568c-1.128-.958-.742-3.392-1.184-5.639-.789-4-5.526-8.684-6.428-12.631a10.54,10.54,0,0,1,.339-4c.332-.72,1.1-.181,1.409-1.419.338-1.368-2.124-2.319-3.214-2.077,0,0-.7-1.354-1.41-1.241-.939.149-.924-.113-1.917-.113-1.636,0-1.535-.934-2.569-.934-.517,0-1.467,1.181-1.467,1.759,0,.983,1.971,1.759,1.971,3.3,0,1.07-.964,3.689-.964,5.165,0,1.05-.275,1.415-1.371,1.415-1.58,0-1.958-1.427-2.713-2.817a18.72,18.72,0,0,0-1.01-1.605v-8.068a1.944,1.944,0,0,1,.493-1.369c-.233.028-.477.044-.715.064,13.1-1.092,18.357-8.667,18.357-14.21,0-7.348-10.16-13.663-20.992-13.663-9.364,0-20.651,5.607-20.651,13.636,0,6.979,7.264,14.223,18.478,14.267a2.216,2.216,0,0,1,.375,1.3v35c0,3.185-1.4,4.1-3.457,4.1-.432,0-1.839-.053-3.374,0h-22.538a36.052,36.052,0,0,1-1.9-12.806V-147.91H5149.1Zm-28.521-67.5-1.921,2.624,1.921,2.624-3.232-.351-1.312,2.975-1.312-2.975-3.232.351,1.92-2.624-1.92-2.624,3.232.351,1.312-2.975,1.312,2.975Z" transform="translate(0.957 5.23)"/><rect width="2.753" height="157.657" transform="translate(5224.283 -199.727)"/><rect width="7.007" height="103.238" transform="translate(5288.103 -202.746)"/><path d="M5286.423-99.508h38.842v-7.008h-38.842v-12.2h38.842v-7.008h-38.842v-77.022h-7.007V-99.508h7.007Z" transform="translate(28.208)"/><path d="M5345.714-164.422v64.915h7.008v-52.01l28.243,52.01h9.3L5334.2-202.746h-8.009V-99.508h7.008v-87.959Z" transform="translate(34.238)"/><path d="M5399.954-202.746v87.959l-12.514-23.044v-64.915h-7.008v52.01l-28.243-52.01h-9.3l56.061,103.238h8.009V-202.746Z" transform="translate(36.391)"/><path d="M5267.285-80.987h-4.657v26.6h18.181v-4.023h-13.524Z" transform="translate(26.044 15.697)"/><path d="M5290.127-80.987l-10.208,26.6h4.807l2.5-7.041h10.616l2.5,7.041h4.993l-10.245-26.6Zm-1.638,16.019,4.022-11.437h.113l3.985,11.437Z" transform="translate(28.273 15.697)"/><path d="M5330.156-61.392h-.075l-12.145-19.6h-4.918v26.6h4.433V-73.946h.112l12.107,19.559h4.918v-26.6h-4.433Z" transform="translate(32.54 15.697)"/><path d="M5345.468-80.987l-10.208,26.6h4.808l2.5-7.041h10.616l2.5,7.041h4.993l-10.246-26.6Zm-1.638,16.019,4.022-11.437h.113l3.985,11.437Z" transform="translate(35.408 15.697)"/><path d="M5368.758-59.939h-.074l-6.669-21.049h-4.843l8.867,26.6h5.178l9.09-26.6h-4.731Z" transform="translate(38.232 15.697)"/><path d="M5386.084-66.2H5399.5V-70h-13.411v-6.966h14.492v-4.023h-19.149v26.6h19.41v-4.023h-14.753Z" transform="translate(41.359 15.697)"/></g></svg>