<svg xmlns="http://www.w3.org/2000/svg" width="377.975" height="180.891" viewBox="0 0 377.975 180.891"><g transform="translate(-4134.825 342.08)"><g transform="translate(4363.555 -284.749)"><path d="M4362.232-269.153h-5.262v8.518h-4.657v-26.5h10.45c6.17,0,10.069,3.483,10.069,8.9C4372.832-272.258,4368.062-269.153,4362.232-269.153Zm.152-13.742h-5.414v9.541h5.414c3.52,0,5.716-1.931,5.716-4.77C4368.1-281.268,4365.866-282.9,4362.384-282.9Z" transform="translate(-4352.313 287.589)"/><path d="M4400.441-272.106c0,7.912-4.468,11.887-11.4,11.887-6.89,0-11.28-3.975-11.28-11.659v-15.257h4.655v15.067c0,4.922,2.536,7.572,6.7,7.572,4.125,0,6.662-2.5,6.662-7.382v-15.257h4.657Z" transform="translate(-4350.997 287.589)"/><path d="M4427.807-280.358a6.284,6.284,0,0,1-3.786,5.942c3.1,1.061,5.262,2.84,5.262,6.474,0,4.769-3.9,7.306-9.8,7.306h-12.266v-26.5H4419.1C4424.438-287.135,4427.807-284.523,4427.807-280.358Zm-4.657.756c0-2.157-1.666-3.406-4.657-3.406h-6.7v7.041h6.361C4421.145-275.967,4423.15-277.141,4423.15-279.6Zm1.477,11.168c0-2.272-1.779-3.6-5.451-3.6h-7.383v7.268h7.724C4422.7-264.761,4424.627-266.011,4424.627-268.434Z" transform="translate(-4349.475 287.589)"/><path d="M4435-287.135h4.657v22.259h13.931v4.24H4435Z" transform="translate(-4348.039 287.589)"/><path d="M4464-287.135v26.5h-4.657v-26.5Z" transform="translate(-4346.781 287.589)"/><path d="M4484.662-260.159a13.335,13.335,0,0,1-13.477-13.666,13.418,13.418,0,0,1,13.666-13.742,13.81,13.81,0,0,1,10.372,4.127l-2.99,3.444a10.545,10.545,0,0,0-7.42-3.294c-5.074,0-8.745,4.165-8.745,9.39s3.671,9.463,8.745,9.463c3.255,0,5.337-1.324,7.609-3.444l2.991,3.028A13.675,13.675,0,0,1,4484.662-260.159Z" transform="translate(-4346.168 287.567)"/></g><g transform="translate(4360.612 -240.202)"><path d="M4362.613-218.279h-4.695v-22.183h-8.4v-4.315h21.5v4.315h-8.4Z" transform="translate(-4349.514 245.231)"/><path d="M4396.089-240.613H4381.1v6.89h13.288v4.165H4381.1v7.117h15.181v4.164h-19.838v-26.5h19.648Z" transform="translate(-4348.122 245.231)"/><path d="M4414.724-217.8a13.337,13.337,0,0,1-13.478-13.667,13.418,13.418,0,0,1,13.666-13.741,13.815,13.815,0,0,1,10.373,4.126l-2.99,3.445a10.541,10.541,0,0,0-7.42-3.294c-5.072,0-8.744,4.165-8.744,9.388s3.671,9.464,8.744,9.464c3.256,0,5.337-1.325,7.609-3.445l2.991,3.029A13.675,13.675,0,0,1,4414.724-217.8Z" transform="translate(-4346.84 245.209)"/><path d="M4435.384-229.445v11.167h-4.655v-26.5h4.655v11.015h12.645v-11.015h4.656v26.5h-4.656v-11.167Z" transform="translate(-4345.316 245.231)"/></g><g transform="translate(4362.503 -196.57)"><path d="M4351.313-203.542h4.657v22.259h13.93v4.24h-18.587Z" transform="translate(-4351.313 203.731)"/><path d="M4400.874-177.033h-4.922l-2.688-6.4h-12.529l-2.727,6.4h-4.77l11.66-26.689h4.316Zm-13.893-21.124-4.544,10.6h9.124Z" transform="translate(-4350.18 203.722)"/><path d="M4426.231-196.766a6.284,6.284,0,0,1-3.786,5.943c3.1,1.061,5.262,2.84,5.262,6.474,0,4.769-3.9,7.306-9.8,7.306h-12.266v-26.5h11.886C4422.862-203.542,4426.231-200.931,4426.231-196.766Zm-4.657.757c0-2.158-1.666-3.407-4.657-3.407h-6.7v7.042h6.36C4419.569-192.374,4421.574-193.548,4421.574-196.009Zm1.477,11.168c0-2.272-1.779-3.6-5.451-3.6h-7.383v7.268h7.724C4421.12-181.169,4423.051-182.419,4423.051-184.841Z" transform="translate(-4348.505 203.731)"/></g><g transform="translate(4138.269 -287.945)"><path d="M4138.1-288.17h36.356v115.5H4138.1Z" transform="translate(-4138.099 290.732)"/><path d="M4180.907-229.139v-.431c0-34.077,24.371-61.036,58.878-61.036,40.332,0,58.879,29.547,58.879,63.84,0,2.587,0,5.608-.216,8.41h-78.074c3.236,12.725,12.51,19.2,25.234,19.2,9.705,0,15.3-1.651,23.713-9.847l24.813,16.748c-11.215,14.235-27.39,23.725-50.684,23.725C4206.788-168.534,4180.907-192.906,4180.907-229.139Zm82.085-14.588c-2.8-11.483-11.774-17.953-22.991-17.953-10.785,0-19.151,7.385-22.3,17.953Z" transform="translate(-4135.886 290.606)"/></g><circle cx="22.433" cy="22.433" r="22.433" transform="translate(4134.825 -342.08)"/><rect width="8.394" height="131.755" transform="translate(4327.452 -292.943)"/></g></svg>