<svg xmlns="http://www.w3.org/2000/svg" width="108.122" height="146.044" viewBox="0 0 108.122 146.044"><defs><style>.a{fill:#007473;}</style></defs><path class="a" d="M2802.353-1404.495c-13.962-24.392-46.555-33.239-72.188-19.854a52,52,0,0,0-28.332,46.232c0,36.38,32.832,75.491,49.534,91.883a5.9,5.9,0,0,0,8.194.064c16.813-16.034,50.394-53.142,50.394-92.433C2809.955-1387.372,2807.159-1396.1,2802.353-1404.495Zm-22.311,42.113a27.859,27.859,0,0,1-28.781,13.606,27.8,27.8,0,0,1-22.688-22.016,27.885,27.885,0,0,1,32.77-32.77,27.786,27.786,0,0,1,21.974,22.434A27.915,27.915,0,0,1,2780.042-1362.382Z" transform="translate(-2701.833 1430.589)"/></svg>