<svg xmlns="http://www.w3.org/2000/svg" width="111.712" height="149.641" viewBox="0 0 111.712 149.641">
  <g id="Grupo_5964" data-name="Grupo 5964" transform="translate(-285.141 -5725.769)">
    <g id="Grupo_5509" data-name="Grupo 5509" transform="translate(285.141 5725.769)">
      <g id="Grupo_5508" data-name="Grupo 5508">
        <path id="Trazado_6728" data-name="Trazado 6728" d="M3025.406-323.924a6.747,6.747,0,0,1-4.756-1.945c-8.318-8.163-49.812-50.992-49.812-92.538a53.064,53.064,0,0,1,28.817-47.031,56.385,56.385,0,0,1,26-6.342c19.858,0,38.016,10.171,47.39,26.546,5.121,8.952,7.72,17.815,7.72,26.34,0,40.411-35.444,78.567-50.682,93.1a6.754,6.754,0,0,1-4.678,1.873Z" transform="translate(-2969.947 472.673)" fill="#007473"/>
        <path id="Trazado_6729" data-name="Trazado 6729" d="M3026-470.542c18.8,0,37.064,9.414,46.615,26.1,4.807,8.4,7.6,17.126,7.6,25.9,0,39.3-33.586,76.415-50.4,92.45a5.863,5.863,0,0,1-4.062,1.626,5.877,5.877,0,0,1-4.131-1.688c-16.707-16.4-49.544-55.512-49.544-91.9a52,52,0,0,1,28.337-46.239A55.2,55.2,0,0,1,3026-470.542m0-1.785a57.274,57.274,0,0,0-26.414,6.445,53.95,53.95,0,0,0-29.3,47.821c0,16.277,6.32,34.578,18.78,54.4a224.725,224.725,0,0,0,31.3,38.776,7.645,7.645,0,0,0,5.382,2.2,7.643,7.643,0,0,0,5.3-2.119c15.32-14.608,50.956-52.986,50.956-93.741,0-8.684-2.637-17.7-7.84-26.783-9.531-16.652-27.986-27-48.163-27Z" transform="translate(-2970.291 472.327)" fill="#fff"/>
      </g>
    </g>
    <path id="Trazado_6730" data-name="Trazado 6730" d="M3015.068-428.408a4.6,4.6,0,0,0,0,6.507,4.6,4.6,0,0,0,6.506,0,4.6,4.6,0,0,0,0-6.507A4.6,4.6,0,0,0,3015.068-428.408Zm3.251-32.4a35.659,35.659,0,0,0-35.659,35.659,35.659,35.659,0,0,0,35.659,35.659,35.659,35.659,0,0,0,35.661-35.659A35.659,35.659,0,0,0,3018.319-460.813Zm18.138,21.286-9.485,20.756a4.59,4.59,0,0,1-2.268,2.268l-20.754,9.486a2.843,2.843,0,0,1-3.767-3.767l9.487-20.756a4.591,4.591,0,0,1,2.268-2.268l20.754-9.486a2.842,2.842,0,0,1,3.765,3.767Z" transform="translate(-2677.323 6205.383)" fill="#fff" style="isolation: isolate"/>
  </g>
</svg>
