<svg id="Grupo_5961" data-name="Grupo 5961" xmlns="http://www.w3.org/2000/svg" width="111.712" height="149.641" viewBox="0 0 111.712 149.641">
  <g id="Grupo_5497" data-name="Grupo 5497">
    <g id="Grupo_5496" data-name="Grupo 5496">
      <path id="Trazado_6713" data-name="Trazado 6713" d="M3025.406-745.278a6.747,6.747,0,0,1-4.756-1.945c-8.318-8.163-49.812-50.991-49.812-92.538a53.064,53.064,0,0,1,28.817-47.031,56.385,56.385,0,0,1,26-6.342c19.856,0,38.016,10.171,47.39,26.548,5.121,8.95,7.72,17.812,7.72,26.339,0,40.411-35.444,78.569-50.682,93.1a6.754,6.754,0,0,1-4.678,1.873Z" transform="translate(-2969.947 894.027)" fill="#007473"/>
      <path id="Trazado_6714" data-name="Trazado 6714" d="M3026-891.9c18.8,0,37.064,9.414,46.615,26.1,4.807,8.4,7.6,17.126,7.6,25.9,0,39.3-33.586,76.415-50.4,92.45a5.862,5.862,0,0,1-4.062,1.626,5.877,5.877,0,0,1-4.131-1.688c-16.707-16.4-49.544-55.512-49.544-91.9a52,52,0,0,1,28.337-46.239A55.2,55.2,0,0,1,3026-891.9m0-1.785a57.275,57.275,0,0,0-26.414,6.445,53.952,53.952,0,0,0-29.3,47.821c0,16.277,6.32,34.578,18.78,54.4a224.72,224.72,0,0,0,31.3,38.776,7.638,7.638,0,0,0,5.382,2.2,7.644,7.644,0,0,0,5.3-2.12C3046.367-760.768,3082-799.146,3082-839.9c0-8.684-2.637-17.7-7.84-26.783-9.531-16.652-27.986-27-48.163-27Z" transform="translate(-2970.291 893.681)" fill="#fff"/>
    </g>
  </g>
  <path id="Trazado_6715" data-name="Trazado 6715" d="M2986.709-818.118a6.225,6.225,0,0,0,6.225,6.223h45.645a6.226,6.226,0,0,0,6.224-6.223V-853.39h-58.094Zm41.5-25.416a1.561,1.561,0,0,1,1.556-1.556h5.186a1.56,1.56,0,0,1,1.556,1.556v5.186a1.56,1.56,0,0,1-1.556,1.556h-5.186a1.561,1.561,0,0,1-1.556-1.556Zm0,16.6a1.56,1.56,0,0,1,1.556-1.556h5.186a1.559,1.559,0,0,1,1.556,1.556v5.186a1.56,1.56,0,0,1-1.556,1.556h-5.186a1.561,1.561,0,0,1-1.556-1.556Zm-16.6-16.6a1.561,1.561,0,0,1,1.556-1.556h5.188a1.561,1.561,0,0,1,1.556,1.556v5.186a1.561,1.561,0,0,1-1.556,1.556h-5.188a1.561,1.561,0,0,1-1.556-1.556Zm0,16.6a1.56,1.56,0,0,1,1.556-1.556h5.188a1.56,1.56,0,0,1,1.556,1.556v5.186a1.561,1.561,0,0,1-1.556,1.556h-5.188a1.561,1.561,0,0,1-1.556-1.556Zm-16.6-16.6a1.559,1.559,0,0,1,1.555-1.556h5.188a1.561,1.561,0,0,1,1.556,1.556v5.186a1.561,1.561,0,0,1-1.556,1.556h-5.187a1.559,1.559,0,0,1-1.555-1.556Zm0,16.6a1.558,1.558,0,0,1,1.555-1.556h5.188a1.56,1.56,0,0,1,1.556,1.556v5.186a1.561,1.561,0,0,1-1.556,1.556h-5.187a1.559,1.559,0,0,1-1.555-1.556Zm43.569-43.051h-6.225v-6.225a2.081,2.081,0,0,0-2.073-2.075h-4.151a2.081,2.081,0,0,0-2.074,2.075v6.225h-16.6v-6.225a2.082,2.082,0,0,0-2.075-2.075h-4.149a2.08,2.08,0,0,0-2.074,2.075v6.225h-6.225a6.225,6.225,0,0,0-6.225,6.223v6.225H3044.8v-6.225A6.226,6.226,0,0,0,3038.579-869.987Z" transform="translate(-2959.9 903.424)" fill="#fff" style="isolation: isolate"/>
</svg>
