<svg xmlns="http://www.w3.org/2000/svg" width="111.711" height="149.641" viewBox="0 0 111.711 149.641">
  <g id="Grupo_5970" data-name="Grupo 5970" transform="translate(-1523.824 -5725.769)">
    <g id="Grupo_5538" data-name="Grupo 5538" transform="translate(1523.824 5725.769)">
      <g id="Grupo_5537" data-name="Grupo 5537">
        <path id="Trazado_6755" data-name="Trazado 6755" d="M3783.985-323.924a6.749,6.749,0,0,1-4.757-1.945c-8.318-8.163-49.812-50.992-49.812-92.538a53.066,53.066,0,0,1,28.816-47.031,56.389,56.389,0,0,1,26-6.342c19.857,0,38.018,10.171,47.39,26.546,5.122,8.95,7.722,17.813,7.722,26.34,0,40.411-35.444,78.567-50.682,93.1a6.753,6.753,0,0,1-4.678,1.873Z" transform="translate(-3728.525 472.673)" fill="#007473"/>
        <path id="Trazado_6756" data-name="Trazado 6756" d="M3784.58-470.542c18.8,0,37.064,9.414,46.614,26.1,4.808,8.4,7.6,17.126,7.6,25.9,0,39.3-33.586,76.415-50.4,92.45a5.866,5.866,0,0,1-4.063,1.626,5.883,5.883,0,0,1-4.133-1.688c-16.7-16.4-49.542-55.512-49.542-91.9a52,52,0,0,1,28.337-46.239,55.194,55.194,0,0,1,25.587-6.243m0-1.785a57.276,57.276,0,0,0-26.414,6.445,53.95,53.95,0,0,0-29.3,47.821c0,16.277,6.319,34.578,18.781,54.4a224.659,224.659,0,0,0,31.3,38.776,7.642,7.642,0,0,0,5.382,2.2,7.642,7.642,0,0,0,5.3-2.119c15.32-14.608,50.956-52.986,50.956-93.741,0-8.684-2.639-17.7-7.839-26.783-9.531-16.652-27.986-27-48.163-27Z" transform="translate(-3728.871 472.327)" fill="#fff"/>
      </g>
    </g>
    <path id="Trazado_6757" data-name="Trazado 6757" d="M3806.988-442.724l-27.315-11.383a6.854,6.854,0,0,0-5.251,0l-27.315,11.383a6.818,6.818,0,0,0-4.211,6.3c0,28.243,16.29,47.762,31.514,54.108a6.848,6.848,0,0,0,5.249,0c12.193-5.08,31.528-22.622,31.528-54.108A6.829,6.829,0,0,0,3806.988-442.724Zm-29.934,51.588-.013-54.207,25.026,10.429c-.47,21.54-11.682,37.147-25.013,43.778Z" transform="translate(-2196.171 6209.296)" fill="#fff" style="isolation: isolate"/>
  </g>
</svg>
