<svg xmlns="http://www.w3.org/2000/svg" width="111.711" height="149.639" viewBox="0 0 111.711 149.639">
  <g id="Grupo_5971" data-name="Grupo 5971" transform="translate(-1523.824 -5955.113)">
    <g id="Grupo_5546" data-name="Grupo 5546" transform="translate(1523.824 5955.113)">
      <g id="Grupo_5545" data-name="Grupo 5545">
        <path id="Trazado_6765" data-name="Trazado 6765" d="M3783.985-183.473a6.749,6.749,0,0,1-4.757-1.945c-8.318-8.163-49.812-50.991-49.812-92.538a53.062,53.062,0,0,1,28.816-47.029,56.375,56.375,0,0,1,26-6.344c19.857,0,38.018,10.173,47.39,26.548,5.122,8.95,7.722,17.812,7.722,26.34,0,40.411-35.444,78.567-50.682,93.095a6.746,6.746,0,0,1-4.678,1.873Z" transform="translate(-3728.525 332.221)" fill="#007473"/>
        <path id="Trazado_6766" data-name="Trazado 6766" d="M3784.58-330.092c18.8,0,37.064,9.414,46.614,26.1,4.808,8.4,7.6,17.126,7.6,25.9,0,39.3-33.586,76.413-50.4,92.45a5.872,5.872,0,0,1-4.063,1.625,5.885,5.885,0,0,1-4.133-1.688c-16.7-16.4-49.542-55.512-49.542-91.9a52,52,0,0,1,28.337-46.239,55.193,55.193,0,0,1,25.587-6.243m0-1.783a57.275,57.275,0,0,0-26.414,6.443,53.952,53.952,0,0,0-29.3,47.821c0,16.277,6.319,34.578,18.781,54.4a224.654,224.654,0,0,0,31.3,38.776,7.635,7.635,0,0,0,5.382,2.2,7.648,7.648,0,0,0,5.3-2.118c15.32-14.61,50.956-52.988,50.956-93.741,0-8.685-2.639-17.7-7.839-26.784-9.531-16.652-27.986-27-48.163-27Z" transform="translate(-3728.871 331.875)" fill="#fff"/>
      </g>
    </g>
    <path id="Trazado_6767" data-name="Trazado 6767" d="M3755.041-300.739a8.391,8.391,0,0,0,8.392-8.391,8.392,8.392,0,0,0-8.392-8.391,8.392,8.392,0,0,0-8.391,8.391A8.391,8.391,0,0,0,3755.041-300.739Zm0,23.088a5.78,5.78,0,0,1,1.788-4.195l9.458-8.927a5.836,5.836,0,0,1,.734-.469,8.379,8.379,0,0,0-7.785-5.3h-8.392a8.392,8.392,0,0,0-8.391,8.391v12.588a4.2,4.2,0,0,0,4.2,4.195v16.783a4.2,4.2,0,0,0,4.195,4.2h8.392a4.2,4.2,0,0,0,4.2-4.2v-12.639l-6.6-6.231a5.775,5.775,0,0,1-1.788-4.2Zm44.557-23.088a8.39,8.39,0,0,0,8.392-8.391,8.391,8.391,0,0,0-8.392-8.391,8.392,8.392,0,0,0-8.391,8.391A8.391,8.391,0,0,0,3799.6-300.739Zm4.2,4.2H3795.4a8.377,8.377,0,0,0-7.786,5.3,4.931,4.931,0,0,1,.737.47l9.456,8.924a5.817,5.817,0,0,1,.167,8.225q-.081.086-.167.167l-6.6,6.234v12.637a4.2,4.2,0,0,0,4.2,4.2h8.392a4.2,4.2,0,0,0,4.195-4.2v-16.783a4.2,4.2,0,0,0,4.2-4.195v-12.588A8.392,8.392,0,0,0,3803.794-296.542Zm-8.863,17.745-9.457-8.924a1.573,1.573,0,0,0-2.224.054,1.578,1.578,0,0,0-.437,1.091v4.719h-10.991v-4.719a1.574,1.574,0,0,0-1.567-1.581,1.577,1.577,0,0,0-1.091.436l-9.458,8.924a1.627,1.627,0,0,0,0,2.291l9.458,8.925a1.574,1.574,0,0,0,2.224-.052,1.577,1.577,0,0,0,.434-1.094v-4.739h10.991v4.739a1.574,1.574,0,0,0,1.568,1.581,1.571,1.571,0,0,0,1.092-.434l9.457-8.925A1.627,1.627,0,0,0,3794.931-278.8Z" transform="translate(-2196.451 6296.072)" fill="#fff" style="isolation: isolate"/>
  </g>
</svg>
