<svg xmlns="http://www.w3.org/2000/svg" width="111.711" height="149.64" viewBox="0 0 111.711 149.64">
  <g id="Grupo_5969" data-name="Grupo 5969" transform="translate(-1523.824 -5496.427)">
    <g id="Grupo_5542" data-name="Grupo 5542" transform="translate(1523.824 5496.427)">
      <g id="Grupo_5541" data-name="Grupo 5541">
        <path id="Trazado_6760" data-name="Trazado 6760" d="M3783.985-464.377a6.749,6.749,0,0,1-4.757-1.945c-8.318-8.163-49.812-50.99-49.812-92.536a53.062,53.062,0,0,1,28.816-47.031,56.39,56.39,0,0,1,26-6.342c19.857,0,38.018,10.171,47.39,26.546,5.122,8.95,7.722,17.812,7.722,26.34,0,40.411-35.444,78.567-50.682,93.095a6.745,6.745,0,0,1-4.678,1.873Z" transform="translate(-3728.525 613.124)" fill="#007473"/>
        <path id="Trazado_6761" data-name="Trazado 6761" d="M3784.58-610.993c18.8,0,37.064,9.414,46.614,26.1,4.808,8.4,7.6,17.126,7.6,25.9,0,39.3-33.586,76.415-50.4,92.45a5.866,5.866,0,0,1-4.063,1.626,5.892,5.892,0,0,1-4.133-1.688c-16.7-16.4-49.542-55.514-49.542-91.9a52,52,0,0,1,28.337-46.24,55.19,55.19,0,0,1,25.587-6.241m0-1.785a57.275,57.275,0,0,0-26.414,6.445,53.948,53.948,0,0,0-29.3,47.821c0,16.275,6.319,34.578,18.781,54.4a224.52,224.52,0,0,0,31.3,38.776,7.637,7.637,0,0,0,5.382,2.2,7.642,7.642,0,0,0,5.3-2.119c15.32-14.61,50.956-52.987,50.956-93.741,0-8.684-2.639-17.7-7.839-26.783-9.531-16.652-27.986-27-48.163-27Z" transform="translate(-3728.871 612.778)" fill="#fff"/>
      </g>
    </g>
    <path id="Trazado_6762" data-name="Trazado 6762" d="M3778.876-579.608v-19.26h-28.324a3.39,3.39,0,0,0-3.4,3.4v65.711a3.39,3.39,0,0,0,3.4,3.4h47.584a3.39,3.39,0,0,0,3.4-3.4v-46.451h-19.261A3.41,3.41,0,0,1,3778.876-579.608Zm9.065,33.422a1.705,1.705,0,0,1-1.7,1.7h-23.793a1.7,1.7,0,0,1-1.7-1.7v-1.133a1.7,1.7,0,0,1,1.7-1.7h23.793a1.7,1.7,0,0,1,1.7,1.7Zm0-9.063a1.7,1.7,0,0,1-1.7,1.7h-23.793a1.7,1.7,0,0,1-1.7-1.7v-1.133a1.7,1.7,0,0,1,1.7-1.7h23.793a1.705,1.705,0,0,1,1.7,1.7Zm0-10.2v1.133a1.706,1.706,0,0,1-1.7,1.7h-23.793a1.7,1.7,0,0,1-1.7-1.7v-1.133a1.7,1.7,0,0,1,1.7-1.7h23.793A1.706,1.706,0,0,1,3787.941-565.446Zm13.595-16.159v.864h-18.128v-18.127h.864a3.405,3.405,0,0,1,2.409.991L3800.543-584A3.381,3.381,0,0,1,3801.536-581.6Z" transform="translate(-2193.476 6118.008)" fill="#fff" style="isolation: isolate"/>
  </g>
</svg>
