<svg id="Grupo_5962" data-name="Grupo 5962" xmlns="http://www.w3.org/2000/svg" width="111.712" height="149.639" viewBox="0 0 111.712 149.639">
  <g id="Grupo_5501" data-name="Grupo 5501">
    <g id="Grupo_5500" data-name="Grupo 5500">
      <path id="Trazado_6718" data-name="Trazado 6718" d="M3025.406-604.827a6.747,6.747,0,0,1-4.756-1.945c-8.318-8.163-49.812-50.99-49.812-92.538a53.06,53.06,0,0,1,28.817-47.029,56.365,56.365,0,0,1,26-6.344c19.858,0,38.016,10.173,47.39,26.548,5.121,8.95,7.72,17.812,7.72,26.34,0,40.411-35.444,78.567-50.682,93.095a6.746,6.746,0,0,1-4.678,1.873Z" transform="translate(-2969.947 753.575)" fill="#007473"/>
      <path id="Trazado_6719" data-name="Trazado 6719" d="M3026-751.446c18.8,0,37.064,9.415,46.615,26.1,4.807,8.4,7.6,17.126,7.6,25.9,0,39.3-33.586,76.413-50.4,92.45a5.868,5.868,0,0,1-4.062,1.625,5.877,5.877,0,0,1-4.131-1.688c-16.707-16.394-49.544-55.512-49.544-91.9a52.005,52.005,0,0,1,28.337-46.239A55.194,55.194,0,0,1,3026-751.446m0-1.783a57.274,57.274,0,0,0-26.414,6.443,53.952,53.952,0,0,0-29.3,47.821c0,16.277,6.32,34.578,18.78,54.4a224.649,224.649,0,0,0,31.3,38.776,7.638,7.638,0,0,0,5.382,2.2,7.649,7.649,0,0,0,5.3-2.118c15.32-14.609,50.956-52.986,50.956-93.741,0-8.685-2.637-17.7-7.84-26.784-9.531-16.651-27.986-27-48.163-27Z" transform="translate(-2970.291 753.229)" fill="#fff"/>
    </g>
  </g>
  <path id="Trazado_6720" data-name="Trazado 6720" d="M3014.561-707.768a16.826,16.826,0,0,0,16.827-16.827,16.825,16.825,0,0,0-16.827-16.825,16.825,16.825,0,0,0-16.825,16.825A16.825,16.825,0,0,0,3014.561-707.768Zm-15.774,22.085a3.147,3.147,0,0,0,3.154,3.155,3.147,3.147,0,0,0,3.155-3.155,3.147,3.147,0,0,0-3.155-3.155A3.147,3.147,0,0,0,2998.787-685.684Zm28.394-17.8v6.44a10.533,10.533,0,0,1,8.413,10.307v5.482a2.111,2.111,0,0,1-1.7,2.064l-4.234.841a1.044,1.044,0,0,1-1.234-.828l-.408-2.064a1.042,1.042,0,0,1,.828-1.236l2.538-.513v-3.746c0-8.256-12.62-8.558-12.62.25v3.509l2.538.513a1.067,1.067,0,0,1,.827,1.236l-.407,2.064a1.066,1.066,0,0,1-1.236.828l-4.1-.552a2.1,2.1,0,0,1-1.814-2.09v-5.758a10.543,10.543,0,0,1,8.414-10.307v-5.94c-.289.091-.58.144-.869.248a22.756,22.756,0,0,1-7.546,1.288,22.763,22.763,0,0,1-7.546-1.288,14.481,14.481,0,0,0-2.97-.682v10.726a7.335,7.335,0,0,1,5.258,7.02,7.365,7.365,0,0,1-7.361,7.361,7.365,7.365,0,0,1-7.361-7.361,7.335,7.335,0,0,1,5.258-7.02v-10.57a17.625,17.625,0,0,0-14.737,17.366V-680a5.9,5.9,0,0,0,5.89,5.888h47.114a5.9,5.9,0,0,0,5.888-5.888v-5.89a17.639,17.639,0,0,0-16.825-17.588Z" transform="translate(-2960.91 760.702)" fill="#fff" style="isolation: isolate"/>
</svg>
