<svg xmlns="http://www.w3.org/2000/svg" width="111.711" height="149.639" viewBox="0 0 111.711 149.639">
  <g id="Grupo_5968" data-name="Grupo 5968" transform="translate(-1523.824 -5267.084)">
    <g id="Grupo_5534" data-name="Grupo 5534" transform="translate(1523.824 5267.084)">
      <g id="Grupo_5533" data-name="Grupo 5533">
        <path id="Trazado_6750" data-name="Trazado 6750" d="M3783.985-604.827a6.749,6.749,0,0,1-4.757-1.945c-8.318-8.163-49.812-50.99-49.812-92.538a53.061,53.061,0,0,1,28.816-47.029,56.374,56.374,0,0,1,26-6.344c19.857,0,38.018,10.173,47.39,26.548,5.122,8.95,7.722,17.812,7.722,26.34,0,40.411-35.444,78.567-50.682,93.095a6.745,6.745,0,0,1-4.678,1.873Z" transform="translate(-3728.525 753.575)" fill="#007473"/>
        <path id="Trazado_6751" data-name="Trazado 6751" d="M3784.58-751.446c18.8,0,37.064,9.415,46.614,26.1,4.808,8.4,7.6,17.126,7.6,25.9,0,39.3-33.586,76.413-50.4,92.45a5.871,5.871,0,0,1-4.063,1.625,5.885,5.885,0,0,1-4.133-1.688c-16.7-16.394-49.542-55.512-49.542-91.9a52,52,0,0,1,28.337-46.239,55.193,55.193,0,0,1,25.587-6.243m0-1.783a57.276,57.276,0,0,0-26.414,6.443,53.952,53.952,0,0,0-29.3,47.821c0,16.277,6.319,34.578,18.781,54.4a224.583,224.583,0,0,0,31.3,38.776,7.635,7.635,0,0,0,5.382,2.2,7.647,7.647,0,0,0,5.3-2.118c15.32-14.609,50.956-52.987,50.956-93.741,0-8.685-2.639-17.7-7.839-26.784-9.531-16.651-27.986-27-48.163-27Z" transform="translate(-3728.871 753.229)" fill="#fff"/>
      </g>
    </g>
    <path id="Trazado_6752" data-name="Trazado 6752" d="M3800.151-684.979l-11.156-12.637h4.278a3.171,3.171,0,0,0,2.9-1.824,3.077,3.077,0,0,0-.459-3.359l-10.909-12.691h4.033a3.166,3.166,0,0,0,2.913-1.9,3.11,3.11,0,0,0-.591-3.364l-15.4-16.406a2.3,2.3,0,0,0-3.256,0l-15.4,16.406a3.111,3.111,0,0,0-.593,3.364,3.17,3.17,0,0,0,2.915,1.9h4.035L3752.55-702.8a3.084,3.084,0,0,0-.457,3.357,3.172,3.172,0,0,0,2.9,1.822h4.277l-11.156,12.637a3.087,3.087,0,0,0-.5,3.388,3.242,3.242,0,0,0,2.934,1.85h19.111v3.414l-4.229,6.759a2.235,2.235,0,0,0,2,3.235h13.4a2.236,2.236,0,0,0,2-3.235l-4.229-6.759v-3.414h19.111a3.24,3.24,0,0,0,2.934-1.85A3.086,3.086,0,0,0,3800.151-684.979Z" transform="translate(-2193.369 6030.056)" fill="#fff" style="isolation: isolate"/>
  </g>
</svg>
