<svg xmlns="http://www.w3.org/2000/svg" width="111.712" height="149.64" viewBox="0 0 111.712 149.64">
  <g id="Grupo_5960" data-name="Grupo 5960" transform="translate(-285.141 -4808.398)">
    <g id="Grupo_5493" data-name="Grupo 5493" transform="translate(285.141 4808.398)">
      <g id="Grupo_5492" data-name="Grupo 5492">
        <path id="Trazado_6708" data-name="Trazado 6708" d="M3025.406-885.731a6.745,6.745,0,0,1-4.756-1.943c-8.318-8.164-49.812-50.994-49.812-92.538a53.062,53.062,0,0,1,28.817-47.031,56.386,56.386,0,0,1,26-6.342c19.858,0,38.016,10.171,47.39,26.546,5.121,8.952,7.72,17.815,7.72,26.34,0,40.411-35.444,78.567-50.682,93.095a6.746,6.746,0,0,1-4.678,1.873Z" transform="translate(-2969.947 1034.478)" fill="#007473"/>
        <path id="Trazado_6709" data-name="Trazado 6709" d="M3026-1032.347c18.8,0,37.064,9.414,46.615,26.1,4.807,8.4,7.6,17.126,7.6,25.9,0,39.3-33.586,76.415-50.4,92.45a5.86,5.86,0,0,1-4.062,1.626,5.883,5.883,0,0,1-4.131-1.688c-16.707-16.4-49.544-55.514-49.544-91.9a52.008,52.008,0,0,1,28.337-46.241,55.213,55.213,0,0,1,25.587-6.241m0-1.785a57.277,57.277,0,0,0-26.414,6.445,53.95,53.95,0,0,0-29.3,47.821c0,16.275,6.32,34.578,18.78,54.4a224.588,224.588,0,0,0,31.3,38.777,7.639,7.639,0,0,0,5.382,2.2,7.644,7.644,0,0,0,5.3-2.119C3046.367-901.219,3082-939.6,3082-980.352c0-8.685-2.637-17.7-7.84-26.783-9.531-16.652-27.986-27-48.163-27Z" transform="translate(-2970.291 1034.132)" fill="#fff"/>
      </g>
    </g>
    <path id="Trazado_6710" data-name="Trazado 6710" d="M2991.989-991.771a8.016,8.016,0,0,0,8.01-8.008,8.016,8.016,0,0,0-8.01-8.008,8.015,8.015,0,0,0-8.008,8.008A8.015,8.015,0,0,0,2991.989-991.771Zm56.059,0a8.015,8.015,0,0,0,8.008-8.008,8.015,8.015,0,0,0-8.008-8.008,8.016,8.016,0,0,0-8.01,8.008A8.016,8.016,0,0,0,3048.048-991.771Zm4,4h-8.01a7.989,7.989,0,0,0-5.643,2.328,18.3,18.3,0,0,1,9.4,13.689h8.26a4,4,0,0,0,4-4v-4A8.016,8.016,0,0,0,3052.051-987.767Zm-32.034,0a14.007,14.007,0,0,0,14.015-14.014,14.008,14.008,0,0,0-14.015-14.015A14.007,14.007,0,0,0,3006-1001.781,14.006,14.006,0,0,0,3020.017-987.767Zm9.611,4.005h-1.038a19.722,19.722,0,0,1-8.573,2,19.763,19.763,0,0,1-8.571-2h-1.039a14.42,14.42,0,0,0-14.415,14.414v3.6a6.009,6.009,0,0,0,6.008,6.007h36.036a6.007,6.007,0,0,0,6.006-6.007v-3.6A14.417,14.417,0,0,0,3029.628-983.762Zm-27.991-1.677a7.991,7.991,0,0,0-5.645-2.328h-8.007a8.016,8.016,0,0,0-8.008,8.009v4a4,4,0,0,0,4,4h8.246a18.345,18.345,0,0,1,9.41-13.689Z" transform="translate(-2679.021 5854.135)" fill="#fff" style="isolation: isolate"/>
  </g>
</svg>
