<svg xmlns="http://www.w3.org/2000/svg" width="111.711" height="149.641" viewBox="0 0 111.711 149.641">
  <g id="Grupo_5967" data-name="Grupo 5967" transform="translate(-1523.824 -5037.741)">
    <g id="Grupo_5530" data-name="Grupo 5530" transform="translate(1523.824 5037.741)">
      <g id="Grupo_5529" data-name="Grupo 5529">
        <path id="Trazado_6745" data-name="Trazado 6745" d="M3783.985-745.278a6.749,6.749,0,0,1-4.757-1.945c-8.318-8.163-49.812-50.991-49.812-92.538a53.066,53.066,0,0,1,28.816-47.031,56.389,56.389,0,0,1,26-6.342c19.857,0,38.018,10.171,47.39,26.548,5.122,8.948,7.722,17.812,7.722,26.339,0,40.411-35.444,78.569-50.682,93.1a6.753,6.753,0,0,1-4.678,1.873Z" transform="translate(-3728.525 894.027)" fill="#007473"/>
        <path id="Trazado_6746" data-name="Trazado 6746" d="M3784.58-891.9c18.8,0,37.064,9.414,46.614,26.1,4.808,8.4,7.6,17.126,7.6,25.9,0,39.3-33.586,76.415-50.4,92.45a5.866,5.866,0,0,1-4.063,1.626,5.886,5.886,0,0,1-4.133-1.688c-16.7-16.4-49.542-55.512-49.542-91.9a52,52,0,0,1,28.337-46.239,55.2,55.2,0,0,1,25.587-6.242m0-1.785a57.277,57.277,0,0,0-26.414,6.445,53.95,53.95,0,0,0-29.3,47.821c0,16.277,6.319,34.578,18.781,54.4a224.654,224.654,0,0,0,31.3,38.776,7.635,7.635,0,0,0,5.382,2.2,7.642,7.642,0,0,0,5.3-2.12c15.32-14.608,50.956-52.986,50.956-93.741,0-8.684-2.639-17.7-7.839-26.783-9.531-16.652-27.986-27-48.163-27Z" transform="translate(-3728.871 893.681)" fill="#fff"/>
      </g>
    </g>
    <path id="Trazado_6747" data-name="Trazado 6747" d="M3810.053-845.568a27.509,27.509,0,0,0-17.077-25.449l-5.848,11.693V-875.37a2.293,2.293,0,0,0-2.292-2.293h-13.755a2.293,2.293,0,0,0-2.293,2.293v16.046l-5.846-11.693a27.508,27.508,0,0,0-17.079,25.449v9.17h64.19Zm2.292,13.754h-68.774a2.293,2.293,0,0,0-2.292,2.293v4.585a2.293,2.293,0,0,0,2.292,2.293h68.774a2.294,2.294,0,0,0,2.293-2.293v-4.585A2.294,2.294,0,0,0,3812.345-831.814Z" transform="translate(-2197.194 5941.56)" fill="#fff" style="isolation: isolate"/>
  </g>
</svg>
