<svg xmlns="http://www.w3.org/2000/svg" width="111.712" height="149.64" viewBox="0 0 111.712 149.64">
  <g id="Grupo_5963" data-name="Grupo 5963" transform="translate(-285.141 -5496.427)">
    <g id="Grupo_5505" data-name="Grupo 5505" transform="translate(285.141 5496.427)">
      <g id="Grupo_5504" data-name="Grupo 5504">
        <path id="Trazado_6723" data-name="Trazado 6723" d="M3025.406-464.377a6.747,6.747,0,0,1-4.756-1.945c-8.318-8.163-49.812-50.99-49.812-92.536a53.06,53.06,0,0,1,28.817-47.031,56.386,56.386,0,0,1,26-6.342c19.856,0,38.016,10.171,47.39,26.546,5.121,8.95,7.72,17.813,7.72,26.34,0,40.411-35.444,78.567-50.682,93.095a6.746,6.746,0,0,1-4.678,1.873Z" transform="translate(-2969.947 613.124)" fill="#007473"/>
        <path id="Trazado_6724" data-name="Trazado 6724" d="M3026-610.993c18.8,0,37.064,9.414,46.615,26.1,4.807,8.4,7.6,17.126,7.6,25.9,0,39.3-33.586,76.415-50.4,92.45a5.862,5.862,0,0,1-4.062,1.626,5.884,5.884,0,0,1-4.131-1.688c-16.707-16.4-49.544-55.514-49.544-91.9a52.005,52.005,0,0,1,28.337-46.24A55.191,55.191,0,0,1,3026-610.993m0-1.785a57.273,57.273,0,0,0-26.414,6.445,53.948,53.948,0,0,0-29.3,47.821c0,16.275,6.32,34.578,18.78,54.4a224.586,224.586,0,0,0,31.3,38.776,7.64,7.64,0,0,0,5.382,2.2,7.644,7.644,0,0,0,5.3-2.119C3046.367-479.865,3082-518.243,3082-559c0-8.685-2.637-17.7-7.84-26.783-9.531-16.652-27.986-27-48.163-27Z" transform="translate(-2970.291 612.778)" fill="#fff"/>
      </g>
    </g>
    <path id="Trazado_6725" data-name="Trazado 6725" d="M2981.681-576v30.509a1.8,1.8,0,0,0,1.795,1.795h8.974v-35.893h-7.179A3.59,3.59,0,0,0,2981.681-576Zm40.382-5.384h-2.692v-4.487a.9.9,0,0,0-.9-.9h-1.8a.9.9,0,0,0-.9.9v7.178a.9.9,0,0,0,.9.9h5.385a.9.9,0,0,0,.9-.9v-1.795A.9.9,0,0,0,3022.062-581.386Zm15.451-7.175-17.947-11.964a3.589,3.589,0,0,0-3.981,0l-17.948,11.964a3.589,3.589,0,0,0-1.6,2.987V-543.7H3010.4V-559.85a1.794,1.794,0,0,1,1.794-1.8h10.767a1.8,1.8,0,0,1,1.795,1.8V-543.7h14.358v-41.876A3.591,3.591,0,0,0,3037.513-588.561Zm-19.938,16.148a8.974,8.974,0,0,1-8.973-8.973,8.974,8.974,0,0,1,8.973-8.974,8.974,8.974,0,0,1,8.973,8.974A8.974,8.974,0,0,1,3017.575-572.414Zm32.3-7.178H3042.7V-543.7h8.974a1.8,1.8,0,0,0,1.795-1.795V-576A3.591,3.591,0,0,0,3049.879-579.592Z" transform="translate(-2677.943 6116.578)" fill="#fff" style="isolation: isolate"/>
  </g>
</svg>
