<svg xmlns="http://www.w3.org/2000/svg" width="542.399" height="752.557" viewBox="0 0 542.399 752.557">
  <g id="Grupo_5356" data-name="Grupo 5356" transform="translate(-2657.321 1430.588)">
    <g id="Grupo_5337" data-name="Grupo 5337">
      <g id="Grupo_5336" data-name="Grupo 5336">
        <path id="Trazado_6281" data-name="Trazado 6281" d="M2760.381-1415.39c-8.132-14.207-27.116-19.36-42.046-11.564a30.286,30.286,0,0,0-16.5,26.928c0,21.19,19.123,43.97,28.851,53.518a3.434,3.434,0,0,0,4.773.037c9.793-9.339,29.352-30.953,29.352-53.838A30.465,30.465,0,0,0,2760.381-1415.39Zm-13,24.529a16.227,16.227,0,0,1-16.764,7.925,16.193,16.193,0,0,1-13.215-12.823,16.242,16.242,0,0,1,19.087-19.087,16.184,16.184,0,0,1,12.8,13.067A16.259,16.259,0,0,1,2747.386-1390.861Z" fill="#007473"/>
      </g>
      <text id="Canales_de_participación_ciudadana_y_comunicación_obsoletos." data-name="Canales de participación
ciudadana y comunicación
obsoletos." transform="translate(2733.322 -1328.926)" font-size="13.766" font-family="Cairo-Bold, Cairo" font-weight="700"><tspan x="-72.037" y="0">Canales de participación</tspan><tspan y="0" font-family="Cairo-Regular, Cairo" font-weight="400"></tspan><tspan font-family="Cairo-Regular, Cairo" font-weight="400"><tspan x="-75.355" y="15">ciudadana y comunicación</tspan></tspan><tspan x="-30.863" y="30">obsoletos.</tspan></text>
    </g>
    <g id="Grupo_5339" data-name="Grupo 5339">
      <g id="Grupo_5338" data-name="Grupo 5338">
        <path id="Trazado_6282" data-name="Trazado 6282" d="M2956.84-1415.39c-8.132-14.207-27.116-19.36-42.047-11.564a30.286,30.286,0,0,0-16.5,26.928c0,21.19,19.123,43.97,28.852,53.518a3.433,3.433,0,0,0,4.772.037c9.794-9.339,29.353-30.953,29.353-53.838A30.465,30.465,0,0,0,2956.84-1415.39Zm-13,24.529a16.228,16.228,0,0,1-16.765,7.925,16.193,16.193,0,0,1-13.214-12.823,16.242,16.242,0,0,1,19.087-19.087,16.184,16.184,0,0,1,12.8,13.067A16.27,16.27,0,0,1,2943.845-1390.861Z" fill="#007473"/>
      </g>
      <text id="Desorganización_en_las_áreas_operativas_y_excesivo_uso_de_papel." data-name="Desorganización en las
áreas operativas y
excesivo uso de papel." transform="translate(2929.779 -1328.925)" font-size="13.766" font-family="Cairo-Regular, Cairo"><tspan x="-66.152" y="0">Desorganización en las</tspan><tspan x="-52.634" y="15">áreas operativas y</tspan><tspan font-family="Cairo-Bold, Cairo" font-weight="700"><tspan x="-66.008" y="30">excesivo uso de papel.</tspan></tspan></text>
    </g>
    <line id="Línea_43" data-name="Línea 43" x2="127.987" transform="translate(2767.297 -1398.933)" fill="none" stroke="#e26824" stroke-miterlimit="10" stroke-width="1" stroke-dasharray="6"/>
    <line id="Línea_44" data-name="Línea 44" x2="131.987" transform="translate(2964.613 -1398.933)" fill="none" stroke="#e26824" stroke-miterlimit="10" stroke-width="1" stroke-dasharray="6"/>
    <line id="Línea_45" data-name="Línea 45" x2="127.987" transform="translate(2767.297 -1195.053)" fill="none" stroke="#e26824" stroke-miterlimit="10" stroke-width="1" stroke-dasharray="6"/>
    <path id="Trazado_7846" data-name="Trazado 7846" d="M0,0,129.356-.161" transform="translate(2767.297 -974.053)" fill="none" stroke="#e26824" stroke-width="1" stroke-dasharray="6"/>
    <line id="Línea_46" data-name="Línea 46" x2="131.987" transform="translate(2964.613 -1195.053)" fill="none" stroke="#e26824" stroke-miterlimit="10" stroke-width="1" stroke-dasharray="6"/>
    <line id="Línea_61" data-name="Línea 61" x2="134" transform="translate(2963.821 -974.053)" fill="none" stroke="#e26824" stroke-miterlimit="10" stroke-width="1" stroke-dasharray="6"/>
    <g id="Grupo_5341" data-name="Grupo 5341">
      <g id="Grupo_5340" data-name="Grupo 5340">
        <path id="Trazado_6283" data-name="Trazado 6283" d="M3157.779-1415.363c-8.132-14.207-27.116-19.36-42.046-11.564a30.285,30.285,0,0,0-16.5,26.928c0,21.191,19.123,43.97,28.852,53.518a3.432,3.432,0,0,0,4.772.037c9.794-9.339,29.353-30.952,29.353-53.838A30.462,30.462,0,0,0,3157.779-1415.363Zm-13,24.529a16.226,16.226,0,0,1-16.764,7.925,16.192,16.192,0,0,1-13.215-12.823,16.242,16.242,0,0,1,19.087-19.087,16.183,16.183,0,0,1,12.8,13.067A16.263,16.263,0,0,1,3144.784-1390.834Z" fill="#007473"/>
      </g>
      <text id="Tareas_redundantes_en_diferentes_áreas_de_trabajo." data-name="Tareas redundantes
en diferentes áreas
de trabajo." transform="translate(3130.719 -1328.899)" font-size="13.766" font-family="Cairo-Bold, Cairo" font-weight="700"><tspan x="-58.822" y="0">Tareas redundantes</tspan><tspan font-family="Cairo-Regular, Cairo" font-weight="400"><tspan x="-55.497" y="15">en diferentes áreas</tspan><tspan x="-30.581" y="30">de trabajo.</tspan></tspan></text>
    </g>
    <g id="Grupo_5343" data-name="Grupo 5343">
      <g id="Grupo_5342" data-name="Grupo 5342">
        <path id="Trazado_6284" data-name="Trazado 6284" d="M2760.381-1208.85c-8.132-14.206-27.117-19.36-42.047-11.563a30.285,30.285,0,0,0-16.5,26.927c0,21.191,19.123,43.971,28.851,53.519a3.433,3.433,0,0,0,4.773.036c9.794-9.338,29.352-30.952,29.352-53.837A30.467,30.467,0,0,0,2760.381-1208.85Zm-13,24.53a16.228,16.228,0,0,1-16.765,7.925,16.193,16.193,0,0,1-13.214-12.823,16.242,16.242,0,0,1,19.087-19.087,16.181,16.181,0,0,1,12.8,13.067A16.264,16.264,0,0,1,2747.386-1184.32Z" fill="#007473"/>
      </g>
      <text id="procesos_de_toma_de_decisiones_basado_exclusivamente_en_la_intuición_y_la_experiencia." data-name="procesos de toma
de decisiones  basado
exclusivamente en la
intuición y la experiencia." transform="translate(2733.321 -1122.385)" font-size="13.766" font-family="Cairo-Regular, Cairo"><tspan x="-51.65" y="0">procesos de </tspan><tspan y="0" font-family="Cairo-Bold, Cairo" font-weight="700">toma</tspan><tspan font-family="Cairo-Bold, Cairo" font-weight="700"><tspan x="-64.211" y="15" xml:space="preserve">de decisiones  </tspan><tspan y="15" font-family="Cairo-Regular, Cairo" font-weight="400">basado</tspan></tspan><tspan x="-60.185" y="30">exclusivamente en la</tspan><tspan font-family="Cairo-Bold, Cairo" font-weight="700"><tspan x="-75.148" y="45">intuición y la experiencia.</tspan></tspan></text>
    </g>
    <g id="Grupo_5345" data-name="Grupo 5345">
      <g id="Grupo_5344" data-name="Grupo 5344">
        <path id="Trazado_6285" data-name="Trazado 6285" d="M2956.838-1208.85c-8.132-14.206-27.116-19.36-42.046-11.563a30.285,30.285,0,0,0-16.5,26.927c0,21.191,19.123,43.971,28.851,53.519a3.433,3.433,0,0,0,4.773.036c9.794-9.338,29.352-30.952,29.352-53.837A30.466,30.466,0,0,0,2956.838-1208.85Zm-12.994,24.53a16.228,16.228,0,0,1-16.765,7.925,16.193,16.193,0,0,1-13.214-12.823,16.241,16.241,0,0,1,19.087-19.087,16.183,16.183,0,0,1,12.8,13.067A16.264,16.264,0,0,1,2943.844-1184.32Z" fill="#007473"/>
      </g>
      <text id="Falta_de_información_en_tiempo_real_para_el_proceso_de_toma_de_decisiones." data-name="Falta de información
en tiempo real
para el proceso de toma
de decisiones." transform="translate(2929.779 -1122.385)" font-size="13.766" font-family="Cairo-Bold, Cairo" font-weight="700"><tspan x="-61.093" y="0">Falta de información</tspan><tspan x="-42.764" y="15">en tiempo real</tspan><tspan font-family="Cairo-Regular, Cairo" font-weight="400"><tspan x="-69.243" y="30">para el proceso de toma</tspan><tspan x="-40.472" y="45">de decisiones.</tspan></tspan></text>
    </g>
    <g id="Grupo_5347" data-name="Grupo 5347">
      <g id="Grupo_5346" data-name="Grupo 5346">
        <path id="Trazado_6286" data-name="Trazado 6286" d="M3157.78-1208.85c-8.132-14.206-27.117-19.36-42.047-11.563a30.285,30.285,0,0,0-16.5,26.927c0,21.191,19.123,43.971,28.851,53.519a3.433,3.433,0,0,0,4.773.036c9.794-9.338,29.352-30.952,29.352-53.837A30.464,30.464,0,0,0,3157.78-1208.85Zm-13,24.53a16.228,16.228,0,0,1-16.765,7.925,16.194,16.194,0,0,1-13.214-12.823,16.242,16.242,0,0,1,19.087-19.087,16.181,16.181,0,0,1,12.8,13.067A16.263,16.263,0,0,1,3144.785-1184.32Z" fill="#007473"/>
      </g>
      <text id="Ausencia_de_registros_de_todas_las_tareas_de_administración_municipal." data-name="Ausencia de registros
de todas las tareas
de administración
municipal." transform="translate(3130.72 -1122.385)" font-size="13.766" font-family="Cairo-Bold, Cairo" font-weight="700"><tspan x="-63.943" y="0">Ausencia de registros</tspan><tspan font-family="Cairo-Regular, Cairo" font-weight="400"><tspan x="-54.541" y="15">de todas las tareas</tspan><tspan x="-51.485" y="30">de administración</tspan><tspan x="-29.287" y="45">municipal.</tspan></tspan></text>
    </g>
    <g id="Grupo_5349" data-name="Grupo 5349">
      <g id="Grupo_5348" data-name="Grupo 5348">
        <path id="Trazado_6287" data-name="Trazado 6287" d="M2760.38-989.89c-8.132-14.207-27.116-19.36-42.046-11.564a30.286,30.286,0,0,0-16.5,26.928c0,21.19,19.123,43.97,28.851,53.518a3.434,3.434,0,0,0,4.773.037c9.793-9.339,29.352-30.953,29.352-53.838A30.462,30.462,0,0,0,2760.38-989.89Zm-12.994,24.529a16.229,16.229,0,0,1-16.765,7.925,16.193,16.193,0,0,1-13.215-12.823,16.242,16.242,0,0,1,19.087-19.087,16.184,16.184,0,0,1,12.8,13.067A16.264,16.264,0,0,1,2747.386-965.361Z" fill="#007473"/>
      </g>
      <text id="Ubicación_y_frecuencia_de_las_tareas_de_administración_municipal_desconocidas." data-name="Ubicación y frecuencia
de las tareas de
administración municipal
desconocidas." transform="translate(2733.321 -903.426)" font-size="13.766" font-family="Cairo-Bold, Cairo" font-weight="700"><tspan x="-66.476" y="0">Ubicación y frecuencia</tspan><tspan font-family="Cairo-Regular, Cairo" font-weight="400"><tspan x="-45.317" y="15">de las tareas de</tspan><tspan x="-72.161" y="30">administración municipal</tspan></tspan><tspan x="-41.862" y="45">desconocidas.</tspan></text>
    </g>
    <g id="Grupo_5351" data-name="Grupo 5351">
      <g id="Grupo_5350" data-name="Grupo 5350">
        <path id="Trazado_6288" data-name="Trazado 6288" d="M3157.78-989.89c-8.132-14.207-27.117-19.36-42.047-11.564a30.286,30.286,0,0,0-16.5,26.928c0,21.19,19.123,43.97,28.852,53.518a3.433,3.433,0,0,0,4.772.037c9.794-9.339,29.352-30.953,29.352-53.838A30.461,30.461,0,0,0,3157.78-989.89Zm-13,24.529a16.228,16.228,0,0,1-16.765,7.925,16.193,16.193,0,0,1-13.214-12.823,16.242,16.242,0,0,1,19.087-19.087,16.183,16.183,0,0,1,12.8,13.067A16.268,16.268,0,0,1,3144.785-965.361Z" fill="#007473"/>
      </g>
      <text id="Retrasos_en_la_esolución_de_incidentes." data-name="Retrasos en la 
esolución de incidentes." transform="translate(3130.72 -903.425)" font-size="13.766" font-family="Cairo-Bold, Cairo" font-weight="700"><tspan x="-43.225" y="0">Retrasos </tspan><tspan y="0" font-family="Cairo-Regular, Cairo" font-weight="400">en la </tspan><tspan font-family="Cairo-Regular, Cairo" font-weight="400"><tspan x="-68.651" y="15">esolución de incidentes.</tspan></tspan></text>
    </g>
    <g id="Grupo_5353" data-name="Grupo 5353">
      <g id="Grupo_5352" data-name="Grupo 5352">
        <path id="Trazado_6289" data-name="Trazado 6289" d="M2956.838-989.89c-8.132-14.207-27.116-19.36-42.046-11.564a30.286,30.286,0,0,0-16.5,26.928c0,21.19,19.123,43.97,28.851,53.518a3.434,3.434,0,0,0,4.773.037c9.794-9.339,29.352-30.953,29.352-53.838A30.462,30.462,0,0,0,2956.838-989.89Zm-12.994,24.529a16.228,16.228,0,0,1-16.765,7.925,16.192,16.192,0,0,1-13.214-12.823,16.241,16.241,0,0,1,19.087-19.087,16.183,16.183,0,0,1,12.8,13.067A16.264,16.264,0,0,1,2943.844-965.361Z" fill="#007473"/>
      </g>
      <text id="Falta_de_transparencia_en_los_procesos_operativos_municipales." data-name="Falta de transparencia
en los procesos
operativos municipales." transform="translate(2929.779 -903.426)" font-size="13.766" font-family="Cairo-Bold, Cairo" font-weight="700"><tspan x="-66.393" y="0">Falta de transparencia</tspan><tspan font-family="Cairo-Regular, Cairo" font-weight="400"><tspan x="-44.677" y="15">en los procesos</tspan><tspan x="-68.052" y="30">operativos municipales.</tspan></tspan></text>
    </g>
    <g id="Grupo_5355" data-name="Grupo 5355">
      <g id="Grupo_5354" data-name="Grupo 5354">
        <path id="Trazado_6290" data-name="Trazado 6290" d="M2956.838-787.5c-8.132-14.207-27.116-19.36-42.046-11.563a30.284,30.284,0,0,0-16.5,26.927c0,21.191,19.123,43.971,28.851,53.518a3.433,3.433,0,0,0,4.773.037c9.794-9.338,29.352-30.952,29.352-53.838A30.465,30.465,0,0,0,2956.838-787.5Zm-12.994,24.53a16.228,16.228,0,0,1-16.765,7.924,16.191,16.191,0,0,1-13.214-12.822,16.242,16.242,0,0,1,19.087-19.088,16.184,16.184,0,0,1,12.8,13.067A16.268,16.268,0,0,1,2943.844-762.966Z" fill="#007473"/>
      </g>
      <text id="Inexistencia_de_indicadores_de_gestión_KPI_." data-name="Inexistencia de indicadores
de gestión (KPI)." transform="translate(2929.779 -701.031)" font-size="13.766" font-family="Cairo-Regular, Cairo"><tspan x="-78.851" y="0">Inexistencia de </tspan><tspan y="0" font-family="Cairo-Bold, Cairo" font-weight="700">indicadores</tspan><tspan x="-47.726" y="15">de gestión</tspan><tspan y="15" xml:space="preserve" font-family="Cairo-Bold, Cairo" font-weight="700"> (KPI).</tspan></text>
    </g>
    <path id="Trazado_6291" data-name="Trazado 6291" d="M3130.719-1293.7h0a33.843,33.843,0,0,1-33.842,33.843H2766.656a33.843,33.843,0,0,0-33.842,33.843h0" fill="none" stroke="#e26824" stroke-miterlimit="10" stroke-width="1" stroke-dasharray="6"/>
    <path id="Trazado_6292" data-name="Trazado 6292" d="M3130.719-1074.494h0a33.843,33.843,0,0,1-33.842,33.843H2766.656a33.842,33.842,0,0,0-33.842,33.842h0" fill="none" stroke="#e26824" stroke-miterlimit="10" stroke-width="1" stroke-dasharray="6"/>
    <path id="Trazado_6293" data-name="Trazado 6293" d="M3132.719-883.31v10.931a33.842,33.842,0,0,1-33.842,33.842h-135.7a33.843,33.843,0,0,0-33.843,33.843h0" fill="none" stroke="#e26824" stroke-miterlimit="10" stroke-width="1" stroke-dasharray="6"/>
  </g>
</svg>
