<svg xmlns="http://www.w3.org/2000/svg" xmlns:xlink="http://www.w3.org/1999/xlink" width="1920" height="2512" viewBox="0 0 1920 2512"><defs><style>.a{fill:#0e7435;opacity:0.627;mix-blend-mode:multiply;}.a,.b{isolation:isolate;}.b{opacity:0.097;clip-path:url(#a);}.c,.e{fill:none;}.c,.e,.g{stroke:#277677;}.c{stroke-linecap:round;stroke-linejoin:round;stroke-width:1.25px;}.d{opacity:0.8;}.e{stroke-miterlimit:10;stroke-width:2.5px;}.f{opacity:0.5;}.g{fill:#fff;}</style><clipPath id="a"><rect class="a" width="1920" height="2512" transform="translate(0 -1166)"/></clipPath></defs><g class="b" transform="translate(0 1166)"><g transform="translate(1939.474 -1486.116) rotate(90)"><g transform="translate(883.068 24.637)"><line class="c" x1="99.305" y1="336.818" transform="translate(1669.557 0.001)"/><path class="c" d="M592.25,336.818,773,518.473,592.25,783.386,413.472,488.2l-215.715-68.12L0,435.214,341.567,0l71.905,488.2V0L592.25,336.818,413.472,488.2,773,386.016l-180.746-49.2L773,0" transform="translate(1176.612 0)"/><path class="c" d="M595.054,783.386,200.561,420.076,344.37,0,0,168.409,2.8,435.214Z" transform="translate(1173.808 0)"/><path class="c" d="M0,0,180.746,242.206,90.372,507.119Z" transform="translate(1768.862 783.386)"/><path class="c" d="M624.437,0,0,181.655l534.064,83.258,90.373,132.456" transform="translate(1325.171 1025.592)"/><path class="c" d="M622.35,363.31,178.658,787.17,324.823,435.214,0,401.154,227.856,0l96.966,435.214,297.527-71.9L803.1,189.224" transform="translate(1146.512 420.076)"/><path class="c" d="M231.442,684.989,0,503.334,261.541,298.973,28.158,0,258.737,32.168" transform="translate(915.071 136.242)"/><path class="c" d="M625.276,83.258,502.29,410.615,383.079,149.487,0,177.87,91.212,0" transform="translate(1233.959 1207.246)"/><path class="c" d="M1472.158,1750.627,1258.8,1529.236l213.359-32.168-90.374-295.189-242.2,66.228L847.721,1118.621,669.063,732.6l30.1-386.015-494.8-43.521L465.779,47.617,102.181,0,204.361,303.068,437.621,550.951,0,441.2,102.181,0" transform="translate(477.45 88.625)"/><path class="c" d="M681.811,391.694,477.45,529.827,227.675,168.41,579.63,88.625,273.877,235.263,0,147.595,227.675,168.41,428.252,0,579.63,88.625,670.458,0l11.353,391.694"/><line class="c" x1="170.301" y1="168.409" transform="translate(57.374 0.001)"/></g><path class="c" d="M0,121.1,108.65,0l16.63,245.99Z" transform="translate(1672.858 770.178)"/><path class="c" d="M20.815,526.042l104.073-211.93L0,0,151.379,98.4" transform="translate(1004.777 263.059)"/><path class="c" d="M0,228.96,15.138,0,128.672,96.5Z" transform="translate(1205.354 503.373)"/><path class="c" d="M0,95.4,68.12,0,94.611,95.4Z" transform="translate(1360.517 893.174)"/><path class="c" d="M0,238.421l190.19,90.827L336.3,0,507.049,164.624" transform="translate(1644.422 1050.229)"/><path class="c" d="M136.241,0,0,234.637l183.546-98.4Z" transform="translate(2336.91 1474.089)"/><path class="c" d="M129.437,227.068,0,0,251.907,51.09Z" transform="translate(1672.858 1591.408)"/><g class="d" transform="translate(1109.481 58.699)"><path class="e" d="M0,0" transform="translate(969.945 810.156)"/><path class="e" d="M0,0" transform="translate(1073.668 437.315)"/><path class="e" d="M0,0" transform="translate(1463.328 740.073)"/><path class="e" d="M0,0" transform="translate(1485.754 905.469)"/><path class="e" d="M0,0" transform="translate(1527.803 883.042)"/><path class="e" d="M0,0" transform="translate(913.878 151.378)"/><path class="e" d="M0,0" transform="translate(877.436 151.378)"/><path class="e" d="M0,0" transform="translate(0 89.705)"/><path class="e" d="M0,0" transform="translate(33.639 56.065)"/><path class="e" d="M0,0" transform="translate(1667.969 0)"/><path class="e" d="M0,0" transform="translate(1625.92 36.443)"/><path class="e" d="M0,0" transform="translate(1491.361 311.166)"/><path class="e" d="M0,0" transform="translate(1547.428 252.297)"/><path class="e" d="M0,0" transform="translate(1471.737 280.33)"/><path class="e" d="M0,0" transform="translate(650.368 636.351)"/><path class="e" d="M0,0" transform="translate(675.598 639.154)"/><path class="e" d="M0,0" transform="translate(224.264 541.038)"/><path class="e" d="M0,0" transform="translate(538.235 1230.652)"/><path class="e" d="M0,0" transform="translate(1365.212 1412.868)"/><path class="e" d="M0,0" transform="translate(818.567 1583.87)"/><path class="e" d="M0,0" transform="translate(1667.969 1037.224)"/><path class="e" d="M0,0" transform="translate(1642.739 1056.847)"/><path class="e" d="M0,0" transform="translate(701.388 280.05)"/><path class="e" d="M0,0" transform="translate(731.664 264.912)"/><path class="e" d="M0,0" transform="translate(1053.343 787.169)"/><path class="e" d="M0,0" transform="translate(1110.11 707.695)"/><path class="e" d="M0,0" transform="translate(1242.567 821.229)"/><path class="e" d="M0,0" transform="translate(232.114 597.946)"/><path class="e" d="M0,0" transform="translate(20.184 514.686)"/><path class="e" d="M0,0" transform="translate(160.209 306.541)"/><path class="e" d="M0,0" transform="translate(220.76 302.758)"/><path class="e" d="M0,0" transform="translate(152.64 230.852)"/><path class="e" d="M0,0" transform="translate(251.036 495.764)"/><path class="e" d="M0,0" transform="translate(1007.929 1351.055)"/></g><g class="d" transform="translate(181.667 104.114)"><path class="e" d="M0,0" transform="translate(1856.128 773.714)"/><path class="e" d="M0,0" transform="translate(1959.851 1146.554)"/><path class="e" d="M0,0" transform="translate(2349.51 843.797)"/><path class="e" d="M0,0" transform="translate(2371.936 678.401)"/><path class="e" d="M0,0" transform="translate(2413.986 700.828)"/><path class="e" d="M0,0" transform="translate(1800.062 1432.492)"/><path class="e" d="M0,0" transform="translate(1763.618 1432.492)"/><path class="e" d="M0,0" transform="translate(886.182 1494.164)"/><path class="e" d="M0,0" transform="translate(919.822 1527.803)"/><path class="e" d="M0,0" transform="translate(2554.152 1583.87)"/><path class="e" d="M0,0" transform="translate(2512.102 1547.428)"/><path class="e" d="M0,0" transform="translate(2377.544 1272.703)"/><path class="e" d="M0,0" transform="translate(2433.61 1331.573)"/><path class="e" d="M0,0" transform="translate(2357.921 1303.54)"/><path class="e" d="M0,0" transform="translate(1536.55 947.519)"/><path class="e" d="M0,0" transform="translate(1561.78 944.716)"/><path class="e" d="M0,0" transform="translate(1110.446 1042.832)"/><path class="e" d="M0,0" transform="translate(1424.417 353.218)"/><path class="e" d="M0,0" transform="translate(2224.902 171.002)"/><path class="e" d="M0,0" transform="translate(1704.749 0)"/><path class="e" d="M0,0" transform="translate(2554.152 546.645)"/><path class="e" d="M0,0" transform="translate(2528.922 527.023)"/><path class="e" d="M0,0" transform="translate(1587.57 1303.82)"/><path class="e" d="M0,0" transform="translate(1617.846 1318.958)"/><path class="e" d="M0,0" transform="translate(1939.526 796.701)"/><path class="e" d="M0,0" transform="translate(1996.293 876.175)"/><path class="e" d="M0,0" transform="translate(2128.749 762.641)"/><path class="e" d="M0,0" transform="translate(1118.297 985.924)"/><path class="e" d="M0,0" transform="translate(906.367 1069.182)"/><path class="e" d="M0,0" transform="translate(1046.392 1277.328)"/><path class="e" d="M0,0" transform="translate(1106.943 1281.112)"/><path class="e" d="M0,0" transform="translate(1038.823 1353.018)"/><path class="e" d="M0,0" transform="translate(1137.219 1088.105)"/><path class="e" d="M0,0" transform="translate(511.583 802.837)"/><path class="e" d="M0,0" transform="translate(544.726 768.709)"/><path class="e" d="M0,0" transform="translate(57.015 585.202)"/><path class="e" d="M0,0" transform="translate(310.994 104.31)"/><path class="e" d="M0,0" transform="translate(0 578.185)"/><path class="e" d="M0,0" transform="translate(86.352 788.875)"/><path class="e" d="M0,0" transform="translate(292.425 645.818)"/><path class="e" d="M0,0" transform="translate(295.323 585.217)"/><path class="e" d="M0,0" transform="translate(368.218 652.277)"/><path class="e" d="M0,0" transform="translate(101.892 557.77)"/><path class="e" d="M0,0" transform="translate(719.577 325.47)"/><path class="e" d="M0,0" transform="translate(674.732 361.373)"/><path class="e" d="M0,0" transform="translate(927.383 199.343)"/><path class="e" d="M0,0" transform="translate(886.04 154.941)"/><path class="e" d="M0,0" transform="translate(984.946 149.616)"/><path class="e" d="M0,0" transform="translate(731.292 274.194)"/><path class="e" d="M0,0" transform="translate(1894.111 232.815)"/></g><g class="f" transform="translate(1053.415 73.835)"><path class="e" d="M0,0" transform="translate(1558.64 949.202)"/><path class="e" d="M0,0" transform="translate(1567.05 909.955)"/><path class="e" d="M0,0" transform="translate(1578.264 929.578)"/><path class="e" d="M0,0" transform="translate(1026.011 828.659)"/><path class="e" d="M0,0" transform="translate(1054.044 831.462)"/><path class="e" d="M0,0" transform="translate(756.894 663.264)"/><path class="e" d="M0,0" transform="translate(804.55 579.165)"/><path class="e" d="M0,0" transform="translate(818.567 604.395)"/><path class="e" d="M0,0" transform="translate(843.797 590.379)"/><path class="e" d="M0,0" transform="translate(50.459 38.126)"/><path class="e" d="M0,0" transform="translate(0 35.323)"/><path class="e" d="M0,0" transform="translate(768.106 206.324)"/><path class="e" d="M0,0" transform="translate(723.253 270.801)"/><path class="e" d="M0,0" transform="translate(832.583 276.407)"/><path class="e" d="M0,0" transform="translate(807.353 422.179)"/><path class="e" d="M0,0" transform="translate(703.631 438.999)"/><path class="e" d="M0,0" transform="translate(768.106 467.032)"/><path class="e" d="M0,0" transform="translate(442.923 458.623)"/><path class="e" d="M0,0" transform="translate(456.94 424.982)"/><path class="e" d="M0,0" transform="translate(490.579 478.246)"/><path class="e" d="M0,0" transform="translate(193.428 573.559)"/><path class="e" d="M0,0" transform="translate(229.871 542.721)"/><path class="e" d="M0,0" transform="translate(243.888 604.395)"/><path class="e" d="M0,0" transform="translate(1177.39 1268.779)"/><path class="e" d="M0,0" transform="translate(1194.21 738.953)"/><path class="e" d="M0,0" transform="translate(1547.427 483.851)"/><path class="e" d="M0,0" transform="translate(1569.853 539.918)"/><path class="e" d="M0,0" transform="translate(1631.527 511.885)"/><path class="e" d="M0,0" transform="translate(1581.067 506.279)"/><path class="e" d="M0,0" transform="translate(1746.461 738.953)"/><path class="e" d="M0,0" transform="translate(1707.216 733.347)"/><path class="e" d="M0,0" transform="translate(1393.245 1013.677)"/><path class="e" d="M0,0" transform="translate(1432.492 1010.875)"/><path class="e" d="M0,0" transform="translate(1351.195 1061.333)"/><path class="e" d="M0,0" transform="translate(1586.673 1179.073)"/><path class="e" d="M0,0" transform="translate(1611.903 1181.876)"/><path class="e" d="M0,0" transform="translate(1620.313 1209.91)"/><path class="e" d="M0,0" transform="translate(1637.133 1137.024)"/><path class="e" d="M0,0" transform="translate(1673.575 1414.551)"/><path class="e" d="M0,0" transform="translate(1628.723 1512.667)"/><path class="e" d="M0,0" transform="translate(1052.643 537.395)"/><path class="e" d="M0,0" transform="translate(1094.272 537.395)"/><path class="e" d="M0,0" transform="translate(1370.538 821.231)"/><path class="e" d="M0,0" transform="translate(1427.305 813.661)"/><path class="e" d="M0,0" transform="translate(1340.262 874.212)"/><path class="e" d="M0,0" transform="translate(1586.254 1377.547)"/><path class="e" d="M0,0" transform="translate(1211.591 261.128)"/><path class="e" d="M0,0" transform="translate(1287.28 219.5)"/><path class="e" d="M0,0" transform="translate(1279.711 321.681)"/><path class="e" d="M0,0" transform="translate(1264.573 261.128)"/><path class="e" d="M0,0" transform="translate(1113.195 90.828)"/><path class="e" d="M0,0" transform="translate(1185.099 0)"/><path class="e" d="M0,0" transform="translate(1457.581 200.578)"/><path class="e" d="M0,0" transform="translate(643.92 1089.928)"/><path class="e" d="M0,0" transform="translate(730.963 1082.359)"/><path class="e" d="M0,0" transform="translate(450.912 1301.858)"/><path class="e" d="M0,0" transform="translate(413.068 1578.125)"/><path class="e" d="M0,0" transform="translate(500.11 1457.021)"/><path class="e" d="M0,0" transform="translate(409.283 1615.968)"/><path class="e" d="M0,0" transform="translate(439.559 1619.754)"/><path class="e" d="M0,0" transform="translate(204.921 1498.651)"/><path class="e" d="M0,0" transform="translate(326.025 1347.271)"/><path class="e" d="M0,0" transform="translate(106.525 1396.469)"/><path class="e" d="M0,0" transform="translate(106.525 953.687)"/><path class="e" d="M0,0" transform="translate(201.137 749.325)"/><path class="e" d="M0,0" transform="translate(1181.315 881.781)"/><path class="e" d="M0,0" transform="translate(1230.513 855.29)"/><path class="e" d="M0,0" transform="translate(1192.668 825.014)"/><path class="e" d="M0,0" transform="translate(976.954 208.147)"/><path class="e" d="M0,0" transform="translate(1109.41 162.732)"/><path class="e" d="M0,0" transform="translate(1173.746 98.396)"/><path class="e" d="M0,0" transform="translate(598.507 158.948)"/></g><g transform="translate(1539.879 11.392)"><path class="c" d="M26.491,13.245A13.245,13.245,0,1,0,13.245,26.491,13.246,13.246,0,0,0,26.491,13.245Z"/><g transform="translate(6.228 6.228)"><path class="g" d="M14.035,7.017a7.017,7.017,0,1,0-7.018,7.018A7.018,7.018,0,0,0,14.035,7.017Z"/></g></g><g transform="translate(1787.086 652.845)"><g transform="translate(0 0)"><path class="c" d="M22.1,11.052A11.052,11.052,0,1,0,11.051,22.105,11.053,11.053,0,0,0,22.1,11.052Z"/></g><g transform="translate(5.197 5.196)"><path class="g" d="M11.71,5.855a5.855,5.855,0,1,0-5.856,5.856A5.856,5.856,0,0,0,11.71,5.855Z"/></g></g><g transform="translate(2244.191 431.468)"><g transform="translate(0 0)"><path class="c" d="M26.491,13.246A13.245,13.245,0,1,0,13.246,26.491,13.246,13.246,0,0,0,26.491,13.246Z"/></g><g transform="translate(6.23 6.228)"><path class="g" d="M14.033,7.018a7.016,7.016,0,1,0-7.017,7.017A7.018,7.018,0,0,0,14.033,7.018Z"/></g></g><g transform="translate(1551.634 403.086)"><path class="c" d="M26.49,13.245A13.245,13.245,0,1,0,13.245,26.491,13.245,13.245,0,0,0,26.49,13.245Z"/><g transform="translate(6.228 6.228)"><circle class="g" cx="7.017" cy="7.017" r="7.017"/></g></g><g transform="translate(1785.566 1002.922)"><g transform="translate(0 0)"><path class="c" d="M26.491,13.246A13.245,13.245,0,1,0,13.245,26.491,13.247,13.247,0,0,0,26.491,13.246Z"/></g><g transform="translate(6.228 6.228)"><path class="g" d="M14.035,7.018a7.017,7.017,0,1,0-7.018,7.017A7.018,7.018,0,0,0,14.035,7.018Z"/></g></g><g transform="translate(2819.431 1036.983)"><g transform="translate(0 0)"><path class="c" d="M26.49,13.246A13.245,13.245,0,1,0,13.245,26.492,13.247,13.247,0,0,0,26.49,13.246Z"/></g><g transform="translate(6.228 6.229)"><circle class="g" cx="7.017" cy="7.017" r="7.017"/></g></g><g transform="translate(2016.335 832.621)"><g transform="translate(0 0)"><path class="c" d="M26.489,13.247A13.245,13.245,0,1,0,13.244,26.493,13.246,13.246,0,0,0,26.489,13.247Z"/></g><g transform="translate(6.228 6.23)"><path class="g" d="M14.033,7.016a7.017,7.017,0,1,0-7.017,7.017A7.016,7.016,0,0,0,14.033,7.016Z"/></g></g><g transform="translate(1445.595 96.08)"><path class="c" d="M34.364,17.182A17.182,17.182,0,1,0,17.181,34.365,17.183,17.183,0,0,0,34.364,17.182Z"/><g transform="translate(8.079 8.079)"><path class="g" d="M18.206,9.1a9.1,9.1,0,1,0-9.1,9.1A9.1,9.1,0,0,0,18.206,9.1Z"/></g></g><g transform="translate(1093.559 175.864)"><path class="c" d="M34.366,17.183A17.183,17.183,0,1,0,17.183,34.366,17.183,17.183,0,0,0,34.366,17.183Z"/><g transform="translate(8.081 8.079)"><path class="g" d="M18.206,9.1a9.1,9.1,0,1,0-9.1,9.1A9.1,9.1,0,0,0,18.206,9.1Z"/></g></g><g transform="translate(2191.056 1214.699)"><path class="c" d="M34.365,17.183A17.183,17.183,0,1,0,17.181,34.366,17.184,17.184,0,0,0,34.365,17.183Z"/><g transform="translate(8.079 8.081)"><path class="g" d="M18.206,9.1a9.1,9.1,0,1,0-9.1,9.1A9.1,9.1,0,0,0,18.206,9.1Z"/></g></g><g transform="translate(2634.746 344.272)"><g transform="translate(0)"><path class="c" d="M34.366,17.184A17.183,17.183,0,1,0,17.182,34.367,17.184,17.184,0,0,0,34.366,17.184Z"/></g><g transform="translate(8.081 8.08)"><path class="g" d="M18.206,9.1a9.1,9.1,0,1,0-9.1,9.1A9.1,9.1,0,0,0,18.206,9.1Z"/></g></g><g transform="translate(2627.294 783.386)"><path class="c" d="M49.272,24.637A24.636,24.636,0,1,0,24.635,49.275,24.637,24.637,0,0,0,49.272,24.637Z"/><g transform="translate(11.584 11.585)"><path class="g" d="M26.1,13.053A13.052,13.052,0,1,0,13.051,26.1,13.053,13.053,0,0,0,26.1,13.053Z"/></g></g><g transform="translate(2035.042 433.322)"><path class="c" d="M49.274,24.637A24.637,24.637,0,1,0,24.637,49.276,24.638,24.638,0,0,0,49.274,24.637Z"/><g transform="translate(11.586 11.587)"><path class="g" d="M26.1,13.051A13.052,13.052,0,1,0,13.051,26.1,13.052,13.052,0,0,0,26.1,13.051Z"/></g></g><g transform="translate(2717.665 1290.504)"><g transform="translate(0)"><path class="c" d="M49.273,24.637A24.637,24.637,0,1,0,24.637,49.275,24.637,24.637,0,0,0,49.273,24.637Z"/></g><g transform="translate(11.586 11.587)"><path class="g" d="M26.1,13.051A13.052,13.052,0,1,0,13.051,26.1,13.052,13.052,0,0,0,26.1,13.051Z"/></g></g><g transform="translate(2379.41)"><path class="c" d="M49.273,24.637A24.637,24.637,0,1,0,24.635,49.276,24.638,24.638,0,0,0,49.273,24.637Z"/><g transform="translate(11.584 11.586)"><path class="g" d="M26.1,13.052A13.052,13.052,0,1,0,13.052,26.1,13.053,13.053,0,0,0,26.1,13.052Z"/></g></g><path class="c" d="M325.464,147.593,0,345.92,382.838,0" transform="translate(557.603 24.639)"/><path class="c" d="M194.269,345.92,0,147.593,577.107,0,519.733,147.593" transform="translate(363.334 24.639)"/><path class="c" d="M0,0,191.772,255.521,363.334,147.594,0,0" transform="translate(0 24.638)"/><line class="c" x1="355.74" y2="147.591" transform="translate(363.334 24.641)"/><path class="c" d="M0,147.4,98.4,0l35.322,79.474Z" transform="translate(277.553 384.259)"/><path class="c" d="M78.212,210.248,0,14.577,189.223,0Z" transform="translate(574.003 494.613)"/><path class="c" d="M0,118.3,42.891,39.61,0,0Z" transform="translate(88.329 339.028)"/></g></g></svg>