<svg xmlns="http://www.w3.org/2000/svg" width="111.711" height="149.64" viewBox="0 0 111.711 149.64">
  <g id="Grupo_5966" data-name="Grupo 5966" transform="translate(-1523.824 -4808.398)">
    <g id="Grupo_5520" data-name="Grupo 5520" transform="translate(1523.824 4808.398)">
      <g id="Grupo_5519" data-name="Grupo 5519">
        <path id="Trazado_6738" data-name="Trazado 6738" d="M3783.985-885.731a6.747,6.747,0,0,1-4.757-1.943c-8.318-8.164-49.812-50.994-49.812-92.538a53.064,53.064,0,0,1,28.816-47.031,56.39,56.39,0,0,1,26-6.342c19.857,0,38.018,10.171,47.39,26.546,5.122,8.95,7.722,17.813,7.722,26.34,0,40.411-35.444,78.567-50.682,93.095a6.745,6.745,0,0,1-4.678,1.873Z" transform="translate(-3728.525 1034.478)" fill="#007473"/>
        <path id="Trazado_6739" data-name="Trazado 6739" d="M3784.58-1032.347c18.8,0,37.064,9.414,46.614,26.1,4.808,8.4,7.6,17.126,7.6,25.9,0,39.3-33.586,76.415-50.4,92.45a5.866,5.866,0,0,1-4.063,1.626,5.889,5.889,0,0,1-4.133-1.688c-16.7-16.4-49.542-55.514-49.542-91.9a52,52,0,0,1,28.337-46.241,55.212,55.212,0,0,1,25.587-6.241m0-1.785a57.279,57.279,0,0,0-26.414,6.445,53.948,53.948,0,0,0-29.3,47.821c0,16.275,6.319,34.578,18.781,54.4a224.522,224.522,0,0,0,31.3,38.777,7.637,7.637,0,0,0,5.382,2.2,7.642,7.642,0,0,0,5.3-2.119c15.32-14.608,50.956-52.986,50.956-93.742,0-8.684-2.639-17.7-7.839-26.783-9.531-16.652-27.986-27-48.163-27Z" transform="translate(-3728.871 1034.132)" fill="#fff"/>
      </g>
    </g>
    <g id="Grupo_5526" data-name="Grupo 5526" transform="translate(1548.905 4837.51)" style="isolation: isolate">
      <g id="Grupo_5523" data-name="Grupo 5523">
        <g id="Grupo_5521" data-name="Grupo 5521">
          <path id="Trazado_6740" data-name="Trazado 6740" d="M3771.1-978.886a10.717,10.717,0,0,1,3.78-1.143l-11.873-34.906a2.015,2.015,0,0,0-1.909-1.368h-14.851a2.017,2.017,0,0,0-2.016,2.017v55.128a2.017,2.017,0,0,0,2.016,2.017h8.148a2.017,2.017,0,0,0,2.017-2.017v-39.495h.166l9.255,26.5A10.277,10.277,0,0,1,3771.1-978.886Z" transform="translate(-3744.231 1016.304)" fill="#fff"/>
        </g>
        <g id="Grupo_5522" data-name="Grupo 5522" transform="translate(33.703)">
          <path id="Trazado_6741" data-name="Trazado 6741" d="M3794.838-1014.206a2.1,2.1,0,0,0-2.1-2.1h-14.694a2.018,2.018,0,0,0-1.919,1.4l-11.254,34.972a10.31,10.31,0,0,1,7.229,4.961,11.4,11.4,0,0,1,1.151,2.764l9.29-26.861h.114v39.91a2.017,2.017,0,0,0,2.017,2.017h8.114a2.1,2.1,0,0,0,2.1-2.1Z" transform="translate(-3764.871 1016.304)" fill="#fff"/>
        </g>
      </g>
      <g id="Grupo_5525" data-name="Grupo 5525" transform="translate(23.274 38.157)">
        <g id="Grupo_5524" data-name="Grupo 5524">
          <path id="Trazado_6742" data-name="Trazado 6742" d="M3774.449-988.793a8.685,8.685,0,0,0-11.465-3.151,8.255,8.255,0,0,0-4.5,7.342c0,5.779,5.214,11.99,7.867,14.593a.934.934,0,0,0,1.3.01c2.67-2.546,8-8.439,8-14.68A8.318,8.318,0,0,0,3774.449-988.793Zm-3.544,6.69a4.424,4.424,0,0,1-4.572,2.16,4.413,4.413,0,0,1-3.6-3.5,4.429,4.429,0,0,1,5.2-5.206,4.415,4.415,0,0,1,3.49,3.563A4.431,4.431,0,0,1,3770.905-982.1Z" transform="translate(-3758.484 992.936)" fill="#fff"/>
        </g>
      </g>
    </g>
  </g>
</svg>
