<svg xmlns="http://www.w3.org/2000/svg" width="111.712" height="149.639" viewBox="0 0 111.712 149.639">
  <g id="Grupo_5965" data-name="Grupo 5965" transform="translate(-285.141 -5955.113)">
    <g id="Grupo_5513" data-name="Grupo 5513" transform="translate(285.141 5955.113)">
      <g id="Grupo_5512" data-name="Grupo 5512">
        <path id="Trazado_6733" data-name="Trazado 6733" d="M3025.406-183.473a6.747,6.747,0,0,1-4.756-1.945c-8.318-8.163-49.812-50.991-49.812-92.538a53.06,53.06,0,0,1,28.817-47.029,56.366,56.366,0,0,1,26-6.344c19.858,0,38.016,10.173,47.39,26.548,5.121,8.95,7.72,17.812,7.72,26.34,0,40.411-35.444,78.567-50.682,93.095a6.747,6.747,0,0,1-4.678,1.873Z" transform="translate(-2969.947 332.221)" fill="#007473"/>
        <path id="Trazado_6734" data-name="Trazado 6734" d="M3026-330.092c18.8,0,37.064,9.414,46.615,26.1,4.807,8.4,7.6,17.126,7.6,25.9,0,39.3-33.586,76.413-50.4,92.45a5.868,5.868,0,0,1-4.062,1.625,5.877,5.877,0,0,1-4.131-1.688c-16.707-16.4-49.544-55.512-49.544-91.9a52,52,0,0,1,28.337-46.239A55.194,55.194,0,0,1,3026-330.092m0-1.783a57.274,57.274,0,0,0-26.414,6.443,53.952,53.952,0,0,0-29.3,47.821c0,16.277,6.32,34.578,18.78,54.4a224.72,224.72,0,0,0,31.3,38.776,7.638,7.638,0,0,0,5.382,2.2,7.643,7.643,0,0,0,5.3-2.12C3046.367-198.964,3082-237.34,3082-278.1c0-8.685-2.637-17.7-7.84-26.784-9.531-16.651-27.986-27-48.163-27Z" transform="translate(-2970.291 331.875)" fill="#fff"/>
      </g>
    </g>
    <path id="Trazado_6735" data-name="Trazado 6735" d="M3058.133-280.92h-34.067l22.689,22.688a2.3,2.3,0,0,0,3.186.1,34.38,34.38,0,0,0,10.5-20.222,2.3,2.3,0,0,0-2.306-2.564Zm-2.273-9.3a34.538,34.538,0,0,0-32.038-32.039,2.311,2.311,0,0,0-2.412,2.327v32.124h32.126a2.307,2.307,0,0,0,2.324-2.412Zm-41.34,9.3v-34.067a2.3,2.3,0,0,0-2.562-2.306,34.431,34.431,0,0,0-29.577,35.277c.625,18.4,16.464,33.483,34.871,33.252a34.186,34.186,0,0,0,19.418-6.321,2.281,2.281,0,0,0,.225-3.457Z" transform="translate(-2677.511 6293.069)" fill="#fff" style="isolation: isolate"/>
  </g>
</svg>
